<svg width="113" height="91" viewBox="0 0 113 91" fill="none" xmlns="http://www.w3.org/2000/svg">
<path d="M39.375 45.25C45.7031 45.1328 51.0352 42.9648 55.3711 38.7461C59.5898 34.4102 61.7578 29.0781 61.875 22.75C61.7578 16.4219 59.5898 11.0898 55.3711 6.75391C51.0352 2.53516 45.7031 0.367188 39.375 0.25C33.0469 0.367188 27.7148 2.53516 23.3789 6.75391C19.1602 11.0898 16.9922 16.4219 16.875 22.75C16.9922 29.0781 19.1602 34.4102 23.3789 38.7461C27.7148 42.9648 33.0469 45.1328 39.375 45.25ZM39.375 8.6875C43.3594 8.80469 46.6992 10.1523 49.3945 12.7305C51.9727 15.4258 53.3203 18.7656 53.4375 22.75C53.3203 26.7344 51.9727 30.0742 49.3945 32.7695C46.6992 35.3477 43.3594 36.6953 39.375 36.8125C35.3906 36.6953 32.0508 35.3477 29.3555 32.7695C26.7773 30.0742 25.4297 26.7344 25.3125 22.75C25.4297 18.7656 26.7773 15.4258 29.3555 12.7305C32.0508 10.1523 35.3906 8.80469 39.375 8.6875ZM48.3398 53.6875H30.4102C21.8555 53.9219 14.707 56.9102 8.96484 62.6523C3.22266 68.3945 0.234375 75.543 0 84.0977C0 85.8555 0.585938 87.3203 1.75781 88.4922C2.92969 89.6641 4.39453 90.25 6.15234 90.25H72.5977C74.3555 90.25 75.8203 89.6641 76.9922 88.4922C78.1641 87.3203 78.75 85.8555 78.75 84.0977C78.5156 75.543 75.5273 68.3945 69.7852 62.6523C64.043 56.9102 56.8945 53.9219 48.3398 53.6875ZM8.61328 81.8125C9.31641 76.1875 11.6602 71.5 15.6445 67.75C19.7461 64.1172 24.668 62.2422 30.4102 62.125H48.3398C54.082 62.2422 58.9453 64.1172 62.9297 67.75C67.0312 71.5 69.4336 76.1875 70.1367 81.8125H8.61328ZM108.281 35.4062H99.8438V26.9688C99.6094 24.3906 98.2031 22.9844 95.625 22.75C93.0469 22.9844 91.6406 24.3906 91.4062 26.9688V35.4062H82.9688C80.3906 35.6406 78.9844 37.0469 78.75 39.625C78.9844 42.2031 80.3906 43.6094 82.9688 43.8438H91.4062V52.2812C91.6406 54.8594 93.0469 56.2656 95.625 56.5C98.2031 56.2656 99.6094 54.8594 99.8438 52.2812V43.8438H108.281C110.859 43.6094 112.266 42.2031 112.5 39.625C112.266 37.0469 110.859 35.6406 108.281 35.4062Z" fill="#2E3032"/>
</svg>
