<svg width="10" height="14" viewBox="0 0 10 14" fill="none" xmlns="http://www.w3.org/2000/svg">
<path d="M8.278 13.592L8.762 13.108C8.96733 12.9027 9.07 12.6533 9.07 12.36C9.07 12.052 8.96733 11.7953 8.762 11.59L5.242 8.07C5.022 7.85 4.912 7.59333 4.912 7.3C4.912 7.00667 5.022 6.75 5.242 6.53L8.762 3.01C8.96733 2.80467 9.07 2.55533 9.07 2.262C9.07 1.954 8.96733 1.69733 8.762 1.492L8.278 1.008C8.07267 0.802666 7.816 0.699999 7.508 0.699999C7.21467 0.699999 6.96533 0.802666 6.76 1.008L1.238 6.53C1.03267 6.76467 0.930001 7.02867 0.930001 7.322C0.930001 7.61533 1.03267 7.86467 1.238 8.07L6.76 13.592C6.96533 13.7973 7.21467 13.9 7.508 13.9C7.816 13.9 8.07267 13.7973 8.278 13.592Z" fill="black"/>
</svg>
