<svg width="7" height="11" viewBox="0 0 7 11" fill="none" xmlns="http://www.w3.org/2000/svg">
<path d="M5.25 11C5.48698 11 5.69661 10.918 5.87891 10.7539C6.04297 10.5716 6.125 10.362 6.125 10.125C6.125 9.88802 6.04297 9.67839 5.87891 9.49609L2.10547 5.75L5.87891 2.00391C6.04297 1.82161 6.125 1.61198 6.125 1.375C6.125 1.13802 6.04297 0.928385 5.87891 0.746094C5.69661 0.582031 5.48698 0.5 5.25 0.5C5.01302 0.5 4.80339 0.582031 4.62109 0.746094L0.246094 5.12109C0.0820312 5.30339 0 5.51302 0 5.75C0 5.98698 0.0820312 6.19661 0.246094 6.37891L4.62109 10.7539C4.80339 10.918 5.01302 11 5.25 11Z" fill="#191919"/>
</svg>
