<svg width="24" height="24" viewBox="0 0 24 24" fill="none" xmlns="http://www.w3.org/2000/svg">
<path d="M22.7812 16.2188C22.125 16 21.6406 16.2031 21.3281 16.8281C21.1719 17.2344 21.2188 17.5938 21.4688 17.9062L11.9531 21.75L2.53125 17.9062C2.78125 17.5938 2.82812 17.2344 2.67188 16.8281C2.35938 16.2031 1.875 16 1.21875 16.2188C0.4375 16.5312 0.03125 17.125 0 18C0.03125 18.8438 0.4375 19.4375 1.21875 19.7812L11.1562 23.8594C11.4375 23.9531 11.7031 24 11.9531 24C12.2656 24 12.5625 23.9375 12.8438 23.8125L22.7344 19.7812C23.5469 19.4062 23.9688 18.8125 24 18C23.9688 17.125 23.5625 16.5312 22.7812 16.2188ZM22.7812 10.2188L12.8906 6.1875C12.2969 5.9375 11.7031 5.9375 11.1094 6.1875L1.21875 10.2188C0.4375 10.5312 0.03125 11.125 0 12C0.03125 12.8438 0.4375 13.4375 1.21875 13.7812L11.1562 17.8594C11.4062 17.9531 11.6875 18 12 18C12.3125 18 12.6094 17.9375 12.8906 17.8125L22.7812 13.7812C23.5625 13.4062 23.9688 12.8125 24 12C23.9688 11.125 23.5625 10.5312 22.7812 10.2188ZM11.9531 15.7031L2.76562 12L12.0469 8.25L21.2344 11.9531L11.9531 15.7031ZM17.5781 4.875H19.125V6.32812C19.1875 7.04687 19.5625 7.4375 20.25 7.5C20.9375 7.4375 21.3125 7.07812 21.375 6.42188V4.875H22.875C23.5625 4.8125 23.9375 4.45312 24 3.79688C24 3.48437 23.8906 3.21875 23.6719 3C23.4531 2.75 23.1875 2.625 22.875 2.625H21.375V1.07812C21.3125 0.421875 20.9375 0.0625 20.25 0C19.5625 0.0625 19.1875 0.421875 19.125 1.07812V2.625H17.625C16.9375 2.6875 16.5625 3.04688 16.5 3.70312C16.5 4.01563 16.6094 4.28125 16.8281 4.5C17.0469 4.75 17.2969 4.875 17.5781 4.875Z" fill="black"/>
</svg>
