<svg width="285" height="389" viewBox="0 0 285 389" fill="none" xmlns="http://www.w3.org/2000/svg">
<path d="M138 133.25C142 126.25 147 120.25 153 115.25C160.333 109.25 168.75 105.417 178.25 103.75C187.917 101.917 197.417 102.417 206.75 105.25C216.083 107.917 224.083 112.667 230.75 119.5C246.417 135.667 251 155 244.5 177.5C240.5 192 232.167 207 219.5 222.5C203.5 241.667 182.25 259.583 155.75 276.25C150.75 279.417 145.417 282.583 139.75 285.75C139.417 286.083 138.917 286.25 138.25 286.25C137.583 286.25 137.083 286.167 136.75 286C106.083 268.5 81.4167 249.583 62.75 229.25C48.75 214.417 38.8333 198.75 33 182.25C27.3333 165.75 27.4167 150.75 33.25 137.25C37.5833 127.75 43.4167 120.167 50.75 114.5C58.25 108.667 67.1667 105 77.5 103.5C103.667 100 123.667 109.667 137.5 132.5L138 133.25Z" fill="#FF3F3F"/>
<ellipse cx="113.5" cy="175.5" rx="8.5" ry="14.5" fill="white"/>
<ellipse cx="161.5" cy="175.5" rx="8.5" ry="14.5" fill="white"/>
<path d="M107 229.036C111.5 214.232 148 192.532 171 229.038" stroke="white" stroke-width="7" stroke-linecap="round"/>
<path d="M2.40602 335.8L6.70602 343.2L11.046 335.8H13.006L7.60602 344.82V350H5.80602V344.78L0.426016 335.8H2.40602ZM17.4351 350.2C16.6484 350.2 15.9351 350.06 15.2951 349.78C14.6551 349.487 14.1017 349.093 13.6351 348.6C13.1684 348.093 12.8084 347.513 12.5551 346.86C12.3017 346.207 12.1751 345.52 12.1751 344.8C12.1751 344.067 12.3017 343.373 12.5551 342.72C12.8084 342.067 13.1684 341.493 13.6351 341C14.1017 340.493 14.6551 340.1 15.2951 339.82C15.9484 339.527 16.6684 339.38 17.4551 339.38C18.2284 339.38 18.9351 339.527 19.5751 339.82C20.2151 340.1 20.7684 340.493 21.2351 341C21.7151 341.493 22.0817 342.067 22.3351 342.72C22.5884 343.373 22.7151 344.067 22.7151 344.8C22.7151 345.52 22.5884 346.207 22.3351 346.86C22.0817 347.513 21.7217 348.093 21.2551 348.6C20.7884 349.093 20.2284 349.487 19.5751 349.78C18.9351 350.06 18.2217 350.2 17.4351 350.2ZM13.9751 344.82C13.9751 345.54 14.1284 346.193 14.4351 346.78C14.7551 347.367 15.1751 347.833 15.6951 348.18C16.2151 348.513 16.7951 348.68 17.4351 348.68C18.0751 348.68 18.6551 348.507 19.1751 348.16C19.7084 347.813 20.1284 347.347 20.4351 346.76C20.7551 346.16 20.9151 345.5 20.9151 344.78C20.9151 344.06 20.7551 343.407 20.4351 342.82C20.1284 342.233 19.7084 341.767 19.1751 341.42C18.6551 341.073 18.0751 340.9 17.4351 340.9C16.7951 340.9 16.2151 341.08 15.6951 341.44C15.1751 341.787 14.7551 342.253 14.4351 342.84C14.1284 343.427 13.9751 344.087 13.9751 344.82ZM24.7477 345.82V339.56H26.5077V345.48C26.5077 346.547 26.6944 347.347 27.0677 347.88C27.4411 348.413 27.9944 348.68 28.7277 348.68C29.2077 348.68 29.6677 348.58 30.1077 348.38C30.5611 348.167 30.9677 347.867 31.3277 347.48C31.6877 347.093 31.9677 346.633 32.1677 346.1V339.56H33.9277V348C33.9277 348.213 33.9677 348.373 34.0477 348.48C34.1411 348.573 34.2877 348.627 34.4877 348.64V350C34.2877 350.027 34.1277 350.04 34.0077 350.04C33.9011 350.053 33.7944 350.06 33.6877 350.06C33.3544 350.06 33.0677 349.96 32.8277 349.76C32.5877 349.547 32.4611 349.287 32.4477 348.98L32.4077 347.76C31.9544 348.533 31.3411 349.133 30.5677 349.56C29.8077 349.987 28.9744 350.2 28.0677 350.2C26.9744 350.2 26.1477 349.833 25.5877 349.1C25.0277 348.353 24.7477 347.26 24.7477 345.82ZM42.198 350V335.8H47.118C48.638 335.8 49.9047 336.12 50.918 336.76C51.9447 337.387 52.7114 338.24 53.218 339.32C53.7247 340.387 53.978 341.573 53.978 342.88C53.978 344.32 53.698 345.573 53.138 346.64C52.578 347.707 51.7847 348.533 50.758 349.12C49.7314 349.707 48.518 350 47.118 350H42.198ZM52.158 342.88C52.158 341.813 51.958 340.867 51.558 340.04C51.1714 339.213 50.6047 338.567 49.858 338.1C49.1114 337.633 48.198 337.4 47.118 337.4H43.998V348.4H47.118C48.2114 348.4 49.1314 348.16 49.878 347.68C50.6247 347.187 51.1914 346.527 51.578 345.7C51.9647 344.86 52.158 343.92 52.158 342.88ZM60.7945 350.2C60.0078 350.2 59.2945 350.06 58.6545 349.78C58.0145 349.487 57.4611 349.093 56.9945 348.6C56.5278 348.093 56.1678 347.513 55.9145 346.86C55.6611 346.207 55.5345 345.52 55.5345 344.8C55.5345 344.067 55.6611 343.373 55.9145 342.72C56.1678 342.067 56.5278 341.493 56.9945 341C57.4611 340.493 58.0145 340.1 58.6545 339.82C59.3078 339.527 60.0278 339.38 60.8145 339.38C61.5878 339.38 62.2945 339.527 62.9345 339.82C63.5745 340.1 64.1278 340.493 64.5945 341C65.0745 341.493 65.4411 342.067 65.6945 342.72C65.9478 343.373 66.0745 344.067 66.0745 344.8C66.0745 345.52 65.9478 346.207 65.6945 346.86C65.4411 347.513 65.0811 348.093 64.6145 348.6C64.1478 349.093 63.5878 349.487 62.9345 349.78C62.2945 350.06 61.5811 350.2 60.7945 350.2ZM57.3345 344.82C57.3345 345.54 57.4878 346.193 57.7945 346.78C58.1145 347.367 58.5345 347.833 59.0545 348.18C59.5745 348.513 60.1545 348.68 60.7945 348.68C61.4345 348.68 62.0145 348.507 62.5345 348.16C63.0678 347.813 63.4878 347.347 63.7945 346.76C64.1145 346.16 64.2745 345.5 64.2745 344.78C64.2745 344.06 64.1145 343.407 63.7945 342.82C63.4878 342.233 63.0678 341.767 62.5345 341.42C62.0145 341.073 61.4345 340.9 60.7945 340.9C60.1545 340.9 59.5745 341.08 59.0545 341.44C58.5345 341.787 58.1145 342.253 57.7945 342.84C57.4878 343.427 57.3345 344.087 57.3345 344.82ZM77.2671 350H75.5071V344.16C75.5071 343.053 75.3338 342.247 74.9871 341.74C74.6538 341.22 74.1404 340.96 73.4471 340.96C72.9671 340.96 72.4871 341.08 72.0071 341.32C71.5404 341.56 71.1204 341.887 70.7471 342.3C70.3871 342.7 70.1271 343.167 69.9671 343.7V350H68.2071V339.56H69.8071V341.8C70.0871 341.307 70.4471 340.88 70.8871 340.52C71.3271 340.16 71.8271 339.88 72.3871 339.68C72.9471 339.48 73.5338 339.38 74.1471 339.38C74.7471 339.38 75.2471 339.493 75.6471 339.72C76.0604 339.933 76.3804 340.24 76.6071 340.64C76.8471 341.027 77.0138 341.487 77.1071 342.02C77.2138 342.553 77.2671 343.133 77.2671 343.76V350ZM78.7345 339.98L79.1345 337.68H78.5345V335.4H80.1945V337.68L79.5945 339.98H78.7345ZM87.2595 349.48C87.1128 349.547 86.9128 349.633 86.6595 349.74C86.4061 349.847 86.1128 349.94 85.7795 350.02C85.4461 350.1 85.0928 350.14 84.7195 350.14C84.2928 350.14 83.8995 350.067 83.5395 349.92C83.1795 349.76 82.8928 349.52 82.6795 349.2C82.4661 348.867 82.3595 348.453 82.3595 347.96V340.94H80.9395V339.56H82.3595V336.08H84.1195V339.56H86.4595V340.94H84.1195V347.42C84.1461 347.793 84.2728 348.073 84.4995 348.26C84.7261 348.433 84.9928 348.52 85.2995 348.52C85.6461 348.52 85.9661 348.46 86.2595 348.34C86.5528 348.22 86.7461 348.133 86.8395 348.08L87.2595 349.48ZM103.009 350H101.249V344.16C101.249 343.093 101.056 342.293 100.669 341.76C100.296 341.227 99.756 340.96 99.0493 340.96C98.596 340.96 98.136 341.08 97.6693 341.32C97.216 341.56 96.816 341.887 96.4693 342.3C96.1226 342.7 95.8693 343.167 95.7093 343.7V350H93.9493V335.4H95.7093V341.8C96.1226 341.053 96.6826 340.467 97.3893 340.04C98.1093 339.6 98.8826 339.38 99.7093 339.38C100.336 339.38 100.856 339.493 101.269 339.72C101.696 339.933 102.036 340.24 102.289 340.64C102.543 341.04 102.723 341.507 102.829 342.04C102.949 342.56 103.009 343.133 103.009 343.76V350ZM104.926 346.98C104.926 346.313 105.113 345.74 105.486 345.26C105.873 344.767 106.4 344.387 107.066 344.12C107.733 343.853 108.506 343.72 109.386 343.72C109.853 343.72 110.346 343.76 110.866 343.84C111.386 343.907 111.846 344.013 112.246 344.16V343.4C112.246 342.6 112.006 341.973 111.526 341.52C111.046 341.053 110.366 340.82 109.486 340.82C108.913 340.82 108.36 340.927 107.826 341.14C107.306 341.34 106.753 341.633 106.166 342.02L105.526 340.78C106.206 340.313 106.886 339.967 107.566 339.74C108.246 339.5 108.953 339.38 109.686 339.38C111.02 339.38 112.073 339.753 112.846 340.5C113.62 341.233 114.006 342.26 114.006 343.58V348C114.006 348.213 114.046 348.373 114.126 348.48C114.22 348.573 114.366 348.627 114.566 348.64V350C114.393 350.027 114.24 350.047 114.106 350.06C113.986 350.073 113.886 350.08 113.806 350.08C113.393 350.08 113.08 349.967 112.866 349.74C112.666 349.513 112.553 349.273 112.526 349.02L112.486 348.36C112.033 348.947 111.44 349.4 110.706 349.72C109.973 350.04 109.246 350.2 108.526 350.2C107.833 350.2 107.213 350.06 106.666 349.78C106.12 349.487 105.693 349.1 105.386 348.62C105.08 348.127 104.926 347.58 104.926 346.98ZM111.726 347.72C111.886 347.533 112.013 347.347 112.106 347.16C112.2 346.96 112.246 346.793 112.246 346.66V345.36C111.833 345.2 111.4 345.08 110.946 345C110.493 344.907 110.046 344.86 109.606 344.86C108.713 344.86 107.986 345.04 107.426 345.4C106.88 345.747 106.606 346.227 106.606 346.84C106.606 347.173 106.693 347.5 106.866 347.82C107.053 348.127 107.32 348.38 107.666 348.58C108.026 348.78 108.466 348.88 108.986 348.88C109.533 348.88 110.053 348.773 110.546 348.56C111.04 348.333 111.433 348.053 111.726 347.72ZM119.488 350L115.388 339.56H117.228L120.508 348.32L123.788 339.56H125.508L121.408 350H119.488ZM131.538 350.2C130.751 350.2 130.031 350.06 129.378 349.78C128.738 349.487 128.178 349.093 127.698 348.6C127.231 348.093 126.865 347.513 126.598 346.86C126.345 346.207 126.218 345.513 126.218 344.78C126.218 343.793 126.445 342.893 126.898 342.08C127.351 341.267 127.978 340.613 128.778 340.12C129.591 339.627 130.518 339.38 131.558 339.38C132.611 339.38 133.525 339.633 134.298 340.14C135.085 340.633 135.691 341.287 136.118 342.1C136.558 342.9 136.778 343.767 136.778 344.7C136.778 344.833 136.771 344.967 136.758 345.1C136.758 345.22 136.751 345.313 136.738 345.38H128.078C128.131 346.06 128.318 346.667 128.638 347.2C128.971 347.72 129.398 348.133 129.918 348.44C130.438 348.733 130.998 348.88 131.598 348.88C132.238 348.88 132.838 348.72 133.398 348.4C133.971 348.08 134.365 347.66 134.578 347.14L136.098 347.56C135.871 348.067 135.531 348.52 135.078 348.92C134.638 349.32 134.111 349.633 133.498 349.86C132.898 350.087 132.245 350.2 131.538 350.2ZM128.018 344.16H135.138C135.085 343.48 134.891 342.88 134.558 342.36C134.225 341.84 133.798 341.433 133.278 341.14C132.758 340.847 132.185 340.7 131.558 340.7C130.945 340.7 130.378 340.847 129.858 341.14C129.338 341.433 128.911 341.84 128.578 342.36C128.258 342.88 128.071 343.48 128.018 344.16ZM142.973 346.98C142.973 346.313 143.16 345.74 143.533 345.26C143.92 344.767 144.446 344.387 145.113 344.12C145.78 343.853 146.553 343.72 147.433 343.72C147.9 343.72 148.393 343.76 148.913 343.84C149.433 343.907 149.893 344.013 150.293 344.16V343.4C150.293 342.6 150.053 341.973 149.573 341.52C149.093 341.053 148.413 340.82 147.533 340.82C146.96 340.82 146.406 340.927 145.873 341.14C145.353 341.34 144.8 341.633 144.213 342.02L143.573 340.78C144.253 340.313 144.933 339.967 145.613 339.74C146.293 339.5 147 339.38 147.733 339.38C149.066 339.38 150.12 339.753 150.893 340.5C151.666 341.233 152.053 342.26 152.053 343.58V348C152.053 348.213 152.093 348.373 152.173 348.48C152.266 348.573 152.413 348.627 152.613 348.64V350C152.44 350.027 152.286 350.047 152.153 350.06C152.033 350.073 151.933 350.08 151.853 350.08C151.44 350.08 151.126 349.967 150.913 349.74C150.713 349.513 150.6 349.273 150.573 349.02L150.533 348.36C150.08 348.947 149.486 349.4 148.753 349.72C148.02 350.04 147.293 350.2 146.573 350.2C145.88 350.2 145.26 350.06 144.713 349.78C144.166 349.487 143.74 349.1 143.433 348.62C143.126 348.127 142.973 347.58 142.973 346.98ZM149.773 347.72C149.933 347.533 150.06 347.347 150.153 347.16C150.246 346.96 150.293 346.793 150.293 346.66V345.36C149.88 345.2 149.446 345.08 148.993 345C148.54 344.907 148.093 344.86 147.653 344.86C146.76 344.86 146.033 345.04 145.473 345.4C144.926 345.747 144.653 346.227 144.653 346.84C144.653 347.173 144.74 347.5 144.913 347.82C145.1 348.127 145.366 348.38 145.713 348.58C146.073 348.78 146.513 348.88 147.033 348.88C147.58 348.88 148.1 348.773 148.593 348.56C149.086 348.333 149.48 348.053 149.773 347.72ZM163.927 350H162.167V344.16C162.167 343.053 161.994 342.247 161.647 341.74C161.314 341.22 160.801 340.96 160.107 340.96C159.627 340.96 159.147 341.08 158.667 341.32C158.201 341.56 157.781 341.887 157.407 342.3C157.047 342.7 156.787 343.167 156.627 343.7V350H154.867V339.56H156.467V341.8C156.747 341.307 157.107 340.88 157.547 340.52C157.987 340.16 158.487 339.88 159.047 339.68C159.607 339.48 160.194 339.38 160.807 339.38C161.407 339.38 161.907 339.493 162.307 339.72C162.721 339.933 163.041 340.24 163.267 340.64C163.507 341.027 163.674 341.487 163.767 342.02C163.874 342.553 163.927 343.133 163.927 343.76V350ZM166.949 352.84C167.122 352.853 167.295 352.867 167.469 352.88C167.642 352.907 167.775 352.92 167.869 352.92C168.082 352.92 168.269 352.847 168.429 352.7C168.589 352.553 168.762 352.267 168.949 351.84C169.149 351.427 169.402 350.813 169.709 350L165.289 339.56H167.149L170.669 348.22L173.849 339.56H175.589L170.509 352.74C170.389 353.047 170.209 353.333 169.969 353.6C169.742 353.88 169.449 354.1 169.089 354.26C168.729 354.42 168.295 354.5 167.789 354.5C167.669 354.5 167.542 354.493 167.409 354.48C167.289 354.467 167.135 354.44 166.949 354.4V352.84ZM182.439 350V340.94H181.019V339.56H182.439V339.34C182.439 338.487 182.566 337.753 182.819 337.14C183.086 336.513 183.459 336.033 183.939 335.7C184.419 335.367 184.986 335.2 185.639 335.2C186.052 335.2 186.459 335.26 186.859 335.38C187.259 335.487 187.619 335.64 187.939 335.84L187.499 337.14C187.312 337.007 187.079 336.9 186.799 336.82C186.532 336.74 186.266 336.7 185.999 336.7C185.426 336.7 184.979 336.927 184.659 337.38C184.352 337.82 184.199 338.453 184.199 339.28V339.56H186.979V340.94H184.199V350H182.439ZM187.914 346.98C187.914 346.313 188.101 345.74 188.474 345.26C188.861 344.767 189.388 344.387 190.054 344.12C190.721 343.853 191.494 343.72 192.374 343.72C192.841 343.72 193.334 343.76 193.854 343.84C194.374 343.907 194.834 344.013 195.234 344.16V343.4C195.234 342.6 194.994 341.973 194.514 341.52C194.034 341.053 193.354 340.82 192.474 340.82C191.901 340.82 191.348 340.927 190.814 341.14C190.294 341.34 189.741 341.633 189.154 342.02L188.514 340.78C189.194 340.313 189.874 339.967 190.554 339.74C191.234 339.5 191.941 339.38 192.674 339.38C194.008 339.38 195.061 339.753 195.834 340.5C196.608 341.233 196.994 342.26 196.994 343.58V348C196.994 348.213 197.034 348.373 197.114 348.48C197.208 348.573 197.354 348.627 197.554 348.64V350C197.381 350.027 197.228 350.047 197.094 350.06C196.974 350.073 196.874 350.08 196.794 350.08C196.381 350.08 196.068 349.967 195.854 349.74C195.654 349.513 195.541 349.273 195.514 349.02L195.474 348.36C195.021 348.947 194.428 349.4 193.694 349.72C192.961 350.04 192.234 350.2 191.514 350.2C190.821 350.2 190.201 350.06 189.654 349.78C189.108 349.487 188.681 349.1 188.374 348.62C188.068 348.127 187.914 347.58 187.914 346.98ZM194.714 347.72C194.874 347.533 195.001 347.347 195.094 347.16C195.188 346.96 195.234 346.793 195.234 346.66V345.36C194.821 345.2 194.388 345.08 193.934 345C193.481 344.907 193.034 344.86 192.594 344.86C191.701 344.86 190.974 345.04 190.414 345.4C189.868 345.747 189.594 346.227 189.594 346.84C189.594 347.173 189.681 347.5 189.854 347.82C190.041 348.127 190.308 348.38 190.654 348.58C191.014 348.78 191.454 348.88 191.974 348.88C192.521 348.88 193.041 348.773 193.534 348.56C194.028 348.333 194.421 348.053 194.714 347.72ZM202.477 350L198.377 339.56H200.217L203.497 348.32L206.777 339.56H208.497L204.397 350H202.477ZM214.466 350.2C213.68 350.2 212.966 350.06 212.326 349.78C211.686 349.487 211.133 349.093 210.666 348.6C210.2 348.093 209.84 347.513 209.586 346.86C209.333 346.207 209.206 345.52 209.206 344.8C209.206 344.067 209.333 343.373 209.586 342.72C209.84 342.067 210.2 341.493 210.666 341C211.133 340.493 211.686 340.1 212.326 339.82C212.98 339.527 213.7 339.38 214.486 339.38C215.26 339.38 215.966 339.527 216.606 339.82C217.246 340.1 217.8 340.493 218.266 341C218.746 341.493 219.113 342.067 219.366 342.72C219.62 343.373 219.746 344.067 219.746 344.8C219.746 345.52 219.62 346.207 219.366 346.86C219.113 347.513 218.753 348.093 218.286 348.6C217.82 349.093 217.26 349.487 216.606 349.78C215.966 350.06 215.253 350.2 214.466 350.2ZM211.006 344.82C211.006 345.54 211.16 346.193 211.466 346.78C211.786 347.367 212.206 347.833 212.726 348.18C213.246 348.513 213.826 348.68 214.466 348.68C215.106 348.68 215.686 348.507 216.206 348.16C216.74 347.813 217.16 347.347 217.466 346.76C217.786 346.16 217.946 345.5 217.946 344.78C217.946 344.06 217.786 343.407 217.466 342.82C217.16 342.233 216.74 341.767 216.206 341.42C215.686 341.073 215.106 340.9 214.466 340.9C213.826 340.9 213.246 341.08 212.726 341.44C212.206 341.787 211.786 342.253 211.466 342.84C211.16 343.427 211.006 344.087 211.006 344.82ZM227.399 341.1C226.519 341.113 225.739 341.34 225.059 341.78C224.392 342.207 223.919 342.8 223.639 343.56V350H221.879V339.56H223.519V341.98C223.879 341.26 224.352 340.68 224.939 340.24C225.539 339.787 226.166 339.533 226.819 339.48C226.952 339.48 227.066 339.48 227.159 339.48C227.252 339.48 227.332 339.487 227.399 339.5V341.1ZM229.145 350V339.56H230.905V350H229.145ZM229.145 337.6V335.4H230.905V337.6H229.145ZM239.154 349.48C239.007 349.547 238.807 349.633 238.554 349.74C238.301 349.847 238.007 349.94 237.674 350.02C237.341 350.1 236.987 350.14 236.614 350.14C236.187 350.14 235.794 350.067 235.434 349.92C235.074 349.76 234.787 349.52 234.574 349.2C234.361 348.867 234.254 348.453 234.254 347.96V340.94H232.834V339.56H234.254V336.08H236.014V339.56H238.354V340.94H236.014V347.42C236.041 347.793 236.167 348.073 236.394 348.26C236.621 348.433 236.887 348.52 237.194 348.52C237.541 348.52 237.861 348.46 238.154 348.34C238.447 348.22 238.641 348.133 238.734 348.08L239.154 349.48ZM245.269 350.2C244.482 350.2 243.762 350.06 243.109 349.78C242.469 349.487 241.909 349.093 241.429 348.6C240.962 348.093 240.595 347.513 240.329 346.86C240.075 346.207 239.949 345.513 239.949 344.78C239.949 343.793 240.175 342.893 240.629 342.08C241.082 341.267 241.709 340.613 242.509 340.12C243.322 339.627 244.249 339.38 245.289 339.38C246.342 339.38 247.255 339.633 248.029 340.14C248.815 340.633 249.422 341.287 249.849 342.1C250.289 342.9 250.509 343.767 250.509 344.7C250.509 344.833 250.502 344.967 250.489 345.1C250.489 345.22 250.482 345.313 250.469 345.38H241.809C241.862 346.06 242.049 346.667 242.369 347.2C242.702 347.72 243.129 348.133 243.649 348.44C244.169 348.733 244.729 348.88 245.329 348.88C245.969 348.88 246.569 348.72 247.129 348.4C247.702 348.08 248.095 347.66 248.309 347.14L249.829 347.56C249.602 348.067 249.262 348.52 248.809 348.92C248.369 349.32 247.842 349.633 247.229 349.86C246.629 350.087 245.975 350.2 245.269 350.2ZM241.749 344.16H248.869C248.815 343.48 248.622 342.88 248.289 342.36C247.955 341.84 247.529 341.433 247.009 341.14C246.489 340.847 245.915 340.7 245.289 340.7C244.675 340.7 244.109 340.847 243.589 341.14C243.069 341.433 242.642 341.84 242.309 342.36C241.989 342.88 241.802 343.48 241.749 344.16ZM257.457 352.84C257.63 352.853 257.803 352.867 257.977 352.88C258.15 352.907 258.283 352.92 258.377 352.92C258.59 352.92 258.777 352.847 258.937 352.7C259.097 352.553 259.27 352.267 259.457 351.84C259.657 351.427 259.91 350.813 260.217 350L255.797 339.56H257.657L261.177 348.22L264.357 339.56H266.097L261.017 352.74C260.897 353.047 260.717 353.333 260.477 353.6C260.25 353.88 259.957 354.1 259.597 354.26C259.237 354.42 258.803 354.5 258.297 354.5C258.177 354.5 258.05 354.493 257.917 354.48C257.797 354.467 257.643 354.44 257.457 354.4V352.84ZM272.124 350.2C271.337 350.2 270.617 350.06 269.964 349.78C269.324 349.487 268.764 349.093 268.284 348.6C267.817 348.093 267.451 347.513 267.184 346.86C266.931 346.207 266.804 345.513 266.804 344.78C266.804 343.793 267.031 342.893 267.484 342.08C267.937 341.267 268.564 340.613 269.364 340.12C270.177 339.627 271.104 339.38 272.144 339.38C273.197 339.38 274.111 339.633 274.884 340.14C275.671 340.633 276.277 341.287 276.704 342.1C277.144 342.9 277.364 343.767 277.364 344.7C277.364 344.833 277.357 344.967 277.344 345.1C277.344 345.22 277.337 345.313 277.324 345.38H268.664C268.717 346.06 268.904 346.667 269.224 347.2C269.557 347.72 269.984 348.133 270.504 348.44C271.024 348.733 271.584 348.88 272.184 348.88C272.824 348.88 273.424 348.72 273.984 348.4C274.557 348.08 274.951 347.66 275.164 347.14L276.684 347.56C276.457 348.067 276.117 348.52 275.664 348.92C275.224 349.32 274.697 349.633 274.084 349.86C273.484 350.087 272.831 350.2 272.124 350.2ZM268.604 344.16H275.724C275.671 343.48 275.477 342.88 275.144 342.36C274.811 341.84 274.384 341.433 273.864 341.14C273.344 340.847 272.771 340.7 272.144 340.7C271.531 340.7 270.964 340.847 270.444 341.14C269.924 341.433 269.497 341.84 269.164 342.36C268.844 342.88 268.657 343.48 268.604 344.16ZM284.623 349.48C284.476 349.547 284.276 349.633 284.023 349.74C283.769 349.847 283.476 349.94 283.143 350.02C282.809 350.1 282.456 350.14 282.083 350.14C281.656 350.14 281.263 350.067 280.903 349.92C280.543 349.76 280.256 349.52 280.043 349.2C279.829 348.867 279.723 348.453 279.723 347.96V340.94H278.303V339.56H279.723V336.08H281.483V339.56H283.823V340.94H281.483V347.42C281.509 347.793 281.636 348.073 281.863 348.26C282.089 348.433 282.356 348.52 282.663 348.52C283.009 348.52 283.329 348.46 283.623 348.34C283.916 348.22 284.109 348.133 284.203 348.08L284.623 349.48Z" fill="#277FD9"/>
</svg>
