<svg width="14" height="14" viewBox="0 0 14 14" fill="none" xmlns="http://www.w3.org/2000/svg">
<path d="M9.842 4.986C9.88867 4.93933 9.912 4.888 9.912 4.832C9.912 4.76667 9.88867 4.71533 9.842 4.678L9.38 4.202C9.34267 4.15533 9.29133 4.132 9.226 4.132C9.17 4.132 9.11867 4.15533 9.072 4.202L7.154 6.162C7.11667 6.19933 7.06533 6.218 7 6.218C6.944 6.218 6.89267 6.19933 6.846 6.162L4.928 4.202C4.89067 4.15533 4.83933 4.132 4.774 4.132C4.718 4.132 4.66667 4.15533 4.62 4.202L4.158 4.692C4.12067 4.72933 4.102 4.78067 4.102 4.846C4.102 4.902 4.12067 4.95333 4.158 5L6.076 6.946C6.12267 6.98333 6.146 7.03467 6.146 7.1C6.146 7.156 6.12267 7.20733 6.076 7.254L5.432 7.912C4.86267 8.49067 4.438 8.92467 4.158 9.214C4.12067 9.25133 4.102 9.30267 4.102 9.368C4.102 9.424 4.12067 9.47533 4.158 9.522L4.62 9.998C4.66667 10.0353 4.718 10.054 4.774 10.054C4.83933 10.054 4.89067 10.0353 4.928 9.998L6.846 8.052C6.89267 8.00533 6.944 7.982 7 7.982C7.06533 7.982 7.11667 8.00533 7.154 8.052C7.574 8.472 8.19933 9.10667 9.03 9.956L9.072 9.998C9.11867 10.0353 9.17 10.054 9.226 10.054C9.29133 10.054 9.34267 10.0353 9.38 9.998C9.48267 9.886 9.63667 9.72733 9.842 9.522C9.88867 9.47533 9.912 9.424 9.912 9.368C9.912 9.30267 9.88867 9.25133 9.842 9.214L7.938 7.254C7.90067 7.20733 7.882 7.156 7.882 7.1C7.882 7.03467 7.90067 6.98333 7.938 6.946L9.842 4.986ZM7 0.967999C5.88933 0.967999 4.858 1.248 3.906 1.808C2.982 2.34933 2.254 3.082 1.722 4.006C1.162 4.958 0.882 5.98933 0.882 7.1C0.882 8.21067 1.162 9.242 1.722 10.194C2.254 11.118 2.982 11.8507 3.906 12.392C4.858 12.952 5.88933 13.232 7 13.232C8.11067 13.232 9.142 12.952 10.094 12.392C11.018 11.8507 11.7507 11.118 12.292 10.194C12.852 9.242 13.132 8.21067 13.132 7.1C13.132 5.98933 12.852 4.958 12.292 4.006C11.7507 3.082 11.018 2.34933 10.094 1.808C9.142 1.248 8.11067 0.967999 7 0.967999ZM7 12.266C6.06667 12.266 5.19867 12.028 4.396 11.552C3.62133 11.0947 3.00533 10.4787 2.548 9.704C2.072 8.90133 1.834 8.03333 1.834 7.1C1.834 6.16667 2.072 5.29867 2.548 4.496C3.00533 3.72133 3.62133 3.10533 4.396 2.648C5.19867 2.172 6.06667 1.934 7 1.934C7.93333 1.934 8.80133 2.16733 9.604 2.634C10.3787 3.09133 10.9947 3.712 11.452 4.496C11.928 5.29867 12.166 6.16667 12.166 7.1C12.166 8.03333 11.9327 8.90133 11.466 9.704C11.0087 10.488 10.388 11.1087 9.604 11.566C8.80133 12.0327 7.93333 12.266 7 12.266Z" fill="white"/>
</svg>
