<svg width="11" height="18" viewBox="0 0 11 18" fill="none" xmlns="http://www.w3.org/2000/svg">
<path d="M2 18C1.59375 18 1.23438 17.8594 0.921875 17.5781C0.640625 17.2656 0.5 16.9062 0.5 16.5C0.5 16.0938 0.640625 15.7344 0.921875 15.4219L7.39062 9L0.921875 2.57812C0.640625 2.26562 0.5 1.90625 0.5 1.5C0.5 1.09375 0.640625 0.734375 0.921875 0.421875C1.23438 0.140625 1.59375 0 2 0C2.40625 0 2.76562 0.140625 3.07812 0.421875L10.5781 7.92188C10.8594 8.23438 11 8.59375 11 9C11 9.40625 10.8594 9.76562 10.5781 10.0781L3.07812 17.5781C2.76562 17.8594 2.40625 18 2 18Z" fill="#505050"/>
</svg>
