<svg width="546" height="313" viewBox="0 0 546 313" fill="none" xmlns="http://www.w3.org/2000/svg">
<path d="M408.456 243.469H385.086V243.645H408.456V243.469Z" fill="#EBEBEB"/>
<path d="M324.71 245.387H318.578V245.563H324.71V245.387Z" fill="#EBEBEB"/>
<path d="M384.377 236.932H370.836V237.108H384.377V236.932Z" fill="#EBEBEB"/>
<path d="M158.491 238.115H128.016V238.292H158.491V238.115Z" fill="#EBEBEB"/>
<path d="M169.248 238.115H164.781V238.292H169.248V238.115Z" fill="#EBEBEB"/>
<path d="M249.867 241.088H183.766V241.264H249.867V241.088Z" fill="#EBEBEB"/>
<path d="M443.805 232.137H91V232.313H443.805V232.137Z" fill="#EBEBEB"/>
<path d="M200.33 29.8242H117.336V152.237H200.33V29.8242Z" fill="#E0E0E0"/>
<path d="M203.384 29.8242H120.391V152.237H203.384V29.8242Z" fill="#F0F0F0"/>
<path d="M199.189 94.5391H124.43V145.068H199.189V94.5391Z" fill="#EBEBEB"/>
<path d="M199.189 34.7969H124.43V94.5384H199.189V34.7969Z" fill="white"/>
<path d="M199.187 34.7969H196.555V145.067H199.187V34.7969Z" fill="#E0E0E0"/>
<path d="M124.195 94.5447V97.207H196.838V94.5447H124.195Z" fill="#E0E0E0"/>
<path d="M199.186 90.0645H123.016V94.537H199.186V90.0645Z" fill="#F0F0F0"/>
<path d="M400.184 232.935H299.028C291.365 232.935 285.148 226.73 285.148 219.081V189.034C285.148 181.385 291.365 175.18 299.028 175.18H400.184C407.847 175.18 414.063 181.385 414.063 189.034V219.088C414.063 226.737 407.847 232.935 400.184 232.935Z" fill="#E0E0E0"/>
<path d="M393.387 233.366H292.231C284.568 233.366 278.352 227.161 278.352 219.512V189.458C278.352 181.809 284.568 175.604 292.231 175.604H393.387C401.05 175.604 407.266 181.809 407.266 189.458V219.512C407.266 227.161 401.057 233.366 393.387 233.366Z" fill="#F5F5F5"/>
<path d="M401.357 202.601H285.016V190.726C285.016 185.38 289.355 181.049 294.711 181.049H391.661C397.017 181.049 401.357 185.38 401.357 190.726V202.601Z" fill="#E0E0E0"/>
<path d="M391.661 227.068H294.711C289.355 227.068 285.016 222.737 285.016 217.391V205.516H401.357V217.391C401.357 222.737 397.017 227.068 391.661 227.068Z" fill="#E0E0E0"/>
<path d="M370.068 185.225H348.766V202.741H370.068V185.225Z" fill="#E6E6E6"/>
<path d="M348.767 185.225H343.312V202.741H348.767V185.225Z" fill="#F5F5F5"/>
<path d="M347.835 198.029C347.835 199.015 347.03 199.818 346.042 199.818C345.054 199.818 344.25 199.015 344.25 198.029C344.25 197.043 345.054 196.24 346.042 196.24C347.03 196.24 347.835 197.036 347.835 198.029Z" fill="#E0E0E0"/>
<path d="M375.659 182.52H359.656V202.741H375.659V182.52Z" fill="#E6E6E6"/>
<path d="M359.66 182.52H355.031V202.741H359.66V182.52Z" fill="#F5F5F5"/>
<path d="M357.345 187.043C358.222 187.043 358.933 186.333 358.933 185.458C358.933 184.583 358.222 183.873 357.345 183.873C356.469 183.873 355.758 184.583 355.758 185.458C355.758 186.333 356.469 187.043 357.345 187.043Z" fill="#E0E0E0"/>
<path d="M357.345 187.043C358.222 187.043 358.933 186.333 358.933 185.458C358.933 184.583 358.222 183.873 357.345 183.873C356.469 183.873 355.758 184.583 355.758 185.458C355.758 186.333 356.469 187.043 357.345 187.043Z" fill="#E0E0E0"/>
<path d="M377.858 185.225H364.367V202.741H377.858V185.225Z" fill="#EBEBEB"/>
<path d="M364.365 185.225H361.281V202.741H364.365V185.225Z" fill="#F5F5F5"/>
<path d="M393.103 188.191H375.406V202.75H393.103V188.191Z" fill="#E6E6E6"/>
<path d="M375.413 188.191H370.883V202.75H375.413V188.191Z" fill="#F5F5F5"/>
<path d="M397.747 185.943H384.453V202.742H397.747V185.943Z" fill="#E6E6E6"/>
<path d="M384.463 185.943H380.617V202.742H384.463V185.943Z" fill="#F5F5F5"/>
<path d="M401.288 188.191H388.375V202.75H401.288V188.191Z" fill="#E6E6E6"/>
<path d="M388.366 188.191H385.805V202.75H388.366V188.191Z" fill="#F0F0F0"/>
<path d="M319.146 208.881H302.656V226.398H319.146V208.881Z" fill="#E6E6E6"/>
<path d="M302.664 208.881H298.438V226.398H302.664V208.881Z" fill="#F5F5F5"/>
<path d="M323.462 206.178H311.078V226.399H323.462V206.178Z" fill="#E6E6E6"/>
<path d="M311.093 206.178H307.516V226.399H311.093V206.178Z" fill="#F5F5F5"/>
<path d="M375.396 208.881H358.906V226.398H375.396V208.881Z" fill="#E6E6E6"/>
<path d="M358.914 208.881H354.688V226.398H358.914V208.881Z" fill="#F5F5F5"/>
<path d="M379.719 206.178H367.336V226.399H379.719V206.178Z" fill="#E6E6E6"/>
<path d="M367.343 206.178H363.766V226.399H367.343V206.178Z" fill="#F5F5F5"/>
<path d="M325.177 208.881H314.734V226.398H325.177V208.881Z" fill="#EBEBEB"/>
<path d="M314.737 208.881H312.352V226.398H314.737V208.881Z" fill="#F5F5F5"/>
<path d="M336.977 211.85H323.281V226.408H336.977V211.85Z" fill="#E6E6E6"/>
<path d="M323.28 211.85H319.773V226.408H323.28V211.85Z" fill="#F5F5F5"/>
<path d="M340.569 209.602H330.281V226.4H340.569V209.602Z" fill="#E6E6E6"/>
<path d="M330.29 209.602H327.312V226.4H330.29V209.602Z" fill="#F5F5F5"/>
<path d="M343.311 211.85H333.312V226.408H343.311V211.85Z" fill="#E6E6E6"/>
<path d="M333.311 211.85H331.328V226.408H333.311V211.85Z" fill="#F0F0F0"/>
<path d="M331.234 158.382C330.881 157.692 330.084 157.29 329.35 157.445C328.623 157.6 328.023 158.291 327.946 159.065C327.431 158.678 326.697 158.664 326.161 159.016C325.624 159.375 325.328 160.087 325.441 160.742C324.862 160.27 323.91 160.467 323.536 161.129C323.162 161.791 323.451 162.77 324.121 163.087C323.67 163.122 323.282 163.573 323.289 164.052C323.303 164.531 323.712 164.961 324.164 164.968C323.705 164.975 323.282 165.383 323.225 165.862C323.169 166.341 323.486 166.841 323.931 166.968C323.465 167.172 323.345 167.94 323.726 168.292C324.107 168.644 324.813 168.419 324.947 167.905C325.018 168.053 325.236 168.088 325.349 167.968C325.455 167.848 325.42 167.616 325.272 167.546C325.483 167.841 326.019 167.708 326.076 167.341C325.921 168.186 326.93 168.982 327.649 168.581C327.438 168.933 327.734 169.426 328.115 169.539C328.496 169.652 328.898 169.497 329.251 169.32C329.611 169.144 329.971 168.94 330.366 168.947C330.712 168.954 331.036 169.116 331.361 169.222C332.412 169.56 333.626 169.236 334.402 168.419C334.945 169.151 336.244 168.954 336.568 168.088C336.653 168.503 337.02 168.834 337.422 168.856C337.824 168.877 338.227 168.595 338.354 168.194C338.361 168.377 338.368 168.56 338.382 168.75C339.137 168.926 339.885 167.954 339.56 167.207C340.103 167.215 340.611 166.75 340.682 166.186C340.753 165.623 340.372 165.031 339.849 164.897C340.738 164.651 341.416 163.728 341.43 162.756C341.437 161.784 340.781 160.847 339.892 160.58C339.546 160.474 339.137 160.474 338.854 160.721C338.579 160.967 338.537 161.502 338.847 161.7C339.116 160.826 338.72 159.784 337.951 159.347C337.189 158.91 336.145 159.136 335.602 159.847C335.863 159.474 335.87 158.925 335.616 158.551C335.355 158.178 334.861 158.009 334.444 158.157C334.339 157.558 333.746 157.107 333.174 157.192C332.603 157.276 332.158 157.896 332.222 158.502C332.158 157.995 331.368 157.847 331.142 158.298C330.818 158.22 331.234 158.382 331.234 158.382Z" fill="#EBEBEB"/>
<path d="M331.448 164.007C331.215 163.845 330.919 163.761 330.643 163.817C330.368 163.874 330.114 164.085 330.058 164.367C330.001 164.641 330.171 164.965 330.453 165.029C330.792 165.113 331.123 164.831 331.469 164.881C331.589 164.895 331.702 164.958 331.822 164.986C332.316 165.12 332.803 164.796 333.212 164.493C333.353 164.388 333.501 164.275 333.6 164.127C333.699 163.979 333.734 163.775 333.642 163.62C333.515 163.402 333.219 163.373 332.972 163.402C332.478 163.458 331.991 163.655 331.603 163.972C331.617 163.895 331.631 163.817 331.638 163.74L331.448 164.007Z" fill="#FAFAFA"/>
<path d="M338.597 163.584C338.463 163.492 338.329 163.394 338.167 163.359C338.011 163.323 337.821 163.359 337.722 163.485C337.588 163.661 337.673 163.936 337.849 164.077C338.026 164.218 338.258 164.253 338.477 164.288C338.703 164.324 338.992 164.331 339.105 164.133C339.19 163.985 339.119 163.795 338.999 163.683C338.879 163.57 338.71 163.514 338.555 163.464L338.597 163.584Z" fill="#FAFAFA"/>
<path d="M327.304 159.871C326.845 160.062 326.499 160.484 326.393 160.963C326.358 161.111 326.365 161.294 326.492 161.365C326.584 161.421 326.697 161.4 326.803 161.372C327.24 161.266 327.678 161.167 328.115 161.062C327.903 161.139 327.692 161.224 327.522 161.372C327.353 161.52 327.24 161.752 327.296 161.97C327.36 162.224 327.642 162.379 327.903 162.379C328.164 162.372 328.411 162.245 328.623 162.09C328.849 161.928 329.075 161.703 329.075 161.421C329.082 161.139 328.729 160.879 328.51 161.062C329.011 160.928 329.484 160.71 329.914 160.421C330.07 160.315 330.225 160.203 330.324 160.041C330.422 159.879 330.458 159.674 330.366 159.505C329.921 158.695 329.35 159.886 329.075 159.991C328.56 160.195 327.967 159.59 327.304 159.871Z" fill="#FAFAFA"/>
<path d="M325.268 163.331C325.219 163.493 325.254 163.683 325.381 163.781C325.508 163.887 325.741 163.852 325.797 163.697C325.508 163.789 325.191 163.894 325.014 164.141C324.831 164.387 324.88 164.817 325.169 164.908C325.353 164.965 325.543 164.88 325.713 164.789C326.186 164.528 326.637 164.232 327.068 163.901C326.941 164.197 327.251 164.542 327.576 164.57C327.9 164.599 328.204 164.422 328.486 164.253C328.832 164.049 329.22 163.725 329.128 163.338C329.05 163 328.613 162.852 328.281 162.95C327.95 163.049 327.696 163.317 327.463 163.577C327.646 163.31 327.385 162.915 327.068 162.873C326.757 162.831 326.447 163.021 326.249 163.253C326.616 163.056 326.694 162.535 326.207 162.471C325.882 162.422 325.346 163.07 325.268 163.331Z" fill="#FAFAFA"/>
<path d="M335.261 162.169C334.986 162.063 334.64 162.246 334.569 162.528C334.499 162.81 334.711 163.134 335 163.183C334.788 163.204 334.584 163.31 334.442 163.472C334.365 163.564 334.308 163.683 334.322 163.796C334.351 163.972 334.534 164.085 334.711 164.092C334.887 164.099 335.056 164.021 335.219 163.951C335.042 163.965 334.859 163.986 334.718 164.099C334.576 164.204 334.52 164.437 334.64 164.557C334.746 164.662 334.915 164.641 335.056 164.606C335.374 164.514 335.67 164.352 335.917 164.127C336.101 164.331 336.369 164.472 336.637 164.43C336.905 164.388 337.131 164.099 337.046 163.845C336.99 163.662 336.792 163.549 336.602 163.521C336.411 163.5 336.221 163.549 336.03 163.613C336.221 163.479 336.418 163.331 336.489 163.113C336.559 162.894 336.411 162.599 336.178 162.613C335.917 162.634 335.79 162.986 335.586 163.113C335.339 162.866 335.811 162.373 335.261 162.169Z" fill="#FAFAFA"/>
<path d="M330.595 161.093C330.299 161.29 330.2 161.684 330.222 162.037C330.243 162.431 330.419 162.847 330.779 163.001C331.252 163.206 331.844 162.818 331.929 162.304C332.014 161.797 331.682 161.276 331.223 161.043C331.223 161.05 330.885 160.896 330.595 161.093Z" fill="#FAFAFA"/>
<path d="M333.897 160.671C333.94 160.706 333.982 160.741 334.017 160.776C333.82 160.523 333.396 160.487 333.156 160.706C332.917 160.924 332.917 161.347 333.156 161.572C333.396 161.79 333.82 161.762 334.017 161.509C334.356 161.664 334.808 161.607 335.048 161.318C335.287 161.03 335.231 160.523 334.906 160.339C334.582 160.156 334.081 160.431 334.116 160.804C334.067 160.755 334.024 160.699 333.975 160.649L333.897 160.671Z" fill="#FAFAFA"/>
<path d="M337.542 161.259C337.309 161.492 337.062 161.731 336.977 162.048C336.893 162.365 337.034 162.767 337.351 162.851C337.669 162.929 337.965 162.668 338.149 162.4C338.311 162.154 338.438 161.851 338.339 161.569C338.247 161.287 337.845 161.125 337.641 161.337L337.542 161.259Z" fill="#FAFAFA"/>
<path d="M332.291 159.344C332.171 159.077 331.797 158.985 331.55 159.14C331.303 159.295 331.211 159.64 331.317 159.908C331.423 160.175 331.705 160.359 331.994 160.394C332.354 160.436 332.777 160.147 332.693 159.795C332.848 159.999 333.123 160.077 333.377 160.056C333.631 160.027 333.871 159.915 334.09 159.788C334.393 159.612 334.711 159.351 334.683 159.006C334.654 158.732 334.393 158.52 334.118 158.492C333.843 158.464 333.575 158.598 333.363 158.774C333.201 158.915 333.06 159.091 332.883 159.21C332.707 159.337 332.46 159.401 332.269 159.295L332.291 159.344Z" fill="#FAFAFA"/>
<path d="M336.772 175.372H327.734L326.852 166.279H337.654L336.772 175.372Z" fill="#F0F0F0"/>
<path d="M338.354 166.743H326.062L325.844 165.539H338.58L338.354 166.743Z" fill="#FAFAFA"/>
<path d="M327.38 202.721H317.008L320.261 192.269L320.733 190.74H323.083L327.38 202.721Z" fill="#EBEBEB"/>
<path d="M320.73 190.74L320.258 192.269L317.005 202.721L307.416 202.58L304.332 192.269L303.859 190.74H320.73Z" fill="#E0E0E0"/>
<path d="M320.732 190.74L320.259 192.269L317.006 202.721L297.312 202.432L301.511 190.74H320.732Z" fill="#FAFAFA"/>
<path d="M320.733 190.74L320.26 192.269H300.969L301.512 190.74H320.733Z" fill="#EBEBEB"/>
<path d="M303.935 197.235H299.609L301.119 192.98L305.254 193.03L303.935 197.235ZM300.11 196.882H303.674L304.774 193.375L301.366 193.34L300.11 196.882Z" fill="#EBEBEB"/>
<path d="M308.779 197.235H304.453L305.963 192.98L310.098 193.03L308.779 197.235ZM304.947 196.882H308.51L309.611 193.375L306.203 193.34L304.947 196.882Z" fill="#EBEBEB"/>
<path d="M313.607 197.235H309.281L310.791 192.98L314.926 193.03L313.607 197.235ZM309.782 196.882H313.346L314.446 193.375L311.038 193.34L309.782 196.882Z" fill="#EBEBEB"/>
<path d="M318.45 197.235H314.125L315.635 192.98L319.77 193.03L318.45 197.235ZM314.626 196.882H318.189L319.29 193.375L315.882 193.34L314.626 196.882Z" fill="#EBEBEB"/>
<path d="M302.419 201.748H298.094L299.604 197.494L303.739 197.543L302.419 201.748ZM298.595 201.396H302.158L303.259 197.889L299.851 197.853L298.595 201.396Z" fill="#EBEBEB"/>
<path d="M307.263 201.748H302.938L304.448 197.494L308.582 197.543L307.263 201.748ZM303.438 201.396H307.002L308.103 197.889L304.694 197.853L303.438 201.396Z" fill="#EBEBEB"/>
<path d="M312.091 201.748H307.766L309.276 197.494L313.411 197.543L312.091 201.748ZM308.267 201.396H311.83L312.931 197.889L309.523 197.853L308.267 201.396Z" fill="#EBEBEB"/>
<path d="M316.935 201.748H312.609L314.119 197.494L318.254 197.543L316.935 201.748ZM313.11 201.396H316.674L317.774 197.889L314.366 197.853L313.11 201.396Z" fill="#EBEBEB"/>
<path d="M382.57 169.725C382.57 171.944 382.916 173.381 383.509 174.303C383.953 174.994 384.744 175.388 385.569 175.388H388.787C389.612 175.388 390.403 175.001 390.847 174.303C391.433 173.381 391.786 171.944 391.786 169.725C391.786 166.506 390.381 163.929 389.923 161.872C389.76 161.132 390.311 158.857 390.311 158.857H384.059C384.059 158.857 384.61 161.125 384.447 161.872C383.974 163.929 382.57 166.506 382.57 169.725Z" fill="#F0F0F0"/>
<path d="M389.263 143.324C389.263 143.324 388.212 143.585 387.598 144.402C386.984 145.219 388.042 147.142 388.042 147.142C388.042 147.142 389.044 148.163 390.286 147.86C391.528 147.557 391.528 147.557 391.528 147.557C391.528 147.557 390.209 143.789 389.263 143.578V143.324Z" fill="#EBEBEB"/>
<path d="M394.169 144.215C394.007 145.849 392.617 147.694 391.156 147.546C389.696 147.398 388.701 145.32 388.87 143.679C389.033 142.045 390.225 142.109 391.693 142.249C393.153 142.404 394.339 142.58 394.169 144.215Z" fill="#EBEBEB"/>
<path d="M390.041 142.947C390.041 142.947 390.979 144.032 393.343 143.947C393.343 143.947 389.314 145.652 390.041 142.947Z" fill="#EBEBEB"/>
<path d="M391.07 142.813C391.07 142.813 392.383 142.834 392.298 143.362C392.298 143.362 393.385 143.503 393.321 143.031C393.265 142.552 391.07 142.813 391.07 142.813Z" fill="#EBEBEB"/>
<path d="M390.041 142.947C390.041 142.947 390.979 144.032 393.343 143.947C393.343 143.947 389.314 145.652 390.041 142.947Z" fill="#E0E0E0"/>
<path d="M391.07 142.813C391.07 142.813 392.383 142.834 392.298 143.362C392.298 143.362 393.385 143.503 393.321 143.031C393.265 142.552 391.07 142.813 391.07 142.813Z" fill="#E0E0E0"/>
<path d="M388.648 147.602C388.966 148.433 389.827 148.989 390.716 149.046C391.605 149.109 392.487 148.714 393.122 148.095C393.757 147.475 394.159 146.644 394.378 145.784C394.434 145.559 394.561 145.003 394.279 144.862C394.018 144.728 393.778 145.08 393.623 145.235C393.164 145.679 392.685 146.08 392.141 146.418C391.612 146.749 391.048 147.017 390.462 147.214C390.3 147.271 388.705 147.75 388.648 147.602Z" fill="#EBEBEB"/>
<path d="M395.432 145.555C395.58 146.26 395.333 147.035 394.797 147.521C394.444 147.838 393.999 148.028 393.555 148.197C393.244 148.309 392.856 148.401 392.623 148.176C392.369 147.929 392.475 147.506 392.609 147.175C392.814 146.668 393.033 146.168 393.258 145.668C393.449 145.26 393.646 144.562 393.971 144.245C394.274 143.95 394.571 144.217 394.874 144.527C395.149 144.809 395.354 145.168 395.432 145.555Z" fill="#EBEBEB"/>
<path d="M389.187 146.778C388.637 146.651 388.178 146.172 388.079 145.616C388.002 145.207 388.192 144.235 388.707 144.207C388.764 145.116 388.806 145.933 389.187 146.778Z" fill="#E0E0E0"/>
<path d="M393.156 147.067C393.714 147.017 394.229 146.672 394.49 146.179C394.631 145.904 394.8 144.411 394.243 144.954C394.059 145.13 393.968 145.778 393.841 146.024C393.657 146.397 393.424 146.75 393.156 147.067Z" fill="#E0E0E0"/>
<path d="M390.976 147.596C391.315 148.019 391.964 148.16 392.451 147.913C392.345 148.188 391.399 148.258 391.103 148.286C390.334 148.364 390.016 147.969 389.367 147.547C389.367 147.547 390.447 147.927 390.976 147.596Z" fill="#E0E0E0"/>
<path d="M386.312 173.621L388.119 155.428L390.511 148.977L390.92 149.124L388.542 155.548L386.658 174.114L386.312 173.621Z" fill="#E6E6E6"/>
<path d="M388.526 155.395L388.13 155.592C387.869 155.078 387.672 154.437 387.439 153.691C387.079 152.536 386.677 151.233 385.922 150L386.296 149.768C387.086 151.049 387.495 152.381 387.862 153.557C388.088 154.282 388.279 154.909 388.526 155.395Z" fill="#E6E6E6"/>
<path d="M389.503 153.005C390.116 152.963 390.709 152.688 391.14 152.251C391.633 151.758 391.895 151.082 392.149 150.434C391.344 150.519 390.603 149.998 389.799 149.941C389.157 149.892 388.501 150.167 388.084 150.653C387.541 151.279 387.223 152.047 387.52 152.442C387.767 152.759 388.677 153.061 389.503 153.005Z" fill="#F0F0F0"/>
<path d="M383.045 151.03C383.638 150.537 384.908 150.34 385.62 150.615C386.34 150.89 386.876 151.523 387.024 152.179C386.735 152.615 386.164 152.777 385.641 152.721C385.126 152.664 384.654 152.418 384.188 152.171C383.729 151.932 383.249 151.685 382.734 151.622L383.045 151.03Z" fill="#F0F0F0"/>
<path d="M387.021 151.38C385.977 151.5 385.038 151.704 384.086 150.514C383.451 149.718 383.655 148.513 383.698 147.562C384.608 147.76 386.661 148.76 387.12 149.006C387.579 149.253 387.967 149.647 388.037 150.119C388.115 150.591 387.79 151.112 387.275 151.204C387.268 151.183 387.021 151.38 387.021 151.38Z" fill="#F0F0F0"/>
<path d="M384.031 165.536C383.615 166.72 383.213 168.009 383.347 169.269C383.375 169.509 383.445 169.784 383.622 169.826C383.784 169.868 383.939 169.671 384.003 169.453C384.059 169.234 384.045 169.002 384.045 168.776C384.038 166.825 385.104 165.184 385.308 163.276C385.365 162.733 385.223 161.029 384.906 162.282C384.617 163.395 384.419 164.438 384.031 165.536Z" fill="#FAFAFA"/>
<path d="M236.187 204.29C236.187 204.29 238.24 181.603 229.208 170.538C220.177 159.473 236.257 169.545 239.108 180.582C239.108 180.582 239.644 160.177 230.627 146.95C221.609 133.723 236.977 143.626 239.651 158.043C239.651 158.043 240.16 139.836 235.658 130.18C231.156 120.523 237.873 126.271 240.837 132.307C243.808 138.343 242.333 154.353 242.333 154.353C242.333 154.353 245.487 124.7 251.477 126.306C257.468 127.912 245.021 148.591 244.026 158.691C244.026 158.691 249.474 144.605 254.9 146.746C260.326 148.887 247.343 151.845 243.335 172.348L242.163 181.878C242.163 181.878 247.089 168.031 251.59 171.672C256.092 175.306 240.618 184.392 238.861 204.684L236.187 204.29Z" fill="#EBEBEB"/>
<path d="M237.163 205.466C237.163 205.466 235.236 177.413 246.681 164.044C258.119 150.683 238.009 162.593 234.199 176.117C234.199 176.117 234.086 150.923 245.567 134.892C257.04 118.861 237.819 130.581 234.129 148.295C234.129 148.295 233.987 125.813 239.802 114.044C245.616 102.274 237.177 109.149 233.352 116.502C229.528 123.855 230.918 143.654 230.918 143.654C230.918 143.654 227.82 106.965 220.383 108.754C212.953 110.543 227.75 136.463 228.71 148.951C228.71 148.951 222.366 131.399 215.613 133.864C208.861 136.329 224.8 140.393 229.196 165.826L230.389 177.624C230.389 177.624 224.688 160.382 219.036 164.728C213.384 169.073 232.231 180.772 233.853 205.868L237.163 205.466Z" fill="#F0F0F0"/>
<path d="M254.94 219.455C254.94 227.153 246.579 233.401 236.263 233.401C225.94 233.401 217.578 227.153 217.578 219.455C217.578 215.983 219.272 212.82 222.08 210.383L219.871 201.051H252.647L250.438 210.383C253.247 212.82 254.94 215.983 254.94 219.455Z" fill="#EBEBEB"/>
<path d="M264.853 23.5719C254.594 34.9469 249.513 50.4423 250.381 65.7263C251.249 81.0103 256.894 95.6464 263.767 109.332C269.786 121.319 276.976 134.913 272.051 147.387C269.299 154.36 263.026 159.522 256.09 162.396C249.154 165.27 241.547 166.101 234.046 166.474C221.261 167.115 208.285 166.531 195.845 169.524C183.405 172.517 171.155 179.913 166.343 191.753C160.677 205.706 167.112 222.398 178.459 232.308C189.812 242.218 205.039 246.472 219.977 248.578C240.905 251.522 262.348 250.783 283.023 246.409C299.626 242.894 315.961 236.915 329.508 226.709C343.049 216.503 353.619 201.74 356.519 185.047C359.412 168.355 353.795 149.894 340.544 139.315C335.033 134.913 328.386 131.905 323.553 126.771C318.72 121.636 316.264 113.086 320.752 107.648C323.715 104.056 328.711 102.957 333.34 102.401C356.11 99.6893 381.335 104.373 400.38 91.6176C411.281 84.3137 418.337 71.8611 419.89 58.845C421.442 45.8289 418.627 31.7422 410.413 21.5153C388.025 -6.32701 292.273 -6.82709 264.853 23.5719Z" fill="#407BFF"/>
<g opacity="0.9">
<path d="M264.853 23.5719C254.594 34.9469 249.513 50.4423 250.381 65.7263C251.249 81.0103 256.894 95.6464 263.767 109.332C269.786 121.319 276.976 134.913 272.051 147.387C269.299 154.36 263.026 159.522 256.09 162.396C249.154 165.27 241.547 166.101 234.046 166.474C221.261 167.115 208.285 166.531 195.845 169.524C183.405 172.517 171.155 179.913 166.343 191.753C160.677 205.706 167.112 222.398 178.459 232.308C189.812 242.218 205.039 246.472 219.977 248.578C240.905 251.522 262.348 250.783 283.023 246.409C299.626 242.894 315.961 236.915 329.508 226.709C343.049 216.503 353.619 201.74 356.519 185.047C359.412 168.355 353.795 149.894 340.544 139.315C335.033 134.913 328.386 131.905 323.553 126.771C318.72 121.636 316.264 113.086 320.752 107.648C323.715 104.056 328.711 102.957 333.34 102.401C356.11 99.6893 381.335 104.373 400.38 91.6176C411.281 84.3137 418.337 71.8611 419.89 58.845C421.442 45.8289 418.627 31.7422 410.413 21.5153C388.025 -6.32701 292.273 -6.82709 264.853 23.5719Z" fill="white"/>
</g>
<path d="M267.404 263.557C342.963 263.557 404.215 259.988 404.215 255.584C404.215 251.181 342.963 247.611 267.404 247.611C191.846 247.611 130.594 251.181 130.594 255.584C130.594 259.988 191.846 263.557 267.404 263.557Z" fill="#F5F5F5"/>
<path d="M256.164 143.813L257.928 133.656L261.393 134.656L256.164 143.813Z" fill="#407BFF"/>
<path d="M257.328 147.069L267.249 144.203L265.873 140.871L257.328 147.069Z" fill="#407BFF"/>
<path d="M259.094 143.244L264.746 132.58L268.549 135.221L259.094 143.244Z" fill="#407BFF"/>
<path d="M165.718 159.247H161.251C161.054 159.247 160.898 159.092 160.898 158.895C160.898 158.698 161.054 158.543 161.251 158.543H165.718C165.915 158.543 166.071 158.698 166.071 158.895C166.071 159.092 165.915 159.247 165.718 159.247Z" fill="#407BFF"/>
<path d="M158.281 159.247H135.892C135.694 159.247 135.539 159.092 135.539 158.895C135.539 158.698 135.694 158.543 135.892 158.543H158.274C158.471 158.543 158.627 158.698 158.627 158.895C158.627 159.092 158.471 159.247 158.281 159.247Z" fill="#407BFF"/>
<path d="M237.667 200.006C237.582 200.006 237.497 199.978 237.427 199.914C237.286 199.781 237.271 199.562 237.406 199.414L239.494 197.146C239.628 197.005 239.847 196.998 239.995 197.125C240.136 197.259 240.15 197.477 240.016 197.625L237.928 199.893C237.857 199.964 237.765 200.006 237.667 200.006Z" fill="#407BFF"/>
<path d="M218.534 218.06C218.407 218.06 218.28 217.99 218.217 217.87C218.132 217.694 218.196 217.482 218.372 217.398C224.913 214.095 235.271 201.741 235.377 201.614C235.504 201.466 235.723 201.445 235.871 201.572C236.019 201.698 236.041 201.917 235.914 202.065C235.483 202.579 225.351 214.651 218.683 218.025C218.647 218.046 218.591 218.06 218.534 218.06Z" fill="#407BFF"/>
<path d="M269.295 214.2L274.333 210.037L261.646 198.021L256.234 202.635L269.295 214.2Z" fill="#F7AF93"/>
<path d="M278.408 208.429C278.07 208.218 277.378 208.316 276.666 208.513C276.327 208.612 275.974 208.725 275.664 208.837C275.417 208.929 275.191 209.021 275 209.098C274.718 209.218 274.513 209.309 274.443 209.345C274.379 209.359 274.337 209.429 274.33 209.492C274.323 209.514 274.337 209.542 274.351 209.563C274.372 209.598 274.408 209.626 274.45 209.633C275.163 209.823 275.896 209.943 276.637 210C276.997 210.049 277.371 210.021 277.717 209.922C277.738 209.915 277.752 209.915 277.766 209.908C277.964 209.845 278.161 209.76 278.338 209.654C278.571 209.464 278.698 209.175 278.669 208.873C278.662 208.697 278.571 208.528 278.408 208.429ZM278.338 208.894C278.373 209.098 278.281 209.302 278.112 209.422C277.978 209.535 277.788 209.605 277.541 209.654C277.301 209.704 277.011 209.718 276.68 209.697C276.292 209.683 275.84 209.619 275.339 209.528C275.233 209.507 275.12 209.485 275.007 209.464C275.607 209.175 276.235 208.957 276.884 208.809C277.23 208.732 277.576 208.675 277.929 208.64C278.034 208.64 278.133 208.661 278.225 208.711C278.303 208.753 278.345 208.816 278.338 208.894Z" fill="#407BFF"/>
<path d="M276.107 205.783C275.783 205.832 275.486 206.03 275.303 206.297C275.247 206.382 275.197 206.466 275.162 206.565C274.739 207.473 274.957 208.847 275.007 209.1C275.014 209.122 275.014 209.129 275.014 209.136C275.021 209.192 275.063 209.241 275.12 209.255C275.148 209.27 275.183 209.277 275.218 209.262C275.24 209.262 275.261 209.248 275.282 209.227C275.402 209.129 275.529 208.995 275.67 208.833C275.875 208.593 276.086 208.305 276.27 207.988C276.707 207.276 277.018 206.473 276.827 206.058C276.75 205.896 276.566 205.713 276.107 205.783ZM276.531 206.206C276.651 206.48 276.418 207.107 276.058 207.727C275.825 208.121 275.557 208.502 275.289 208.784C275.232 208.34 275.176 207.495 275.395 206.868C275.437 206.727 275.501 206.593 275.578 206.487C275.698 206.318 275.868 206.185 276.065 206.128L276.164 206.114C276.46 206.058 276.517 206.17 276.531 206.206Z" fill="#407BFF"/>
<path d="M273.673 209.741L267.351 212.925C267.097 213.044 266.977 213.326 267.055 213.587L268.917 219.489C269.122 220.067 269.757 220.369 270.343 220.165C270.378 220.151 270.42 220.137 270.456 220.116C281.287 216.319 284.603 213.629 285.739 213.016C288.964 211.262 287.15 208.98 285.951 209.262C280.553 210.551 278.74 210.22 276.404 209.614C275.155 209.431 274.054 209.551 273.673 209.741Z" fill="#263238"/>
<path opacity="0.2" d="M261.646 198.027L268.075 203.711L262.655 208.318L256.234 202.641L261.646 198.027Z" fill="black"/>
<path d="M259.651 208.276L267.73 200.845L265.952 197.725L256.609 205.733L259.651 208.276Z" fill="#407BFF"/>
<path opacity="0.5" d="M259.651 208.276L267.73 200.845L265.952 197.725L256.609 205.733L259.651 208.276Z" fill="white"/>
<path d="M264.687 198.817L263.607 199.747L261.991 201.134L261.025 201.951L258.209 204.367L257.666 204.825C257.666 204.825 246.157 198.352 239.751 192.823C235.362 189.034 234.966 187.625 234.508 187.977C228.32 192.675 210.002 208.917 199.622 217.369C199.284 217.404 198.952 217.44 198.606 217.461C193.06 217.869 188.7 217.256 185.313 215.967C185.277 211.474 189.13 200.979 189.448 199.965C189.448 199.965 204.766 184.766 229.583 171.918C229.83 171.792 230.084 171.693 230.331 171.587C230.655 171.447 230.973 171.313 231.304 171.193C232.603 170.7 233.873 170.397 235.108 170.334C236.215 170.277 237.295 170.475 238.332 170.841C238.918 171.045 239.496 171.299 240.054 171.594C240.548 171.841 241.028 172.13 241.493 172.426C242.262 172.912 243.003 173.454 243.702 173.989C245.282 175.208 257.271 190.626 263.72 197.739C263.72 197.746 263.72 197.746 263.72 197.746C264.059 198.148 264.383 198.5 264.687 198.817Z" fill="#407BFF"/>
<g opacity="0.1">
<path d="M264.687 198.817L263.607 199.747L261.991 201.134L261.025 201.951L258.209 204.367L257.666 204.825C257.666 204.825 246.157 198.352 239.751 192.823C235.362 189.034 234.966 187.625 234.508 187.977C228.32 192.675 210.002 208.917 199.622 217.369C199.284 217.404 198.952 217.44 198.606 217.461C193.06 217.869 188.7 217.256 185.313 215.967C185.277 211.474 189.13 200.979 189.448 199.965C189.448 199.965 204.766 184.766 229.583 171.918C229.83 171.792 230.084 171.693 230.331 171.587C230.655 171.447 230.973 171.313 231.304 171.193C232.603 170.7 233.873 170.397 235.108 170.334C236.215 170.277 237.295 170.475 238.332 170.841C238.918 171.045 239.496 171.299 240.054 171.594C240.548 171.841 241.028 172.13 241.493 172.426C242.262 172.912 243.003 173.454 243.702 173.989C245.282 175.208 257.271 190.626 263.72 197.739C263.72 197.746 263.72 197.746 263.72 197.746C264.059 198.148 264.383 198.5 264.687 198.817Z" fill="black"/>
</g>
<path d="M182.944 133.934C183.911 138.322 184.927 144.724 181.914 147.731C185.654 154.31 190.149 160.431 195.307 165.974C201.918 154.5 195.652 147.407 195.652 147.407C190.699 146.351 190.777 144.358 191.553 140.921L182.944 133.934Z" fill="#FEC4AD"/>
<path d="M178.852 148.286C179.218 147.095 179.973 146.067 180.997 145.356C181.984 144.595 192.258 144.482 194.932 145.356C196.492 145.849 197.818 146.891 198.665 148.293L178.852 148.286Z" fill="#407BFF"/>
<path d="M226.248 165.752L228.909 164.541L229.043 168.866C229.043 168.866 227.801 169.971 226.439 170.394C225.134 170.795 223.892 169.598 224.216 168.274C224.477 167.168 225.225 166.246 226.248 165.752Z" fill="#FEC4AD"/>
<path d="M232.305 165.759L232.164 167.343C232.129 167.837 231.769 168.245 231.289 168.351L229.017 168.858L228.883 164.533L231.19 164.568C231.804 164.561 232.298 165.047 232.305 165.66C232.305 165.695 232.305 165.731 232.305 165.759Z" fill="#FEC4AD"/>
<path d="M192.513 178.049C196.507 180.014 201.404 181.141 206.209 180.331C211.868 179.38 221.725 173.71 226.016 170.456L224.569 168.308C222.431 168.766 204.96 177.626 193.67 169.611C191.568 168.118 183.312 161.969 180.391 162.096C175.656 162.307 176.065 167.258 178.098 169.322C180.49 171.738 189.246 176.443 192.513 178.049Z" fill="#FEC4AD"/>
<g opacity="0.2">
<path d="M232.161 167.351C232.119 167.837 231.766 168.252 231.286 168.358L229.029 168.865V168.872C229.029 168.872 227.787 169.978 226.432 170.401C226.291 170.443 226.15 170.471 226.016 170.471L226.008 170.478C221.718 173.732 211.868 179.395 206.209 180.346C201.404 181.149 196.507 180.029 192.513 178.057C189.246 176.451 180.476 171.739 178.098 169.33C176.065 167.266 175.656 162.322 180.391 162.103C183.305 161.977 191.568 168.126 193.67 169.619C204.438 177.261 220.822 169.555 224.174 168.428C224.181 168.379 224.188 168.323 224.202 168.273C224.336 167.724 224.583 167.217 224.936 166.78C225.275 166.351 225.726 165.991 226.234 165.745L228.866 164.548L228.894 164.54L231.181 164.569C231.787 164.562 232.288 165.055 232.288 165.667C232.288 165.696 232.288 165.731 232.288 165.759L232.161 167.351Z" fill="black"/>
<path d="M228.905 164.541L228.883 164.548V164.541H228.905Z" fill="black"/>
</g>
<path d="M207.308 155.364C213.298 168.542 199.405 172.303 205.77 193.912L175.57 194.638C175.774 183.059 179.895 185.545 174.462 163.774C174.003 161.929 173.234 156.639 175.203 151.821C175.972 149.948 177.334 148.356 179.119 147.391C181.348 146.187 191.171 147.131 195.651 147.426C200.506 146.743 206.419 153.716 207.308 155.364Z" fill="#407BFF"/>
<path opacity="0.5" d="M207.308 155.364C213.298 168.542 199.405 172.303 205.77 193.912L175.57 194.638C175.774 183.059 179.895 185.545 174.462 163.774C174.003 161.929 173.234 156.639 175.203 151.821C175.972 149.948 177.334 148.356 179.119 147.391C181.348 146.187 191.171 147.131 195.651 147.426C200.506 146.743 206.419 153.716 207.308 155.364Z" fill="white"/>
<path d="M201.533 129.221C201.448 129.799 201.681 130.271 202.041 130.32C202.401 130.369 202.768 129.968 202.845 129.411C202.93 128.855 202.697 128.362 202.337 128.313C201.978 128.263 201.611 128.672 201.533 129.221Z" fill="#263238"/>
<path d="M202.18 128.319L203.563 128.129C203.563 128.129 202.73 129.074 202.18 128.319Z" fill="#263238"/>
<path d="M201.627 129.982C201.627 129.982 202.22 132.504 203.095 133.793C202.262 134.37 201.062 133.877 201.062 133.877L201.627 129.982Z" fill="#A02724"/>
<path d="M203.534 125.348C203.64 125.305 203.717 125.207 203.738 125.094C203.767 124.918 203.639 124.749 203.463 124.721C202.419 124.538 201.346 124.876 200.598 125.622C200.464 125.749 200.457 125.953 200.577 126.087C200.704 126.221 200.909 126.228 201.043 126.108C201.057 126.094 201.071 126.08 201.085 126.059C201.692 125.481 202.539 125.228 203.364 125.376C203.421 125.376 203.484 125.369 203.534 125.348Z" fill="#263238"/>
<path d="M183.259 124.656C182.688 131.524 182.3 134.411 185.235 138.405C189.652 144.413 198.232 143.624 200.836 137.06C203.193 131.157 203.736 120.923 197.456 117.247C192.983 114.598 187.211 116.07 184.551 120.529C183.803 121.79 183.358 123.205 183.259 124.656Z" fill="#FEC4AD"/>
<path d="M200.992 136.651C200.47 136.214 200.075 135.637 199.849 134.974C199.828 134.904 199.87 134.827 199.948 134.798C200.019 134.777 200.096 134.82 200.117 134.897C200.322 135.468 200.661 135.968 201.098 136.369L200.992 136.651Z" fill="#263238"/>
<path d="M178.356 115.733C175.731 119.283 174.539 120.206 177.785 129.651C179.09 133.447 182.879 138.476 184.721 138.934C188.023 139.765 191.233 137.448 193.717 135.117C195.89 133.074 197.972 130.869 199.292 128.2C200.611 125.531 201.098 122.333 200.011 119.565C198.826 116.557 194.642 113.874 191.509 113.212C187.825 112.43 180.536 112.782 178.356 115.733Z" fill="#263238"/>
<path d="M198.93 128.783C198.93 128.783 199.755 130.199 198.711 131.255L198.732 129.368L198.93 128.783Z" fill="#263238"/>
<path d="M198.915 128.783C198.915 128.783 199.219 130.953 197.398 131.763L198.379 129.417L198.915 128.783Z" fill="#263238"/>
<path d="M186.806 138.133C186.806 138.133 184.802 139.041 185.091 141.006L186.552 138.929L186.806 138.133Z" fill="#263238"/>
<path d="M186.879 138.176C186.879 138.176 185.355 139.753 186.357 141.479L186.942 139.007L186.879 138.176Z" fill="#263238"/>
<path d="M201.677 125.945C202.39 125.212 203.117 124.465 203.639 123.585C204.168 122.705 204.486 121.662 204.33 120.655C204.126 119.345 203.138 118.267 201.988 117.605C200.838 116.95 199.518 116.654 198.22 116.366C197.585 116.225 196.872 116.091 196.315 116.429C195.771 116.753 195.539 117.436 195.574 118.063C195.602 118.69 195.856 119.282 196.082 119.866C196.978 122.155 197.542 124.508 197.973 126.917C198.192 128.135 198.022 128.938 199.229 128.473C200.033 128.156 201.063 126.586 201.677 125.945Z" fill="#263238"/>
<path d="M192.178 129.341C192.107 130.933 192.665 132.483 193.737 133.659C195.17 135.209 196.99 134.194 197.512 132.264C197.992 130.532 197.809 127.637 195.932 126.806C194.055 125.975 192.277 127.405 192.178 129.341Z" fill="#FEC4AD"/>
<path d="M272.208 217.361L277.656 212.065L267.114 198.83L260.523 202.711L272.208 217.361Z" fill="#FEC4AD"/>
<path d="M283.219 210.43C282.612 210.219 281.371 210.895 280.432 211.494C280.192 211.642 279.981 211.79 279.797 211.916L279.783 211.923C279.748 211.952 279.719 211.973 279.691 211.994C279.48 212.142 279.324 212.254 279.268 212.297C279.197 212.332 279.169 212.402 279.183 212.473C279.204 212.543 279.268 212.592 279.338 212.6C279.988 212.628 280.637 212.607 281.286 212.536C281.434 212.522 281.575 212.508 281.716 212.487C282.189 212.452 282.641 212.297 283.029 212.036C283.17 211.944 283.304 211.846 283.417 211.733C283.621 211.487 283.692 211.149 283.593 210.839C283.551 210.663 283.41 210.501 283.219 210.43ZM283.262 210.937C283.332 211.142 283.297 211.374 283.149 211.543C282.965 211.768 282.598 211.952 282.076 212.078C281.674 212.177 281.187 212.247 280.616 212.276C280.39 212.283 280.15 212.297 279.903 212.29C279.981 212.226 280.058 212.17 280.143 212.114C280.199 212.071 280.256 212.036 280.312 211.994C281.067 211.466 281.9 211.05 282.782 210.761C282.888 210.733 283.001 210.733 283.113 210.768C283.184 210.789 283.24 210.853 283.262 210.937Z" fill="#407BFF"/>
<path d="M280.201 208.183C279.869 208.31 279.608 208.578 279.481 208.902C279.036 209.986 279.693 211.655 279.805 211.916C279.805 211.923 279.805 211.923 279.812 211.923C279.812 211.937 279.812 211.944 279.82 211.944C279.848 212.001 279.897 212.043 279.961 212.05C279.996 212.057 280.031 212.05 280.067 212.036C280.088 212.029 280.116 212.008 280.123 211.994C280.13 211.979 280.137 211.979 280.144 211.972C280.243 211.846 280.349 211.684 280.44 211.493C280.963 210.514 281.449 208.88 281.019 208.317C280.892 208.148 280.659 207.993 280.201 208.183ZM280.024 211.508C279.834 210.951 279.495 209.768 279.805 209.035C279.89 208.831 280.038 208.655 280.236 208.549L280.335 208.5C280.638 208.38 280.716 208.486 280.744 208.521C281.047 208.937 280.575 210.606 280.024 211.508Z" fill="#407BFF"/>
<path opacity="0.2" d="M266.561 198.02L271.528 204.359L264.811 208.099L259.766 201.922L266.561 198.02Z" fill="black"/>
<path d="M175.293 192.337L174.594 195.07C174.488 195.288 174.749 195.493 175.095 195.486L206.198 194.753C206.474 194.739 206.692 194.605 206.706 194.436L205.93 191.57C205.951 191.386 205.704 191.231 205.408 191.239L175.794 192.105C175.596 192.091 175.406 192.182 175.293 192.337Z" fill="#263238"/>
<path d="M202.973 195.076L202.154 195.16C201.992 195.153 201.858 195.111 201.858 195.012L201.844 191.484C201.844 191.385 201.978 191.287 202.14 191.265L202.959 191.174C203.121 191.181 203.255 191.223 203.255 191.329L203.269 194.857C203.262 194.963 203.135 195.062 202.973 195.076Z" fill="#407BFF"/>
<path d="M191.833 195.22L191.014 195.305C190.852 195.298 190.725 195.256 190.718 195.157L190.711 191.628C190.711 191.53 190.845 191.431 191.007 191.41L191.819 191.318C191.981 191.325 192.115 191.368 192.115 191.473L192.129 195.002C192.129 195.115 191.995 195.199 191.833 195.22Z" fill="#407BFF"/>
<path d="M191.833 195.22L191.014 195.305C190.852 195.298 190.725 195.256 190.718 195.157L190.711 191.628C190.711 191.53 190.845 191.431 191.007 191.41L191.819 191.318C191.981 191.325 192.115 191.368 192.115 191.473L192.129 195.002C192.129 195.115 191.995 195.199 191.833 195.22Z" fill="#407BFF"/>
<path d="M270.73 200.858L269.354 201.633L269.347 201.64L266.983 202.971L264.86 204.162L264.853 204.169L262.672 205.394V205.401L261.84 205.873C261.84 205.873 261.649 205.739 261.317 205.493C261.19 205.401 261.042 205.296 260.873 205.169C260.358 204.782 259.631 204.239 258.791 203.57C258.791 203.57 258.791 203.57 258.791 203.563C254.402 200.105 246.591 193.294 244.27 187.11C242.767 188.899 240.968 191.139 238.907 193.618C230.038 204.303 216.243 219.382 199.668 221.347C199.33 221.397 198.998 221.425 198.652 221.453C193.113 221.932 188.746 221.376 185.344 220.129C176.743 216.988 174.344 209.437 174.937 203.021V203C174.986 199.999 175.579 194.646 175.579 194.646L206.957 194.681C211.381 189.321 220.251 180.926 229.325 175.629C229.537 175.495 229.756 175.369 229.974 175.256C230.242 175.094 230.518 174.953 230.786 174.805C233.735 173.192 236.685 171.946 239.479 171.269C240.1 171.121 240.714 170.995 241.32 170.903C241.956 170.805 242.584 170.748 243.197 170.72V170.727C247.495 170.53 251.227 172.129 253.76 176.411L270.272 200.189L270.73 200.858Z" fill="#407BFF"/>
<path d="M253.799 168.304L219.125 169.734L220.141 147.709L254.815 146.279L253.799 168.304Z" fill="#407BFF"/>
<path d="M253.394 170.039L219.221 171.447C218.255 171.49 217.5 170.729 217.549 169.764L218.558 147.88C218.601 146.908 219.426 146.091 220.393 146.049L254.565 144.64C255.532 144.598 256.287 145.359 256.238 146.324L255.229 168.207C255.186 169.179 254.361 170.003 253.394 170.039Z" fill="#263238"/>
<path d="M253.799 168.308L219.125 169.737L220.141 147.713L254.815 146.283L253.799 168.308Z" fill="#407BFF"/>
<path opacity="0.9" d="M253.799 168.308L219.125 169.737L220.141 147.713L254.815 146.283L253.799 168.308Z" fill="white"/>
<path opacity="0.1" d="M232.448 145.564L226.719 171.132L228.998 171.04L234.65 145.473L232.448 145.564Z" fill="white"/>
<path opacity="0.1" d="M235.964 145.416L230.234 170.983L234.757 170.8L240.409 145.232L235.964 145.416Z" fill="white"/>
<path d="M242.542 170.314L254.086 169.99C254.284 171.328 253.712 171.829 252.978 171.85L249.288 171.941L246.825 171.998L242.994 172.103L219.222 172.793L219.031 171.124L242.542 170.314Z" fill="#407BFF"/>
<path d="M242.54 170.316L254.084 169.992C254.281 171.33 253.71 171.83 252.976 171.852L249.285 171.943L246.823 172L242.991 172.105L213.567 173.007C213.229 173.014 212.918 172.831 212.77 172.521C212.509 171.971 212.897 171.323 213.511 171.302L242.54 170.316Z" fill="#407BFF"/>
<path opacity="0.2" d="M242.54 170.316L254.084 169.992C254.281 171.33 253.71 171.83 252.976 171.852L249.285 171.943L246.823 172L242.991 172.105L213.567 173.007C213.229 173.014 212.918 172.831 212.77 172.521C212.509 171.971 212.897 171.323 213.511 171.302L242.54 170.316Z" fill="black"/>
<path opacity="0.2" d="M254.087 169.992L254.158 170.457C254.264 171.175 253.713 171.83 252.979 171.852L249.289 171.943L242.438 172.19L242.55 170.316L254.087 169.992Z" fill="black"/>
<path opacity="0.2" d="M194.289 156.014C194.289 156.014 192.659 159.331 197.365 168.093L199.334 171.664C199.983 172.84 204.301 170.438 205.585 168.234C205.585 168.234 197.337 163.289 194.289 156.014Z" fill="black"/>
<path d="M234.204 166.225L237.485 165.26L236.956 170.324C236.956 170.324 232.377 173.381 230.789 170.458L231.424 168.824C231.918 167.584 232.934 166.626 234.204 166.225Z" fill="#FEC4AD"/>
<path d="M241.256 167.246L240.847 169.071C240.727 169.634 240.247 170.05 239.668 170.099L236.938 170.31L237.467 165.246L240.148 165.669C240.861 165.76 241.369 166.415 241.27 167.127C241.27 167.176 241.263 167.211 241.256 167.246Z" fill="#FEC4AD"/>
<path d="M206.881 174.783C209.168 177.882 212.385 180.467 216.174 181.207C220.634 182.08 229.214 175.783 233.236 171.705C233.031 169.987 233.151 169.057 231.429 168.817C231.429 168.817 227.005 172.057 218.651 174.001C215.955 174.628 214.156 171.874 211.799 167.867C210.628 165.866 206.832 157.675 205.4 155.851C203.106 152.921 196.565 155.02 199.162 162.07C200.256 165.042 205.011 172.255 206.881 174.783Z" fill="#FEC4AD"/>
<path d="M204.447 151.059C209.089 155.313 211.347 162.835 211.347 162.835L200.509 169.428C200.509 169.428 192.585 158.327 193.996 154.461C195.111 151.46 197.179 149.488 199.895 149.319C201.582 149.213 203.205 149.918 204.447 151.059Z" fill="#407BFF"/>
<path d="M179.593 195.647L178.775 195.668C178.612 195.647 178.485 195.591 178.492 195.485L178.789 191.97C178.803 191.865 178.937 191.78 179.099 191.773L179.918 191.752C180.08 191.773 180.207 191.836 180.2 191.935L179.904 195.457C179.897 195.562 179.756 195.668 179.593 195.647Z" fill="#407BFF"/>
<path d="M260.502 207.367L271.058 202.099L270.155 198.352L258.117 203.838L260.502 207.367Z" fill="#407BFF"/>
<path opacity="0.5" d="M260.502 207.367L271.058 202.099L270.155 198.352L258.117 203.838L260.502 207.367Z" fill="white"/>
<path d="M277.232 211.487L269.95 213.692C269.66 213.769 269.477 214.044 269.512 214.34L270.387 220.932C270.5 221.58 271.114 222.024 271.763 221.911C271.805 221.904 271.848 221.897 271.89 221.883C284.055 219.862 288.07 217.636 289.375 217.192C293.108 215.931 291.619 213.177 290.292 213.262C284.337 213.628 282.481 212.945 280.117 211.874C278.854 211.431 277.669 211.353 277.232 211.487Z" fill="#263238"/>
<path d="M179.32 124.579C177.132 124.924 174.966 123.247 174.282 121.148C173.597 119.05 174.162 116.704 175.284 114.795C176.109 113.387 181.521 110.048 183.532 113.809C187.526 121.289 179.32 124.579 179.32 124.579Z" fill="#263238"/>
<path d="M253.485 153.84L232.141 154.741L232.239 152.628L253.584 151.727L253.485 153.84Z" fill="#407BFF"/>
<g opacity="0.7">
<path d="M253.485 153.84L232.141 154.741L232.239 152.628L253.584 151.727L253.485 153.84Z" fill="white"/>
</g>
<path d="M253.36 156.767L232.016 157.676L232.107 155.563L253.452 154.654L253.36 156.767Z" fill="#407BFF"/>
<g opacity="0.7">
<path d="M253.36 156.767L232.016 157.676L232.107 155.563L253.452 154.654L253.36 156.767Z" fill="white"/>
</g>
<path d="M253.22 159.703L231.875 160.611L231.974 158.491L253.318 157.59L253.22 159.703Z" fill="#407BFF"/>
<g opacity="0.7">
<path d="M253.22 159.703L231.875 160.611L231.974 158.491L253.318 157.59L253.22 159.703Z" fill="white"/>
</g>
<path d="M253.095 162.633L231.75 163.541L231.849 161.428L253.193 160.52L253.095 162.633Z" fill="#407BFF"/>
<g opacity="0.7">
<path d="M253.095 162.633L231.75 163.541L231.849 161.428L253.193 160.52L253.095 162.633Z" fill="white"/>
</g>
<path d="M252.97 165.572L231.625 166.481L231.717 164.368L253.061 163.459L252.97 165.572Z" fill="#407BFF"/>
<g opacity="0.7">
<path d="M252.97 165.572L231.625 166.481L231.717 164.368L253.061 163.459L252.97 165.572Z" fill="white"/>
</g>
<path d="M223.526 155.926L221.812 156L221.843 156.704L223.556 156.63L223.526 155.926Z" fill="#407BFF"/>
<g opacity="0.5">
<path d="M223.526 155.926L221.812 156L221.843 156.704L223.556 156.63L223.526 155.926Z" fill="white"/>
</g>
<path d="M223.447 157.956L221.734 158.029L221.765 158.733L223.478 158.659L223.447 157.956Z" fill="#407BFF"/>
<g opacity="0.5">
<path d="M223.447 157.956L221.734 158.029L221.765 158.733L223.478 158.659L223.447 157.956Z" fill="white"/>
</g>
<path d="M223.362 159.991L221.648 160.064L221.679 160.768L223.392 160.695L223.362 159.991Z" fill="#407BFF"/>
<g opacity="0.5">
<path d="M223.362 159.991L221.648 160.064L221.679 160.768L223.392 160.695L223.362 159.991Z" fill="white"/>
</g>
<path d="M223.291 162.022L221.578 162.096L221.608 162.799L223.321 162.726L223.291 162.022Z" fill="#407BFF"/>
<g opacity="0.5">
<path d="M223.291 162.022L221.578 162.096L221.608 162.799L223.321 162.726L223.291 162.022Z" fill="white"/>
</g>
<path d="M223.205 164.054L221.492 164.127L221.522 164.831L223.236 164.757L223.205 164.054Z" fill="#407BFF"/>
<g opacity="0.5">
<path d="M221.516 164.831L221.579 164.126L223.287 164.049L223.223 164.76L221.516 164.831Z" fill="white"/>
</g>
<path d="M223.119 166.084L221.406 166.156L221.436 166.86L223.149 166.788L223.119 166.084Z" fill="#407BFF"/>
<g opacity="0.5">
<path d="M223.119 166.084L221.406 166.156L221.436 166.86L223.149 166.788L223.119 166.084Z" fill="white"/>
</g>
<path d="M225.308 153.983L221.766 155.293L221.801 154.371L223.762 154.054L221.822 153.92L221.857 152.99L225.308 153.983Z" fill="#407BFF"/>
<path d="M246.93 150.623L232.141 151.25L232.211 149.785L247.001 149.158L246.93 150.623Z" fill="#407BFF"/>
<g opacity="0.7">
<path d="M246.93 150.623L232.141 151.25L232.211 149.785L247.001 149.158L246.93 150.623Z" fill="white"/>
</g>
<path d="M226.979 151.377L224.812 151.476L225.687 150.919L225.927 151.138L226.188 150.912L226.979 151.377Z" fill="#407BFF"/>
<path d="M225.602 150.852L224.727 151.415L224.79 150.119L225.602 150.852Z" fill="#407BFF"/>
<path d="M227.118 150.082L227.047 151.308L226.25 150.836L227.118 150.082Z" fill="#407BFF"/>
<path d="M225.955 150.619L225.906 150.67L225.911 150.675L225.96 150.624L225.955 150.619Z" fill="white"/>
<path d="M225.911 150.64L225.906 150.645L225.955 150.696L225.96 150.691L225.911 150.64Z" fill="white"/>
<path d="M227.12 149.955L226.188 150.8L225.927 151.033L225.687 150.807L224.876 150.075L224.812 150.018L227.12 149.955Z" fill="#407BFF"/>
<path d="M223.541 150.185L221.828 150.258L221.837 150.469L223.55 150.397L223.541 150.185Z" fill="#407BFF"/>
<path d="M223.541 150.724L221.828 150.797L221.837 151.008L223.55 150.936L223.541 150.724Z" fill="#407BFF"/>
<path d="M223.541 151.263L221.828 151.336L221.837 151.547L223.55 151.475L223.541 151.263Z" fill="#407BFF"/>
<path d="M322.944 44.273H312.663C311.732 44.273 310.977 43.5193 310.977 42.5896C310.977 41.6599 311.732 40.9062 312.663 40.9062H322.944C323.875 40.9062 324.63 41.6599 324.63 42.5896C324.63 43.5193 323.875 44.273 322.944 44.273Z" fill="#407BFF"/>
<g opacity="0.7">
<path d="M322.944 44.273H312.663C311.732 44.273 310.977 43.5193 310.977 42.5896C310.977 41.6599 311.732 40.9062 312.663 40.9062H322.944C323.875 40.9062 324.63 41.6599 324.63 42.5896C324.63 43.5193 323.875 44.273 322.944 44.273Z" fill="white"/>
</g>
<path d="M360.66 78.8608L321.245 151.266C320.737 152.196 319.566 152.541 318.634 152.034L251.566 115.655C250.635 115.148 250.289 113.979 250.797 113.049L302.059 18.8727C302.567 17.943 303.739 17.5979 304.67 18.105L349.864 42.6158L360.66 78.8608Z" fill="#407BFF"/>
<g opacity="0.2">
<path d="M360.66 78.8608L321.245 151.266C320.737 152.196 319.566 152.541 318.634 152.034L251.566 115.655C250.635 115.148 250.289 113.979 250.797 113.049L302.059 18.8727C302.567 17.943 303.739 17.5979 304.67 18.105L349.864 42.6158L360.66 78.8608Z" fill="white"/>
</g>
<path d="M338.544 95.1128L288.453 68.1387L286.778 71.2381L336.868 98.2122L338.544 95.1128Z" fill="#407BFF"/>
<path d="M331.7 107.777L281.609 80.8027L279.934 83.9022L330.025 110.876L331.7 107.777Z" fill="#407BFF"/>
<path d="M324.856 120.441L274.766 93.4668L273.091 96.5662L323.181 123.54L324.856 120.441Z" fill="#407BFF"/>
<path d="M349.921 42.584L338.031 64.4254C337.523 65.3551 337.869 66.5243 338.8 67.0314L360.611 78.8642L349.921 42.584Z" fill="#407BFF"/>
<path opacity="0.7" d="M349.921 42.584L338.031 64.4254C337.523 65.3551 337.869 66.5243 338.8 67.0314L360.611 78.8642L349.921 42.584Z" fill="white"/>
<path d="M370.934 76.4272L331.518 148.833C331.01 149.762 329.839 150.108 328.908 149.6L261.839 113.222C260.908 112.714 260.562 111.545 261.07 110.616L312.333 16.4391C312.841 15.5094 314.012 15.1643 314.944 15.6714L360.138 40.1822L370.934 76.4272Z" fill="#407BFF"/>
<g opacity="0.5">
<path d="M370.934 76.4272L331.518 148.833C331.01 149.762 329.839 150.108 328.908 149.6L261.839 113.222C260.908 112.714 260.562 111.545 261.07 110.616L312.333 16.4391C312.841 15.5094 314.012 15.1643 314.944 15.6714L360.138 40.1822L370.934 76.4272Z" fill="white"/>
</g>
<path d="M347.484 91.9584L300.068 66.4263C299.327 66.0319 298.409 66.3066 298.007 67.0391L297.774 67.4687C297.379 68.2083 297.654 69.1239 298.388 69.5254L345.805 95.0575C346.546 95.4519 347.463 95.1772 347.865 94.4447L348.098 94.015C348.501 93.2755 348.225 92.3528 347.484 91.9584Z" fill="#407BFF"/>
<path d="M340.641 104.622L293.224 79.0904C292.483 78.6959 291.566 78.9706 291.163 79.7031L290.931 80.1328C290.535 80.8723 290.811 81.788 291.544 82.1894L338.961 107.722C339.702 108.116 340.62 107.841 341.022 107.109L341.255 106.679C341.657 105.94 341.382 105.017 340.641 104.622Z" fill="#407BFF"/>
<path d="M333.797 117.287L286.38 91.7544C285.639 91.36 284.722 91.6347 284.32 92.3672L284.087 92.7968C283.692 93.5364 283.967 94.452 284.701 94.8535L332.118 120.386C332.858 120.78 333.776 120.505 334.178 119.773L334.411 119.343C334.813 118.604 334.538 117.688 333.797 117.287Z" fill="#407BFF"/>
<path d="M360.202 40.1523L348.312 61.9937C347.804 62.9234 348.15 64.0926 349.082 64.5998L370.892 76.4326L360.202 40.1523Z" fill="#407BFF"/>
<path opacity="0.7" d="M360.202 40.1523L348.312 61.9937C347.804 62.9234 348.15 64.0926 349.082 64.5998L370.892 76.4326L360.202 40.1523Z" fill="white"/>
<path d="M437.258 70.4436L422.419 73.205C419.438 60.5484 407.44 48.8467 396.001 40.3233C391.487 36.9628 386.208 34.0601 380.593 31.8287C380.593 31.8287 402.546 57.9403 403.367 71.9192L379.065 70.3538C379.065 70.3538 406.71 85.8438 415.98 114.282C415.987 114.276 433.814 91.411 437.258 70.4436Z" fill="#407BFF"/>
<path d="M186.615 167.544L193.015 240.562H182.699L175.812 161.986H180.54C183.708 161.986 186.34 164.402 186.615 167.544Z" fill="#F3BA7A"/>
<path opacity="0.2" d="M186.68 168.206L193.023 240.57H182.707L175.82 161.994H179.885C183.42 161.987 186.369 164.692 186.68 168.206Z" fill="black"/>
<path d="M179.914 166.748L186.384 240.57H124.968L118.575 167.657C118.307 164.614 120.713 161.994 123.775 161.994H174.706C177.423 161.987 179.681 164.058 179.914 166.748Z" fill="#F3BA7A"/>
<path opacity="0.2" d="M179.989 167.551L186.388 240.57H124.972L118.664 168.615C118.354 165.058 121.162 161.994 124.739 161.994H173.906C177.074 161.987 179.713 164.403 179.989 167.551Z" fill="white"/>
<path d="M287.996 240.572H125.248L123.477 220.322H279.706C283.311 220.322 286.486 223.238 286.797 226.837L287.996 240.572Z" fill="#F3BA7A"/>
<path opacity="0.2" d="M287.996 240.572H125.248L123.477 220.322H279.706C283.311 220.322 286.486 223.238 286.797 226.837L287.996 240.572Z" fill="white"/>
<path d="M295.466 248.326H123.34C121.11 248.326 119.297 246.522 119.297 244.29C119.297 242.064 121.103 240.254 123.34 240.254H295.466C297.696 240.254 299.51 242.057 299.51 244.29C299.51 246.515 297.696 248.326 295.466 248.326Z" fill="#F3BA7A"/>
<path opacity="0.2" d="M295.464 248.326H195.543C193.313 248.326 191.5 246.522 191.5 244.29C191.5 242.064 193.306 240.254 195.543 240.254H295.464C297.694 240.254 299.508 242.057 299.508 244.29C299.508 246.515 297.694 248.326 295.464 248.326Z" fill="black"/>
<path d="M125.594 248.328L127.633 255.252H131.711L133.955 248.328H125.594Z" fill="#263238"/>
<path opacity="0.5" d="M125.594 248.328L127.633 255.252H131.711L133.955 248.328H125.594Z" fill="white"/>
<path d="M184.039 248.328L186.078 255.252H190.157L192.401 248.328H184.039Z" fill="#263238"/>
<path opacity="0.5" d="M184.039 248.328L186.078 255.252H190.157L192.401 248.328H184.039Z" fill="white"/>
<path d="M228.773 248.328L230.813 255.252H234.891L237.135 248.328H228.773Z" fill="#263238"/>
<path opacity="0.5" d="M228.773 248.328L230.813 255.252H234.891L237.135 248.328H228.773Z" fill="white"/>
<path d="M287.219 248.328L289.258 255.252H293.336L295.58 248.328H287.219Z" fill="#263238"/>
<path opacity="0.5" d="M287.219 248.328L289.258 255.252H293.336L295.58 248.328H287.219Z" fill="white"/>
<path d="M37.3005 293.974L41.6005 301.374L45.9405 293.974H47.9005L42.5005 302.994V308.174H40.7005V302.954L35.3205 293.974H37.3005ZM52.3296 308.374C51.5429 308.374 50.8296 308.234 50.1896 307.954C49.5496 307.66 48.9963 307.267 48.5296 306.774C48.0629 306.267 47.7029 305.687 47.4496 305.034C47.1963 304.38 47.0696 303.694 47.0696 302.974C47.0696 302.24 47.1963 301.547 47.4496 300.894C47.7029 300.24 48.0629 299.667 48.5296 299.174C48.9963 298.667 49.5496 298.274 50.1896 297.994C50.8429 297.7 51.5629 297.554 52.3496 297.554C53.1229 297.554 53.8296 297.7 54.4696 297.994C55.1096 298.274 55.6629 298.667 56.1296 299.174C56.6096 299.667 56.9763 300.24 57.2296 300.894C57.4829 301.547 57.6096 302.24 57.6096 302.974C57.6096 303.694 57.4829 304.38 57.2296 305.034C56.9763 305.687 56.6163 306.267 56.1496 306.774C55.6829 307.267 55.1229 307.66 54.4696 307.954C53.8296 308.234 53.1163 308.374 52.3296 308.374ZM48.8696 302.994C48.8696 303.714 49.0229 304.367 49.3296 304.954C49.6496 305.54 50.0696 306.007 50.5896 306.354C51.1096 306.687 51.6896 306.854 52.3296 306.854C52.9696 306.854 53.5496 306.68 54.0696 306.334C54.6029 305.987 55.0229 305.52 55.3296 304.934C55.6496 304.334 55.8096 303.674 55.8096 302.954C55.8096 302.234 55.6496 301.58 55.3296 300.994C55.0229 300.407 54.6029 299.94 54.0696 299.594C53.5496 299.247 52.9696 299.074 52.3296 299.074C51.6896 299.074 51.1096 299.254 50.5896 299.614C50.0696 299.96 49.6496 300.427 49.3296 301.014C49.0229 301.6 48.8696 302.26 48.8696 302.994ZM59.6423 303.994V297.734H61.4023V303.654C61.4023 304.72 61.5889 305.52 61.9623 306.054C62.3356 306.587 62.8889 306.854 63.6223 306.854C64.1023 306.854 64.5623 306.754 65.0023 306.554C65.4556 306.34 65.8623 306.04 66.2223 305.654C66.5823 305.267 66.8623 304.807 67.0623 304.274V297.734H68.8223V306.174C68.8223 306.387 68.8623 306.547 68.9423 306.654C69.0356 306.747 69.1823 306.8 69.3823 306.814V308.174C69.1823 308.2 69.0223 308.214 68.9023 308.214C68.7956 308.227 68.6889 308.234 68.5823 308.234C68.2489 308.234 67.9623 308.134 67.7223 307.934C67.4823 307.72 67.3556 307.46 67.3423 307.154L67.3023 305.934C66.8489 306.707 66.2356 307.307 65.4623 307.734C64.7023 308.16 63.8689 308.374 62.9623 308.374C61.8689 308.374 61.0423 308.007 60.4823 307.274C59.9223 306.527 59.6423 305.434 59.6423 303.994ZM77.0926 308.174V293.974H82.0126C83.5326 293.974 84.7992 294.294 85.8126 294.934C86.8392 295.56 87.6059 296.414 88.1126 297.494C88.6192 298.56 88.8726 299.747 88.8726 301.054C88.8726 302.494 88.5926 303.747 88.0326 304.814C87.4726 305.88 86.6792 306.707 85.6526 307.294C84.6259 307.88 83.4126 308.174 82.0126 308.174H77.0926ZM87.0526 301.054C87.0526 299.987 86.8526 299.04 86.4526 298.214C86.0659 297.387 85.4992 296.74 84.7526 296.274C84.0059 295.807 83.0926 295.574 82.0126 295.574H78.8926V306.574H82.0126C83.1059 306.574 84.0259 306.334 84.7726 305.854C85.5192 305.36 86.0859 304.7 86.4726 303.874C86.8592 303.034 87.0526 302.094 87.0526 301.054ZM95.689 308.374C94.9023 308.374 94.189 308.234 93.549 307.954C92.909 307.66 92.3557 307.267 91.889 306.774C91.4223 306.267 91.0623 305.687 90.809 305.034C90.5557 304.38 90.429 303.694 90.429 302.974C90.429 302.24 90.5557 301.547 90.809 300.894C91.0623 300.24 91.4223 299.667 91.889 299.174C92.3557 298.667 92.909 298.274 93.549 297.994C94.2023 297.7 94.9223 297.554 95.709 297.554C96.4823 297.554 97.189 297.7 97.829 297.994C98.469 298.274 99.0223 298.667 99.489 299.174C99.969 299.667 100.336 300.24 100.589 300.894C100.842 301.547 100.969 302.24 100.969 302.974C100.969 303.694 100.842 304.38 100.589 305.034C100.336 305.687 99.9757 306.267 99.509 306.774C99.0423 307.267 98.4823 307.66 97.829 307.954C97.189 308.234 96.4757 308.374 95.689 308.374ZM92.229 302.994C92.229 303.714 92.3823 304.367 92.689 304.954C93.009 305.54 93.429 306.007 93.949 306.354C94.469 306.687 95.049 306.854 95.689 306.854C96.329 306.854 96.909 306.68 97.429 306.334C97.9623 305.987 98.3823 305.52 98.689 304.934C99.009 304.334 99.169 303.674 99.169 302.954C99.169 302.234 99.009 301.58 98.689 300.994C98.3823 300.407 97.9623 299.94 97.429 299.594C96.909 299.247 96.329 299.074 95.689 299.074C95.049 299.074 94.469 299.254 93.949 299.614C93.429 299.96 93.009 300.427 92.689 301.014C92.3823 301.6 92.229 302.26 92.229 302.994ZM112.162 308.174H110.402V302.334C110.402 301.227 110.228 300.42 109.882 299.914C109.548 299.394 109.035 299.134 108.342 299.134C107.862 299.134 107.382 299.254 106.902 299.494C106.435 299.734 106.015 300.06 105.642 300.474C105.282 300.874 105.022 301.34 104.862 301.874V308.174H103.102V297.734H104.702V299.974C104.982 299.48 105.342 299.054 105.782 298.694C106.222 298.334 106.722 298.054 107.282 297.854C107.842 297.654 108.428 297.554 109.042 297.554C109.642 297.554 110.142 297.667 110.542 297.894C110.955 298.107 111.275 298.414 111.502 298.814C111.742 299.2 111.908 299.66 112.002 300.194C112.108 300.727 112.162 301.307 112.162 301.934V308.174ZM113.629 298.154L114.029 295.854H113.429V293.574H115.089V295.854L114.489 298.154H113.629ZM122.154 307.654C122.007 307.72 121.807 307.807 121.554 307.914C121.301 308.02 121.007 308.114 120.674 308.194C120.341 308.274 119.987 308.314 119.614 308.314C119.187 308.314 118.794 308.24 118.434 308.094C118.074 307.934 117.787 307.694 117.574 307.374C117.361 307.04 117.254 306.627 117.254 306.134V299.114H115.834V297.734H117.254V294.254H119.014V297.734H121.354V299.114H119.014V305.594C119.041 305.967 119.167 306.247 119.394 306.434C119.621 306.607 119.887 306.694 120.194 306.694C120.541 306.694 120.861 306.634 121.154 306.514C121.447 306.394 121.641 306.307 121.734 306.254L122.154 307.654ZM137.904 308.174H136.144V302.334C136.144 301.267 135.95 300.467 135.564 299.934C135.19 299.4 134.65 299.134 133.944 299.134C133.49 299.134 133.03 299.254 132.564 299.494C132.11 299.734 131.71 300.06 131.364 300.474C131.017 300.874 130.764 301.34 130.604 301.874V308.174H128.844V293.574H130.604V299.974C131.017 299.227 131.577 298.64 132.284 298.214C133.004 297.774 133.777 297.554 134.604 297.554C135.23 297.554 135.75 297.667 136.164 297.894C136.59 298.107 136.93 298.414 137.184 298.814C137.437 299.214 137.617 299.68 137.724 300.214C137.844 300.734 137.904 301.307 137.904 301.934V308.174ZM139.821 305.154C139.821 304.487 140.007 303.914 140.381 303.434C140.767 302.94 141.294 302.56 141.961 302.294C142.627 302.027 143.401 301.894 144.281 301.894C144.747 301.894 145.241 301.934 145.761 302.014C146.281 302.08 146.741 302.187 147.141 302.334V301.574C147.141 300.774 146.901 300.147 146.421 299.694C145.941 299.227 145.261 298.994 144.381 298.994C143.807 298.994 143.254 299.1 142.721 299.314C142.201 299.514 141.647 299.807 141.061 300.194L140.421 298.954C141.101 298.487 141.781 298.14 142.461 297.914C143.141 297.674 143.847 297.554 144.581 297.554C145.914 297.554 146.967 297.927 147.741 298.674C148.514 299.407 148.901 300.434 148.901 301.754V306.174C148.901 306.387 148.941 306.547 149.021 306.654C149.114 306.747 149.261 306.8 149.461 306.814V308.174C149.287 308.2 149.134 308.22 149.001 308.234C148.881 308.247 148.781 308.254 148.701 308.254C148.287 308.254 147.974 308.14 147.761 307.914C147.561 307.687 147.447 307.447 147.421 307.194L147.381 306.534C146.927 307.12 146.334 307.574 145.601 307.894C144.867 308.214 144.141 308.374 143.421 308.374C142.727 308.374 142.107 308.234 141.561 307.954C141.014 307.66 140.587 307.274 140.281 306.794C139.974 306.3 139.821 305.754 139.821 305.154ZM146.621 305.894C146.781 305.707 146.907 305.52 147.001 305.334C147.094 305.134 147.141 304.967 147.141 304.834V303.534C146.727 303.374 146.294 303.254 145.841 303.174C145.387 303.08 144.941 303.034 144.501 303.034C143.607 303.034 142.881 303.214 142.321 303.574C141.774 303.92 141.501 304.4 141.501 305.014C141.501 305.347 141.587 305.674 141.761 305.994C141.947 306.3 142.214 306.554 142.561 306.754C142.921 306.954 143.361 307.054 143.881 307.054C144.427 307.054 144.947 306.947 145.441 306.734C145.934 306.507 146.327 306.227 146.621 305.894ZM154.383 308.174L150.283 297.734H152.123L155.403 306.494L158.683 297.734H160.403L156.303 308.174H154.383ZM166.433 308.374C165.646 308.374 164.926 308.234 164.273 307.954C163.633 307.66 163.073 307.267 162.593 306.774C162.126 306.267 161.759 305.687 161.493 305.034C161.239 304.38 161.113 303.687 161.113 302.954C161.113 301.967 161.339 301.067 161.793 300.254C162.246 299.44 162.873 298.787 163.673 298.294C164.486 297.8 165.413 297.554 166.453 297.554C167.506 297.554 168.419 297.807 169.193 298.314C169.979 298.807 170.586 299.46 171.013 300.274C171.453 301.074 171.673 301.94 171.673 302.874C171.673 303.007 171.666 303.14 171.653 303.274C171.653 303.394 171.646 303.487 171.633 303.554H162.973C163.026 304.234 163.213 304.84 163.533 305.374C163.866 305.894 164.293 306.307 164.813 306.614C165.333 306.907 165.893 307.054 166.493 307.054C167.133 307.054 167.733 306.894 168.293 306.574C168.866 306.254 169.259 305.834 169.473 305.314L170.993 305.734C170.766 306.24 170.426 306.694 169.973 307.094C169.533 307.494 169.006 307.807 168.393 308.034C167.793 308.26 167.139 308.374 166.433 308.374ZM162.913 302.334H170.033C169.979 301.654 169.786 301.054 169.453 300.534C169.119 300.014 168.693 299.607 168.173 299.314C167.653 299.02 167.079 298.874 166.453 298.874C165.839 298.874 165.273 299.02 164.753 299.314C164.233 299.607 163.806 300.014 163.473 300.534C163.153 301.054 162.966 301.654 162.913 302.334ZM177.868 305.154C177.868 304.487 178.054 303.914 178.428 303.434C178.814 302.94 179.341 302.56 180.008 302.294C180.674 302.027 181.448 301.894 182.328 301.894C182.794 301.894 183.288 301.934 183.808 302.014C184.328 302.08 184.788 302.187 185.188 302.334V301.574C185.188 300.774 184.948 300.147 184.468 299.694C183.988 299.227 183.308 298.994 182.428 298.994C181.854 298.994 181.301 299.1 180.768 299.314C180.248 299.514 179.694 299.807 179.108 300.194L178.468 298.954C179.148 298.487 179.828 298.14 180.508 297.914C181.188 297.674 181.894 297.554 182.628 297.554C183.961 297.554 185.014 297.927 185.788 298.674C186.561 299.407 186.948 300.434 186.948 301.754V306.174C186.948 306.387 186.988 306.547 187.068 306.654C187.161 306.747 187.308 306.8 187.508 306.814V308.174C187.334 308.2 187.181 308.22 187.048 308.234C186.928 308.247 186.828 308.254 186.748 308.254C186.334 308.254 186.021 308.14 185.808 307.914C185.608 307.687 185.494 307.447 185.468 307.194L185.428 306.534C184.974 307.12 184.381 307.574 183.648 307.894C182.914 308.214 182.188 308.374 181.468 308.374C180.774 308.374 180.154 308.234 179.608 307.954C179.061 307.66 178.634 307.274 178.328 306.794C178.021 306.3 177.868 305.754 177.868 305.154ZM184.668 305.894C184.828 305.707 184.954 305.52 185.048 305.334C185.141 305.134 185.188 304.967 185.188 304.834V303.534C184.774 303.374 184.341 303.254 183.888 303.174C183.434 303.08 182.988 303.034 182.548 303.034C181.654 303.034 180.928 303.214 180.368 303.574C179.821 303.92 179.548 304.4 179.548 305.014C179.548 305.347 179.634 305.674 179.808 305.994C179.994 306.3 180.261 306.554 180.608 306.754C180.968 306.954 181.408 307.054 181.928 307.054C182.474 307.054 182.994 306.947 183.488 306.734C183.981 306.507 184.374 306.227 184.668 305.894ZM198.822 308.174H197.062V302.334C197.062 301.227 196.888 300.42 196.542 299.914C196.208 299.394 195.695 299.134 195.002 299.134C194.522 299.134 194.042 299.254 193.562 299.494C193.095 299.734 192.675 300.06 192.302 300.474C191.942 300.874 191.682 301.34 191.522 301.874V308.174H189.762V297.734H191.362V299.974C191.642 299.48 192.002 299.054 192.442 298.694C192.882 298.334 193.382 298.054 193.942 297.854C194.502 297.654 195.088 297.554 195.702 297.554C196.302 297.554 196.802 297.667 197.202 297.894C197.615 298.107 197.935 298.414 198.162 298.814C198.402 299.2 198.568 299.66 198.662 300.194C198.768 300.727 198.822 301.307 198.822 301.934V308.174ZM201.843 311.014C202.017 311.027 202.19 311.04 202.363 311.054C202.537 311.08 202.67 311.094 202.763 311.094C202.977 311.094 203.163 311.02 203.323 310.874C203.483 310.727 203.657 310.44 203.843 310.014C204.043 309.6 204.297 308.987 204.603 308.174L200.183 297.734H202.043L205.563 306.394L208.743 297.734H210.483L205.403 310.914C205.283 311.22 205.103 311.507 204.863 311.774C204.637 312.054 204.343 312.274 203.983 312.434C203.623 312.594 203.19 312.674 202.683 312.674C202.563 312.674 202.437 312.667 202.303 312.654C202.183 312.64 202.03 312.614 201.843 312.574V311.014ZM217.054 308.174V293.974H222.974C223.6 293.974 224.174 294.107 224.694 294.374C225.214 294.627 225.667 294.974 226.054 295.414C226.44 295.84 226.74 296.327 226.954 296.874C227.167 297.407 227.274 297.954 227.274 298.514C227.274 299.287 227.1 300.027 226.754 300.734C226.407 301.427 225.92 301.994 225.294 302.434C224.667 302.86 223.934 303.074 223.094 303.074H218.854V308.174H217.054ZM218.854 301.474H222.994C223.487 301.474 223.914 301.34 224.274 301.074C224.647 300.807 224.934 300.447 225.134 299.994C225.347 299.54 225.454 299.047 225.454 298.514C225.454 297.954 225.334 297.454 225.094 297.014C224.854 296.56 224.54 296.207 224.154 295.954C223.767 295.7 223.34 295.574 222.874 295.574H218.854V301.474ZM233.659 308.374C232.872 308.374 232.152 308.234 231.499 307.954C230.859 307.66 230.299 307.267 229.819 306.774C229.352 306.267 228.986 305.687 228.719 305.034C228.466 304.38 228.339 303.687 228.339 302.954C228.339 301.967 228.566 301.067 229.019 300.254C229.472 299.44 230.099 298.787 230.899 298.294C231.712 297.8 232.639 297.554 233.679 297.554C234.732 297.554 235.646 297.807 236.419 298.314C237.206 298.807 237.812 299.46 238.239 300.274C238.679 301.074 238.899 301.94 238.899 302.874C238.899 303.007 238.892 303.14 238.879 303.274C238.879 303.394 238.872 303.487 238.859 303.554H230.199C230.252 304.234 230.439 304.84 230.759 305.374C231.092 305.894 231.519 306.307 232.039 306.614C232.559 306.907 233.119 307.054 233.719 307.054C234.359 307.054 234.959 306.894 235.519 306.574C236.092 306.254 236.486 305.834 236.699 305.314L238.219 305.734C237.992 306.24 237.652 306.694 237.199 307.094C236.759 307.494 236.232 307.807 235.619 308.034C235.019 308.26 234.366 308.374 233.659 308.374ZM230.139 302.334H237.259C237.206 301.654 237.012 301.054 236.679 300.534C236.346 300.014 235.919 299.607 235.399 299.314C234.879 299.02 234.306 298.874 233.679 298.874C233.066 298.874 232.499 299.02 231.979 299.314C231.459 299.607 231.032 300.014 230.699 300.534C230.379 301.054 230.192 301.654 230.139 302.334ZM249.916 308.174H248.156V302.334C248.156 301.227 247.982 300.42 247.636 299.914C247.302 299.394 246.789 299.134 246.096 299.134C245.616 299.134 245.136 299.254 244.656 299.494C244.189 299.734 243.769 300.06 243.396 300.474C243.036 300.874 242.776 301.34 242.616 301.874V308.174H240.856V297.734H242.456V299.974C242.736 299.48 243.096 299.054 243.536 298.694C243.976 298.334 244.476 298.054 245.036 297.854C245.596 297.654 246.182 297.554 246.796 297.554C247.396 297.554 247.896 297.667 248.296 297.894C248.709 298.107 249.029 298.414 249.256 298.814C249.496 299.2 249.662 299.66 249.756 300.194C249.862 300.727 249.916 301.307 249.916 301.934V308.174ZM251.972 302.974C251.972 301.987 252.172 301.087 252.572 300.274C252.986 299.447 253.546 298.787 254.252 298.294C254.972 297.8 255.792 297.554 256.712 297.554C257.552 297.554 258.306 297.774 258.972 298.214C259.639 298.654 260.159 299.187 260.532 299.814V293.574H262.292V306.174C262.292 306.387 262.332 306.547 262.412 306.654C262.506 306.747 262.652 306.8 262.852 306.814V308.174C262.519 308.227 262.259 308.254 262.072 308.254C261.726 308.254 261.419 308.134 261.152 307.894C260.899 307.654 260.772 307.387 260.772 307.094V306.214C260.359 306.88 259.806 307.407 259.112 307.794C258.419 308.18 257.699 308.374 256.952 308.374C256.232 308.374 255.566 308.234 254.952 307.954C254.352 307.66 253.826 307.26 253.372 306.754C252.932 306.247 252.586 305.674 252.332 305.034C252.092 304.38 251.972 303.694 251.972 302.974ZM260.532 304.514V301.514C260.372 301.06 260.112 300.654 259.752 300.294C259.392 299.92 258.986 299.627 258.532 299.414C258.092 299.187 257.652 299.074 257.212 299.074C256.692 299.074 256.219 299.187 255.792 299.414C255.379 299.627 255.019 299.92 254.712 300.294C254.419 300.654 254.192 301.067 254.032 301.534C253.872 302 253.792 302.487 253.792 302.994C253.792 303.514 253.879 304.007 254.052 304.474C254.239 304.94 254.492 305.354 254.812 305.714C255.146 306.074 255.526 306.354 255.952 306.554C256.392 306.754 256.866 306.854 257.372 306.854C257.692 306.854 258.019 306.794 258.352 306.674C258.699 306.554 259.026 306.387 259.332 306.174C259.639 305.96 259.899 305.714 260.112 305.434C260.326 305.14 260.466 304.834 260.532 304.514ZM265.231 308.174V297.734H266.991V308.174H265.231ZM265.231 295.774V293.574H266.991V295.774H265.231ZM278.9 308.174H277.14V302.334C277.14 301.227 276.967 300.42 276.62 299.914C276.287 299.394 275.773 299.134 275.08 299.134C274.6 299.134 274.12 299.254 273.64 299.494C273.173 299.734 272.753 300.06 272.38 300.474C272.02 300.874 271.76 301.34 271.6 301.874V308.174H269.84V297.734H271.44V299.974C271.72 299.48 272.08 299.054 272.52 298.694C272.96 298.334 273.46 298.054 274.02 297.854C274.58 297.654 275.167 297.554 275.78 297.554C276.38 297.554 276.88 297.667 277.28 297.894C277.693 298.107 278.013 298.414 278.24 298.814C278.48 299.2 278.647 299.66 278.74 300.194C278.847 300.727 278.9 301.307 278.9 301.934V308.174ZM285.797 308.294C285.09 308.294 284.437 308.154 283.837 307.874C283.25 307.58 282.743 307.187 282.317 306.694C281.89 306.187 281.557 305.614 281.317 304.974C281.09 304.334 280.977 303.667 280.977 302.974C280.977 302.24 281.09 301.547 281.317 300.894C281.557 300.24 281.89 299.667 282.317 299.174C282.757 298.667 283.27 298.274 283.857 297.994C284.443 297.7 285.097 297.554 285.817 297.554C286.683 297.554 287.437 297.767 288.077 298.194C288.73 298.62 289.277 299.16 289.717 299.814V297.734H291.277V308.054C291.277 309.04 291.037 309.874 290.557 310.554C290.09 311.234 289.45 311.747 288.637 312.094C287.837 312.454 286.943 312.634 285.957 312.634C284.783 312.634 283.823 312.427 283.077 312.014C282.33 311.6 281.71 311.04 281.217 310.334L282.237 309.434C282.65 310.047 283.183 310.507 283.837 310.814C284.503 311.12 285.21 311.274 285.957 311.274C286.597 311.274 287.183 311.154 287.717 310.914C288.263 310.687 288.697 310.334 289.017 309.854C289.35 309.374 289.517 308.774 289.517 308.054V306.214C289.13 306.854 288.597 307.36 287.917 307.734C287.25 308.107 286.543 308.294 285.797 308.294ZM286.337 306.854C286.71 306.854 287.07 306.787 287.417 306.654C287.763 306.52 288.083 306.347 288.377 306.134C288.67 305.907 288.917 305.654 289.117 305.374C289.317 305.094 289.45 304.807 289.517 304.514V301.514C289.33 301.034 289.063 300.614 288.717 300.254C288.37 299.88 287.977 299.594 287.537 299.394C287.097 299.18 286.643 299.074 286.177 299.074C285.643 299.074 285.163 299.187 284.737 299.414C284.323 299.64 283.97 299.947 283.677 300.334C283.383 300.707 283.157 301.127 282.997 301.594C282.837 302.06 282.757 302.534 282.757 303.014C282.757 303.534 282.85 304.027 283.037 304.494C283.223 304.947 283.477 305.354 283.797 305.714C284.117 306.074 284.497 306.354 284.937 306.554C285.377 306.754 285.843 306.854 286.337 306.854ZM299.456 308.174V293.974H305.536C306.163 293.974 306.736 294.107 307.256 294.374C307.776 294.627 308.229 294.974 308.616 295.414C309.003 295.84 309.303 296.327 309.516 296.874C309.729 297.407 309.836 297.954 309.836 298.514C309.836 299.167 309.709 299.787 309.456 300.374C309.216 300.96 308.869 301.46 308.416 301.874C307.976 302.287 307.456 302.574 306.856 302.734L310.296 308.174H308.256L305.016 303.074H301.256V308.174H299.456ZM301.256 301.474H305.556C306.049 301.474 306.476 301.34 306.836 301.074C307.209 300.794 307.496 300.427 307.696 299.974C307.909 299.52 308.016 299.034 308.016 298.514C308.016 297.98 307.896 297.494 307.656 297.054C307.416 296.6 307.103 296.24 306.716 295.974C306.329 295.707 305.903 295.574 305.436 295.574H301.256V301.474ZM316.608 308.374C315.822 308.374 315.102 308.234 314.448 307.954C313.808 307.66 313.248 307.267 312.768 306.774C312.302 306.267 311.935 305.687 311.668 305.034C311.415 304.38 311.288 303.687 311.288 302.954C311.288 301.967 311.515 301.067 311.968 300.254C312.422 299.44 313.048 298.787 313.848 298.294C314.662 297.8 315.588 297.554 316.628 297.554C317.682 297.554 318.595 297.807 319.368 298.314C320.155 298.807 320.762 299.46 321.188 300.274C321.628 301.074 321.848 301.94 321.848 302.874C321.848 303.007 321.842 303.14 321.828 303.274C321.828 303.394 321.822 303.487 321.808 303.554H313.148C313.202 304.234 313.388 304.84 313.708 305.374C314.042 305.894 314.468 306.307 314.988 306.614C315.508 306.907 316.068 307.054 316.668 307.054C317.308 307.054 317.908 306.894 318.468 306.574C319.042 306.254 319.435 305.834 319.648 305.314L321.168 305.734C320.942 306.24 320.602 306.694 320.148 307.094C319.708 307.494 319.182 307.807 318.568 308.034C317.968 308.26 317.315 308.374 316.608 308.374ZM313.088 302.334H320.208C320.155 301.654 319.962 301.054 319.628 300.534C319.295 300.014 318.868 299.607 318.348 299.314C317.828 299.02 317.255 298.874 316.628 298.874C316.015 298.874 315.448 299.02 314.928 299.314C314.408 299.607 313.982 300.014 313.648 300.534C313.328 301.054 313.142 301.654 313.088 302.334ZM327.805 308.374C327.111 308.374 326.478 308.227 325.905 307.934C325.331 307.64 324.838 307.247 324.425 306.754C324.011 306.247 323.691 305.667 323.465 305.014C323.238 304.36 323.125 303.674 323.125 302.954C323.125 302.22 323.251 301.527 323.505 300.874C323.758 300.22 324.105 299.647 324.545 299.154C324.998 298.66 325.525 298.274 326.125 297.994C326.725 297.7 327.371 297.554 328.065 297.554C328.878 297.554 329.618 297.76 330.285 298.174C330.951 298.574 331.478 299.087 331.865 299.714V297.734H333.425V312.434H331.665V306.114C330.705 307.62 329.418 308.374 327.805 308.374ZM328.405 306.854C328.898 306.854 329.345 306.754 329.745 306.554C330.158 306.354 330.525 306.087 330.845 305.754C331.165 305.407 331.438 305.027 331.665 304.614V301.614C331.611 301.267 331.478 300.947 331.265 300.654C331.051 300.347 330.791 300.074 330.485 299.834C330.178 299.594 329.845 299.407 329.485 299.274C329.138 299.14 328.791 299.074 328.445 299.074C327.925 299.074 327.451 299.187 327.025 299.414C326.598 299.627 326.225 299.92 325.905 300.294C325.598 300.667 325.358 301.087 325.185 301.554C325.011 302.02 324.925 302.5 324.925 302.994C324.925 303.687 325.071 304.327 325.365 304.914C325.671 305.5 326.085 305.974 326.605 306.334C327.125 306.68 327.725 306.854 328.405 306.854ZM336.166 303.994V297.734H337.926V303.654C337.926 304.72 338.112 305.52 338.486 306.054C338.859 306.587 339.412 306.854 340.146 306.854C340.626 306.854 341.086 306.754 341.526 306.554C341.979 306.34 342.386 306.04 342.746 305.654C343.106 305.267 343.386 304.807 343.586 304.274V297.734H345.346V306.174C345.346 306.387 345.386 306.547 345.466 306.654C345.559 306.747 345.706 306.8 345.906 306.814V308.174C345.706 308.2 345.546 308.214 345.426 308.214C345.319 308.227 345.212 308.234 345.106 308.234C344.772 308.234 344.486 308.134 344.246 307.934C344.006 307.72 343.879 307.46 343.866 307.154L343.826 305.934C343.372 306.707 342.759 307.307 341.986 307.734C341.226 308.16 340.392 308.374 339.486 308.374C338.392 308.374 337.566 308.007 337.006 307.274C336.446 306.527 336.166 305.434 336.166 303.994ZM352.897 308.374C352.111 308.374 351.391 308.234 350.737 307.954C350.097 307.66 349.537 307.267 349.057 306.774C348.591 306.267 348.224 305.687 347.957 305.034C347.704 304.38 347.577 303.687 347.577 302.954C347.577 301.967 347.804 301.067 348.257 300.254C348.711 299.44 349.337 298.787 350.137 298.294C350.951 297.8 351.877 297.554 352.917 297.554C353.971 297.554 354.884 297.807 355.657 298.314C356.444 298.807 357.051 299.46 357.477 300.274C357.917 301.074 358.137 301.94 358.137 302.874C358.137 303.007 358.131 303.14 358.117 303.274C358.117 303.394 358.111 303.487 358.097 303.554H349.437C349.491 304.234 349.677 304.84 349.997 305.374C350.331 305.894 350.757 306.307 351.277 306.614C351.797 306.907 352.357 307.054 352.957 307.054C353.597 307.054 354.197 306.894 354.757 306.574C355.331 306.254 355.724 305.834 355.937 305.314L357.457 305.734C357.231 306.24 356.891 306.694 356.437 307.094C355.997 307.494 355.471 307.807 354.857 308.034C354.257 308.26 353.604 308.374 352.897 308.374ZM349.377 302.334H356.497C356.444 301.654 356.251 301.054 355.917 300.534C355.584 300.014 355.157 299.607 354.637 299.314C354.117 299.02 353.544 298.874 352.917 298.874C352.304 298.874 351.737 299.02 351.217 299.314C350.697 299.607 350.271 300.014 349.937 300.534C349.617 301.054 349.431 301.654 349.377 302.334ZM363.674 308.374C362.807 308.374 361.994 308.234 361.234 307.954C360.474 307.66 359.82 307.227 359.274 306.654L359.954 305.414C360.554 305.974 361.154 306.374 361.754 306.614C362.354 306.854 362.967 306.974 363.594 306.974C364.314 306.974 364.9 306.84 365.354 306.574C365.807 306.294 366.034 305.887 366.034 305.354C366.034 304.967 365.914 304.68 365.674 304.494C365.447 304.307 365.12 304.154 364.694 304.034C364.267 303.9 363.76 303.754 363.174 303.594C362.454 303.38 361.847 303.154 361.354 302.914C360.86 302.674 360.487 302.374 360.234 302.014C359.98 301.654 359.854 301.2 359.854 300.654C359.854 299.987 360.027 299.427 360.374 298.974C360.72 298.507 361.194 298.154 361.794 297.914C362.407 297.674 363.1 297.554 363.874 297.554C364.647 297.554 365.347 297.674 365.974 297.914C366.6 298.154 367.14 298.507 367.594 298.974L366.794 300.194C366.38 299.767 365.927 299.454 365.434 299.254C364.94 299.04 364.387 298.934 363.774 298.934C363.414 298.934 363.06 298.98 362.714 299.074C362.367 299.154 362.08 299.307 361.854 299.534C361.627 299.747 361.514 300.054 361.514 300.454C361.514 300.787 361.6 301.054 361.774 301.254C361.96 301.44 362.227 301.6 362.574 301.734C362.934 301.867 363.367 302.014 363.874 302.174C364.66 302.4 365.34 302.627 365.914 302.854C366.5 303.08 366.954 303.374 367.274 303.734C367.594 304.094 367.754 304.594 367.754 305.234C367.754 306.22 367.38 306.994 366.634 307.554C365.887 308.1 364.9 308.374 363.674 308.374ZM375.259 307.654C375.113 307.72 374.913 307.807 374.659 307.914C374.406 308.02 374.113 308.114 373.779 308.194C373.446 308.274 373.093 308.314 372.719 308.314C372.293 308.314 371.899 308.24 371.539 308.094C371.179 307.934 370.893 307.694 370.679 307.374C370.466 307.04 370.359 306.627 370.359 306.134V299.114H368.939V297.734H370.359V294.254H372.119V297.734H374.459V299.114H372.119V305.594C372.146 305.967 372.273 306.247 372.499 306.434C372.726 306.607 372.993 306.694 373.299 306.694C373.646 306.694 373.966 306.634 374.259 306.514C374.553 306.394 374.746 306.307 374.839 306.254L375.259 307.654ZM380.471 308.374C379.604 308.374 378.791 308.234 378.031 307.954C377.271 307.66 376.617 307.227 376.071 306.654L376.751 305.414C377.351 305.974 377.951 306.374 378.551 306.614C379.151 306.854 379.764 306.974 380.391 306.974C381.111 306.974 381.697 306.84 382.151 306.574C382.604 306.294 382.831 305.887 382.831 305.354C382.831 304.967 382.711 304.68 382.471 304.494C382.244 304.307 381.917 304.154 381.491 304.034C381.064 303.9 380.557 303.754 379.971 303.594C379.251 303.38 378.644 303.154 378.151 302.914C377.657 302.674 377.284 302.374 377.031 302.014C376.777 301.654 376.651 301.2 376.651 300.654C376.651 299.987 376.824 299.427 377.171 298.974C377.517 298.507 377.991 298.154 378.591 297.914C379.204 297.674 379.897 297.554 380.671 297.554C381.444 297.554 382.144 297.674 382.771 297.914C383.397 298.154 383.937 298.507 384.391 298.974L383.591 300.194C383.177 299.767 382.724 299.454 382.231 299.254C381.737 299.04 381.184 298.934 380.571 298.934C380.211 298.934 379.857 298.98 379.511 299.074C379.164 299.154 378.877 299.307 378.651 299.534C378.424 299.747 378.311 300.054 378.311 300.454C378.311 300.787 378.397 301.054 378.571 301.254C378.757 301.44 379.024 301.6 379.371 301.734C379.731 301.867 380.164 302.014 380.671 302.174C381.457 302.4 382.137 302.627 382.711 302.854C383.297 303.08 383.751 303.374 384.071 303.734C384.391 304.094 384.551 304.594 384.551 305.234C384.551 306.22 384.177 306.994 383.431 307.554C382.684 308.1 381.697 308.374 380.471 308.374ZM391.995 308.174V293.974H398.075C398.702 293.974 399.275 294.107 399.795 294.374C400.315 294.627 400.768 294.974 401.155 295.414C401.542 295.84 401.842 296.327 402.055 296.874C402.268 297.407 402.375 297.954 402.375 298.514C402.375 299.167 402.248 299.787 401.995 300.374C401.755 300.96 401.408 301.46 400.955 301.874C400.515 302.287 399.995 302.574 399.395 302.734L402.835 308.174H400.795L397.555 303.074H393.795V308.174H391.995ZM393.795 301.474H398.095C398.588 301.474 399.015 301.34 399.375 301.074C399.748 300.794 400.035 300.427 400.235 299.974C400.448 299.52 400.555 299.034 400.555 298.514C400.555 297.98 400.435 297.494 400.195 297.054C399.955 296.6 399.642 296.24 399.255 295.974C398.868 295.707 398.442 295.574 397.975 295.574H393.795V301.474ZM409.147 308.374C408.361 308.374 407.641 308.234 406.987 307.954C406.347 307.66 405.787 307.267 405.307 306.774C404.841 306.267 404.474 305.687 404.207 305.034C403.954 304.38 403.827 303.687 403.827 302.954C403.827 301.967 404.054 301.067 404.507 300.254C404.961 299.44 405.587 298.787 406.387 298.294C407.201 297.8 408.127 297.554 409.167 297.554C410.221 297.554 411.134 297.807 411.907 298.314C412.694 298.807 413.301 299.46 413.727 300.274C414.167 301.074 414.387 301.94 414.387 302.874C414.387 303.007 414.381 303.14 414.367 303.274C414.367 303.394 414.361 303.487 414.347 303.554H405.687C405.741 304.234 405.927 304.84 406.247 305.374C406.581 305.894 407.007 306.307 407.527 306.614C408.047 306.907 408.607 307.054 409.207 307.054C409.847 307.054 410.447 306.894 411.007 306.574C411.581 306.254 411.974 305.834 412.187 305.314L413.707 305.734C413.481 306.24 413.141 306.694 412.687 307.094C412.247 307.494 411.721 307.807 411.107 308.034C410.507 308.26 409.854 308.374 409.147 308.374ZM405.627 302.334H412.747C412.694 301.654 412.501 301.054 412.167 300.534C411.834 300.014 411.407 299.607 410.887 299.314C410.367 299.02 409.794 298.874 409.167 298.874C408.554 298.874 407.987 299.02 407.467 299.314C406.947 299.607 406.521 300.014 406.187 300.534C405.867 301.054 405.681 301.654 405.627 302.334ZM420.964 308.374C420.177 308.374 419.457 308.234 418.804 307.954C418.164 307.66 417.604 307.26 417.124 306.754C416.657 306.247 416.29 305.667 416.024 305.014C415.77 304.36 415.644 303.667 415.644 302.934C415.644 301.947 415.864 301.047 416.304 300.234C416.744 299.42 417.364 298.774 418.164 298.294C418.964 297.8 419.89 297.554 420.944 297.554C421.97 297.554 422.864 297.787 423.624 298.254C424.397 298.707 424.97 299.32 425.344 300.094L423.624 300.634C423.357 300.14 422.984 299.76 422.504 299.494C422.024 299.214 421.49 299.074 420.904 299.074C420.264 299.074 419.677 299.24 419.144 299.574C418.624 299.907 418.21 300.367 417.904 300.954C417.597 301.527 417.444 302.187 417.444 302.934C417.444 303.667 417.597 304.334 417.904 304.934C418.224 305.52 418.644 305.987 419.164 306.334C419.697 306.68 420.284 306.854 420.924 306.854C421.337 306.854 421.73 306.78 422.104 306.634C422.49 306.487 422.824 306.294 423.104 306.054C423.397 305.8 423.597 305.527 423.704 305.234L425.424 305.754C425.21 306.26 424.884 306.714 424.444 307.114C424.017 307.5 423.504 307.807 422.904 308.034C422.317 308.26 421.67 308.374 420.964 308.374ZM431.94 308.374C431.154 308.374 430.434 308.234 429.78 307.954C429.14 307.66 428.58 307.267 428.1 306.774C427.634 306.267 427.267 305.687 427 305.034C426.747 304.38 426.62 303.687 426.62 302.954C426.62 301.967 426.847 301.067 427.3 300.254C427.754 299.44 428.38 298.787 429.18 298.294C429.994 297.8 430.92 297.554 431.96 297.554C433.014 297.554 433.927 297.807 434.7 298.314C435.487 298.807 436.094 299.46 436.52 300.274C436.96 301.074 437.18 301.94 437.18 302.874C437.18 303.007 437.174 303.14 437.16 303.274C437.16 303.394 437.154 303.487 437.14 303.554H428.48C428.534 304.234 428.72 304.84 429.04 305.374C429.374 305.894 429.8 306.307 430.32 306.614C430.84 306.907 431.4 307.054 432 307.054C432.64 307.054 433.24 306.894 433.8 306.574C434.374 306.254 434.767 305.834 434.98 305.314L436.5 305.734C436.274 306.24 435.934 306.694 435.48 307.094C435.04 307.494 434.514 307.807 433.9 308.034C433.3 308.26 432.647 308.374 431.94 308.374ZM428.42 302.334H435.54C435.487 301.654 435.294 301.054 434.96 300.534C434.627 300.014 434.2 299.607 433.68 299.314C433.16 299.02 432.587 298.874 431.96 298.874C431.347 298.874 430.78 299.02 430.26 299.314C429.74 299.607 429.314 300.014 428.98 300.534C428.66 301.054 428.474 301.654 428.42 302.334ZM439.137 308.174V297.734H440.897V308.174H439.137ZM439.137 295.774V293.574H440.897V295.774H439.137ZM446.746 308.174L442.646 297.734H444.486L447.766 306.494L451.046 297.734H452.766L448.666 308.174H446.746ZM458.796 308.374C458.009 308.374 457.289 308.234 456.636 307.954C455.996 307.66 455.436 307.267 454.956 306.774C454.489 306.267 454.123 305.687 453.856 305.034C453.603 304.38 453.476 303.687 453.476 302.954C453.476 301.967 453.703 301.067 454.156 300.254C454.609 299.44 455.236 298.787 456.036 298.294C456.849 297.8 457.776 297.554 458.816 297.554C459.869 297.554 460.783 297.807 461.556 298.314C462.343 298.807 462.949 299.46 463.376 300.274C463.816 301.074 464.036 301.94 464.036 302.874C464.036 303.007 464.029 303.14 464.016 303.274C464.016 303.394 464.009 303.487 463.996 303.554H455.336C455.389 304.234 455.576 304.84 455.896 305.374C456.229 305.894 456.656 306.307 457.176 306.614C457.696 306.907 458.256 307.054 458.856 307.054C459.496 307.054 460.096 306.894 460.656 306.574C461.229 306.254 461.623 305.834 461.836 305.314L463.356 305.734C463.129 306.24 462.789 306.694 462.336 307.094C461.896 307.494 461.369 307.807 460.756 308.034C460.156 308.26 459.503 308.374 458.796 308.374ZM455.276 302.334H462.396C462.343 301.654 462.149 301.054 461.816 300.534C461.483 300.014 461.056 299.607 460.536 299.314C460.016 299.02 459.443 298.874 458.816 298.874C458.203 298.874 457.636 299.02 457.116 299.314C456.596 299.607 456.169 300.014 455.836 300.534C455.516 301.054 455.329 301.654 455.276 302.334ZM465.312 302.974C465.312 301.987 465.512 301.087 465.912 300.274C466.326 299.447 466.886 298.787 467.592 298.294C468.312 297.8 469.132 297.554 470.052 297.554C470.892 297.554 471.646 297.774 472.312 298.214C472.979 298.654 473.499 299.187 473.872 299.814V293.574H475.632V306.174C475.632 306.387 475.672 306.547 475.752 306.654C475.846 306.747 475.992 306.8 476.192 306.814V308.174C475.859 308.227 475.599 308.254 475.412 308.254C475.066 308.254 474.759 308.134 474.492 307.894C474.239 307.654 474.112 307.387 474.112 307.094V306.214C473.699 306.88 473.146 307.407 472.452 307.794C471.759 308.18 471.039 308.374 470.292 308.374C469.572 308.374 468.906 308.234 468.292 307.954C467.692 307.66 467.166 307.26 466.712 306.754C466.272 306.247 465.926 305.674 465.672 305.034C465.432 304.38 465.312 303.694 465.312 302.974ZM473.872 304.514V301.514C473.712 301.06 473.452 300.654 473.092 300.294C472.732 299.92 472.326 299.627 471.872 299.414C471.432 299.187 470.992 299.074 470.552 299.074C470.032 299.074 469.559 299.187 469.132 299.414C468.719 299.627 468.359 299.92 468.052 300.294C467.759 300.654 467.532 301.067 467.372 301.534C467.212 302 467.132 302.487 467.132 302.994C467.132 303.514 467.219 304.007 467.392 304.474C467.579 304.94 467.832 305.354 468.152 305.714C468.486 306.074 468.866 306.354 469.292 306.554C469.732 306.754 470.206 306.854 470.712 306.854C471.032 306.854 471.359 306.794 471.692 306.674C472.039 306.554 472.366 306.387 472.672 306.174C472.979 305.96 473.239 305.714 473.452 305.434C473.666 305.14 473.806 304.834 473.872 304.514ZM483.562 311.014C483.735 311.027 483.909 311.04 484.082 311.054C484.255 311.08 484.389 311.094 484.482 311.094C484.695 311.094 484.882 311.02 485.042 310.874C485.202 310.727 485.375 310.44 485.562 310.014C485.762 309.6 486.015 308.987 486.322 308.174L481.902 297.734H483.762L487.282 306.394L490.462 297.734H492.202L487.122 310.914C487.002 311.22 486.822 311.507 486.582 311.774C486.355 312.054 486.062 312.274 485.702 312.434C485.342 312.594 484.909 312.674 484.402 312.674C484.282 312.674 484.155 312.667 484.022 312.654C483.902 312.64 483.749 312.614 483.562 312.574V311.014ZM498.229 308.374C497.443 308.374 496.723 308.234 496.069 307.954C495.429 307.66 494.869 307.267 494.389 306.774C493.923 306.267 493.556 305.687 493.289 305.034C493.036 304.38 492.909 303.687 492.909 302.954C492.909 301.967 493.136 301.067 493.589 300.254C494.043 299.44 494.669 298.787 495.469 298.294C496.283 297.8 497.209 297.554 498.249 297.554C499.303 297.554 500.216 297.807 500.989 298.314C501.776 298.807 502.383 299.46 502.809 300.274C503.249 301.074 503.469 301.94 503.469 302.874C503.469 303.007 503.463 303.14 503.449 303.274C503.449 303.394 503.443 303.487 503.429 303.554H494.769C494.823 304.234 495.009 304.84 495.329 305.374C495.663 305.894 496.089 306.307 496.609 306.614C497.129 306.907 497.689 307.054 498.289 307.054C498.929 307.054 499.529 306.894 500.089 306.574C500.663 306.254 501.056 305.834 501.269 305.314L502.789 305.734C502.563 306.24 502.223 306.694 501.769 307.094C501.329 307.494 500.803 307.807 500.189 308.034C499.589 308.26 498.936 308.374 498.229 308.374ZM494.709 302.334H501.829C501.776 301.654 501.583 301.054 501.249 300.534C500.916 300.014 500.489 299.607 499.969 299.314C499.449 299.02 498.876 298.874 498.249 298.874C497.636 298.874 497.069 299.02 496.549 299.314C496.029 299.607 495.603 300.014 495.269 300.534C494.949 301.054 494.763 301.654 494.709 302.334ZM510.728 307.654C510.582 307.72 510.382 307.807 510.128 307.914C509.875 308.02 509.582 308.114 509.248 308.194C508.915 308.274 508.562 308.314 508.188 308.314C507.762 308.314 507.368 308.24 507.008 308.094C506.648 307.934 506.362 307.694 506.148 307.374C505.935 307.04 505.828 306.627 505.828 306.134V299.114H504.408V297.734H505.828V294.254H507.588V297.734H509.928V299.114H507.588V305.594C507.615 305.967 507.742 306.247 507.968 306.434C508.195 306.607 508.462 306.694 508.768 306.694C509.115 306.694 509.435 306.634 509.728 306.514C510.022 306.394 510.215 306.307 510.308 306.254L510.728 307.654Z" fill="#277FD9"/>
</svg>
