<svg width="499" height="317" viewBox="0 0 499 317" fill="none" xmlns="http://www.w3.org/2000/svg">
<path d="M164.269 74.8379V63.9979L159.589 72.3379H158.489L153.789 63.9979V74.8379H151.989V60.6379H153.889L159.029 69.8579L164.189 60.6379H166.069V74.8379H164.269ZM168.272 71.8179C168.272 71.1512 168.459 70.5779 168.832 70.0979C169.219 69.6046 169.745 69.2246 170.412 68.9579C171.079 68.6912 171.852 68.5579 172.732 68.5579C173.199 68.5579 173.692 68.5979 174.212 68.6779C174.732 68.7446 175.192 68.8512 175.592 68.9979V68.2379C175.592 67.4379 175.352 66.8112 174.872 66.3579C174.392 65.8912 173.712 65.6579 172.832 65.6579C172.259 65.6579 171.705 65.7646 171.172 65.9779C170.652 66.1779 170.099 66.4712 169.512 66.8579L168.872 65.6179C169.552 65.1512 170.232 64.8046 170.912 64.5779C171.592 64.3379 172.299 64.2179 173.032 64.2179C174.365 64.2179 175.419 64.5912 176.192 65.3379C176.965 66.0712 177.352 67.0979 177.352 68.4179V72.8379C177.352 73.0512 177.392 73.2112 177.472 73.3179C177.565 73.4112 177.712 73.4646 177.912 73.4779V74.8379C177.739 74.8646 177.585 74.8846 177.452 74.8979C177.332 74.9112 177.232 74.9179 177.152 74.9179C176.739 74.9179 176.425 74.8046 176.212 74.5779C176.012 74.3512 175.899 74.1112 175.872 73.8579L175.832 73.1979C175.379 73.7846 174.785 74.2379 174.052 74.5579C173.319 74.8779 172.592 75.0379 171.872 75.0379C171.179 75.0379 170.559 74.8979 170.012 74.6179C169.465 74.3246 169.039 73.9379 168.732 73.4579C168.425 72.9646 168.272 72.4179 168.272 71.8179ZM175.072 72.5579C175.232 72.3712 175.359 72.1846 175.452 71.9979C175.545 71.7979 175.592 71.6312 175.592 71.4979V70.1979C175.179 70.0379 174.745 69.9179 174.292 69.8379C173.839 69.7446 173.392 69.6979 172.952 69.6979C172.059 69.6979 171.332 69.8779 170.772 70.2379C170.225 70.5846 169.952 71.0646 169.952 71.6779C169.952 72.0112 170.039 72.3379 170.212 72.6579C170.399 72.9646 170.665 73.2179 171.012 73.4179C171.372 73.6179 171.812 73.7179 172.332 73.7179C172.879 73.7179 173.399 73.6112 173.892 73.3979C174.385 73.1712 174.779 72.8912 175.072 72.5579ZM189.226 74.8379H187.466V68.9979C187.466 67.8912 187.293 67.0846 186.946 66.5779C186.613 66.0579 186.099 65.7979 185.406 65.7979C184.926 65.7979 184.446 65.9179 183.966 66.1579C183.499 66.3979 183.079 66.7246 182.706 67.1379C182.346 67.5379 182.086 68.0046 181.926 68.5379V74.8379H180.166V64.3979H181.766V66.6379C182.046 66.1446 182.406 65.7179 182.846 65.3579C183.286 64.9979 183.786 64.7179 184.346 64.5179C184.906 64.3179 185.493 64.2179 186.106 64.2179C186.706 64.2179 187.206 64.3312 187.606 64.5579C188.019 64.7712 188.339 65.0779 188.566 65.4779C188.806 65.8646 188.973 66.3246 189.066 66.8579C189.173 67.3912 189.226 67.9712 189.226 68.5979V74.8379ZM191.143 71.8179C191.143 71.1512 191.33 70.5779 191.703 70.0979C192.09 69.6046 192.616 69.2246 193.283 68.9579C193.95 68.6912 194.723 68.5579 195.603 68.5579C196.07 68.5579 196.563 68.5979 197.083 68.6779C197.603 68.7446 198.063 68.8512 198.463 68.9979V68.2379C198.463 67.4379 198.223 66.8112 197.743 66.3579C197.263 65.8912 196.583 65.6579 195.703 65.6579C195.13 65.6579 194.576 65.7646 194.043 65.9779C193.523 66.1779 192.97 66.4712 192.383 66.8579L191.743 65.6179C192.423 65.1512 193.103 64.8046 193.783 64.5779C194.463 64.3379 195.17 64.2179 195.903 64.2179C197.236 64.2179 198.29 64.5912 199.063 65.3379C199.836 66.0712 200.223 67.0979 200.223 68.4179V72.8379C200.223 73.0512 200.263 73.2112 200.343 73.3179C200.436 73.4112 200.583 73.4646 200.783 73.4779V74.8379C200.61 74.8646 200.456 74.8846 200.323 74.8979C200.203 74.9112 200.103 74.9179 200.023 74.9179C199.61 74.9179 199.296 74.8046 199.083 74.5779C198.883 74.3512 198.77 74.1112 198.743 73.8579L198.703 73.1979C198.25 73.7846 197.656 74.2379 196.923 74.5579C196.19 74.8779 195.463 75.0379 194.743 75.0379C194.05 75.0379 193.43 74.8979 192.883 74.6179C192.336 74.3246 191.91 73.9379 191.603 73.4579C191.296 72.9646 191.143 72.4179 191.143 71.8179ZM197.943 72.5579C198.103 72.3712 198.23 72.1846 198.323 71.9979C198.416 71.7979 198.463 71.6312 198.463 71.4979V70.1979C198.05 70.0379 197.616 69.9179 197.163 69.8379C196.71 69.7446 196.263 69.6979 195.823 69.6979C194.93 69.6979 194.203 69.8779 193.643 70.2379C193.096 70.5846 192.823 71.0646 192.823 71.6779C192.823 72.0112 192.91 72.3379 193.083 72.6579C193.27 72.9646 193.536 73.2179 193.883 73.4179C194.243 73.6179 194.683 73.7179 195.203 73.7179C195.75 73.7179 196.27 73.6112 196.763 73.3979C197.256 73.1712 197.65 72.8912 197.943 72.5579ZM207.197 74.9579C206.491 74.9579 205.837 74.8179 205.237 74.5379C204.651 74.2446 204.144 73.8512 203.717 73.3579C203.291 72.8512 202.957 72.2779 202.717 71.6379C202.491 70.9979 202.377 70.3312 202.377 69.6379C202.377 68.9046 202.491 68.2112 202.717 67.5579C202.957 66.9046 203.291 66.3312 203.717 65.8379C204.157 65.3312 204.671 64.9379 205.257 64.6579C205.844 64.3646 206.497 64.2179 207.217 64.2179C208.084 64.2179 208.837 64.4312 209.477 64.8579C210.131 65.2846 210.677 65.8246 211.117 66.4779V64.3979H212.677V74.7179C212.677 75.7046 212.437 76.5379 211.957 77.2179C211.491 77.8979 210.851 78.4112 210.037 78.7579C209.237 79.1179 208.344 79.2979 207.357 79.2979C206.184 79.2979 205.224 79.0912 204.477 78.6779C203.731 78.2646 203.111 77.7046 202.617 76.9979L203.637 76.0979C204.051 76.7112 204.584 77.1712 205.237 77.4779C205.904 77.7846 206.611 77.9379 207.357 77.9379C207.997 77.9379 208.584 77.8179 209.117 77.5779C209.664 77.3512 210.097 76.9979 210.417 76.5179C210.751 76.0379 210.917 75.4379 210.917 74.7179V72.8779C210.531 73.5179 209.997 74.0246 209.317 74.3979C208.651 74.7712 207.944 74.9579 207.197 74.9579ZM207.737 73.5179C208.111 73.5179 208.471 73.4512 208.817 73.3179C209.164 73.1846 209.484 73.0112 209.777 72.7979C210.071 72.5712 210.317 72.3179 210.517 72.0379C210.717 71.7579 210.851 71.4712 210.917 71.1779V68.1779C210.731 67.6979 210.464 67.2779 210.117 66.9179C209.771 66.5446 209.377 66.2579 208.937 66.0579C208.497 65.8446 208.044 65.7379 207.577 65.7379C207.044 65.7379 206.564 65.8512 206.137 66.0779C205.724 66.3046 205.371 66.6112 205.077 66.9979C204.784 67.3712 204.557 67.7912 204.397 68.2579C204.237 68.7246 204.157 69.1979 204.157 69.6779C204.157 70.1979 204.251 70.6912 204.437 71.1579C204.624 71.6112 204.877 72.0179 205.197 72.3779C205.517 72.7379 205.897 73.0179 206.337 73.2179C206.777 73.4179 207.244 73.5179 207.737 73.5179ZM220.138 75.0379C219.351 75.0379 218.631 74.8979 217.978 74.6179C217.338 74.3246 216.778 73.9312 216.298 73.4379C215.831 72.9312 215.464 72.3512 215.198 71.6979C214.944 71.0446 214.818 70.3512 214.818 69.6179C214.818 68.6312 215.044 67.7312 215.498 66.9179C215.951 66.1046 216.578 65.4512 217.378 64.9579C218.191 64.4646 219.118 64.2179 220.158 64.2179C221.211 64.2179 222.124 64.4712 222.898 64.9779C223.684 65.4712 224.291 66.1246 224.718 66.9379C225.158 67.7379 225.378 68.6046 225.378 69.5379C225.378 69.6712 225.371 69.8046 225.358 69.9379C225.358 70.0579 225.351 70.1512 225.338 70.2179H216.678C216.731 70.8979 216.918 71.5046 217.238 72.0379C217.571 72.5579 217.998 72.9712 218.518 73.2779C219.038 73.5712 219.598 73.7179 220.198 73.7179C220.838 73.7179 221.438 73.5579 221.998 73.2379C222.571 72.9179 222.964 72.4979 223.178 71.9779L224.698 72.3979C224.471 72.9046 224.131 73.3579 223.678 73.7579C223.238 74.1579 222.711 74.4712 222.098 74.6979C221.498 74.9246 220.844 75.0379 220.138 75.0379ZM216.618 68.9979H223.738C223.684 68.3179 223.491 67.7179 223.158 67.1979C222.824 66.6779 222.398 66.2712 221.878 65.9779C221.358 65.6846 220.784 65.5379 220.158 65.5379C219.544 65.5379 218.978 65.6846 218.458 65.9779C217.938 66.2712 217.511 66.6779 217.178 67.1979C216.858 67.7179 216.671 68.3179 216.618 68.9979ZM232.854 65.9379C231.974 65.9512 231.194 66.1779 230.514 66.6179C229.847 67.0446 229.374 67.6379 229.094 68.3979V74.8379H227.334V64.3979H228.974V66.8179C229.334 66.0979 229.807 65.5179 230.394 65.0779C230.994 64.6246 231.621 64.3712 232.274 64.3179C232.407 64.3179 232.521 64.3179 232.614 64.3179C232.707 64.3179 232.787 64.3246 232.854 64.3379V65.9379ZM238.18 75.0379C237.313 75.0379 236.5 74.8979 235.74 74.6179C234.98 74.3246 234.326 73.8912 233.78 73.3179L234.46 72.0779C235.06 72.6379 235.66 73.0379 236.26 73.2779C236.86 73.5179 237.473 73.6379 238.1 73.6379C238.82 73.6379 239.406 73.5046 239.86 73.2379C240.313 72.9579 240.54 72.5512 240.54 72.0179C240.54 71.6312 240.42 71.3446 240.18 71.1579C239.953 70.9712 239.626 70.8179 239.2 70.6979C238.773 70.5646 238.266 70.4179 237.68 70.2579C236.96 70.0446 236.353 69.8179 235.86 69.5779C235.366 69.3379 234.993 69.0379 234.74 68.6779C234.486 68.3179 234.36 67.8646 234.36 67.3179C234.36 66.6512 234.533 66.0912 234.88 65.6379C235.226 65.1712 235.7 64.8179 236.3 64.5779C236.913 64.3379 237.606 64.2179 238.38 64.2179C239.153 64.2179 239.853 64.3379 240.48 64.5779C241.106 64.8179 241.646 65.1712 242.1 65.6379L241.3 66.8579C240.886 66.4312 240.433 66.1179 239.94 65.9179C239.446 65.7046 238.893 65.5979 238.28 65.5979C237.92 65.5979 237.566 65.6446 237.22 65.7379C236.873 65.8179 236.586 65.9712 236.36 66.1979C236.133 66.4112 236.02 66.7179 236.02 67.1179C236.02 67.4512 236.106 67.7179 236.28 67.9179C236.466 68.1046 236.733 68.2646 237.08 68.3979C237.44 68.5312 237.873 68.6779 238.38 68.8379C239.166 69.0646 239.846 69.2912 240.42 69.5179C241.006 69.7446 241.46 70.0379 241.78 70.3979C242.1 70.7579 242.26 71.2579 242.26 71.8979C242.26 72.8846 241.886 73.6579 241.14 74.2179C240.393 74.7646 239.406 75.0379 238.18 75.0379ZM258.484 74.8379H256.724V68.9979C256.724 67.8912 256.551 67.0846 256.204 66.5779C255.871 66.0579 255.357 65.7979 254.664 65.7979C254.184 65.7979 253.704 65.9179 253.224 66.1579C252.757 66.3979 252.337 66.7246 251.964 67.1379C251.604 67.5379 251.344 68.0046 251.184 68.5379V74.8379H249.424V64.3979H251.024V66.6379C251.304 66.1446 251.664 65.7179 252.104 65.3579C252.544 64.9979 253.044 64.7179 253.604 64.5179C254.164 64.3179 254.751 64.2179 255.364 64.2179C255.964 64.2179 256.464 64.3312 256.864 64.5579C257.277 64.7712 257.597 65.0779 257.824 65.4779C258.064 65.8646 258.231 66.3246 258.324 66.8579C258.431 67.3912 258.484 67.9712 258.484 68.5979V74.8379ZM265.781 75.0379C264.994 75.0379 264.281 74.8979 263.641 74.6179C263.001 74.3246 262.447 73.9312 261.981 73.4379C261.514 72.9312 261.154 72.3512 260.901 71.6979C260.647 71.0446 260.521 70.3579 260.521 69.6379C260.521 68.9046 260.647 68.2112 260.901 67.5579C261.154 66.9046 261.514 66.3312 261.981 65.8379C262.447 65.3312 263.001 64.9379 263.641 64.6579C264.294 64.3646 265.007 64.2179 265.781 64.2179C266.567 64.2179 267.281 64.3646 267.921 64.6579C268.561 64.9379 269.114 65.3312 269.581 65.8379C270.061 66.3312 270.427 66.9046 270.681 67.5579C270.934 68.2112 271.061 68.9046 271.061 69.6379C271.061 70.3579 270.934 71.0446 270.681 71.6979C270.427 72.3512 270.067 72.9312 269.601 73.4379C269.134 73.9312 268.574 74.3246 267.921 74.6179C267.281 74.8979 266.567 75.0379 265.781 75.0379ZM262.321 69.6579C262.321 70.3779 262.474 71.0312 262.781 71.6179C263.101 72.2046 263.521 72.6712 264.041 73.0179C264.561 73.3512 265.141 73.5179 265.781 73.5179C266.421 73.5179 267.001 73.3446 267.521 72.9979C268.054 72.6512 268.474 72.1846 268.781 71.5979C269.101 70.9979 269.261 70.3379 269.261 69.6179C269.261 68.8979 269.101 68.2446 268.781 67.6579C268.474 67.0712 268.054 66.6046 267.521 66.2579C267.001 65.9112 266.421 65.7379 265.781 65.7379C265.141 65.7379 264.561 65.9179 264.041 66.2779C263.521 66.6246 263.101 67.0912 262.781 67.6779C262.474 68.2646 262.321 68.9246 262.321 69.6579ZM278.437 74.3179C278.291 74.3846 278.091 74.4712 277.837 74.5779C277.584 74.6846 277.291 74.7779 276.957 74.8579C276.624 74.9379 276.271 74.9779 275.897 74.9779C275.471 74.9779 275.077 74.9046 274.717 74.7579C274.357 74.5979 274.071 74.3579 273.857 74.0379C273.644 73.7046 273.537 73.2912 273.537 72.7979V65.7779H272.117V64.3979H273.537V60.9179H275.297V64.3979H277.637V65.7779H275.297V72.2579C275.324 72.6312 275.451 72.9112 275.677 73.0979C275.904 73.2712 276.171 73.3579 276.477 73.3579C276.824 73.3579 277.144 73.2979 277.437 73.1779C277.731 73.0579 277.924 72.9712 278.017 72.9179L278.437 74.3179ZM285.687 74.8379V65.7779H284.267V64.3979H285.687V64.1779C285.687 63.3246 285.814 62.5912 286.067 61.9779C286.334 61.3512 286.707 60.8712 287.187 60.5379C287.667 60.2046 288.234 60.0379 288.887 60.0379C289.3 60.0379 289.707 60.0979 290.107 60.2179C290.507 60.3246 290.867 60.4779 291.187 60.6779L290.747 61.9779C290.56 61.8446 290.327 61.7379 290.047 61.6579C289.78 61.5779 289.514 61.5379 289.247 61.5379C288.674 61.5379 288.227 61.7646 287.907 62.2179C287.6 62.6579 287.447 63.2912 287.447 64.1179V64.3979H290.227V65.7779H287.447V74.8379H285.687ZM296.289 75.0379C295.502 75.0379 294.789 74.8979 294.149 74.6179C293.509 74.3246 292.955 73.9312 292.489 73.4379C292.022 72.9312 291.662 72.3512 291.409 71.6979C291.155 71.0446 291.029 70.3579 291.029 69.6379C291.029 68.9046 291.155 68.2112 291.409 67.5579C291.662 66.9046 292.022 66.3312 292.489 65.8379C292.955 65.3312 293.509 64.9379 294.149 64.6579C294.802 64.3646 295.515 64.2179 296.289 64.2179C297.075 64.2179 297.789 64.3646 298.429 64.6579C299.069 64.9379 299.622 65.3312 300.089 65.8379C300.569 66.3312 300.935 66.9046 301.189 67.5579C301.442 68.2112 301.569 68.9046 301.569 69.6379C301.569 70.3579 301.442 71.0446 301.189 71.6979C300.935 72.3512 300.575 72.9312 300.109 73.4379C299.642 73.9312 299.082 74.3246 298.429 74.6179C297.789 74.8979 297.075 75.0379 296.289 75.0379ZM292.829 69.6579C292.829 70.3779 292.982 71.0312 293.289 71.6179C293.609 72.2046 294.029 72.6712 294.549 73.0179C295.069 73.3512 295.649 73.5179 296.289 73.5179C296.929 73.5179 297.509 73.3446 298.029 72.9979C298.562 72.6512 298.982 72.1846 299.289 71.5979C299.609 70.9979 299.769 70.3379 299.769 69.6179C299.769 68.8979 299.609 68.2446 299.289 67.6579C298.982 67.0712 298.562 66.6046 298.029 66.2579C297.509 65.9112 296.929 65.7379 296.289 65.7379C295.649 65.7379 295.069 65.9179 294.549 66.2779C294.029 66.6246 293.609 67.0912 293.289 67.6779C292.982 68.2646 292.829 68.9246 292.829 69.6579ZM303.601 70.6579V64.3979H305.361V70.3179C305.361 71.3846 305.548 72.1846 305.921 72.7179C306.295 73.2512 306.848 73.5179 307.581 73.5179C308.061 73.5179 308.521 73.4179 308.961 73.2179C309.415 73.0046 309.821 72.7046 310.181 72.3179C310.541 71.9312 310.821 71.4712 311.021 70.9379V64.3979H312.781V72.8379C312.781 73.0512 312.821 73.2112 312.901 73.3179C312.995 73.4112 313.141 73.4646 313.341 73.4779V74.8379C313.141 74.8646 312.981 74.8779 312.861 74.8779C312.755 74.8912 312.648 74.8979 312.541 74.8979C312.208 74.8979 311.921 74.7979 311.681 74.5979C311.441 74.3846 311.315 74.1246 311.301 73.8179L311.261 72.5979C310.808 73.3712 310.195 73.9712 309.421 74.3979C308.661 74.8246 307.828 75.0379 306.921 75.0379C305.828 75.0379 305.001 74.6712 304.441 73.9379C303.881 73.1912 303.601 72.0979 303.601 70.6579ZM324.773 74.8379H323.013V68.9979C323.013 67.8912 322.84 67.0846 322.493 66.5779C322.16 66.0579 321.646 65.7979 320.953 65.7979C320.473 65.7979 319.993 65.9179 319.513 66.1579C319.046 66.3979 318.626 66.7246 318.253 67.1379C317.893 67.5379 317.633 68.0046 317.473 68.5379V74.8379H315.713V64.3979H317.313V66.6379C317.593 66.1446 317.953 65.7179 318.393 65.3579C318.833 64.9979 319.333 64.7179 319.893 64.5179C320.453 64.3179 321.04 64.2179 321.653 64.2179C322.253 64.2179 322.753 64.3312 323.153 64.5579C323.566 64.7712 323.886 65.0779 324.113 65.4779C324.353 65.8646 324.52 66.3246 324.613 66.8579C324.72 67.3912 324.773 67.9712 324.773 68.5979V74.8379ZM326.83 69.6379C326.83 68.6512 327.03 67.7512 327.43 66.9379C327.843 66.1112 328.403 65.4512 329.11 64.9579C329.83 64.4646 330.65 64.2179 331.57 64.2179C332.41 64.2179 333.163 64.4379 333.83 64.8779C334.497 65.3179 335.017 65.8512 335.39 66.4779V60.2379H337.15V72.8379C337.15 73.0512 337.19 73.2112 337.27 73.3179C337.363 73.4112 337.51 73.4646 337.71 73.4779V74.8379C337.377 74.8912 337.117 74.9179 336.93 74.9179C336.583 74.9179 336.277 74.7979 336.01 74.5579C335.757 74.3179 335.63 74.0512 335.63 73.7579V72.8779C335.217 73.5446 334.663 74.0712 333.97 74.4579C333.277 74.8446 332.557 75.0379 331.81 75.0379C331.09 75.0379 330.423 74.8979 329.81 74.6179C329.21 74.3246 328.683 73.9246 328.23 73.4179C327.79 72.9112 327.443 72.3379 327.19 71.6979C326.95 71.0446 326.83 70.3579 326.83 69.6379ZM335.39 71.1779V68.1779C335.23 67.7246 334.97 67.3179 334.61 66.9579C334.25 66.5846 333.843 66.2912 333.39 66.0779C332.95 65.8512 332.51 65.7379 332.07 65.7379C331.55 65.7379 331.077 65.8512 330.65 66.0779C330.237 66.2912 329.877 66.5846 329.57 66.9579C329.277 67.3179 329.05 67.7312 328.89 68.1979C328.73 68.6646 328.65 69.1512 328.65 69.6579C328.65 70.1779 328.737 70.6712 328.91 71.1379C329.097 71.6046 329.35 72.0179 329.67 72.3779C330.003 72.7379 330.383 73.0179 330.81 73.2179C331.25 73.4179 331.723 73.5179 332.23 73.5179C332.55 73.5179 332.877 73.4579 333.21 73.3379C333.557 73.2179 333.883 73.0512 334.19 72.8379C334.497 72.6246 334.757 72.3779 334.97 72.0979C335.183 71.8046 335.323 71.4979 335.39 71.1779ZM339.948 74.8379V72.5979H341.428V74.8379H339.948Z" fill="#277FD9"/>
<path d="M422.508 245.609L455.369 316.637L459.072 316.625L430.657 240.996L422.508 245.609Z" fill="#DCA86E"/>
<path d="M388.518 247.128L355.656 316.638L351.953 316.626L380.368 245.551L388.518 247.128Z" fill="#DCA86E"/>
<path d="M305.018 301.416L288.315 316.031L268.625 302.173C268.625 302.173 275.327 299.926 286.818 302.986L298.578 293.104L305.018 301.416Z" fill="url(#paint0_linear_2659_941)"/>
<path d="M401.705 220.795C401.705 220.795 364.79 239.717 351.748 245.377C338.706 251.038 294.336 295.47 294.336 295.47C294.336 295.47 300.016 307.037 302.858 305.006C327.911 287.094 350.991 271.066 365.823 265.474C395.193 254.4 403.378 251.993 410.901 243.274C410.901 243.274 406.487 232.797 401.705 220.795Z" fill="#2167BE"/>
<path d="M344.193 293.956L339.378 315.622L315.305 316.103C315.305 316.103 319.377 310.325 330.451 305.992L334.082 291.066L344.193 293.956Z" fill="url(#paint1_linear_2659_941)"/>
<path d="M402.604 215.992C402.604 215.992 368.266 219.697 355.748 226.437C343.23 233.178 333.266 294.993 333.266 294.993C333.266 294.993 342.989 300.271 344.193 296.992C353.903 270.551 364.675 249.842 364.675 249.842C377.013 247.588 405.59 261.496 426.244 241.151C426.244 241.151 408.381 227.547 402.604 215.992Z" fill="#277FD9"/>
<path d="M461.768 174.254C461.768 174.254 459.289 178.36 457.726 183.502L443.602 182.197C443.602 182.197 450.894 171.148 450.336 164.447L461.768 174.254Z" fill="#FEC4AD"/>
<path d="M458.728 151.424C457.926 151.211 454.908 150.38 454.297 150.629C453.45 150.975 454.435 152.085 453.838 152.763C452.873 153.861 450.941 153.883 449.696 154.55C448.187 155.358 447.037 156.42 446.347 157.633C445.197 159.654 449.386 164.165 450.041 167.546C451.413 174.618 460.352 175.664 467.614 173.5C470.21 172.726 472.599 170.391 474.014 168.126C475.678 165.465 474.74 161.015 473.346 158.364C472.51 156.774 470.854 155.404 469.408 154.406C468.099 153.503 467.736 149.748 466.159 149.482C466.162 149.482 460.534 151.903 458.728 151.424Z" fill="#FEC4AD"/>
<path d="M479.006 170.41C479.022 170.424 478.762 169.224 480.811 167.295C487.587 160.915 480.339 148.436 472.955 146.262C469.178 145.15 466.763 146.322 465.408 142.568C465.505 142.837 463.881 143.526 463.72 143.662C462.834 144.412 462.412 144.94 462.384 146.179C462.259 151.633 467.14 156.711 470.833 160.146C472.494 161.691 468.407 160.625 466.76 160.94C465.687 161.145 462.905 164.084 462.308 164.528C463.857 166.457 465.236 164.716 467.324 165.647C469.254 166.508 468.031 168.964 466.233 169.254C463.447 169.704 462.313 167.867 462.313 167.867C461.036 168.56 460.832 172.697 459.828 173.779C461.213 174.54 469.287 175.959 471.181 175.936C475.226 175.888 477.706 173.65 479.006 170.41Z" fill="url(#paint2_linear_2659_941)"/>
<path d="M461.316 176.451C464.277 209.482 426.244 241.151 426.244 241.151C426.244 241.151 401.411 242.085 402.604 215.992C402.604 215.992 404.537 211.247 419.91 197.315C430.181 188.006 437.397 174.114 444.625 174.391C464.365 175.146 461.316 176.451 461.316 176.451Z" fill="#FF5E69"/>
<path d="M369.071 242.973C369.071 242.973 391.975 251.516 422.5 239.937C453.026 228.358 461.353 174.291 461.353 174.291L464.845 176.062C464.845 176.062 461.446 235.726 421.255 248.692C390.53 258.604 369.07 246.799 369.07 246.799V242.973H369.071Z" fill="url(#paint3_linear_2659_941)"/>
<path d="M457.633 209.446C457.633 209.446 461.29 222.119 461.493 228.436C461.697 234.752 458.997 256.198 458.997 256.198L464.815 256.935C464.815 256.935 469.985 231.374 470.106 223.033C470.227 214.692 465.417 201.178 465.417 201.178L457.633 209.446Z" fill="#F8D2A1"/>
<path d="M457.271 209.982C461.495 228.437 459.744 253.171 459.744 253.171L466.057 253.573C472.978 239.095 472.33 207.018 468.67 193.522C466.52 185.592 465.253 177.598 459.888 176.365C456.534 175.594 449.635 178.049 448.71 181.364C446.705 188.557 455.199 200.928 457.271 209.982Z" fill="#FF5E69"/>
<path d="M456.397 259.387C455.004 262.04 454.373 263.985 455.193 264.655C455.76 265.117 456.67 262.541 457.771 261.622C458.095 262.695 458.137 264.7 457.451 266.388C456.674 268.301 456.742 269.936 458.195 270.077C459.648 270.218 462.012 270.122 462.538 268.917C463.063 267.713 464.259 262.689 464.904 261.016C465.55 259.344 464.693 257.423 464.939 256.466C465.186 255.508 460.647 253.906 460.647 253.906C460.398 254.291 459 256.198 459 256.198C459 256.198 457.821 257.609 457.415 257.866C457.01 258.123 456.397 259.387 456.397 259.387Z" fill="#F8D2A1"/>
<path d="M421.945 0V43.999" stroke="#D4DBE2" stroke-width="0.25" stroke-miterlimit="10"/>
<path d="M429.739 60.9206C429.411 65.1696 425.7 68.3486 421.451 68.0206C417.202 67.6926 414.023 63.9816 414.351 59.7326C414.679 55.4836 418.39 52.3046 422.639 52.6326C426.888 52.9606 430.067 56.6716 429.739 60.9206Z" fill="#FFBA01"/>
<path d="M458.382 63.6025H385.508L417.402 40.3945H426.489L458.382 63.6025Z" fill="#D2DCEB"/>
<path d="M78.875 0V43.999" stroke="#D4DBE2" stroke-width="0.25" stroke-miterlimit="10"/>
<path d="M86.6691 60.9206C86.3411 65.1696 82.6311 68.3486 78.3811 68.0206C74.1321 67.6926 70.9531 63.9816 71.2811 59.7326C71.6091 55.4836 75.3201 52.3046 79.5691 52.6326C83.8181 52.9606 86.9971 56.6716 86.6691 60.9206Z" fill="#0073DF"/>
<path d="M115.311 63.6025H42.4375L74.3315 40.3945H83.4185L115.311 63.6025Z" fill="#D2DCEB"/>
<path d="M0 316.289H498.318" stroke="#A6AEBA" stroke-width="0.5" stroke-miterlimit="10"/>
<path d="M181.148 163.199C181.148 163.199 182.686 159.435 185.479 156.082C188.272 152.729 192.436 147.146 192.436 147.146C192.436 147.146 190.405 151.12 187.648 155.61C184.89 160.1 181.148 163.199 181.148 163.199Z" fill="#50CC85"/>
<path d="M184.031 156.657C184.031 156.657 187.123 154.227 188.98 149.085C190.837 143.942 192.529 140.027 192.529 140.027C192.529 140.027 188.517 145.765 186.794 149.742C185.07 153.718 184.031 156.657 184.031 156.657Z" fill="#50CC85"/>
<path d="M181.357 162.473C181.357 162.473 182.975 156.591 183.292 151.896C183.61 147.201 183.574 144.252 183.574 144.252C183.574 144.252 181.534 152.771 180.919 156.389C180.304 160.007 181.357 162.473 181.357 162.473Z" fill="#50CC85"/>
<path d="M179.966 166.377C179.966 166.377 180.484 160.319 178.781 154.899C177.078 149.48 176.986 146.039 176.986 146.039C176.986 146.039 176.168 151.713 177.139 156.604C178.109 161.496 179.966 166.377 179.966 166.377Z" fill="#50CC85"/>
<path d="M180.469 165.04C180.469 165.04 184.772 161.365 186.947 160.5C189.122 159.635 192.15 157.117 192.15 157.117C192.15 157.117 188.412 161.903 186.325 162.852C184.238 163.8 180.469 165.04 180.469 165.04Z" fill="#50CC85"/>
<path d="M178.986 170.181C178.986 170.181 179.403 166.873 177.48 162.186C175.557 157.499 175.112 155.18 175.112 155.18C175.112 155.18 174.998 161.544 176.263 163.932C177.528 166.32 178.986 170.181 178.986 170.181Z" fill="#50CC85"/>
<path d="M179.391 167.773C179.391 167.773 181.864 166.123 184.248 165.788C186.632 165.453 187.268 165.129 187.268 165.129C187.268 165.129 186.062 167.332 183.122 167.703C180.182 168.075 179.391 167.773 179.391 167.773Z" fill="#50CC85"/>
<path d="M177.773 173.339C178.307 171.259 178.995 168.044 179.705 165.895C181.27 161.153 184.994 155.043 184.994 155.043C182.72 160.088 181.059 162.924 179.915 167.275C179.462 168.999 178.679 171.392 178.255 172.956C178.186 173.384 177.843 173.743 177.773 173.339Z" fill="#50CC85"/>
<path d="M178.871 164.896C178.871 164.896 178.627 160.581 176.98 156.244C175.332 151.907 173.078 144.855 173.078 144.855C173.078 144.855 173.745 149.552 174.963 155.019C176.181 160.486 178.871 164.896 178.871 164.896Z" fill="#77E6A6"/>
<path d="M178.234 157.32C178.234 157.32 175.966 153.808 175.879 147.997C175.792 142.186 175.445 137.664 175.445 137.664C175.445 137.664 177.493 144.819 177.85 149.413C178.206 154.006 178.234 157.32 178.234 157.32Z" fill="#77E6A6"/>
<path d="M178.914 164.092C178.914 164.092 179.323 157.62 180.628 152.791C181.933 147.962 182.989 145.01 182.989 145.01C182.989 145.01 182.093 154.279 181.459 158.128C180.825 161.977 178.914 164.092 178.914 164.092Z" fill="#77E6A6"/>
<path d="M178.953 168.497C178.953 168.497 180.528 162.228 184.115 157.37C187.701 152.512 188.984 149.086 188.984 149.086C188.984 149.086 187.843 155.072 185.176 159.652C182.508 164.233 178.953 168.497 178.953 168.497Z" fill="#77E6A6"/>
<path d="M178.915 166.978C178.915 166.978 175.861 161.796 173.974 160.174C172.087 158.553 169.914 154.973 169.914 154.973C169.914 154.973 172.016 161.077 173.786 162.752C175.555 164.428 178.915 166.978 178.915 166.978Z" fill="#77E6A6"/>
<path d="M178.625 172.66C178.625 172.66 179.351 169.191 182.905 165.145C186.459 161.099 187.708 158.922 187.708 158.922C187.708 158.922 185.621 165.359 183.523 167.321C181.426 169.284 178.625 172.66 178.625 172.66Z" fill="#77E6A6"/>
<path d="M179.058 170.099C179.058 170.099 177.143 167.585 174.863 166.424C172.582 165.263 172.055 164.717 172.055 164.717C172.055 164.717 172.505 167.348 175.332 168.739C178.158 170.129 179.058 170.099 179.058 170.099Z" fill="#77E6A6"/>
<path d="M178.757 176.253C178.94 173.978 179.36 170.508 179.39 168.103C179.457 162.795 177.828 155.365 177.828 155.365C178.369 161.222 179.057 164.648 178.702 169.417C178.561 171.307 178.521 173.983 178.406 175.702C178.327 176.156 178.547 176.636 178.757 176.253Z" fill="#50CC85"/>
<path d="M175.6 165.789C175.6 165.789 174.063 162.025 171.27 158.672C168.477 155.319 164.312 149.736 164.312 149.736C164.312 149.736 166.343 153.71 169.1 158.2C171.857 162.69 175.6 165.789 175.6 165.789Z" fill="#50CC85"/>
<path d="M172.71 159.247C172.71 159.247 169.618 156.817 167.761 151.675C165.904 146.532 164.211 142.617 164.211 142.617C164.211 142.617 168.223 148.355 169.946 152.332C171.671 156.308 172.71 159.247 172.71 159.247Z" fill="#50CC85"/>
<path d="M175.39 165.063C175.39 165.063 173.772 159.181 173.455 154.486C173.137 149.791 173.173 146.842 173.173 146.842C173.173 146.842 175.213 155.361 175.828 158.979C176.443 162.597 175.39 165.063 175.39 165.063Z" fill="#50CC85"/>
<path d="M176.777 168.967C176.777 168.967 176.259 162.909 177.962 157.489C179.665 152.069 179.758 148.629 179.758 148.629C179.758 148.629 180.575 154.303 179.605 159.194C178.634 164.086 176.777 168.967 176.777 168.967Z" fill="#50CC85"/>
<path d="M176.276 167.63C176.276 167.63 171.973 163.955 169.798 163.09C167.623 162.225 164.594 159.707 164.594 159.707C164.594 159.707 168.332 164.493 170.42 165.442C172.507 166.39 176.276 167.63 176.276 167.63Z" fill="#50CC85"/>
<path d="M177.757 172.771C177.757 172.771 177.34 169.463 179.263 164.776C181.186 160.089 181.631 157.77 181.631 157.77C181.631 157.77 181.745 164.134 180.48 166.522C179.215 168.91 177.757 172.771 177.757 172.771Z" fill="#50CC85"/>
<path d="M177.354 170.361C177.354 170.361 174.881 168.711 172.497 168.376C170.113 168.041 169.477 167.717 169.477 167.717C169.477 167.717 170.683 169.92 173.623 170.291C176.563 170.664 177.354 170.361 177.354 170.361Z" fill="#50CC85"/>
<path d="M178.971 175.927C178.437 173.847 177.748 170.632 177.039 168.483C175.474 163.741 171.75 157.631 171.75 157.631C174.025 162.676 175.686 165.512 176.829 169.863C177.282 171.587 178.065 173.98 178.489 175.544C178.558 175.972 178.901 176.332 178.971 175.927Z" fill="#50CC85"/>
<path d="M184.436 190.45H172.769L169.164 169.9H188.461L184.436 190.45Z" fill="#D2DCEB"/>
<path d="M317.727 196.097L336.968 316.403L340.672 316.391L325.448 196.072L317.727 196.097Z" fill="#DCA86E"/>
<path d="M185.088 196.152L160.028 316.577L155.039 316.589L174.685 196.176L185.088 196.152Z" fill="#DCA86E"/>
<path d="M352.666 189.064H145.641V198.329H352.666V189.064Z" fill="#DCA86E"/>
<path d="M362.596 189.064H135.719V195.215H362.596V189.064Z" fill="#F3BA7A"/>
<path d="M299.152 185.822H291.099L283.047 134.445H289.169L299.152 185.822Z" fill="#A6AEBA"/>
<path d="M296.839 185.822H265.411L257.359 134.445H288.787L296.839 185.822Z" fill="#D2DCEB"/>
<path d="M299.154 184.658H264.992V188.491H299.154V184.658Z" fill="#D2DCEB"/>
<path d="M342.22 184.658H299.148V188.491H342.22V184.658Z" fill="#A6AEBA"/>
<path d="M279.576 162.632C280.486 166.565 279.845 170.812 278.146 172.119C276.447 173.426 274.332 171.297 273.422 167.364C272.512 163.431 273.153 159.184 274.852 157.877C276.552 156.571 278.667 158.699 279.576 162.632Z" fill="#A6AEBA"/>
<path d="M230.688 188.311H226.23C224.388 188.311 222.822 186.969 222.539 185.149L220.758 173.678H236.159L234.378 185.149C234.097 186.969 232.53 188.311 230.688 188.311Z" fill="#A6AEBA"/>
<path d="M234.821 185.866C234.659 185.866 234.496 185.861 234.328 185.848L234.12 185.832L233.954 185.704C233.843 185.62 231.242 183.584 231.242 180.669C231.242 177.685 233.224 175.256 235.66 175.256C237.128 175.256 238.436 175.811 239.247 176.781C239.826 177.473 240.439 178.733 240.069 180.794C239.482 184.042 237.581 185.866 234.821 185.866ZM234.654 184.462C237.467 184.551 238.354 182.395 238.688 180.544C238.909 179.319 238.734 178.354 238.17 177.68C237.627 177.03 236.713 176.657 235.661 176.657C233.999 176.657 232.646 178.456 232.646 180.668C232.645 182.53 234.157 184.02 234.654 184.462Z" fill="#A6AEBA"/>
<path d="M219.223 189.318H238.743L241.856 185.871H216.109L219.223 189.318Z" fill="#D2DCEB"/>
<path d="M115.796 114.328H22.3906V316.364H115.796V114.328Z" fill="#B6BFCC"/>
<path d="M105.04 123.154H33.1406V144.338H105.04V123.154Z" fill="#D2DCEB"/>
<path d="M77.6933 136.316H60.4953C60.0533 136.316 59.6953 135.958 59.6953 135.516V131.98C59.6953 131.538 60.0533 131.18 60.4953 131.18H77.6933C78.1353 131.18 78.4933 131.538 78.4933 131.98V135.516C78.4933 135.958 78.1353 136.316 77.6933 136.316Z" fill="white"/>
<path d="M105.04 150.115H33.1406V171.3H105.04V150.115Z" fill="#D2DCEB"/>
<path d="M77.6933 163.275H60.4953C60.0533 163.275 59.6953 162.917 59.6953 162.475V158.939C59.6953 158.497 60.0533 158.139 60.4953 158.139H77.6933C78.1353 158.139 78.4933 158.497 78.4933 158.939V162.475C78.4933 162.917 78.1353 163.275 77.6933 163.275Z" fill="white"/>
<path d="M105.04 177.074H33.1406V198.258H105.04V177.074Z" fill="#D2DCEB"/>
<path d="M77.6933 190.234H60.4953C60.0533 190.234 59.6953 189.876 59.6953 189.434V185.898C59.6953 185.456 60.0533 185.098 60.4953 185.098H77.6933C78.1353 185.098 78.4933 185.456 78.4933 185.898V189.434C78.4933 189.876 78.1353 190.234 77.6933 190.234Z" fill="white"/>
<path d="M105.04 204.338H33.1406V308.179H105.04V204.338Z" fill="#D2DCEB"/>
<path d="M77.6933 217.497H60.4953C60.0533 217.497 59.6953 217.139 59.6953 216.697V213.161C59.6953 212.719 60.0533 212.361 60.4953 212.361H77.6933C78.1353 212.361 78.4933 212.719 78.4933 213.161V216.697C78.4933 217.139 78.1353 217.497 77.6933 217.497Z" fill="white"/>
<defs>
<linearGradient id="paint0_linear_2659_941" x1="276.033" y1="292.082" x2="299.32" y2="309.178" gradientUnits="userSpaceOnUse">
<stop stop-color="#343A44"/>
<stop offset="0.3009" stop-color="#232D3E"/>
<stop offset="0.6391" stop-color="#182439"/>
<stop offset="1" stop-color="#142138"/>
</linearGradient>
<linearGradient id="paint1_linear_2659_941" x1="315.305" y1="303.585" x2="344.193" y2="303.585" gradientUnits="userSpaceOnUse">
<stop stop-color="#343A44"/>
<stop offset="0.3009" stop-color="#232D3E"/>
<stop offset="0.6391" stop-color="#182439"/>
<stop offset="1" stop-color="#142138"/>
</linearGradient>
<linearGradient id="paint2_linear_2659_941" x1="478.424" y1="172.388" x2="457.838" y2="148.793" gradientUnits="userSpaceOnUse">
<stop stop-color="#343A44"/>
<stop offset="0.3009" stop-color="#232D3E"/>
<stop offset="0.6391" stop-color="#182439"/>
<stop offset="1" stop-color="#142138"/>
</linearGradient>
<linearGradient id="paint3_linear_2659_941" x1="369.072" y1="213.473" x2="464.847" y2="213.473" gradientUnits="userSpaceOnUse">
<stop stop-color="#343A44"/>
<stop offset="0.3009" stop-color="#232D3E"/>
<stop offset="0.6391" stop-color="#182439"/>
<stop offset="1" stop-color="#142138"/>
</linearGradient>
</defs>
</svg>
