<svg width="10" height="15" viewBox="0 0 10 15" fill="none" xmlns="http://www.w3.org/2000/svg">
<path d="M9.53192 3.99719C9.51058 3.92252 9.46791 3.81052 9.40391 3.66119L9.30792 3.43719C9.01992 2.75452 8.61992 2.18385 8.10792 1.72519C7.64925 1.30919 7.12125 0.999853 6.52391 0.797187C5.97991 0.605187 5.42525 0.509187 4.85991 0.509187C4.12391 0.509187 3.42525 0.669187 2.76391 0.989187C2.04925 1.33052 1.46791 1.81052 1.01991 2.42919C0.518581 3.12252 0.214581 3.93319 0.107915 4.86119V5.54919L0.123914 5.82119C0.187915 6.30119 0.374581 6.85052 0.683915 7.46919C0.865248 7.84252 1.18525 8.40252 1.64391 9.14919C1.91058 9.57585 2.10258 9.89052 2.21991 10.0932C2.81725 11.0852 3.72391 12.5625 4.93992 14.5252L6.60391 11.6612C6.66791 11.5439 6.76391 11.3679 6.89191 11.1332L7.06791 10.8452C7.09991 10.7919 7.16391 10.7065 7.25991 10.5892C7.35591 10.4719 7.41992 10.3865 7.45192 10.3332C7.61192 10.0345 7.88392 9.58652 8.26792 8.98919C8.75858 8.21052 9.09992 7.62385 9.29192 7.22919C9.60125 6.57852 9.75592 5.99719 9.75592 5.48519V4.82919C9.75592 4.75452 9.70258 4.54652 9.59592 4.20519L9.53192 3.99719ZM4.90791 7.00519C4.56658 7.00519 4.25725 6.91452 3.97991 6.73319C3.65991 6.53052 3.41991 6.23185 3.25991 5.83719C3.22791 5.75185 3.21725 5.60785 3.22791 5.40519V5.00519C3.22791 4.66385 3.31858 4.36519 3.49991 4.10919C3.65991 3.88519 3.87858 3.71452 4.15591 3.59719C4.41191 3.47985 4.67858 3.42119 4.95591 3.42119C5.28658 3.42119 5.58525 3.50119 5.85191 3.66119C6.11858 3.82119 6.33191 4.03985 6.49192 4.31719C6.65192 4.58385 6.73191 4.88252 6.73191 5.21319C6.73191 5.54385 6.64658 5.84785 6.47591 6.12519C6.31591 6.39185 6.09725 6.60519 5.81992 6.76519C5.54258 6.92519 5.23858 7.00519 4.90791 7.00519Z" fill="white"/>
</svg>
