<svg width="25" height="19" viewBox="0 0 25 19" fill="none" xmlns="http://www.w3.org/2000/svg">
<path d="M23.3438 4.25V11.6867C23.865 11.2176 24.2818 10.6442 24.5671 10.0036C24.8524 9.36301 24.9999 8.66959 24.9999 7.96834C24.9999 7.26709 24.8524 6.57368 24.5671 5.9331C24.2818 5.29252 23.865 4.71908 23.3438 4.25Z" fill="#191919"/>
<path d="M8.33484 3.79688H5V12.134H8.33484V3.79688Z" fill="#191919"/>
<path d="M20.6176 0.464656L10.0045 3.52437V12.4117L20.6176 15.4714C20.6922 15.4836 20.7682 15.4836 20.8427 15.4714C21.0638 15.4714 21.2759 15.3836 21.4323 15.2272C21.5886 15.0709 21.6764 14.8588 21.6764 14.6377V1.29837C21.6764 1.16894 21.6463 1.04128 21.5884 0.925519C21.5305 0.809754 21.4465 0.709056 21.343 0.631398C21.2432 0.549321 21.1258 0.491536 20.9999 0.462599C20.8741 0.433663 20.7432 0.434367 20.6176 0.464656ZM8.68961e-08 7.96804C-0.000196047 8.92902 0.331636 9.86055 0.939335 10.605C1.54703 11.3494 2.39328 11.861 3.33484 12.0532V3.88286C2.39328 4.07506 1.54703 4.58667 0.939335 5.3311C0.331636 6.07553 -0.000196047 7.00706 8.68961e-08 7.96804ZM8.98738 13.804H3.93511L5.00225 18.1726C5.0479 18.3576 5.15553 18.5214 5.30722 18.6367C5.45891 18.752 5.64552 18.8118 5.83596 18.8063H9.1708C9.29744 18.8069 9.42256 18.7788 9.53668 18.7239C9.6508 18.669 9.75092 18.5888 9.82943 18.4895C9.90738 18.3893 9.96142 18.2726 9.98743 18.1483C10.0134 18.0241 10.0107 17.8955 9.9795 17.7725L8.98738 13.804Z" fill="#191919"/>
</svg>
