<svg width="14" height="15" viewBox="0 0 14 15" fill="none" xmlns="http://www.w3.org/2000/svg">
<path d="M13.7143 7.28571C13.7143 3.50893 10.6339 0.428571 6.85714 0.428571C5.09821 0.428571 3.39286 1.13393 2.13393 2.32143L0.973214 1.16964C0.8125 0.999999 0.5625 0.955357 0.357143 1.04464C0.142857 1.13393 0 1.33928 0 1.57143V5.57143C0 5.88393 0.258929 6.14286 0.571429 6.14286H4.57143C4.80357 6.14286 5.00893 6 5.09821 5.78571C5.1875 5.58036 5.14286 5.33036 4.97321 5.16964L3.75 3.9375C4.58036 3.16071 5.6875 2.71428 6.85714 2.71428C9.375 2.71428 11.4286 4.76786 11.4286 7.28571C11.4286 9.80357 9.375 11.8571 6.85714 11.8571C5.4375 11.8571 4.125 11.2143 3.25 10.0804C3.20536 10.0179 3.125 9.98214 3.04464 9.97321C2.96429 9.97321 2.88393 10 2.82143 10.0536L1.59821 11.2857C1.5 11.3839 1.49107 11.5536 1.58036 11.6696C2.88393 13.2411 4.8125 14.1429 6.85714 14.1429C10.6339 14.1429 13.7143 11.0625 13.7143 7.28571Z" fill="#191919"/>
</svg>
