<svg width="36" height="36" viewBox="0 0 36 36" fill="none" xmlns="http://www.w3.org/2000/svg">
<path d="M24.9453 18.25L34.7109 28.1133C35.9805 29.2852 35.9805 31.2383 34.7109 32.4102L32.5625 34.5586C31.3906 35.8281 29.4375 35.8281 28.2656 34.5586L18.5 24.793L8.63672 34.5586C7.46484 35.8281 5.51172 35.8281 4.33984 34.5586L2.19141 32.4102C0.921875 31.2383 0.921875 29.2852 2.19141 28.1133L11.957 18.25L2.19141 8.48438C0.921875 7.3125 0.921875 5.35938 2.19141 4.1875L4.33984 2.03906C5.51172 0.769531 7.46484 0.769531 8.63672 2.03906L18.5 11.8047L28.2656 2.03906C29.4375 0.769531 31.3906 0.769531 32.5625 2.03906L34.7109 4.1875C35.9805 5.35938 35.9805 7.3125 34.7109 8.48438L24.9453 18.25Z" fill="#0184EF"/>
</svg>
