<svg width="28" height="23" viewBox="0 0 28 23" fill="none" xmlns="http://www.w3.org/2000/svg">
<path d="M4.33203 6.25C4.38932 4.70312 4.93359 3.39974 5.96484 2.33984C6.99609 1.30859 8.28516 0.778646 9.83203 0.75C11.4076 0.778646 12.7109 1.30859 13.7422 2.33984C14.8021 3.39974 15.3464 4.70312 15.375 6.25C15.3464 7.79688 14.8021 9.10026 13.7422 10.1602C12.7109 11.1914 11.4076 11.7214 9.83203 11.75C8.28516 11.7214 6.99609 11.1914 5.96484 10.1602C4.93359 9.10026 4.38932 7.79688 4.33203 6.25ZM12.2383 13.8125C12.3815 13.8125 12.4961 13.8125 12.582 13.8125V16.3047C12.0091 16.4766 11.5221 16.7917 11.1211 17.25C10.7487 17.737 10.5482 18.3099 10.5195 18.9688V20C10.5482 20.2005 10.6341 20.3581 10.7773 20.4727L11.4648 21.1602C11.7799 21.4466 12.0951 21.4466 12.4102 21.1602C12.6966 20.8451 12.6966 20.5299 12.4102 20.2148L11.8945 19.6992V18.9688C11.9232 18.5677 12.0664 18.2383 12.3242 17.9805C12.582 17.7227 12.8971 17.5938 13.2695 17.5938C13.6706 17.5938 14.0143 17.7227 14.3008 17.9805C14.5586 18.2383 14.6875 18.5677 14.6875 18.9688V19.6992L14.2148 20.2148C13.9284 20.5299 13.9284 20.8451 14.2148 21.1602C14.5299 21.4466 14.8451 21.4466 15.1602 21.1602L15.8477 20.4727C15.9909 20.3581 16.0625 20.2005 16.0625 20V18.9688C16.0625 18.3099 15.862 17.737 15.4609 17.25C15.0885 16.7917 14.6016 16.4766 14 16.3047V14.0273C15.6042 14.4284 16.9219 15.2591 17.9531 16.5195C18.9557 17.7799 19.4714 19.2839 19.5 21.0312V21.375C19.5 21.776 19.3711 22.1055 19.1133 22.3633C18.8555 22.6211 18.526 22.75 18.125 22.75H1.625C1.22396 22.75 0.894531 22.6211 0.636719 22.3633C0.378906 22.1055 0.25 21.776 0.25 21.375V21.0312C0.278646 19.3125 0.794271 17.8086 1.79688 16.5195C2.82812 15.2591 4.14583 14.4284 5.75 14.0273V16.6484C5.23438 16.8203 4.81901 17.1068 4.50391 17.5078C4.1888 17.9375 4.03125 18.4245 4.03125 18.9688C4.0599 19.6562 4.28906 20.2292 4.71875 20.6875C5.17708 21.1172 5.75 21.3464 6.4375 21.375C7.125 21.3464 7.69792 21.1172 8.15625 20.6875C8.58594 20.2292 8.8151 19.6562 8.84375 18.9688C8.84375 18.4245 8.6862 17.9375 8.37109 17.5078C8.05599 17.1068 7.64062 16.8203 7.125 16.6484V13.8125C7.23958 13.8125 7.35417 13.8125 7.46875 13.8125H12.2383ZM5.36328 18.9688C5.36328 18.6823 5.46354 18.4388 5.66406 18.2383C5.86458 18.0378 6.10807 17.9375 6.39453 17.9375C7.05339 17.9948 7.39714 18.3385 7.42578 18.9688C7.39714 19.599 7.05339 19.9427 6.39453 20C6.10807 20 5.86458 19.8997 5.66406 19.6992C5.46354 19.4987 5.36328 19.2552 5.36328 18.9688ZM25.6875 0.75C26.2604 0.778646 26.7474 0.979167 27.1484 1.35156C27.5208 1.7526 27.7214 2.23958 27.75 2.8125V8.3125C27.7214 8.88542 27.5208 9.3724 27.1484 9.77344C26.7474 10.1458 26.2604 10.3464 25.6875 10.375H23.625L20.0586 13.0391C19.944 13.125 19.8151 13.1393 19.6719 13.082C19.5573 13.0247 19.5 12.9245 19.5 12.7812V10.375H18.8125C18.2396 10.3464 17.7526 10.1458 17.3516 9.77344C16.9792 9.3724 16.7786 8.88542 16.75 8.3125V2.8125C16.7786 2.23958 16.9792 1.7526 17.3516 1.35156C17.7526 0.979167 18.2396 0.778646 18.8125 0.75H25.6875Z" fill="#191919"/>
</svg>
