<svg width="25" height="21" viewBox="0 0 25 21" fill="none" xmlns="http://www.w3.org/2000/svg">
<path d="M8.75 10.5C10.1562 10.474 11.3411 9.99219 12.3047 9.05469C13.2422 8.09115 13.724 6.90625 13.75 5.5C13.724 4.09375 13.2422 2.90885 12.3047 1.94531C11.3411 1.00781 10.1562 0.526042 8.75 0.5C7.34375 0.526042 6.15885 1.00781 5.19531 1.94531C4.25781 2.90885 3.77604 4.09375 3.75 5.5C3.77604 6.90625 4.25781 8.09115 5.19531 9.05469C6.15885 9.99219 7.34375 10.474 8.75 10.5ZM10.7422 12.375H6.75781C4.85677 12.4271 3.26823 13.0911 1.99219 14.3672C0.716146 15.6432 0.0520833 17.2318 0 19.1328C0 19.5234 0.130208 19.849 0.390625 20.1094C0.651042 20.3698 0.976562 20.5 1.36719 20.5H16.1328C16.5234 20.5 16.849 20.3698 17.1094 20.1094C17.3698 19.849 17.5 19.5234 17.5 19.1328C17.4479 17.2318 16.7839 15.6432 15.5078 14.3672C14.2318 13.0911 12.6432 12.4271 10.7422 12.375ZM18.7109 13H15.8203C16.7318 13.7552 17.4479 14.6536 17.9688 15.6953C18.4896 16.763 18.75 17.9089 18.75 19.1328C18.75 19.6536 18.6198 20.1094 18.3594 20.5H23.75C24.1146 20.5 24.4141 20.3698 24.6484 20.1094C24.8828 19.875 25 19.5755 25 19.2109C24.9479 17.4661 24.3359 16.0078 23.1641 14.8359C21.9922 13.6641 20.5078 13.0521 18.7109 13ZM16.875 10.5C18.125 10.474 19.1536 10.0443 19.9609 9.21094C20.7943 8.40365 21.224 7.375 21.25 6.125C21.224 4.875 20.7943 3.84635 19.9609 3.03906C19.1536 2.20573 18.125 1.77604 16.875 1.75C15.8854 1.77604 15.013 2.07552 14.2578 2.64844C14.7266 3.50781 14.974 4.45833 15 5.5C14.974 6.90625 14.5573 8.14323 13.75 9.21094C14.5833 10.0443 15.625 10.474 16.875 10.5Z" fill="#505050"/>
</svg>
