<svg width="490" height="391" viewBox="0 0 490 391" fill="none" xmlns="http://www.w3.org/2000/svg">
<path d="M479.166 267.539H426.016V337.639H479.166V267.539Z" fill="#F5F5F5"/>
<path d="M479.162 267.539H454.242V337.639H479.162V267.539Z" fill="#EBEBEB"/>
<path d="M441.936 277.029H437.156V288.639H441.936V277.029Z" fill="#EBEBEB"/>
<path d="M441.936 322.469H437.156V334.079H441.936V322.469Z" fill="#EBEBEB"/>
<path d="M454.243 293.19C454.243 293.29 447.923 293.37 440.133 293.37C432.333 293.37 426.023 293.29 426.023 293.19C426.023 293.09 432.343 293.01 440.133 293.01C447.923 293.01 454.243 293.09 454.243 293.19Z" fill="#EBEBEB"/>
<path d="M441.936 299.92H437.156V311.53H441.936V299.92Z" fill="#EBEBEB"/>
<path d="M454.243 316.089C454.243 316.189 447.923 316.269 440.133 316.269C432.333 316.269 426.023 316.189 426.023 316.089C426.023 315.989 432.343 315.909 440.133 315.909C447.923 315.899 454.243 315.989 454.243 316.089Z" fill="#EBEBEB"/>
<path d="M464.319 277.029H459.539V288.639H464.319V277.029Z" fill="#E0E0E0"/>
<path d="M474.686 277.029H469.906V288.639H474.686V277.029Z" fill="#E0E0E0"/>
<path d="M464.319 299.061H459.539V310.671H464.319V299.061Z" fill="#E0E0E0"/>
<path d="M474.686 299.061H469.906V310.671H474.686V299.061Z" fill="#E0E0E0"/>
<path d="M464.319 321.09H459.539V332.7H464.319V321.09Z" fill="#E0E0E0"/>
<path d="M474.686 321.09H469.906V332.7H474.686V321.09Z" fill="#E0E0E0"/>
<path d="M483.156 265.09H422.016V267.62H483.156V265.09Z" fill="#E0E0E0"/>
<path d="M479.537 267.86C479.537 267.96 467.657 268.04 453.007 268.04C438.347 268.04 426.477 267.96 426.477 267.86C426.477 267.76 438.357 267.68 453.007 267.68C467.657 267.68 479.537 267.76 479.537 267.86Z" fill="#F5F5F5"/>
<path d="M367.026 90.4492H272.266V338.469H367.026V90.4492Z" fill="#EBEBEB"/>
<path d="M367.021 90.4492H319.641V338.469H367.021V90.4492Z" fill="#E0E0E0"/>
<path d="M316.546 60.9688H283.086V90.4487H316.546V60.9688Z" fill="#EBEBEB"/>
<path d="M316.54 60.9688H308.57V90.4487H316.54V60.9688Z" fill="#E0E0E0"/>
<path d="M369.787 88.7285H264.367V90.4485H369.787V88.7285Z" fill="#E0E0E0"/>
<path d="M298.989 103.309H290.969V120.219H298.989V103.309Z" fill="white"/>
<path d="M319.638 126.86C319.638 127.04 309.028 127.18 295.948 127.18C282.858 127.18 272.258 127.04 272.258 126.86C272.258 126.68 282.858 126.54 295.948 126.54C309.038 126.53 319.638 126.68 319.638 126.86Z" fill="#E0E0E0"/>
<path d="M346.778 103.309H338.758V120.219H346.778V103.309Z" fill="#F5F5F5"/>
<path d="M367.427 126.86C367.427 127.04 356.817 127.18 343.737 127.18C330.647 127.18 320.047 127.04 320.047 126.86C320.047 126.68 330.647 126.54 343.737 126.54C356.827 126.53 367.427 126.68 367.427 126.86Z" fill="#EBEBEB"/>
<path d="M346.778 136.879H338.758V153.789H346.778V136.879Z" fill="#F5F5F5"/>
<path d="M367.427 160.429C367.427 160.609 356.817 160.749 343.737 160.749C330.647 160.749 320.047 160.609 320.047 160.429C320.047 160.249 330.647 160.109 343.737 160.109C356.827 160.109 367.427 160.259 367.427 160.429Z" fill="#EBEBEB"/>
<path d="M346.778 171.469H338.758V188.379H346.778V171.469Z" fill="#F5F5F5"/>
<path d="M367.427 195.019C367.427 195.199 356.817 195.339 343.737 195.339C330.647 195.339 320.047 195.199 320.047 195.019C320.047 194.839 330.647 194.699 343.737 194.699C356.827 194.699 367.427 194.849 367.427 195.019Z" fill="#EBEBEB"/>
<path d="M346.778 206.07H338.758V222.98H346.778V206.07Z" fill="#F5F5F5"/>
<path d="M367.427 229.611C367.427 229.791 356.817 229.931 343.737 229.931C330.647 229.931 320.047 229.791 320.047 229.611C320.047 229.431 330.647 229.291 343.737 229.291C356.827 229.291 367.427 229.441 367.427 229.611Z" fill="#EBEBEB"/>
<path d="M346.778 239.668H338.758V256.578H346.778V239.668Z" fill="#F5F5F5"/>
<path d="M367.427 263.219C367.427 263.399 356.817 263.539 343.737 263.539C330.647 263.539 320.047 263.399 320.047 263.219C320.047 263.039 330.647 262.899 343.737 262.899C356.827 262.889 367.427 263.039 367.427 263.219Z" fill="#EBEBEB"/>
<path d="M346.778 273.398H338.758V290.308H346.778V273.398Z" fill="#F5F5F5"/>
<path d="M346.778 307.578H338.758V324.488H346.778V307.578Z" fill="#F5F5F5"/>
<path d="M367.427 296.949C367.427 297.129 356.817 297.269 343.737 297.269C330.647 297.269 320.047 297.129 320.047 296.949C320.047 296.769 330.647 296.629 343.737 296.629C356.827 296.629 367.427 296.769 367.427 296.949Z" fill="#EBEBEB"/>
<path d="M298.989 137.398H290.969V154.308H298.989V137.398Z" fill="white"/>
<path d="M319.638 160.949C319.638 161.129 309.028 161.269 295.948 161.269C282.858 161.269 272.258 161.129 272.258 160.949C272.258 160.769 282.858 160.629 295.948 160.629C309.038 160.619 319.638 160.769 319.638 160.949Z" fill="#E0E0E0"/>
<path d="M298.989 171.488H290.969V188.398H298.989V171.488Z" fill="white"/>
<path d="M319.638 195.039C319.638 195.219 309.028 195.359 295.948 195.359C282.858 195.359 272.258 195.219 272.258 195.039C272.258 194.859 282.858 194.719 295.948 194.719C309.038 194.709 319.638 194.859 319.638 195.039Z" fill="#E0E0E0"/>
<path d="M298.989 205.578H290.969V222.488H298.989V205.578Z" fill="white"/>
<path d="M319.638 229.129C319.638 229.309 309.028 229.449 295.948 229.449C282.858 229.449 272.258 229.309 272.258 229.129C272.258 228.949 282.858 228.809 295.948 228.809C309.038 228.799 319.638 228.949 319.638 229.129Z" fill="#E0E0E0"/>
<path d="M298.989 239.668H290.969V256.578H298.989V239.668Z" fill="white"/>
<path d="M319.638 263.219C319.638 263.399 309.028 263.539 295.948 263.539C282.858 263.539 272.258 263.399 272.258 263.219C272.258 263.039 282.858 262.899 295.948 262.899C309.038 262.889 319.638 263.039 319.638 263.219Z" fill="#E0E0E0"/>
<path d="M298.989 273.758H290.969V290.668H298.989V273.758Z" fill="white"/>
<path d="M319.638 297.309C319.638 297.489 309.028 297.629 295.948 297.629C282.858 297.629 272.258 297.489 272.258 297.309C272.258 297.129 282.858 296.989 295.948 296.989C309.038 296.979 319.638 297.129 319.638 297.309Z" fill="#E0E0E0"/>
<path d="M298.989 307.848H290.969V324.758H298.989V307.848Z" fill="white"/>
<path d="M234.98 242.199H162.32V338.039H234.98V242.199Z" fill="#EBEBEB"/>
<path d="M234.984 242.199H200.914V338.039H234.984V242.199Z" fill="#E0E0E0"/>
<path d="M184.077 255.17H177.547V271.04H184.077V255.17Z" fill="#F5F5F5"/>
<path d="M184.077 317.301H177.547V333.171H184.077V317.301Z" fill="#F5F5F5"/>
<path d="M200.91 277.279C200.91 277.459 192.27 277.599 181.62 277.599C170.96 277.599 162.32 277.459 162.32 277.279C162.32 277.099 170.96 276.959 181.62 276.959C192.27 276.949 200.91 277.099 200.91 277.279Z" fill="#F5F5F5"/>
<path d="M184.077 286.469H177.547V302.339H184.077V286.469Z" fill="#F5F5F5"/>
<path d="M200.91 308.568C200.91 308.748 192.27 308.888 181.62 308.888C170.96 308.888 162.32 308.748 162.32 308.568C162.32 308.388 170.96 308.248 181.62 308.248C192.27 308.248 200.91 308.398 200.91 308.568Z" fill="#F5F5F5"/>
<path d="M214.671 255.17H208.141V271.04H214.671V255.17Z" fill="#F5F5F5"/>
<path d="M228.85 255.17H222.32V271.04H228.85V255.17Z" fill="#F5F5F5"/>
<path d="M214.671 285.289H208.141V301.159H214.671V285.289Z" fill="#F5F5F5"/>
<path d="M228.85 285.289H222.32V301.159H228.85V285.289Z" fill="#F5F5F5"/>
<path d="M214.671 315.41H208.141V331.28H214.671V315.41Z" fill="#F5F5F5"/>
<path d="M228.85 315.41H222.32V331.28H228.85V315.41Z" fill="#F5F5F5"/>
<path d="M240.449 238.859H156.859V242.319H240.449V238.859Z" fill="#E0E0E0"/>
<path d="M235.493 242.64C235.493 242.82 219.253 242.96 199.223 242.96C179.183 242.96 162.953 242.82 162.953 242.64C162.953 242.46 179.193 242.32 199.223 242.32C219.253 242.32 235.493 242.47 235.493 242.64Z" fill="#EBEBEB"/>
<path d="M389.812 123.36L454.212 123.63C454.212 123.63 448.112 109.68 435.082 109.67C425.142 109.66 424.702 115.85 418.742 117.62C412.782 119.39 400.193 108.57 389.812 123.36Z" fill="#EBEBEB"/>
<path d="M111.906 54.82L225.116 55.29C225.116 55.29 214.396 30.76 191.486 30.75C174.016 30.74 173.246 41.62 162.756 44.72C152.276 47.83 130.146 28.81 111.906 54.82Z" fill="#F5F5F5"/>
<path d="M338.945 18.13L424.245 18.49C424.245 18.49 416.165 0.0100091 398.905 9.13838e-06C385.745 -0.00999086 385.155 8.19001 377.265 10.53C369.355 12.86 352.685 -1.46999 338.945 18.13Z" fill="#FAFAFA"/>
<path d="M489.54 337.67C489.54 337.81 384.42 337.93 254.78 337.93C125.09 337.93 20 337.81 20 337.67C20 337.53 125.1 337.41 254.78 337.41C384.42 337.41 489.54 337.53 489.54 337.67Z" fill="#263238"/>
<path d="M441.449 192.52H386.039V337.55H441.449V192.52Z" fill="#455A64"/>
<path d="M441.442 192.52H413.742V337.55H441.442V192.52Z" fill="#263238"/>
<path d="M411.945 175.279H392.375V192.519H411.945V175.279Z" fill="#455A64"/>
<path d="M411.933 175.279H407.273V192.519H411.933V175.279Z" fill="#263238"/>
<path d="M443.072 191.51H381.422V192.52H443.072V191.51Z" fill="#455A64"/>
<path d="M401.674 200.039H396.984V209.929H401.674V200.039Z" fill="#263238"/>
<path d="M413.739 213.809C413.739 213.909 407.539 213.999 399.889 213.999C392.239 213.999 386.039 213.919 386.039 213.809C386.039 213.699 392.239 213.619 399.889 213.619C407.539 213.619 413.739 213.699 413.739 213.809Z" fill="#263238"/>
<path d="M429.612 200.039H424.922V209.929H429.612V200.039Z" fill="#455A64"/>
<path d="M441.692 213.809C441.692 213.909 435.492 213.999 427.842 213.999C420.192 213.999 413.992 213.919 413.992 213.809C413.992 213.699 420.192 213.619 427.842 213.619C435.492 213.619 441.692 213.699 441.692 213.809Z" fill="#455A64"/>
<path d="M429.612 219.67H424.922V229.56H429.612V219.67Z" fill="#455A64"/>
<path d="M441.692 233.44C441.692 233.54 435.492 233.63 427.842 233.63C420.192 233.63 413.992 233.55 413.992 233.44C413.992 233.34 420.192 233.25 427.842 233.25C435.492 233.25 441.692 233.34 441.692 233.44Z" fill="#455A64"/>
<path d="M429.612 239.898H424.922V249.788H429.612V239.898Z" fill="#455A64"/>
<path d="M441.692 253.669C441.692 253.769 435.492 253.859 427.842 253.859C420.192 253.859 413.992 253.779 413.992 253.669C413.992 253.569 420.192 253.479 427.842 253.479C435.492 253.479 441.692 253.559 441.692 253.669Z" fill="#455A64"/>
<path d="M429.612 260.119H424.922V270.009H429.612V260.119Z" fill="#455A64"/>
<path d="M441.692 273.889C441.692 273.989 435.492 274.079 427.842 274.079C420.192 274.079 413.992 273.999 413.992 273.889C413.992 273.789 420.192 273.699 427.842 273.699C435.492 273.709 441.692 273.789 441.692 273.889Z" fill="#455A64"/>
<path d="M429.612 279.77H424.922V289.66H429.612V279.77Z" fill="#455A64"/>
<path d="M441.692 293.54C441.692 293.64 435.492 293.73 427.842 293.73C420.192 293.73 413.992 293.65 413.992 293.54C413.992 293.44 420.192 293.35 427.842 293.35C435.492 293.35 441.692 293.44 441.692 293.54Z" fill="#455A64"/>
<path d="M429.612 299.5H424.922V309.39H429.612V299.5Z" fill="#455A64"/>
<path d="M429.612 319.49H424.922V329.38H429.612V319.49Z" fill="#455A64"/>
<path d="M441.692 313.27C441.692 313.37 435.492 313.46 427.842 313.46C420.192 313.46 413.992 313.38 413.992 313.27C413.992 313.17 420.192 313.08 427.842 313.08C435.492 313.08 441.692 313.17 441.692 313.27Z" fill="#455A64"/>
<path d="M401.674 219.969H396.984V229.859H401.674V219.969Z" fill="#263238"/>
<path d="M413.739 233.739C413.739 233.839 407.539 233.929 399.889 233.929C392.239 233.929 386.039 233.849 386.039 233.739C386.039 233.639 392.239 233.549 399.889 233.549C407.539 233.549 413.739 233.639 413.739 233.739Z" fill="#263238"/>
<path d="M401.674 239.898H396.984V249.788H401.674V239.898Z" fill="#263238"/>
<path d="M413.739 253.669C413.739 253.769 407.539 253.859 399.889 253.859C392.239 253.859 386.039 253.779 386.039 253.669C386.039 253.569 392.239 253.479 399.889 253.479C407.539 253.489 413.739 253.569 413.739 253.669Z" fill="#263238"/>
<path d="M401.674 259.84H396.984V269.73H401.674V259.84Z" fill="#263238"/>
<path d="M413.739 273.61C413.739 273.71 407.539 273.8 399.889 273.8C392.239 273.8 386.039 273.72 386.039 273.61C386.039 273.51 392.239 273.42 399.889 273.42C407.539 273.42 413.739 273.5 413.739 273.61Z" fill="#263238"/>
<path d="M401.674 279.77H396.984V289.66H401.674V279.77Z" fill="#263238"/>
<path d="M413.739 293.54C413.739 293.64 407.539 293.73 399.889 293.73C392.239 293.73 386.039 293.65 386.039 293.54C386.039 293.44 392.239 293.35 399.889 293.35C407.539 293.35 413.739 293.44 413.739 293.54Z" fill="#263238"/>
<path d="M401.674 299.709H396.984V309.599H401.674V299.709Z" fill="#263238"/>
<path d="M413.739 313.479C413.739 313.579 407.539 313.669 399.889 313.669C392.239 313.669 386.039 313.589 386.039 313.479C386.039 313.379 392.239 313.289 399.889 313.289C407.539 313.289 413.739 313.369 413.739 313.479Z" fill="#263238"/>
<path d="M401.674 319.639H396.984V329.529H401.674V319.639Z" fill="#263238"/>
<path d="M302.708 140.689H228.578V337.609H302.708V140.689Z" fill="#455A64"/>
<path d="M302.716 140.689H274.266V337.609H302.716V140.689Z" fill="#263238"/>
<path d="M291.302 156.23H285.672V168.11H291.302V156.23Z" fill="#455A64"/>
<path d="M291.302 177.07H285.672V188.95H291.302V177.07Z" fill="#455A64"/>
<path d="M291.302 200.41H285.672V212.29H291.302V200.41Z" fill="#455A64"/>
<path d="M291.302 222.709H285.672V234.589H291.302V222.709Z" fill="#455A64"/>
<path d="M291.302 245.02H285.672V256.9H291.302V245.02Z" fill="#455A64"/>
<path d="M291.302 267.32H285.672V279.2H291.302V267.32Z" fill="#455A64"/>
<path d="M291.302 289.629H285.672V301.509H291.302V289.629Z" fill="#455A64"/>
<path d="M291.302 314.15H285.672V326.03H291.302V314.15Z" fill="#455A64"/>
<path d="M306.405 139.449H222.125V141.749H306.405V139.449Z" fill="#263238"/>
<path d="M288.494 125.59H258.484V140.6H288.494V125.59Z" fill="#263238"/>
<path d="M274.264 125.59H258.484V139.45H274.264V125.59Z" fill="#455A64"/>
<path d="M244.755 155.74H239.125V167.62H244.755V155.74Z" fill="#263238"/>
<path d="M259.755 155.74H254.125V167.62H259.755V155.74Z" fill="#263238"/>
<path d="M244.755 178.371H239.125V190.251H244.755V178.371Z" fill="#263238"/>
<path d="M259.755 178.371H254.125V190.251H259.755V178.371Z" fill="#263238"/>
<path d="M244.755 201H239.125V212.88H244.755V201Z" fill="#263238"/>
<path d="M259.755 201H254.125V212.88H259.755V201Z" fill="#263238"/>
<path d="M244.755 223.631H239.125V235.511H244.755V223.631Z" fill="#263238"/>
<path d="M259.755 223.631H254.125V235.511H259.755V223.631Z" fill="#263238"/>
<path d="M244.755 246.26H239.125V258.14H244.755V246.26Z" fill="#263238"/>
<path d="M259.755 246.26H254.125V258.14H259.755V246.26Z" fill="#263238"/>
<path d="M244.755 268.891H239.125V280.771H244.755V268.891Z" fill="#263238"/>
<path d="M259.755 268.891H254.125V280.771H259.755V268.891Z" fill="#263238"/>
<path d="M244.755 291.52H239.125V303.4H244.755V291.52Z" fill="#263238"/>
<path d="M259.755 291.52H254.125V303.4H259.755V291.52Z" fill="#263238"/>
<path d="M244.755 314.15H239.125V326.03H244.755V314.15Z" fill="#263238"/>
<path d="M259.755 314.15H254.125V326.03H259.755V314.15Z" fill="#263238"/>
<path d="M274.266 172.28C274.266 172.48 264.036 172.63 251.426 172.63C238.806 172.63 228.586 172.47 228.586 172.28C228.586 172.08 238.816 171.93 251.426 171.93C264.036 171.93 274.266 172.09 274.266 172.28Z" fill="#263238"/>
<path d="M274.266 194.991C274.266 195.191 264.036 195.341 251.426 195.341C238.806 195.341 228.586 195.181 228.586 194.991C228.586 194.791 238.816 194.641 251.426 194.641C264.036 194.641 274.266 194.801 274.266 194.991Z" fill="#263238"/>
<path d="M274.266 217.979C274.266 218.179 264.036 218.329 251.426 218.329C238.806 218.329 228.586 218.169 228.586 217.979C228.586 217.789 238.816 217.629 251.426 217.629C264.036 217.619 274.266 217.779 274.266 217.979Z" fill="#263238"/>
<path d="M274.266 240.8C274.266 241 264.036 241.15 251.426 241.15C238.806 241.15 228.586 240.99 228.586 240.8C228.586 240.6 238.816 240.45 251.426 240.45C264.036 240.44 274.266 240.6 274.266 240.8Z" fill="#263238"/>
<path d="M274.266 263.29C274.266 263.49 264.036 263.64 251.426 263.64C238.806 263.64 228.586 263.48 228.586 263.29C228.586 263.09 238.816 262.94 251.426 262.94C264.036 262.93 274.266 263.09 274.266 263.29Z" fill="#263238"/>
<path d="M274.266 285.171C274.266 285.371 264.036 285.521 251.426 285.521C238.806 285.521 228.586 285.361 228.586 285.171C228.586 284.971 238.816 284.821 251.426 284.821C264.036 284.811 274.266 284.971 274.266 285.171Z" fill="#263238"/>
<path d="M274.266 309.421C274.266 309.621 264.036 309.771 251.426 309.771C238.806 309.771 228.586 309.611 228.586 309.421C228.586 309.221 238.816 309.071 251.426 309.071C264.036 309.061 274.266 309.221 274.266 309.421Z" fill="#263238"/>
<path d="M302.388 172.28C302.388 172.48 296.298 172.63 288.788 172.63C281.278 172.63 275.188 172.47 275.188 172.28C275.188 172.08 281.278 171.93 288.788 171.93C296.298 171.93 302.388 172.09 302.388 172.28Z" fill="#455A64"/>
<path d="M302.388 194.991C302.388 195.191 296.298 195.341 288.788 195.341C281.278 195.341 275.188 195.181 275.188 194.991C275.188 194.791 281.278 194.641 288.788 194.641C296.298 194.641 302.388 194.801 302.388 194.991Z" fill="#455A64"/>
<path d="M302.388 217.7C302.388 217.9 296.298 218.05 288.788 218.05C281.278 218.05 275.188 217.89 275.188 217.7C275.188 217.5 281.278 217.35 288.788 217.35C296.298 217.35 302.388 217.51 302.388 217.7Z" fill="#455A64"/>
<path d="M302.083 240.8C302.083 241 295.993 241.15 288.483 241.15C280.973 241.15 274.883 240.99 274.883 240.8C274.883 240.6 280.973 240.45 288.483 240.45C295.993 240.44 302.083 240.6 302.083 240.8Z" fill="#455A64"/>
<path d="M302.083 263.29C302.083 263.49 295.993 263.64 288.483 263.64C280.973 263.64 274.883 263.48 274.883 263.29C274.883 263.09 280.973 262.94 288.483 262.94C295.993 262.93 302.083 263.09 302.083 263.29Z" fill="#455A64"/>
<path d="M302.083 285.78C302.083 285.98 295.993 286.13 288.483 286.13C280.973 286.13 274.883 285.97 274.883 285.78C274.883 285.58 280.973 285.43 288.483 285.43C295.993 285.42 302.083 285.58 302.083 285.78Z" fill="#455A64"/>
<path d="M302.083 309.421C302.083 309.621 295.993 309.771 288.483 309.771C280.973 309.771 274.883 309.611 274.883 309.421C274.883 309.221 280.973 309.071 288.483 309.071C295.993 309.061 302.083 309.221 302.083 309.421Z" fill="#455A64"/>
<path d="M316.382 269.08H286.492V337.67H316.382V269.08Z" fill="#9FBDFF"/>
<path opacity="0.2" d="M316.382 269.08H286.492V337.67H316.382V269.08Z" fill="black"/>
<path d="M279.508 268.801H353.258L367.038 249.241L381.478 269.351L398.458 269.081L380.158 244.441L297.928 244.791L279.508 268.801Z" fill="#9FBDFF"/>
<path opacity="0.2" d="M279.508 268.801H353.258L367.038 249.241L381.478 269.351L398.458 269.081L380.158 244.441L297.928 244.791L279.508 268.801Z" fill="white"/>
<path d="M316.383 269.08V337.67H390.033V269.08H381.583L367.033 249.24L353.203 268.78L316.383 269.08Z" fill="#9FBDFF"/>
<g opacity="0.2">
<path d="M326.789 337.671V307.941H344.019V337.671" fill="black"/>
</g>
<path opacity="0.7" d="M381.484 307.102H354.344V323.912H381.484V307.102Z" fill="white"/>
<path opacity="0.7" d="M381.484 273.461H354.344V290.271H381.484V273.461Z" fill="white"/>
<path opacity="0.7" d="M342.219 273.611H325.109V289.811H342.219V273.611Z" fill="white"/>
<path d="M362.18 307.102V324.072" stroke="#9FBDFF" stroke-width="0.25" stroke-miterlimit="10"/>
<path d="M373.469 307.102V324.072" stroke="#9FBDFF" stroke-width="0.25" stroke-miterlimit="10"/>
<path d="M362.18 316.092H373.47" stroke="#9FBDFF" stroke-width="0.25" stroke-miterlimit="10"/>
<path d="M362.18 273.461V290.421" stroke="#9FBDFF" stroke-width="0.25" stroke-miterlimit="10"/>
<path d="M373.469 273.461V290.421" stroke="#9FBDFF" stroke-width="0.25" stroke-miterlimit="10"/>
<path d="M362.18 282.451H373.47" stroke="#9FBDFF" stroke-width="0.25" stroke-miterlimit="10"/>
<path d="M333.672 273.611V289.811" stroke="#9FBDFF" stroke-width="0.25" stroke-miterlimit="10"/>
<path d="M325.109 282.111H342.219" stroke="#9FBDFF" stroke-width="0.25" stroke-miterlimit="10"/>
<path opacity="0.7" d="M370.627 262.331C370.627 264.331 369.007 265.961 366.997 265.961C364.997 265.961 363.367 264.341 363.367 262.331C363.367 260.331 364.987 258.701 366.997 258.701C368.997 258.701 370.627 260.331 370.627 262.331Z" fill="white"/>
<path d="M341.104 257.881L345.684 252.231V238.641H336.094V257.981L341.104 257.881Z" fill="#9FBDFF"/>
<path opacity="0.2" d="M341.109 257.881V238.641H345.689V252.231L341.109 257.881Z" fill="black"/>
<path d="M346.333 236.641H335.023V238.641H346.333V236.641Z" fill="#9FBDFF"/>
<path d="M317.236 299.09H260.766V337.68H317.236V299.09Z" fill="#9FBDFF"/>
<path opacity="0.2" d="M295.586 299.09H260.766V337.68H295.586V299.09Z" fill="black"/>
<path d="M288.259 337.61C288.239 337.61 288.229 337.44 288.209 337.11C288.199 336.73 288.179 336.25 288.159 335.66C288.139 334.33 288.109 332.5 288.079 330.24C288.049 325.54 288.019 319.05 287.979 311.54L288.259 311.82C285.039 311.82 281.559 311.83 277.949 311.83C274.339 311.83 270.859 311.82 267.639 311.82L267.919 311.54C267.879 319.05 267.839 325.55 267.819 330.25C267.789 332.51 267.759 334.34 267.739 335.67C267.719 336.26 267.709 336.74 267.689 337.12C267.669 337.45 267.659 337.62 267.639 337.62C267.619 337.62 267.609 337.45 267.589 337.12C267.579 336.74 267.559 336.26 267.539 335.67C267.519 334.34 267.489 332.51 267.459 330.25C267.429 325.55 267.399 319.06 267.359 311.54V311.26H267.639C270.859 311.26 274.349 311.25 277.949 311.25C281.559 311.25 285.039 311.26 288.259 311.26H288.539V311.54C288.499 319.05 288.459 325.55 288.439 330.24C288.409 332.5 288.379 334.33 288.359 335.66C288.339 336.25 288.329 336.73 288.309 337.11C288.289 337.44 288.269 337.61 288.259 337.61Z" fill="#263238"/>
<path opacity="0.2" d="M314.615 310.541H299.945V314.281H314.615V310.541Z" fill="black"/>
<path d="M279.508 268.801V270.791H353.208V268.781L279.508 268.801Z" fill="#9FBDFF"/>
<path d="M353.203 270.79L366.993 251.44L367.033 249.24L353.253 268.8L353.203 270.79Z" fill="#9FBDFF"/>
<path d="M398.096 269.08H381.586V270.36H398.096V269.08Z" fill="#9FBDFF"/>
<path d="M338.145 303.381H332.055V305.701H338.145V303.381Z" fill="#263238"/>
<path opacity="0.3" d="M279.508 268.801V270.791H353.208V268.781L279.508 268.801Z" fill="black"/>
<path opacity="0.3" d="M353.203 270.79L366.993 251.44L367.033 249.24L353.253 268.8L353.203 270.79Z" fill="black"/>
<path opacity="0.3" d="M398.096 269.08H381.586V270.36H398.096V269.08Z" fill="black"/>
<path d="M342.626 322.941C342.566 322.961 342.576 322.561 342.166 322.271C341.966 322.131 341.666 322.071 341.376 322.181C341.096 322.291 340.856 322.591 340.856 322.941C340.856 323.291 341.096 323.591 341.376 323.701C341.666 323.811 341.966 323.751 342.166 323.611C342.586 323.321 342.576 322.931 342.626 322.941C342.656 322.911 342.796 323.371 342.316 323.811C342.086 324.011 341.676 324.141 341.276 324.001C340.876 323.871 340.516 323.451 340.516 322.941C340.516 322.441 340.866 322.011 341.276 321.881C341.686 321.741 342.086 321.871 342.316 322.071C342.796 322.521 342.656 322.971 342.626 322.941Z" fill="#263238"/>
<path d="M202.438 224.012C202.438 224.012 186.928 283.032 166.078 294.102C152.338 301.392 140.208 292.692 132.058 278.882L102.658 231.562C101.128 225.962 104.198 220.132 109.678 218.222L134.158 209.682L158.588 253.212L189.828 215.202" fill="#FAB592"/>
<path d="M118.627 186.711C135.477 191.401 136.237 199.051 144.667 212.571L157.957 236.771L135.817 250.871L131.767 259.971L129.577 338.221L40.3672 337.781L56.4072 274.431L49.9872 232.801C49.3972 226.231 47.5072 213.981 49.5372 207.651C55.8672 187.871 79.4672 185.751 93.9972 182.761C96.9972 182.141 99.8872 183.091 102.327 183.831" fill="#FF5E69"/>
<path d="M131.551 263.961C131.511 263.961 131.491 263.241 131.491 261.931C131.511 260.531 131.531 258.671 131.561 256.431V256.381L131.591 256.331C132.521 254.581 133.631 252.551 134.501 250.171C135.371 247.821 135.911 245.021 135.241 242.231C134.521 239.241 132.861 236.711 131.751 234.221C130.621 231.721 130.021 229.311 129.761 227.261C129.501 225.211 129.541 223.531 129.631 222.391C129.681 221.821 129.741 221.371 129.791 221.071C129.841 220.771 129.881 220.621 129.901 220.621C129.951 220.631 129.891 221.261 129.861 222.401C129.841 223.541 129.861 225.191 130.171 227.201C130.481 229.211 131.111 231.561 132.241 234.001C133.341 236.441 135.041 238.971 135.811 242.101C136.521 245.041 135.921 247.971 135.021 250.361C134.111 252.781 132.951 254.811 131.981 256.541L132.011 256.441C131.911 258.681 131.821 260.541 131.751 261.941C131.661 263.241 131.601 263.961 131.551 263.961Z" fill="#D02A35"/>
<path d="M119.33 183.921C119.35 183.921 119.4 184.121 119.47 184.521C119.56 184.921 119.63 185.511 119.68 186.291C119.76 187.831 119.58 190.121 118.6 192.741C117.6 195.321 115.77 198.251 112.76 200.441C109.78 202.661 105.61 203.811 101.36 203.401C99.2403 203.181 97.2103 202.611 95.3803 201.771C93.5603 200.921 91.9503 199.781 90.6103 198.511C87.9203 195.961 86.3103 192.961 85.3803 190.361C84.4603 187.731 84.1803 185.481 84.1303 183.941C84.1103 183.171 84.1103 182.571 84.1503 182.161C84.1803 181.751 84.2003 181.541 84.2203 181.541C84.2803 181.541 84.2303 182.391 84.3603 183.921C84.4803 185.441 84.8203 187.651 85.7703 190.211C86.7403 192.751 88.3503 195.661 90.9903 198.111C92.3003 199.331 93.8603 200.421 95.6303 201.241C97.4003 202.051 99.3703 202.591 101.43 202.811C105.55 203.211 109.57 202.111 112.46 200.001C115.38 197.911 117.21 195.081 118.23 192.581C119.23 190.041 119.48 187.811 119.47 186.291C119.45 184.771 119.26 183.931 119.33 183.921Z" fill="#D02A35"/>
<path d="M153.926 229.421C153.966 229.491 152.946 230.101 151.286 231.061C149.626 232.021 147.336 233.341 144.836 234.851C142.336 236.361 140.106 237.781 138.486 238.801C136.866 239.821 135.856 240.441 135.806 240.371C135.766 240.311 136.696 239.571 138.256 238.461C139.826 237.351 142.026 235.881 144.536 234.361C147.046 232.851 149.376 231.581 151.086 230.711C152.806 229.831 153.886 229.351 153.926 229.421Z" fill="#D02A35"/>
<path d="M52.5676 230.462C52.5776 230.462 52.6376 230.642 52.7376 230.992C52.8476 231.372 52.9876 231.892 53.1676 232.552C53.5376 233.962 54.0676 235.972 54.7376 238.522C56.0676 243.722 57.9676 251.142 60.2776 260.132L59.9776 259.962C71.4976 256.362 85.7876 251.902 101.248 247.072C101.598 246.942 101.958 246.822 102.278 246.702L102.088 247.032C99.9477 237.202 97.1376 228.012 93.9576 219.912C90.7676 211.832 87.0976 204.822 82.9076 199.772C80.8176 197.252 78.5976 195.252 76.3776 193.912C74.1776 192.562 71.9976 191.862 70.1776 191.732C69.7276 191.702 69.2976 191.602 68.8976 191.632C68.4976 191.652 68.1176 191.672 67.7676 191.692C67.4176 191.722 67.0876 191.712 66.7976 191.762C66.5076 191.822 66.2476 191.882 66.0076 191.932C65.5576 192.022 65.2076 192.092 64.9276 192.152C64.6876 192.202 64.5576 192.222 64.5576 192.212C64.5576 192.202 64.6776 192.162 64.9176 192.102C65.1876 192.032 65.5376 191.942 65.9876 191.822C66.2276 191.762 66.4876 191.692 66.7776 191.622C67.0676 191.562 67.3976 191.562 67.7576 191.532C68.1176 191.502 68.4976 191.472 68.9076 191.442C69.3176 191.402 69.7476 191.492 70.2176 191.522C72.0676 191.622 74.3076 192.302 76.5576 193.652C78.8276 194.992 81.1076 197.002 83.2276 199.532C87.4976 204.602 91.2276 211.642 94.4576 219.742C97.6776 227.862 100.508 237.062 102.658 246.942L102.708 247.182L102.468 247.262C102.138 247.382 101.788 247.502 101.428 247.632C85.9676 252.532 71.6276 256.862 60.1076 260.422L59.8676 260.492L59.8076 260.252C57.5876 251.232 55.7476 243.802 54.4576 238.592C53.8376 236.022 53.3576 234.002 53.0176 232.592C52.8676 231.922 52.7476 231.402 52.6576 231.012C52.5876 230.652 52.5476 230.472 52.5676 230.462Z" fill="#D02A35"/>
<path d="M100.821 241.452C100.861 241.602 91.3408 244.362 79.5608 247.612C67.7708 250.862 58.1808 253.362 58.1408 253.212C58.1008 253.062 67.6207 250.302 79.4007 247.052C91.1807 243.812 100.771 241.302 100.821 241.452Z" fill="#D02A35"/>
<path d="M97.1778 113.441C94.4478 107.521 86.9378 104.741 80.6078 106.301C74.2778 107.871 69.2778 113.031 66.5778 118.971C63.8878 124.911 63.2378 131.571 63.2178 138.091C63.2078 141.541 63.3578 145.031 62.6678 148.411C61.9778 151.791 60.2978 155.131 57.4078 157.011C55.1278 158.491 52.3278 158.931 49.8778 160.121C47.4278 161.311 45.1778 163.811 45.7778 166.461C46.5078 169.631 50.4778 170.581 53.7178 170.921C53.8178 174.811 56.3078 178.541 59.8678 180.121C63.4178 181.701 67.8578 181.061 70.8178 178.541C69.8078 182.501 73.3478 186.661 77.4078 187.141C81.4678 187.611 85.4578 185.081 87.6578 181.641C89.8678 178.201 90.5578 174.001 90.7278 169.921C90.8978 165.831 90.5778 161.731 90.9778 157.661" fill="#1C273B"/>
<path d="M143.26 120.891C143.26 120.891 146.21 100.791 118.6 100.421C87.6503 100.011 82.0703 126.381 87.3803 140.331L102.76 125.091L143.26 120.891Z" fill="#1C273B"/>
<path d="M118.989 186.71C119.299 181.36 119.529 177 119.529 177C119.529 177 135.369 177.38 137.699 163.64C140.029 149.9 142.689 117.93 142.689 117.93C128.539 108.79 110.269 109.09 96.4192 118.69L95.1192 119.59L85.1092 183.08C83.6492 192.33 89.9292 201.03 99.1692 202.57C109.179 204.22 118.409 196.84 118.989 186.71Z" fill="#FEC4AD"/>
<path d="M137.047 142.26C136.937 143.24 136.077 143.94 135.127 143.84C134.177 143.74 133.487 142.86 133.597 141.88C133.707 140.9 134.567 140.19 135.517 140.3C136.467 140.41 137.157 141.28 137.047 142.26Z" fill="#263238"/>
<path d="M138.324 140.611C138.074 140.811 136.924 139.561 135.084 139.261C133.244 138.931 131.744 139.721 131.584 139.441C131.504 139.321 131.774 138.921 132.434 138.561C133.084 138.201 134.134 137.921 135.284 138.121C136.434 138.321 137.334 138.941 137.824 139.491C138.314 140.061 138.444 140.521 138.324 140.611Z" fill="#263238"/>
<path d="M118.477 140.479C118.367 141.459 117.507 142.159 116.557 142.059C115.607 141.959 114.917 141.079 115.027 140.099C115.137 139.119 115.997 138.409 116.947 138.519C117.897 138.629 118.587 139.499 118.477 140.479Z" fill="#263238"/>
<path d="M119.394 138.92C119.144 139.12 117.994 137.87 116.154 137.57C114.314 137.24 112.814 138.03 112.654 137.75C112.574 137.63 112.844 137.23 113.504 136.87C114.154 136.51 115.204 136.23 116.354 136.43C117.504 136.63 118.404 137.25 118.894 137.8C119.384 138.36 119.514 138.83 119.394 138.92Z" fill="#263238"/>
<path d="M121.789 153.221C121.809 153.111 122.979 153.201 124.859 153.441C125.329 153.511 125.789 153.531 125.949 153.211C126.149 152.881 126.079 152.291 125.999 151.661C125.859 150.341 125.709 148.961 125.549 147.511C124.959 141.621 124.649 136.821 124.869 136.791C125.089 136.761 125.749 141.521 126.349 147.411C126.489 148.861 126.619 150.241 126.739 151.571C126.779 152.181 126.919 152.901 126.509 153.581C126.299 153.921 125.889 154.101 125.579 154.101C125.259 154.121 124.999 154.051 124.769 154.011C122.909 153.631 121.769 153.341 121.789 153.221Z" fill="#263238"/>
<path d="M119.576 176.96C119.576 176.96 110.496 176.07 102.406 168.83C102.406 168.83 105.766 179.75 119.336 180.65L119.576 176.96Z" fill="#FAB592"/>
<path d="M119.975 158.669C119.915 157.479 119.205 156.339 118.165 155.749C117.445 155.339 116.545 155.199 115.775 155.489C114.995 155.779 114.395 156.559 114.415 157.379C114.435 158.309 115.225 159.089 116.105 159.399C116.985 159.709 117.945 159.649 118.875 159.559C119.135 159.539 119.395 159.509 119.625 159.389C119.855 159.269 120.035 159.029 120.005 158.769" fill="#FAB592"/>
<path d="M115.935 153.69C115.795 153.65 115.505 154.15 115.445 155.06C115.385 155.95 115.655 157.28 116.575 158.39C117.495 159.5 118.735 160.02 119.625 160.14C120.525 160.27 121.075 160.07 121.065 159.93C121.095 159.63 118.925 159.51 117.435 157.69C115.935 155.87 116.235 153.72 115.935 153.69Z" fill="#263238"/>
<path d="M93.2267 137.46C93.0167 137.31 85.3467 134 83.1467 143.03C80.9467 152.05 91.4467 151.14 91.5267 150.88C91.6067 150.63 93.2267 137.46 93.2267 137.46Z" fill="#FEC4AD"/>
<path d="M89.3344 147.091C89.2944 147.051 89.1343 147.161 88.8243 147.231C88.5143 147.291 88.0244 147.271 87.5544 146.991C86.6144 146.421 86.1243 144.731 86.4743 143.091C86.6543 142.261 87.0243 141.521 87.4943 140.941C87.9543 140.341 88.5244 139.981 89.0544 140.001C89.5944 140.001 89.8844 140.361 89.9444 140.641C90.0144 140.921 89.9043 141.091 89.9543 141.111C89.9743 141.141 90.1943 141.001 90.2143 140.611C90.2143 140.421 90.1543 140.191 89.9743 139.961C89.7843 139.731 89.4644 139.571 89.0944 139.531C88.3344 139.421 87.5143 139.921 86.9943 140.561C86.4343 141.191 85.9943 142.021 85.7943 142.951C85.4143 144.781 85.9944 146.691 87.3044 147.371C87.9444 147.681 88.5544 147.611 88.9044 147.461C89.2644 147.301 89.3644 147.111 89.3344 147.091Z" fill="#FAB592"/>
<path d="M139.561 111.56C142.771 113.96 144.311 118.11 143.101 121.94C141.741 126.25 137.701 130.96 126.511 130.78L129.051 127.95C129.051 127.95 121.411 134.41 111.121 131.09L114.261 125.01C114.261 125.01 100.091 140.03 92.1406 140.7L93.1906 124.66C95.1006 109.56 101.581 105.03 111.371 104.22C114.881 103.93 118.631 103.91 122.281 104.41C130.071 105.46 135.981 108.88 139.561 111.56Z" fill="#1C273B"/>
<path d="M84.1898 98.4808C84.2198 98.4208 85.0498 98.6908 86.2798 99.4008C87.5098 100.101 89.0998 101.271 90.5598 102.881C92.0098 104.491 93.0198 106.201 93.5898 107.491C94.1598 108.791 94.3498 109.641 94.2898 109.661C94.1198 109.741 92.9998 106.391 90.1398 103.261C87.3098 100.101 84.0898 98.6408 84.1898 98.4808Z" fill="#1C273B"/>
<path d="M55.6801 149.641C55.6501 149.661 55.4801 149.451 55.0501 149.171C54.6301 148.901 53.9001 148.601 52.9301 148.631C51.9901 148.661 50.7501 149.031 49.9201 150.101C49.1001 151.161 48.8301 152.861 49.4301 154.451C49.9901 156.061 51.6301 157.351 53.6101 157.671C55.5901 158.051 57.8101 157.371 59.5501 155.911C61.2901 154.471 62.6501 152.341 63.1601 149.931C63.4101 148.731 63.4401 147.451 63.1601 146.211C62.9001 144.961 62.3901 143.751 61.8301 142.541C61.2701 141.331 60.6601 140.131 60.1901 138.891C59.7401 137.641 59.4301 136.351 59.3001 135.061C59.0501 132.491 59.4401 129.991 60.1501 127.741C61.5901 123.211 64.3701 119.821 66.9201 117.401C69.4901 114.961 71.8801 113.361 73.5301 112.281C74.3601 111.751 75.0101 111.351 75.4601 111.091C75.9101 110.831 76.1501 110.701 76.1601 110.721C76.1701 110.741 75.9501 110.901 75.5201 111.191C75.0401 111.511 74.4201 111.941 73.6501 112.471C72.0501 113.601 69.7101 115.251 67.2001 117.691C64.7201 120.121 62.0301 123.471 60.6501 127.901C59.9701 130.091 59.6101 132.521 59.8601 135.001C59.9901 136.241 60.2801 137.471 60.7201 138.681C61.1801 139.891 61.7701 141.061 62.3401 142.291C62.9101 143.511 63.4401 144.761 63.7101 146.081C64.0001 147.401 63.9801 148.761 63.7001 150.031C63.1501 152.581 61.7201 154.791 59.8701 156.301C58.0401 157.831 55.6301 158.541 53.5101 158.111C51.4001 157.751 49.6101 156.321 49.0301 154.561C48.4001 152.841 48.7201 151.011 49.6501 149.871C50.5901 148.721 51.9301 148.371 52.9101 148.371C53.9301 148.371 54.6801 148.721 55.0901 149.031C55.5401 149.391 55.6801 149.641 55.6801 149.641Z" fill="#1C273B"/>
<path d="M91.9104 119.49C91.8504 119.51 91.5504 118.86 91.3504 117.72C91.1504 116.59 91.1104 114.97 91.5104 113.25C91.9204 111.53 92.6704 110.09 93.3504 109.17C94.0304 108.24 94.5904 107.79 94.6304 107.84C94.7804 107.95 92.8204 110.05 92.0704 113.39C91.2704 116.7 92.0904 119.46 91.9104 119.49Z" fill="#263238"/>
<path d="M83.6466 148.7C83.7266 148.78 82.8566 149.16 82.4566 150.39C82.2766 150.99 82.2466 151.79 82.6366 152.5C83.0166 153.21 83.8566 153.71 84.8066 153.84C85.7466 153.96 86.6966 153.69 87.2666 153.12C87.8466 152.56 88.0766 151.79 88.0766 151.16C88.0766 149.86 87.3366 149.26 87.4366 149.2C87.4566 149.18 87.6566 149.28 87.9066 149.59C88.1566 149.89 88.4366 150.43 88.4866 151.15C88.5366 151.86 88.3266 152.78 87.6366 153.5C86.9466 154.22 85.8166 154.55 84.7266 154.41C83.6366 154.27 82.6166 153.65 82.1666 152.75C81.7166 151.86 81.8066 150.91 82.0766 150.26C82.3466 149.59 82.7766 149.16 83.0966 148.94C83.4166 148.72 83.6366 148.68 83.6466 148.7Z" fill="#455A64"/>
<path d="M145.556 125.491C145.446 125.471 145.896 123.951 145.896 121.451C145.916 118.971 145.346 115.451 143.406 112.171C141.466 108.891 138.656 106.691 136.476 105.521C134.276 104.321 132.736 103.981 132.766 103.871C132.776 103.841 133.166 103.891 133.856 104.071C134.546 104.251 135.526 104.591 136.666 105.151C138.946 106.261 141.896 108.471 143.906 111.871C145.916 115.271 146.436 118.921 146.306 121.451C146.246 122.731 146.076 123.751 145.906 124.441C145.726 125.141 145.586 125.501 145.556 125.491Z" fill="#1C273B"/>
<path d="M120.287 135.4C120.227 135.46 119.847 135.11 119.157 134.68C118.477 134.26 117.437 133.79 116.237 133.67C115.027 133.54 113.917 133.79 113.167 134.06C112.407 134.33 111.967 134.6 111.917 134.53C111.877 134.48 112.237 134.08 113.007 133.69C113.767 133.3 114.967 132.96 116.297 133.1C117.627 133.24 118.737 133.81 119.397 134.35C120.067 134.9 120.347 135.36 120.287 135.4Z" fill="#1C273B"/>
<path d="M137.931 137.091C137.921 137.251 136.321 137.261 134.351 137.121C132.391 136.981 130.8 136.741 130.82 136.581C130.83 136.421 132.431 136.411 134.401 136.551C136.361 136.691 137.941 136.931 137.931 137.091Z" fill="#1C273B"/>
<path d="M202.437 224.01C202.437 224.01 208.107 210.54 200.467 211.99C188.717 214.23 190.467 225.66 190.467 225.66L202.437 224.01Z" fill="#FAB592"/>
<path d="M213.36 163.59C212.37 163.23 211.34 163.05 210.29 163C216.67 167.74 218.4 179.93 213.94 192.25C209.58 204.29 200.76 212.44 192.95 212.39L192.33 212.23C186.12 207.38 184.48 195.33 188.89 183.15C193.33 170.9 202.39 162.65 210.3 163C209.49 162.4 208.62 161.9 207.67 161.56C199.18 158.48 188.22 167.24 183.19 181.12C178.31 194.6 180.84 207.92 188.78 211.49L188.62 211.47L172.98 251.43C172.31 253.14 173.1 255.07 174.77 255.82C176.56 256.63 178.67 255.78 179.39 253.94L195.16 213.85L195.14 213.84C195.15 213.84 195.15 213.85 195.16 213.85C203.65 216.93 214.61 208.17 219.64 194.29C224.66 180.41 221.85 166.67 213.36 163.59Z" fill="#263238"/>
<path d="M206.302 199.77C206.262 199.75 206.442 199.32 206.782 198.55C207.172 197.68 207.662 196.6 208.242 195.32C209.452 192.59 211.132 188.79 212.102 184.36C213.072 179.93 212.852 175.74 212.102 172.88C211.372 169.99 210.342 168.42 210.442 168.36C210.472 168.34 210.752 168.72 211.152 169.46C211.562 170.2 212.062 171.32 212.492 172.77C213.362 175.67 213.652 179.96 212.662 184.48C211.672 189 209.912 192.8 208.602 195.49C207.942 196.84 207.372 197.91 206.972 198.65C206.582 199.39 206.342 199.79 206.302 199.77Z" fill="#263238"/>
<path d="M204.664 202.971C204.774 203.081 204.294 203.751 203.584 204.461C202.874 205.171 202.204 205.661 202.094 205.541C201.984 205.431 202.464 204.761 203.174 204.051C203.884 203.351 204.554 202.861 204.664 202.971Z" fill="#263238"/>
<path d="M187.598 217.991C186.378 215.701 184.978 212.541 182.848 211.061C180.718 209.581 177.758 207.861 175.258 210.091C178.408 214.581 181.318 219.221 183.988 224.011L187.598 217.991Z" fill="#FAB592"/>
<path d="M204.256 213.941C204.256 213.941 203.786 211.281 199.896 212.441C195.996 213.611 183.776 216.161 186.136 218.761C188.496 221.361 192.666 220.191 192.666 220.191C192.666 220.191 185.876 221.661 186.526 223.081C187.176 224.511 188.306 226.951 191.196 225.421C194.086 223.881 202.106 221.271 202.106 221.271L204.256 213.941Z" fill="#FAB592"/>
<path d="M203.818 219.881C203.768 219.861 203.868 219.631 203.848 219.221C203.848 218.831 203.578 218.201 202.928 217.971C202.268 217.741 201.378 218.091 200.378 218.361C199.348 218.631 198.268 218.931 197.128 219.231C194.818 219.831 192.718 220.351 191.188 220.691C189.658 221.031 188.708 221.211 188.688 221.131C188.668 221.051 189.588 220.741 191.088 220.291C192.588 219.841 194.668 219.271 196.978 218.671C198.118 218.381 199.208 218.101 200.238 217.841C201.218 217.631 202.188 217.241 203.068 217.581C203.928 217.951 204.138 218.771 204.078 219.221C204.008 219.691 203.838 219.891 203.818 219.881Z" fill="#263238"/>
<path d="M99.5403 248.19L111.34 270.06L169.93 240.56C169.93 240.56 178.55 224 179.98 224.21C181.41 224.42 187.75 227.14 187.75 227.14C187.75 227.14 196.79 222.28 198.69 223.6C200.59 224.92 203.25 240.92 201.55 245.87C199.85 250.82 182.06 260.79 182.06 260.79C182.06 260.79 134.05 292.32 113.2 303.39C99.4603 310.68 87.3303 301.98 79.1803 288.17L65.3203 258.8" fill="#FEC4AD"/>
<path d="M75.8826 371.8L80.1826 379.2L84.5226 371.8H86.4826L81.0826 380.82V386H79.2826V380.78L73.9026 371.8H75.8826ZM90.9116 386.2C90.125 386.2 89.4116 386.06 88.7716 385.78C88.1316 385.487 87.5783 385.093 87.1116 384.6C86.645 384.093 86.285 383.513 86.0316 382.86C85.7783 382.207 85.6516 381.52 85.6516 380.8C85.6516 380.067 85.7783 379.373 86.0316 378.72C86.285 378.067 86.645 377.493 87.1116 377C87.5783 376.493 88.1316 376.1 88.7716 375.82C89.425 375.527 90.145 375.38 90.9316 375.38C91.705 375.38 92.4116 375.527 93.0516 375.82C93.6916 376.1 94.245 376.493 94.7116 377C95.1916 377.493 95.5583 378.067 95.8116 378.72C96.065 379.373 96.1916 380.067 96.1916 380.8C96.1916 381.52 96.065 382.207 95.8116 382.86C95.5583 383.513 95.1983 384.093 94.7316 384.6C94.265 385.093 93.705 385.487 93.0516 385.78C92.4116 386.06 91.6983 386.2 90.9116 386.2ZM87.4516 380.82C87.4516 381.54 87.605 382.193 87.9116 382.78C88.2316 383.367 88.6516 383.833 89.1716 384.18C89.6916 384.513 90.2716 384.68 90.9116 384.68C91.5516 384.68 92.1316 384.507 92.6516 384.16C93.185 383.813 93.605 383.347 93.9116 382.76C94.2316 382.16 94.3916 381.5 94.3916 380.78C94.3916 380.06 94.2316 379.407 93.9116 378.82C93.605 378.233 93.185 377.767 92.6516 377.42C92.1316 377.073 91.5516 376.9 90.9116 376.9C90.2716 376.9 89.6916 377.08 89.1716 377.44C88.6516 377.787 88.2316 378.253 87.9116 378.84C87.605 379.427 87.4516 380.087 87.4516 380.82ZM98.2243 381.82V375.56H99.9843V381.48C99.9843 382.547 100.171 383.347 100.544 383.88C100.918 384.413 101.471 384.68 102.204 384.68C102.684 384.68 103.144 384.58 103.584 384.38C104.038 384.167 104.444 383.867 104.804 383.48C105.164 383.093 105.444 382.633 105.644 382.1V375.56H107.404V384C107.404 384.213 107.444 384.373 107.524 384.48C107.618 384.573 107.764 384.627 107.964 384.64V386C107.764 386.027 107.604 386.04 107.484 386.04C107.378 386.053 107.271 386.06 107.164 386.06C106.831 386.06 106.544 385.96 106.304 385.76C106.064 385.547 105.938 385.287 105.924 384.98L105.884 383.76C105.431 384.533 104.818 385.133 104.044 385.56C103.284 385.987 102.451 386.2 101.544 386.2C100.451 386.2 99.6243 385.833 99.0643 385.1C98.5043 384.353 98.2243 383.26 98.2243 381.82ZM115.675 386V371.8H120.595C122.115 371.8 123.381 372.12 124.395 372.76C125.421 373.387 126.188 374.24 126.695 375.32C127.201 376.387 127.455 377.573 127.455 378.88C127.455 380.32 127.175 381.573 126.615 382.64C126.055 383.707 125.261 384.533 124.235 385.12C123.208 385.707 121.995 386 120.595 386H115.675ZM125.635 378.88C125.635 377.813 125.435 376.867 125.035 376.04C124.648 375.213 124.081 374.567 123.335 374.1C122.588 373.633 121.675 373.4 120.595 373.4H117.475V384.4H120.595C121.688 384.4 122.608 384.16 123.355 383.68C124.101 383.187 124.668 382.527 125.055 381.7C125.441 380.86 125.635 379.92 125.635 378.88ZM134.271 386.2C133.484 386.2 132.771 386.06 132.131 385.78C131.491 385.487 130.938 385.093 130.471 384.6C130.004 384.093 129.644 383.513 129.391 382.86C129.138 382.207 129.011 381.52 129.011 380.8C129.011 380.067 129.138 379.373 129.391 378.72C129.644 378.067 130.004 377.493 130.471 377C130.938 376.493 131.491 376.1 132.131 375.82C132.784 375.527 133.504 375.38 134.291 375.38C135.064 375.38 135.771 375.527 136.411 375.82C137.051 376.1 137.604 376.493 138.071 377C138.551 377.493 138.918 378.067 139.171 378.72C139.424 379.373 139.551 380.067 139.551 380.8C139.551 381.52 139.424 382.207 139.171 382.86C138.918 383.513 138.558 384.093 138.091 384.6C137.624 385.093 137.064 385.487 136.411 385.78C135.771 386.06 135.058 386.2 134.271 386.2ZM130.811 380.82C130.811 381.54 130.964 382.193 131.271 382.78C131.591 383.367 132.011 383.833 132.531 384.18C133.051 384.513 133.631 384.68 134.271 384.68C134.911 384.68 135.491 384.507 136.011 384.16C136.544 383.813 136.964 383.347 137.271 382.76C137.591 382.16 137.751 381.5 137.751 380.78C137.751 380.06 137.591 379.407 137.271 378.82C136.964 378.233 136.544 377.767 136.011 377.42C135.491 377.073 134.911 376.9 134.271 376.9C133.631 376.9 133.051 377.08 132.531 377.44C132.011 377.787 131.591 378.253 131.271 378.84C130.964 379.427 130.811 380.087 130.811 380.82ZM150.744 386H148.984V380.16C148.984 379.053 148.81 378.247 148.464 377.74C148.13 377.22 147.617 376.96 146.924 376.96C146.444 376.96 145.964 377.08 145.484 377.32C145.017 377.56 144.597 377.887 144.224 378.3C143.864 378.7 143.604 379.167 143.444 379.7V386H141.684V375.56H143.284V377.8C143.564 377.307 143.924 376.88 144.364 376.52C144.804 376.16 145.304 375.88 145.864 375.68C146.424 375.48 147.01 375.38 147.624 375.38C148.224 375.38 148.724 375.493 149.124 375.72C149.537 375.933 149.857 376.24 150.084 376.64C150.324 377.027 150.49 377.487 150.584 378.02C150.69 378.553 150.744 379.133 150.744 379.76V386ZM152.211 375.98L152.611 373.68H152.011V371.4H153.671V373.68L153.071 375.98H152.211ZM160.736 385.48C160.589 385.547 160.389 385.633 160.136 385.74C159.883 385.847 159.589 385.94 159.256 386.02C158.923 386.1 158.569 386.14 158.196 386.14C157.769 386.14 157.376 386.067 157.016 385.92C156.656 385.76 156.369 385.52 156.156 385.2C155.943 384.867 155.836 384.453 155.836 383.96V376.94H154.416V375.56H155.836V372.08H157.596V375.56H159.936V376.94H157.596V383.42C157.623 383.793 157.749 384.073 157.976 384.26C158.203 384.433 158.469 384.52 158.776 384.52C159.123 384.52 159.443 384.46 159.736 384.34C160.029 384.22 160.223 384.133 160.316 384.08L160.736 385.48ZM171.006 386.2C170.139 386.2 169.326 386.06 168.566 385.78C167.806 385.487 167.153 385.053 166.606 384.48L167.286 383.24C167.886 383.8 168.486 384.2 169.086 384.44C169.686 384.68 170.299 384.8 170.926 384.8C171.646 384.8 172.233 384.667 172.686 384.4C173.139 384.12 173.366 383.713 173.366 383.18C173.366 382.793 173.246 382.507 173.006 382.32C172.779 382.133 172.453 381.98 172.026 381.86C171.599 381.727 171.093 381.58 170.506 381.42C169.786 381.207 169.179 380.98 168.686 380.74C168.193 380.5 167.819 380.2 167.566 379.84C167.313 379.48 167.186 379.027 167.186 378.48C167.186 377.813 167.359 377.253 167.706 376.8C168.053 376.333 168.526 375.98 169.126 375.74C169.739 375.5 170.433 375.38 171.206 375.38C171.979 375.38 172.679 375.5 173.306 375.74C173.933 375.98 174.473 376.333 174.926 376.8L174.126 378.02C173.713 377.593 173.259 377.28 172.766 377.08C172.273 376.867 171.719 376.76 171.106 376.76C170.746 376.76 170.393 376.807 170.046 376.9C169.699 376.98 169.413 377.133 169.186 377.36C168.959 377.573 168.846 377.88 168.846 378.28C168.846 378.613 168.933 378.88 169.106 379.08C169.293 379.267 169.559 379.427 169.906 379.56C170.266 379.693 170.699 379.84 171.206 380C171.993 380.227 172.673 380.453 173.246 380.68C173.833 380.907 174.286 381.2 174.606 381.56C174.926 381.92 175.086 382.42 175.086 383.06C175.086 384.047 174.713 384.82 173.966 385.38C173.219 385.927 172.233 386.2 171.006 386.2ZM176.371 382.98C176.371 382.313 176.558 381.74 176.931 381.26C177.318 380.767 177.845 380.387 178.511 380.12C179.178 379.853 179.951 379.72 180.831 379.72C181.298 379.72 181.791 379.76 182.311 379.84C182.831 379.907 183.291 380.013 183.691 380.16V379.4C183.691 378.6 183.451 377.973 182.971 377.52C182.491 377.053 181.811 376.82 180.931 376.82C180.358 376.82 179.805 376.927 179.271 377.14C178.751 377.34 178.198 377.633 177.611 378.02L176.971 376.78C177.651 376.313 178.331 375.967 179.011 375.74C179.691 375.5 180.398 375.38 181.131 375.38C182.465 375.38 183.518 375.753 184.291 376.5C185.065 377.233 185.451 378.26 185.451 379.58V384C185.451 384.213 185.491 384.373 185.571 384.48C185.665 384.573 185.811 384.627 186.011 384.64V386C185.838 386.027 185.685 386.047 185.551 386.06C185.431 386.073 185.331 386.08 185.251 386.08C184.838 386.08 184.525 385.967 184.311 385.74C184.111 385.513 183.998 385.273 183.971 385.02L183.931 384.36C183.478 384.947 182.885 385.4 182.151 385.72C181.418 386.04 180.691 386.2 179.971 386.2C179.278 386.2 178.658 386.06 178.111 385.78C177.565 385.487 177.138 385.1 176.831 384.62C176.525 384.127 176.371 383.58 176.371 382.98ZM183.171 383.72C183.331 383.533 183.458 383.347 183.551 383.16C183.645 382.96 183.691 382.793 183.691 382.66V381.36C183.278 381.2 182.845 381.08 182.391 381C181.938 380.907 181.491 380.86 181.051 380.86C180.158 380.86 179.431 381.04 178.871 381.4C178.325 381.747 178.051 382.227 178.051 382.84C178.051 383.173 178.138 383.5 178.311 383.82C178.498 384.127 178.765 384.38 179.111 384.58C179.471 384.78 179.911 384.88 180.431 384.88C180.978 384.88 181.498 384.773 181.991 384.56C182.485 384.333 182.878 384.053 183.171 383.72ZM190.934 386L186.834 375.56H188.674L191.954 384.32L195.234 375.56H196.954L192.854 386H190.934ZM202.983 386.2C202.197 386.2 201.477 386.06 200.823 385.78C200.183 385.487 199.623 385.093 199.143 384.6C198.677 384.093 198.31 383.513 198.043 382.86C197.79 382.207 197.663 381.513 197.663 380.78C197.663 379.793 197.89 378.893 198.343 378.08C198.797 377.267 199.423 376.613 200.223 376.12C201.037 375.627 201.963 375.38 203.003 375.38C204.057 375.38 204.97 375.633 205.743 376.14C206.53 376.633 207.137 377.287 207.563 378.1C208.003 378.9 208.223 379.767 208.223 380.7C208.223 380.833 208.217 380.967 208.203 381.1C208.203 381.22 208.197 381.313 208.183 381.38H199.523C199.577 382.06 199.763 382.667 200.083 383.2C200.417 383.72 200.843 384.133 201.363 384.44C201.883 384.733 202.443 384.88 203.043 384.88C203.683 384.88 204.283 384.72 204.843 384.4C205.417 384.08 205.81 383.66 206.023 383.14L207.543 383.56C207.317 384.067 206.977 384.52 206.523 384.92C206.083 385.32 205.557 385.633 204.943 385.86C204.343 386.087 203.69 386.2 202.983 386.2ZM199.463 380.16H206.583C206.53 379.48 206.337 378.88 206.003 378.36C205.67 377.84 205.243 377.433 204.723 377.14C204.203 376.847 203.63 376.7 203.003 376.7C202.39 376.7 201.823 376.847 201.303 377.14C200.783 377.433 200.357 377.84 200.023 378.36C199.703 378.88 199.517 379.48 199.463 380.16ZM214.418 382.98C214.418 382.313 214.605 381.74 214.978 381.26C215.365 380.767 215.892 380.387 216.558 380.12C217.225 379.853 217.998 379.72 218.878 379.72C219.345 379.72 219.838 379.76 220.358 379.84C220.878 379.907 221.338 380.013 221.738 380.16V379.4C221.738 378.6 221.498 377.973 221.018 377.52C220.538 377.053 219.858 376.82 218.978 376.82C218.405 376.82 217.852 376.927 217.318 377.14C216.798 377.34 216.245 377.633 215.658 378.02L215.018 376.78C215.698 376.313 216.378 375.967 217.058 375.74C217.738 375.5 218.445 375.38 219.178 375.38C220.512 375.38 221.565 375.753 222.338 376.5C223.112 377.233 223.498 378.26 223.498 379.58V384C223.498 384.213 223.538 384.373 223.618 384.48C223.712 384.573 223.858 384.627 224.058 384.64V386C223.885 386.027 223.732 386.047 223.598 386.06C223.478 386.073 223.378 386.08 223.298 386.08C222.885 386.08 222.572 385.967 222.358 385.74C222.158 385.513 222.045 385.273 222.018 385.02L221.978 384.36C221.525 384.947 220.932 385.4 220.198 385.72C219.465 386.04 218.738 386.2 218.018 386.2C217.325 386.2 216.705 386.06 216.158 385.78C215.612 385.487 215.185 385.1 214.878 384.62C214.572 384.127 214.418 383.58 214.418 382.98ZM221.218 383.72C221.378 383.533 221.505 383.347 221.598 383.16C221.692 382.96 221.738 382.793 221.738 382.66V381.36C221.325 381.2 220.892 381.08 220.438 381C219.985 380.907 219.538 380.86 219.098 380.86C218.205 380.86 217.478 381.04 216.918 381.4C216.372 381.747 216.098 382.227 216.098 382.84C216.098 383.173 216.185 383.5 216.358 383.82C216.545 384.127 216.812 384.38 217.158 384.58C217.518 384.78 217.958 384.88 218.478 384.88C219.025 384.88 219.545 384.773 220.038 384.56C220.532 384.333 220.925 384.053 221.218 383.72ZM235.373 386H233.613V380.16C233.613 379.053 233.439 378.247 233.093 377.74C232.759 377.22 232.246 376.96 231.553 376.96C231.073 376.96 230.593 377.08 230.113 377.32C229.646 377.56 229.226 377.887 228.853 378.3C228.493 378.7 228.233 379.167 228.073 379.7V386H226.313V375.56H227.913V377.8C228.193 377.307 228.553 376.88 228.993 376.52C229.433 376.16 229.933 375.88 230.493 375.68C231.053 375.48 231.639 375.38 232.253 375.38C232.853 375.38 233.353 375.493 233.753 375.72C234.166 375.933 234.486 376.24 234.713 376.64C234.953 377.027 235.119 377.487 235.213 378.02C235.319 378.553 235.373 379.133 235.373 379.76V386ZM238.394 388.84C238.567 388.853 238.741 388.867 238.914 388.88C239.087 388.907 239.221 388.92 239.314 388.92C239.527 388.92 239.714 388.847 239.874 388.7C240.034 388.553 240.207 388.267 240.394 387.84C240.594 387.427 240.847 386.813 241.154 386L236.734 375.56H238.594L242.114 384.22L245.294 375.56H247.034L241.954 388.74C241.834 389.047 241.654 389.333 241.414 389.6C241.187 389.88 240.894 390.1 240.534 390.26C240.174 390.42 239.741 390.5 239.234 390.5C239.114 390.5 238.987 390.493 238.854 390.48C238.734 390.467 238.581 390.44 238.394 390.4V388.84ZM253.604 386V371.8H259.524C260.151 371.8 260.724 371.933 261.244 372.2C261.764 372.453 262.218 372.8 262.604 373.24C262.991 373.667 263.291 374.153 263.504 374.7C263.718 375.233 263.824 375.78 263.824 376.34C263.824 377.113 263.651 377.853 263.304 378.56C262.958 379.253 262.471 379.82 261.844 380.26C261.218 380.687 260.484 380.9 259.644 380.9H255.404V386H253.604ZM255.404 379.3H259.544C260.038 379.3 260.464 379.167 260.824 378.9C261.198 378.633 261.484 378.273 261.684 377.82C261.898 377.367 262.004 376.873 262.004 376.34C262.004 375.78 261.884 375.28 261.644 374.84C261.404 374.387 261.091 374.033 260.704 373.78C260.318 373.527 259.891 373.4 259.424 373.4H255.404V379.3ZM271.305 377.1C270.425 377.113 269.645 377.34 268.965 377.78C268.299 378.207 267.825 378.8 267.545 379.56V386H265.785V375.56H267.425V377.98C267.785 377.26 268.259 376.68 268.845 376.24C269.445 375.787 270.072 375.533 270.725 375.48C270.859 375.48 270.972 375.48 271.065 375.48C271.159 375.48 271.239 375.487 271.305 375.5V377.1ZM277.376 386.2C276.59 386.2 275.876 386.06 275.236 385.78C274.596 385.487 274.043 385.093 273.576 384.6C273.11 384.093 272.75 383.513 272.496 382.86C272.243 382.207 272.116 381.52 272.116 380.8C272.116 380.067 272.243 379.373 272.496 378.72C272.75 378.067 273.11 377.493 273.576 377C274.043 376.493 274.596 376.1 275.236 375.82C275.89 375.527 276.61 375.38 277.396 375.38C278.17 375.38 278.876 375.527 279.516 375.82C280.156 376.1 280.71 376.493 281.176 377C281.656 377.493 282.023 378.067 282.276 378.72C282.53 379.373 282.656 380.067 282.656 380.8C282.656 381.52 282.53 382.207 282.276 382.86C282.023 383.513 281.663 384.093 281.196 384.6C280.73 385.093 280.17 385.487 279.516 385.78C278.876 386.06 278.163 386.2 277.376 386.2ZM273.916 380.82C273.916 381.54 274.07 382.193 274.376 382.78C274.696 383.367 275.116 383.833 275.636 384.18C276.156 384.513 276.736 384.68 277.376 384.68C278.016 384.68 278.596 384.507 279.116 384.16C279.65 383.813 280.07 383.347 280.376 382.76C280.696 382.16 280.856 381.5 280.856 380.78C280.856 380.06 280.696 379.407 280.376 378.82C280.07 378.233 279.65 377.767 279.116 377.42C278.596 377.073 278.016 376.9 277.376 376.9C276.736 376.9 276.156 377.08 275.636 377.44C275.116 377.787 274.696 378.253 274.376 378.84C274.07 379.427 273.916 380.087 273.916 380.82ZM290.409 386.2C289.556 386.2 288.796 385.987 288.129 385.56C287.462 385.133 286.936 384.593 286.549 383.94V390.26H284.789V375.56H286.349V377.52C286.762 376.88 287.302 376.367 287.969 375.98C288.636 375.58 289.362 375.38 290.149 375.38C290.869 375.38 291.529 375.527 292.129 375.82C292.729 376.113 293.249 376.513 293.689 377.02C294.129 377.527 294.469 378.107 294.709 378.76C294.962 379.4 295.089 380.073 295.089 380.78C295.089 381.767 294.889 382.673 294.489 383.5C294.102 384.327 293.556 384.987 292.849 385.48C292.142 385.96 291.329 386.2 290.409 386.2ZM289.869 384.68C290.389 384.68 290.856 384.573 291.269 384.36C291.696 384.133 292.056 383.84 292.349 383.48C292.656 383.107 292.889 382.687 293.049 382.22C293.209 381.753 293.289 381.273 293.289 380.78C293.289 380.26 293.196 379.767 293.009 379.3C292.836 378.833 292.582 378.42 292.249 378.06C291.929 377.7 291.549 377.42 291.109 377.22C290.682 377.007 290.216 376.9 289.709 376.9C289.389 376.9 289.056 376.96 288.709 377.08C288.376 377.2 288.056 377.373 287.749 377.6C287.442 377.813 287.182 378.06 286.969 378.34C286.756 378.62 286.616 378.92 286.549 379.24V382.22C286.749 382.673 287.016 383.087 287.349 383.46C287.682 383.833 288.069 384.133 288.509 384.36C288.949 384.573 289.402 384.68 289.869 384.68ZM301.87 386.2C301.083 386.2 300.363 386.06 299.71 385.78C299.07 385.487 298.51 385.093 298.03 384.6C297.563 384.093 297.197 383.513 296.93 382.86C296.677 382.207 296.55 381.513 296.55 380.78C296.55 379.793 296.777 378.893 297.23 378.08C297.683 377.267 298.31 376.613 299.11 376.12C299.923 375.627 300.85 375.38 301.89 375.38C302.943 375.38 303.857 375.633 304.63 376.14C305.417 376.633 306.023 377.287 306.45 378.1C306.89 378.9 307.11 379.767 307.11 380.7C307.11 380.833 307.103 380.967 307.09 381.1C307.09 381.22 307.083 381.313 307.07 381.38H298.41C298.463 382.06 298.65 382.667 298.97 383.2C299.303 383.72 299.73 384.133 300.25 384.44C300.77 384.733 301.33 384.88 301.93 384.88C302.57 384.88 303.17 384.72 303.73 384.4C304.303 384.08 304.697 383.66 304.91 383.14L306.43 383.56C306.203 384.067 305.863 384.52 305.41 384.92C304.97 385.32 304.443 385.633 303.83 385.86C303.23 386.087 302.577 386.2 301.87 386.2ZM298.35 380.16H305.47C305.417 379.48 305.223 378.88 304.89 378.36C304.557 377.84 304.13 377.433 303.61 377.14C303.09 376.847 302.517 376.7 301.89 376.7C301.277 376.7 300.71 376.847 300.19 377.14C299.67 377.433 299.243 377.84 298.91 378.36C298.59 378.88 298.403 379.48 298.35 380.16ZM314.586 377.1C313.706 377.113 312.926 377.34 312.246 377.78C311.58 378.207 311.106 378.8 310.826 379.56V386H309.066V375.56H310.706V377.98C311.066 377.26 311.54 376.68 312.126 376.24C312.726 375.787 313.353 375.533 314.006 375.48C314.14 375.48 314.253 375.48 314.346 375.48C314.44 375.48 314.52 375.487 314.586 375.5V377.1ZM321.732 385.48C321.585 385.547 321.385 385.633 321.132 385.74C320.879 385.847 320.585 385.94 320.252 386.02C319.919 386.1 319.565 386.14 319.192 386.14C318.765 386.14 318.372 386.067 318.012 385.92C317.652 385.76 317.365 385.52 317.152 385.2C316.939 384.867 316.832 384.453 316.832 383.96V376.94H315.412V375.56H316.832V372.08H318.592V375.56H320.932V376.94H318.592V383.42C318.619 383.793 318.745 384.073 318.972 384.26C319.199 384.433 319.465 384.52 319.772 384.52C320.119 384.52 320.439 384.46 320.732 384.34C321.025 384.22 321.219 384.133 321.312 384.08L321.732 385.48ZM323.843 388.84C324.017 388.853 324.19 388.867 324.363 388.88C324.537 388.907 324.67 388.92 324.763 388.92C324.977 388.92 325.163 388.847 325.323 388.7C325.483 388.553 325.657 388.267 325.843 387.84C326.043 387.427 326.297 386.813 326.603 386L322.183 375.56H324.043L327.563 384.22L330.743 375.56H332.483L327.403 388.74C327.283 389.047 327.103 389.333 326.863 389.6C326.637 389.88 326.343 390.1 325.983 390.26C325.623 390.42 325.19 390.5 324.683 390.5C324.563 390.5 324.437 390.493 324.303 390.48C324.183 390.467 324.03 390.44 323.843 390.4V388.84ZM348.688 373.4H343.788V386H341.988V373.4H337.088V371.8H348.688V373.4ZM349.293 388.84C349.466 388.853 349.639 388.867 349.813 388.88C349.986 388.907 350.119 388.92 350.213 388.92C350.426 388.92 350.613 388.847 350.773 388.7C350.933 388.553 351.106 388.267 351.293 387.84C351.493 387.427 351.746 386.813 352.053 386L347.633 375.56H349.493L353.013 384.22L356.193 375.56H357.933L352.853 388.74C352.733 389.047 352.553 389.333 352.313 389.6C352.086 389.88 351.793 390.1 351.433 390.26C351.073 390.42 350.639 390.5 350.133 390.5C350.013 390.5 349.886 390.493 349.753 390.48C349.633 390.467 349.479 390.44 349.293 390.4V388.84ZM365.331 386.2C364.478 386.2 363.718 385.987 363.051 385.56C362.384 385.133 361.858 384.593 361.471 383.94V390.26H359.711V375.56H361.271V377.52C361.684 376.88 362.224 376.367 362.891 375.98C363.558 375.58 364.284 375.38 365.071 375.38C365.791 375.38 366.451 375.527 367.051 375.82C367.651 376.113 368.171 376.513 368.611 377.02C369.051 377.527 369.391 378.107 369.631 378.76C369.884 379.4 370.011 380.073 370.011 380.78C370.011 381.767 369.811 382.673 369.411 383.5C369.024 384.327 368.478 384.987 367.771 385.48C367.064 385.96 366.251 386.2 365.331 386.2ZM364.791 384.68C365.311 384.68 365.778 384.573 366.191 384.36C366.618 384.133 366.978 383.84 367.271 383.48C367.578 383.107 367.811 382.687 367.971 382.22C368.131 381.753 368.211 381.273 368.211 380.78C368.211 380.26 368.118 379.767 367.931 379.3C367.758 378.833 367.504 378.42 367.171 378.06C366.851 377.7 366.471 377.42 366.031 377.22C365.604 377.007 365.138 376.9 364.631 376.9C364.311 376.9 363.978 376.96 363.631 377.08C363.298 377.2 362.978 377.373 362.671 377.6C362.364 377.813 362.104 378.06 361.891 378.34C361.678 378.62 361.538 378.92 361.471 379.24V382.22C361.671 382.673 361.938 383.087 362.271 383.46C362.604 383.833 362.991 384.133 363.431 384.36C363.871 384.573 364.324 384.68 364.791 384.68ZM376.792 386.2C376.005 386.2 375.285 386.06 374.632 385.78C373.992 385.487 373.432 385.093 372.952 384.6C372.485 384.093 372.119 383.513 371.852 382.86C371.599 382.207 371.472 381.513 371.472 380.78C371.472 379.793 371.699 378.893 372.152 378.08C372.605 377.267 373.232 376.613 374.032 376.12C374.845 375.627 375.772 375.38 376.812 375.38C377.865 375.38 378.779 375.633 379.552 376.14C380.339 376.633 380.945 377.287 381.372 378.1C381.812 378.9 382.032 379.767 382.032 380.7C382.032 380.833 382.025 380.967 382.012 381.1C382.012 381.22 382.005 381.313 381.992 381.38H373.332C373.385 382.06 373.572 382.667 373.892 383.2C374.225 383.72 374.652 384.133 375.172 384.44C375.692 384.733 376.252 384.88 376.852 384.88C377.492 384.88 378.092 384.72 378.652 384.4C379.225 384.08 379.619 383.66 379.832 383.14L381.352 383.56C381.125 384.067 380.785 384.52 380.332 384.92C379.892 385.32 379.365 385.633 378.752 385.86C378.152 386.087 377.499 386.2 376.792 386.2ZM373.272 380.16H380.392C380.339 379.48 380.145 378.88 379.812 378.36C379.479 377.84 379.052 377.433 378.532 377.14C378.012 376.847 377.439 376.7 376.812 376.7C376.199 376.7 375.632 376.847 375.112 377.14C374.592 377.433 374.165 377.84 373.832 378.36C373.512 378.88 373.325 379.48 373.272 380.16ZM388.98 388.84C389.153 388.853 389.327 388.867 389.5 388.88C389.673 388.907 389.807 388.92 389.9 388.92C390.113 388.92 390.3 388.847 390.46 388.7C390.62 388.553 390.793 388.267 390.98 387.84C391.18 387.427 391.433 386.813 391.74 386L387.32 375.56H389.18L392.7 384.22L395.88 375.56H397.62L392.54 388.74C392.42 389.047 392.24 389.333 392 389.6C391.773 389.88 391.48 390.1 391.12 390.26C390.76 390.42 390.327 390.5 389.82 390.5C389.7 390.5 389.573 390.493 389.44 390.48C389.32 390.467 389.167 390.44 388.98 390.4V388.84ZM403.647 386.2C402.861 386.2 402.141 386.06 401.487 385.78C400.847 385.487 400.287 385.093 399.807 384.6C399.341 384.093 398.974 383.513 398.707 382.86C398.454 382.207 398.327 381.513 398.327 380.78C398.327 379.793 398.554 378.893 399.007 378.08C399.461 377.267 400.087 376.613 400.887 376.12C401.701 375.627 402.627 375.38 403.667 375.38C404.721 375.38 405.634 375.633 406.407 376.14C407.194 376.633 407.801 377.287 408.227 378.1C408.667 378.9 408.887 379.767 408.887 380.7C408.887 380.833 408.881 380.967 408.867 381.1C408.867 381.22 408.861 381.313 408.847 381.38H400.187C400.241 382.06 400.427 382.667 400.747 383.2C401.081 383.72 401.507 384.133 402.027 384.44C402.547 384.733 403.107 384.88 403.707 384.88C404.347 384.88 404.947 384.72 405.507 384.4C406.081 384.08 406.474 383.66 406.687 383.14L408.207 383.56C407.981 384.067 407.641 384.52 407.187 384.92C406.747 385.32 406.221 385.633 405.607 385.86C405.007 386.087 404.354 386.2 403.647 386.2ZM400.127 380.16H407.247C407.194 379.48 407.001 378.88 406.667 378.36C406.334 377.84 405.907 377.433 405.387 377.14C404.867 376.847 404.294 376.7 403.667 376.7C403.054 376.7 402.487 376.847 401.967 377.14C401.447 377.433 401.021 377.84 400.687 378.36C400.367 378.88 400.181 379.48 400.127 380.16ZM416.146 385.48C416 385.547 415.8 385.633 415.546 385.74C415.293 385.847 415 385.94 414.666 386.02C414.333 386.1 413.98 386.14 413.606 386.14C413.18 386.14 412.786 386.067 412.426 385.92C412.066 385.76 411.78 385.52 411.566 385.2C411.353 384.867 411.246 384.453 411.246 383.96V376.94H409.826V375.56H411.246V372.08H413.006V375.56H415.346V376.94H413.006V383.42C413.033 383.793 413.16 384.073 413.386 384.26C413.613 384.433 413.88 384.52 414.186 384.52C414.533 384.52 414.853 384.46 415.146 384.34C415.44 384.22 415.633 384.133 415.726 384.08L416.146 385.48Z" fill="#277FD9"/>
</svg>
