<svg width="18" height="21" viewBox="0 0 18 21" fill="none" xmlns="http://www.w3.org/2000/svg">
<path d="M0 18.625C0 19.6797 0.820312 20.5 1.875 20.5H15.625C16.6406 20.5 17.5 19.6797 17.5 18.625V8H0V18.625ZM12.5 10.9688C12.5 10.7344 12.6953 10.5 12.9688 10.5H14.5312C14.7656 10.5 15 10.7344 15 10.9688V12.5312C15 12.8047 14.7656 13 14.5312 13H12.9688C12.6953 13 12.5 12.8047 12.5 12.5312V10.9688ZM12.5 15.9688C12.5 15.7344 12.6953 15.5 12.9688 15.5H14.5312C14.7656 15.5 15 15.7344 15 15.9688V17.5312C15 17.8047 14.7656 18 14.5312 18H12.9688C12.6953 18 12.5 17.8047 12.5 17.5312V15.9688ZM7.5 10.9688C7.5 10.7344 7.69531 10.5 7.96875 10.5H9.53125C9.76562 10.5 10 10.7344 10 10.9688V12.5312C10 12.8047 9.76562 13 9.53125 13H7.96875C7.69531 13 7.5 12.8047 7.5 12.5312V10.9688ZM7.5 15.9688C7.5 15.7344 7.69531 15.5 7.96875 15.5H9.53125C9.76562 15.5 10 15.7344 10 15.9688V17.5312C10 17.8047 9.76562 18 9.53125 18H7.96875C7.69531 18 7.5 17.8047 7.5 17.5312V15.9688ZM2.5 10.9688C2.5 10.7344 2.69531 10.5 2.96875 10.5H4.53125C4.76562 10.5 5 10.7344 5 10.9688V12.5312C5 12.8047 4.76562 13 4.53125 13H2.96875C2.69531 13 2.5 12.8047 2.5 12.5312V10.9688ZM2.5 15.9688C2.5 15.7344 2.69531 15.5 2.96875 15.5H4.53125C4.76562 15.5 5 15.7344 5 15.9688V17.5312C5 17.8047 4.76562 18 4.53125 18H2.96875C2.69531 18 2.5 17.8047 2.5 17.5312V15.9688ZM15.625 3H13.75V1.125C13.75 0.8125 13.4375 0.5 13.125 0.5H11.875C11.5234 0.5 11.25 0.8125 11.25 1.125V3H6.25V1.125C6.25 0.8125 5.9375 0.5 5.625 0.5H4.375C4.02344 0.5 3.75 0.8125 3.75 1.125V3H1.875C0.820312 3 0 3.85938 0 4.875V6.75H17.5V4.875C17.5 3.85938 16.6406 3 15.625 3Z" fill="#191919"/>
</svg>
