<svg width="27" height="21" viewBox="0 0 27 21" fill="none" xmlns="http://www.w3.org/2000/svg">
<path d="M25.3359 6.90625C25.9219 7.25781 26.1562 8.03906 25.8047 8.625C25.4922 9.21094 24.7109 9.44531 24.125 9.09375L13.4609 3.19531L2.83594 9.09375C2.25 9.44531 1.46875 9.21094 1.15625 8.625C0.804687 8.03906 1.03906 7.25781 1.625 6.90625L12.875 0.695313C13.2656 0.460938 13.6953 0.460938 14.0859 0.695313L25.3359 6.90625ZM11.8984 8.3125C11.8984 7.45313 12.6016 6.75 13.4609 6.75C14.3594 6.75 15.0234 7.45313 15.0234 8.3125C15.0234 9.21094 14.3594 9.875 13.4609 9.875C12.6016 9.875 11.8984 9.21094 11.8984 8.3125ZM5.02344 12.0625C5.02344 11.2031 5.72656 10.5 6.58594 10.5C7.48437 10.5 8.14844 11.2031 8.14844 12.0625C8.14844 12.9609 7.48437 13.625 6.58594 13.625C5.72656 13.625 5.02344 12.9609 5.02344 12.0625ZM21.8984 12.0625C21.8984 12.9609 21.2344 13.625 20.3359 13.625C19.4766 13.625 18.7734 12.9609 18.7734 12.0625C18.7734 11.2031 19.4766 10.5 20.3359 10.5C21.2344 10.5 21.8984 11.2031 21.8984 12.0625ZM9.82812 19.7188L8.77344 17.7656V19.25C8.77344 19.9531 8.22656 20.5 7.52344 20.5H5.64844C4.98437 20.5 4.39844 19.9531 4.39844 19.25V17.7656L3.38281 19.7188C3.10937 20.1484 2.5625 20.3438 2.09375 20.1094C1.625 19.8359 1.46875 19.2891 1.70312 18.8203L3.1875 16.0859C3.8125 14.9531 4.94531 14.25 6.23437 14.25H6.97656C7.64062 14.25 8.22656 14.4453 8.77344 14.7578L10.0625 12.3359C10.6875 11.2031 11.8203 10.5 13.1094 10.5H13.8516C15.1406 10.5 16.2734 11.2031 16.8984 12.3359L18.1875 14.7578C18.7344 14.4453 19.3203 14.25 19.9844 14.25H20.7266C22.0156 14.25 23.1484 14.9531 23.7734 16.0859L25.2578 18.8203C25.4922 19.2891 25.3359 19.8359 24.8672 20.1094C24.3984 20.3438 23.8516 20.1484 23.5781 19.7188L22.5234 17.7656V19.25C22.5234 19.9531 21.9766 20.5 21.2734 20.5H19.3984C18.7344 20.5 18.1484 19.9531 18.1484 19.25V17.7656L17.1328 19.7188C16.8594 20.1484 16.3125 20.3438 15.8437 20.1094C15.375 19.8359 15.2187 19.2891 15.4531 18.8203L16.8984 16.2031C16.8203 16.125 16.7812 16.0469 16.7031 15.9688L15.6484 14.0156V16.125C15.6484 16.8281 15.1016 17.375 14.3984 17.375H12.5234C11.8594 17.375 11.2734 16.8281 11.2734 16.125V14.0156L10.2578 15.9688C10.1797 16.0469 10.1406 16.125 10.0625 16.2031L11.5078 18.8203C11.7422 19.2891 11.5859 19.8359 11.1172 20.1094C10.6484 20.3438 10.1016 20.1484 9.82812 19.7188Z" fill="#0047B3"/>
</svg>
