<svg width="14" height="16" viewBox="0 0 14 16" fill="none" xmlns="http://www.w3.org/2000/svg">
<path d="M6.11979 1.80469L0.140625 5.25685V12.1609L6.11979 15.6131L12.099 12.1609V5.25685L6.11979 1.80469Z" fill="#191919"/>
<path d="M6.12477 15.6121L12.1039 12.1599L12.0964 5.25586L6.11719 8.70773L6.12477 15.6121Z" fill="#191919"/>
<path d="M6.12514 8.68802L12.0862 5.24635L6.12514 1.80469L0.164062 5.24635L6.12514 8.68802Z" fill="white"/>
<path d="M0 5.17253V12.2452L6.125 15.7813L12.25 12.2452V5.17253L6.125 1.63636L0 5.17253ZM11.8125 5.25682L6.125 8.54069L0.4375 5.25682L6.125 1.97323L11.8125 5.25682ZM0.291667 5.5094L5.97917 8.79298V15.3604L0.291667 12.0766V5.5094ZM6.27083 15.3604V8.79298L11.9583 5.5094V12.0769L6.27083 15.3604ZM11.9583 0.833984H0.291667V0.396484H0V1.56315H0.291667V1.12565H11.9583V1.56315H12.25V0.396484H11.9583V0.833984ZM14 1.95048V1.65882H12.8333V1.95048H13.2708V15.4669H12.8333V15.7586H14V15.4669H13.5625V1.95048H14Z" fill="#191919"/>
</svg>
