<svg width="8" height="5" viewBox="0 0 8 5" fill="none" xmlns="http://www.w3.org/2000/svg">
<path d="M4 4.75C3.83073 4.75 3.68099 4.69141 3.55078 4.57422L0.425781 1.44922C0.308594 1.31901 0.25 1.16927 0.25 1C0.25 0.830729 0.308594 0.68099 0.425781 0.550781C0.55599 0.433594 0.705729 0.375 0.875 0.375C1.04427 0.375 1.19401 0.433594 1.32422 0.550781L4 3.24609L6.67578 0.550781C6.80599 0.433594 6.95573 0.375 7.125 0.375C7.29427 0.375 7.44401 0.433594 7.57422 0.550781C7.69141 0.68099 7.75 0.830729 7.75 1C7.75 1.16927 7.69141 1.31901 7.57422 1.44922L4.44922 4.57422C4.31901 4.69141 4.16927 4.75 4 4.75Z" fill="white"/>
</svg>
