<svg width="14" height="9" viewBox="0 0 14 9" fill="none" xmlns="http://www.w3.org/2000/svg">
<path d="M13.125 1.06152C13.125 1.2985 13.043 1.50814 12.8789 1.69043L5.87891 8.69043C5.69661 8.85449 5.48698 8.93652 5.25 8.93652C5.01302 8.93652 4.80339 8.85449 4.62109 8.69043L1.12109 5.19043C0.957031 5.00814 0.875 4.7985 0.875 4.56152C0.875 4.30632 0.966146 4.09668 1.14844 3.93262C1.3125 3.76855 1.51302 3.68652 1.75 3.68652C1.98698 3.68652 2.19661 3.76855 2.37891 3.93262L5.25 6.83105L11.6211 0.432617C11.8034 0.268555 12.013 0.186523 12.25 0.186523C12.487 0.186523 12.6875 0.268555 12.8516 0.432617C13.0339 0.59668 13.125 0.806315 13.125 1.06152Z" fill="white"/>
</svg>
