<svg width="53" height="53" viewBox="0 0 53 53" fill="none" xmlns="http://www.w3.org/2000/svg">
<g clip-path="url(#clip0_493_174)">
<path d="M14.1211 24.3674C14.1202 24.5994 14.1655 24.8294 14.2543 25.0437C14.3432 25.2581 14.4739 25.4526 14.6387 25.6159L15.2598 26.2371C16.0885 27.0648 17.2118 27.5298 18.383 27.5298C19.5542 27.5298 20.6776 27.0648 21.5062 26.2371L25.9099 21.8383C27.6509 23.296 29.8505 24.0923 32.1211 24.0868V24.0868C33.3991 24.0884 34.6648 23.837 35.8453 23.3472C37.0257 22.8573 38.0975 22.1387 38.999 21.2326C39.1646 21.0669 39.2577 20.8422 39.2577 20.6079C39.2577 20.3735 39.1646 20.1488 38.999 19.9831C38.8333 19.8174 38.6085 19.7243 38.3742 19.7243C38.1399 19.7243 37.9152 19.8174 37.7495 19.9831C37.0118 20.7249 36.1346 21.3133 35.1684 21.7143C34.2022 22.1154 33.1662 22.3211 32.1201 22.3197V22.3197C31.0762 22.3225 30.0422 22.1184 29.0777 21.7191C28.1132 21.3198 27.2374 20.7333 26.501 19.9934C26.3353 19.8279 26.1106 19.7349 25.8763 19.7349C25.642 19.7349 25.4173 19.8279 25.2515 19.9934L20.2536 24.9906C19.2536 25.9917 17.5072 25.9917 16.5062 24.9906L15.8851 24.3695L26.5072 13.7477C27.4979 12.757 28.4379 12.757 29.6304 12.757C30.9058 12.757 32.4948 12.757 34.0031 11.2496L36.501 8.75053C36.5831 8.66849 36.6481 8.57108 36.6925 8.46388C36.7369 8.35668 36.7598 8.24179 36.7598 8.12576C36.7598 8.00972 36.7369 7.89483 36.6925 7.78763C36.6481 7.68043 36.5831 7.58303 36.501 7.50098C36.419 7.41893 36.3216 7.35385 36.2144 7.30944C36.1072 7.26504 35.9923 7.24219 35.8763 7.24219C35.7603 7.24219 35.6454 7.26504 35.5382 7.30944C35.431 7.35385 35.3336 7.41893 35.2515 7.50098L32.7536 10.0001C31.7629 10.9908 30.8219 10.9908 29.6294 10.9908C28.354 10.9908 26.766 10.9908 25.2578 12.4982L14.6397 23.1168C14.4747 23.2805 14.3439 23.4753 14.2549 23.69C14.1658 23.9047 14.1204 24.135 14.1211 24.3674V24.3674Z" fill="#004DB8"/>
<path d="M7.94573 9.71406C8.29523 9.71426 8.63694 9.61082 8.92764 9.41681C9.21835 9.2228 9.44501 8.94693 9.57894 8.6241C9.71288 8.30127 9.74808 7.94597 9.6801 7.60313C9.61211 7.26029 9.444 6.94531 9.19701 6.69802C8.95003 6.45073 8.63526 6.28223 8.29252 6.21385C7.94978 6.14546 7.59446 6.18025 7.27149 6.31381C6.94852 6.44738 6.67241 6.67372 6.47807 6.96422C6.28373 7.25472 6.17989 7.59632 6.17969 7.94584V7.94584C6.17996 8.41436 6.36605 8.86364 6.69713 9.19512C7.02821 9.52661 7.47724 9.71323 7.94573 9.71406V9.71406Z" fill="#004DB8"/>
<path d="M16.5123 12.4997L19.0113 14.9988C19.0933 15.0807 19.1907 15.1458 19.2979 15.1901C19.405 15.2344 19.5199 15.2572 19.6359 15.2572C19.7518 15.2571 19.8667 15.2342 19.9738 15.1898C20.0809 15.1454 20.1783 15.0803 20.2602 14.9982C20.3422 14.9162 20.4072 14.8188 20.4516 14.7116C20.4959 14.6045 20.5187 14.4896 20.5187 14.3736C20.5186 14.2576 20.4957 14.1428 20.4513 14.0357C20.4069 13.9285 20.3418 13.8312 20.2597 13.7492L17.7618 11.2511C17.6798 11.1691 17.5825 11.104 17.4754 11.0596C17.3682 11.0151 17.2534 10.9922 17.1374 10.9922C17.0214 10.9921 16.9066 11.0149 16.7994 11.0593C16.6923 11.1036 16.5949 11.1686 16.5128 11.2506C16.4308 11.3326 16.3657 11.4299 16.3213 11.5371C16.2768 11.6442 16.254 11.759 16.2539 11.875C16.2539 11.991 16.2767 12.1059 16.321 12.213C16.3653 12.3202 16.4303 12.4176 16.5123 12.4997V12.4997Z" fill="#004DB8"/>
<path d="M45.0473 6.18281C45.3968 6.18301 45.7385 6.07957 46.0292 5.88556C46.3199 5.69155 46.5466 5.41568 46.6805 5.09285C46.8144 4.77002 46.8496 4.41472 46.7817 4.07188C46.7137 3.72904 46.5456 3.41406 46.2986 3.16677C46.0516 2.91948 45.7368 2.75098 45.3941 2.6826C45.0513 2.61421 44.696 2.649 44.3731 2.78256C44.0501 2.91613 43.774 3.14247 43.5796 3.43297C43.3853 3.72346 43.2815 4.06507 43.2812 4.41459V4.41459C43.2815 4.88311 43.4676 5.33239 43.7987 5.66387C44.1298 5.99536 44.5788 6.18198 45.0473 6.18281V6.18281Z" fill="#004DB8"/>
<path d="M47.0738 18.8053C45.638 20.2412 45.1452 22.5798 44.669 24.8408C44.2467 26.8482 43.8098 28.9249 42.7456 29.9892L41.4962 31.2377C41.4141 31.3202 41.3491 31.418 41.3049 31.5255C41.2606 31.6331 41.238 31.7484 41.2383 31.8647C41.2386 31.981 41.2618 32.0961 41.3065 32.2035C41.3513 32.3108 41.4168 32.4083 41.4993 32.4904C41.5817 32.5724 41.6795 32.6374 41.7871 32.6817C41.8946 32.7259 42.0099 32.7485 42.1262 32.7482C42.2425 32.748 42.3576 32.7248 42.465 32.68C42.5723 32.6352 42.6698 32.5697 42.7518 32.4873L43.9941 31.2377C45.4289 29.8028 45.9206 27.4663 46.3968 25.2053C46.8202 23.1958 47.2581 21.1191 48.3212 20.0549C48.4869 19.8893 48.58 19.6647 48.5801 19.4304C48.5802 19.1962 48.4873 18.9715 48.3217 18.8058C48.1562 18.6401 47.9316 18.547 47.6973 18.5469C47.4631 18.5468 47.2384 18.6397 47.0728 18.8053V18.8053H47.0738Z" fill="#004DB8"/>
<path d="M52.741 18.8081L38.3518 4.41804L41.2607 1.50896C41.4185 1.34118 41.5048 1.11855 41.5012 0.888246C41.4977 0.657939 41.4047 0.438052 41.2418 0.275181C41.0789 0.11231 40.8591 0.0192531 40.6288 0.0157289C40.3985 0.0122046 40.1759 0.0984902 40.0081 0.256301L36.475 3.78963C36.3109 3.95471 36.2188 4.17802 36.2188 4.41079C36.2188 4.64356 36.3109 4.86687 36.475 5.03194V5.03194L51.4926 20.0577C51.6583 20.2232 51.8829 20.3162 52.1172 20.3161C52.3514 20.316 52.576 20.2229 52.7415 20.0572C52.9071 19.8914 53 19.6668 52.9999 19.4325C52.9998 19.1983 52.9067 18.9737 52.741 18.8081V18.8081Z" fill="#004DB8"/>
<path d="M32.7529 26.2401C32.5872 26.0744 32.3625 25.9813 32.1282 25.9813C31.8938 25.9813 31.6691 26.0744 31.5034 26.2401C31.3377 26.4058 31.2446 26.6306 31.2446 26.8649C31.2446 27.0992 31.3377 27.324 31.5034 27.4897L40.873 36.8598C41.2004 37.192 41.3833 37.6402 41.3816 38.1067C41.3799 38.5732 41.1939 39.0201 40.864 39.3499C40.5342 39.6798 40.0873 39.8658 39.6209 39.8675C39.1544 39.8692 38.7062 39.6864 38.374 39.3589L29.0045 29.9888C28.9225 29.9067 28.8251 29.8416 28.718 29.7972C28.6109 29.7528 28.4961 29.7299 28.3801 29.7298C28.2641 29.7298 28.1493 29.7526 28.0421 29.7969C27.9349 29.8413 27.8375 29.9063 27.7555 29.9883C27.6734 30.0702 27.6084 30.1676 27.5639 30.2747C27.5195 30.3819 27.4966 30.4967 27.4966 30.6127C27.4965 30.7287 27.5193 30.8435 27.5636 30.9507C27.608 31.0579 27.673 31.1553 27.755 31.2373L39.6235 43.1065C39.951 43.4388 40.1338 43.887 40.1321 44.3535C40.1304 44.8199 39.9444 45.2668 39.6145 45.5967C39.2847 45.9265 38.8378 46.1126 38.3714 46.1143C37.9049 46.1159 37.4567 45.9331 37.1245 45.6056L25.8792 34.3638C25.8071 34.2674 25.716 34.1867 25.6115 34.1268C25.5071 34.0669 25.3915 34.029 25.2718 34.0154C25.1522 34.0018 25.031 34.0128 24.9158 34.0478C24.8006 34.0827 24.6937 34.1409 24.6018 34.2187C24.5099 34.2965 24.4348 34.3922 24.3813 34.5001C24.3277 34.6079 24.2968 34.7256 24.2904 34.8459C24.284 34.9661 24.3022 35.0864 24.344 35.1993C24.3858 35.3123 24.4503 35.4155 24.5334 35.5026C24.5648 35.5401 24.5995 35.5747 24.637 35.6061L34.6308 45.6005C34.9614 45.9323 35.147 46.3816 35.147 46.85C35.147 47.3184 34.9614 47.7678 34.6308 48.0996C34.2944 48.4211 33.8471 48.6005 33.3818 48.6005C32.9165 48.6005 32.4691 48.4211 32.1328 48.0996L30.8823 46.8511L22.7612 38.7326C22.5944 38.5733 22.3718 38.4856 22.1412 38.4883C21.9106 38.491 21.6901 38.5838 21.527 38.7469C21.364 38.91 21.2711 39.1304 21.2685 39.3611C21.2658 39.5917 21.3535 39.8143 21.5127 39.9811L29.6318 48.1016C29.963 48.4329 30.1491 48.8822 30.1491 49.3507C30.1491 49.8192 29.963 50.2685 29.6318 50.5997C29.3005 50.931 28.8513 51.1171 28.3828 51.1171C27.9144 51.1171 27.4651 50.931 27.1339 50.5997V50.5997L12.1111 35.5906C9.82019 33.2995 9.3233 30.4143 8.88437 27.8624C8.51481 25.7183 8.16595 23.6944 6.81398 22.3393C6.73201 22.2568 6.63459 22.1913 6.52731 22.1465C6.42002 22.1017 6.30496 22.0785 6.18869 22.0781C6.07243 22.0778 5.95724 22.1004 5.84969 22.1445C5.74215 22.1887 5.64436 22.2537 5.56191 22.3356C5.47946 22.4176 5.41396 22.515 5.36916 22.6223C5.32435 22.7296 5.30112 22.8447 5.30078 22.961C5.30045 23.0772 5.32302 23.1924 5.3672 23.3C5.41138 23.4075 5.47631 23.5053 5.55829 23.5878C6.51688 24.5464 6.80052 26.2225 7.14007 28.1626C7.59866 30.8315 8.17526 34.1516 10.8585 36.8391L25.8792 51.8503C26.332 52.3024 26.8991 52.6231 27.5199 52.7783C28.1407 52.9334 28.7919 52.9171 29.4042 52.7311C30.0165 52.5452 30.5668 52.1965 30.9965 51.7223C31.4261 51.2481 31.7191 50.6662 31.844 50.0386C32.5062 50.3446 33.2456 50.4427 33.9646 50.32C34.6837 50.1973 35.3487 49.8595 35.8719 49.3512C36.3681 48.8568 36.7055 48.2257 36.8409 47.5385C37.5929 47.9003 38.4486 47.9843 39.2565 47.7755C40.0645 47.5668 40.7724 47.0788 41.2551 46.398C41.7377 45.7172 41.9637 44.8875 41.8932 44.056C41.8227 43.2245 41.4602 42.4447 40.8699 41.8549L40.5345 41.5195C41.1343 41.3597 41.6814 41.0447 42.1207 40.6062C42.56 40.1677 42.8761 39.6212 43.0371 39.0217C43.1981 38.4222 43.1983 37.7908 43.0377 37.1912C42.8772 36.5916 42.5615 36.0449 42.1225 35.6061L32.7529 26.2401Z" fill="#004DB8"/>
<path d="M16.5218 7.32611L11.2216 2.02559C11.0548 1.86631 10.8323 1.77864 10.6016 1.78131C10.371 1.78398 10.1506 1.87679 9.98746 2.0399C9.82437 2.203 9.73157 2.42344 9.72889 2.65409C9.72622 2.88473 9.81389 3.10727 9.97316 3.27411L14.6491 7.95037L0.259908 22.3404C0.171278 22.4205 0.0998073 22.5177 0.0498195 22.6262C-0.00016829 22.7346 -0.0276341 22.8521 -0.0309164 22.9715C-0.0341988 23.0909 -0.0132294 23.2097 0.0307232 23.3208C0.0746757 23.4318 0.140698 23.5328 0.224796 23.6176C0.308894 23.7024 0.40932 23.7693 0.519999 23.8142C0.630677 23.859 0.749308 23.881 0.868715 23.8787C0.988123 23.8764 1.10582 23.8499 1.2147 23.8008C1.32358 23.7517 1.42136 23.6811 1.50214 23.5931V23.5931L16.5218 8.57566C16.6854 8.41033 16.7772 8.18711 16.7772 7.95451C16.7772 7.7219 16.6854 7.49869 16.5218 7.33335V7.32611Z" fill="#004DB8"/>
<path d="M21.724 51.07C21.2323 51.3277 20.3917 51.3588 19.635 50.6031C18.8782 49.8473 18.8834 48.9642 19.1298 48.5812C19.2486 48.3978 19.2952 48.1769 19.2606 47.9611C19.2259 47.7454 19.1126 47.5501 18.9423 47.4131C18.7721 47.2761 18.5572 47.2071 18.339 47.2194C18.1208 47.2317 17.915 47.3244 17.7613 47.4797C17.4291 47.8072 16.9809 47.99 16.5144 47.9883C16.048 47.9866 15.6011 47.8006 15.2713 47.4707C14.9414 47.1409 14.7554 46.694 14.7537 46.2275C14.752 45.761 14.9348 45.3128 15.2623 44.9806C15.3443 44.8985 15.4094 44.8011 15.4538 44.6939C15.4982 44.5867 15.5211 44.4718 15.5211 44.3558C15.5211 44.2398 15.4982 44.1249 15.4538 44.0177C15.4094 43.9105 15.3443 43.8131 15.2623 43.731C15.1802 43.649 15.0828 43.5839 14.9757 43.5395C14.8685 43.4951 14.7536 43.4722 14.6375 43.4722C14.5215 43.4722 14.4066 43.4951 14.2994 43.5395C14.1922 43.5839 14.0948 43.649 14.0128 43.731V43.731L13.3917 44.3522C13.2277 44.5162 13.033 44.6463 12.8187 44.7351C12.6044 44.8239 12.3747 44.8695 12.1427 44.8695C11.9108 44.8695 11.6811 44.8239 11.4668 44.7351C11.2525 44.6463 11.0578 44.5162 10.8938 44.3522C10.7297 44.1882 10.5996 43.9934 10.5109 43.7791C10.4221 43.5648 10.3764 43.3351 10.3764 43.1031C10.3764 42.8712 10.4221 42.6415 10.5109 42.4272C10.5996 42.2129 10.7297 42.0181 10.8938 41.8541V41.8541L11.5149 41.2329C11.6621 41.081 11.7499 40.8812 11.7624 40.67C11.7749 40.4587 11.7112 40.25 11.5829 40.0818C11.4546 39.9135 11.2702 39.7968 11.0632 39.7529C10.8562 39.709 10.6404 39.7409 10.4548 39.8426C9.97451 40.12 9.12875 40.088 8.39894 39.3591C7.62358 38.5837 7.62772 37.7234 7.88134 37.3611C8.02379 37.177 8.08782 36.9442 8.05951 36.7132C8.0312 36.4822 7.91284 36.2716 7.73017 36.1274C7.5475 35.9832 7.31528 35.917 7.08402 35.9431C6.85276 35.9692 6.64115 36.0855 6.49521 36.2668C6.47172 36.2954 6.4506 36.3259 6.43206 36.3579C5.71674 37.3932 5.73641 39.1862 7.1567 40.6077C7.64267 41.11 8.25369 41.4737 8.92689 41.6615C8.65644 42.2665 8.56147 42.9354 8.65281 43.5917C8.74415 44.2481 9.01811 44.8656 9.44346 45.3737C9.8688 45.8819 10.4284 46.2603 11.0584 46.4657C11.6884 46.6711 12.3635 46.6953 13.0066 46.5355C13.0869 47.4682 13.5343 48.3308 14.2504 48.9336C14.9666 49.5364 15.8928 49.8301 16.8254 49.75C16.9694 49.7372 17.1125 49.7161 17.254 49.6869C17.3901 50.5133 17.7895 51.2736 18.3927 51.8547C19.2095 52.6705 20.1639 52.9935 21.0345 52.9935C21.5616 52.9954 22.0815 52.8715 22.5511 52.6322C22.7575 52.5229 22.9122 52.3362 22.9813 52.1131C23.0505 51.8901 23.0284 51.6487 22.92 51.4418C22.8116 51.2349 22.6256 51.0794 22.4028 51.0094C22.18 50.9393 21.9385 50.9603 21.7312 51.0679L21.724 51.07Z" fill="#004DB8"/>
</g>
<defs>
<clipPath id="clip0_493_174">
<rect width="53" height="53" fill="white"/>
</clipPath>
</defs>
</svg>
