<svg width="13" height="14" viewBox="0 0 13 14" fill="none" xmlns="http://www.w3.org/2000/svg">
<path d="M0.8125 10.375V9.5625H12.1875V10.4004C12.1875 11.1113 11.8574 11.7461 11.375 12.2031V13.2188C11.375 13.4473 11.1719 13.625 10.9688 13.625H10.1562C9.92773 13.625 9.75 13.4473 9.75 13.2188V12.8379H3.25V13.2188C3.25 13.4473 3.04688 13.625 2.84375 13.625H2.03125C1.80273 13.625 1.625 13.4473 1.625 13.2188V12.2031C1.11719 11.7461 0.8125 11.1113 0.8125 10.375ZM12.5938 7.125C12.7969 7.125 13 7.32812 13 7.53125V8.34375C13 8.57227 12.7969 8.75 12.5938 8.75H0.40625C0.177734 8.75 0 8.57227 0 8.34375V7.53125C0 7.32812 0.177734 7.125 0.40625 7.125L0.8125 7.15039V2.60547C0.8125 1.51367 1.67578 0.625 2.76758 0.625C3.27539 0.625 3.7832 0.853516 4.13867 1.20898L4.49414 1.56445C5.17969 1.33594 5.83984 1.48828 6.32227 1.84375C6.47461 1.69141 6.72852 1.69141 6.90625 1.84375L7.18555 2.14844C7.33789 2.30078 7.33789 2.55469 7.18555 2.70703L4.49414 5.39844C4.3418 5.55078 4.08789 5.55078 3.93555 5.39844L3.65625 5.09375C3.47852 4.94141 3.47852 4.6875 3.65625 4.53516C3.27539 4.05273 3.12305 3.39258 3.35156 2.70703L2.99609 2.35156C2.81836 2.17383 2.41211 2.32617 2.4375 2.60547V7.125H12.5938Z" fill="#191919"/>
</svg>
