<svg width="17" height="12" viewBox="0 0 17 12" fill="none" xmlns="http://www.w3.org/2000/svg">
<path d="M4.46875 6.9375C3.32617 6.9375 2.4375 6.04883 2.4375 4.90625C2.4375 3.78906 3.32617 2.875 4.46875 2.875C5.58594 2.875 6.5 3.78906 6.5 4.90625C6.5 6.04883 5.58594 6.9375 4.46875 6.9375ZM13.8125 2.875C15.1582 2.875 16.25 3.9668 16.25 5.3125V11.4062C16.25 11.6348 16.0469 11.8125 15.8438 11.8125H15.0312C14.8027 11.8125 14.625 11.6348 14.625 11.4062V10.1875H1.625V11.4062C1.625 11.6348 1.42188 11.8125 1.21875 11.8125H0.40625C0.177734 11.8125 0 11.6348 0 11.4062V0.84375C0 0.640625 0.177734 0.4375 0.40625 0.4375H1.21875C1.42188 0.4375 1.625 0.640625 1.625 0.84375V7.75H7.3125V3.28125C7.3125 3.07812 7.49023 2.875 7.71875 2.875H13.8125Z" fill="#191919"/>
</svg>
