<svg width="17" height="23" viewBox="0 0 17 23" fill="none" xmlns="http://www.w3.org/2000/svg">
<path d="M16.75 6.25H11.25V0.75L16.75 6.25ZM11.25 7.625H16.75V20.6875C16.7214 21.2604 16.5208 21.7474 16.1484 22.1484C15.7474 22.5208 15.2604 22.7214 14.6875 22.75H2.3125C1.73958 22.7214 1.2526 22.5208 0.851562 22.1484C0.479167 21.7474 0.278646 21.2604 0.25 20.6875V2.8125C0.278646 2.23958 0.479167 1.7526 0.851562 1.35156C1.2526 0.979167 1.73958 0.778646 2.3125 0.75H9.875V6.25C9.875 6.65104 10.0039 6.98047 10.2617 7.23828C10.5195 7.49609 10.849 7.625 11.25 7.625ZM3 4.53125C3.02865 4.73177 3.14323 4.84635 3.34375 4.875H6.78125C6.98177 4.84635 7.09635 4.73177 7.125 4.53125V3.84375C7.09635 3.64323 6.98177 3.52865 6.78125 3.5H3.34375C3.14323 3.52865 3.02865 3.64323 3 3.84375V4.53125ZM3.34375 7.625H6.78125C6.98177 7.59635 7.09635 7.48177 7.125 7.28125V6.59375C7.09635 6.39323 6.98177 6.27865 6.78125 6.25H3.34375C3.14323 6.27865 3.02865 6.39323 3 6.59375V7.28125C3.02865 7.48177 3.14323 7.59635 3.34375 7.625ZM8.75781 14.3711L8.45703 14.2852C7.9987 14.1419 7.72656 14.0273 7.64062 13.9414C7.52604 13.8268 7.4974 13.7409 7.55469 13.6836C7.58333 13.5117 7.72656 13.3971 7.98438 13.3398C8.24219 13.2826 8.52865 13.2826 8.84375 13.3398C9.07292 13.3685 9.31641 13.4401 9.57422 13.5547C10.0898 13.6693 10.4622 13.4831 10.6914 12.9961C10.806 12.5091 10.6341 12.151 10.1758 11.9219C9.86068 11.8073 9.58854 11.7357 9.35938 11.707V11.4062C9.30208 10.8906 9.01562 10.6042 8.5 10.5469C7.98438 10.6042 7.69792 10.8906 7.64062 11.4062V11.6641C6.63802 11.8932 6.03646 12.4661 5.83594 13.3828C5.75 14.2708 5.97917 14.901 6.52344 15.2734C7.06771 15.6172 7.56901 15.8464 8.02734 15.9609L8.28516 16.0039C8.88672 16.1758 9.24479 16.319 9.35938 16.4336C9.47396 16.5195 9.5026 16.6198 9.44531 16.7344C9.41667 16.8776 9.27344 16.9779 9.01562 17.0352C8.75781 17.0924 8.47135 17.0924 8.15625 17.0352C7.84115 16.9779 7.51172 16.8776 7.16797 16.7344C7.16797 16.7344 7.15365 16.7344 7.125 16.7344L6.95312 16.6484C6.4375 16.5339 6.0651 16.7201 5.83594 17.207C5.72135 17.7227 5.90755 18.0807 6.39453 18.2812L6.56641 18.3672C6.91016 18.4818 7.26823 18.582 7.64062 18.668V18.9688C7.69792 19.4844 7.98438 19.7708 8.5 19.8281C9.01562 19.7708 9.30208 19.4844 9.35938 18.9688V18.7109C10.362 18.4818 10.9635 17.9089 11.1641 16.9922C11.25 16.1042 11.0065 15.474 10.4336 15.1016C9.83203 14.7292 9.27344 14.4857 8.75781 14.3711Z" fill="#ffffff"/>
</svg>
