<svg width="26" height="20" viewBox="0 0 26 20" fill="none" xmlns="http://www.w3.org/2000/svg">
<path d="M12.7088 0.125C10.4171 0.153646 8.34027 0.71224 6.47829 1.80078C4.61632 2.91797 3.12673 4.40755 2.00954 6.26953C0.921003 8.13151 0.362409 10.2083 0.333763 12.5C0.362409 14.7917 0.921003 16.8685 2.00954 18.7305C2.296 19.1602 2.69704 19.375 3.21267 19.375H22.2478C22.7348 19.375 23.1215 19.1602 23.408 18.7305C24.4965 16.8685 25.0551 14.7917 25.0838 12.5C25.0551 10.2083 24.4965 8.13151 23.408 6.26953C22.2908 4.40755 20.8012 2.91797 18.9392 1.80078C17.0773 0.71224 15.0004 0.153646 12.7088 0.125ZM4.45876 15.25C4.05772 15.25 3.72829 15.1211 3.47048 14.8633C3.21267 14.6055 3.08376 14.276 3.08376 13.875C3.08376 13.474 3.21267 13.1445 3.47048 12.8867C3.72829 12.6289 4.05772 12.5 4.45876 12.5C4.8598 12.5 5.18923 12.6289 5.44704 12.8867C5.70486 13.1445 5.83376 13.474 5.83376 13.875C5.83376 14.276 5.70486 14.6055 5.44704 14.8633C5.18923 15.1211 4.8598 15.25 4.45876 15.25ZM6.52126 8.375C6.12022 8.375 5.79079 8.24609 5.53298 7.98828C5.27517 7.73047 5.14626 7.40104 5.14626 7C5.14626 6.59896 5.27517 6.26953 5.53298 6.01172C5.79079 5.75391 6.12022 5.625 6.52126 5.625C6.9223 5.625 7.25173 5.75391 7.50954 6.01172C7.76736 6.26953 7.89626 6.59896 7.89626 7C7.89626 7.40104 7.76736 7.73047 7.50954 7.98828C7.25173 8.24609 6.9223 8.375 6.52126 8.375ZM15.072 16.625H10.3455C10.0877 16.224 9.95876 15.7656 9.95876 15.25C9.95876 14.6771 10.1163 14.1615 10.4314 13.7031C10.7465 13.2448 11.1619 12.9154 11.6775 12.7148V4.25C11.7348 3.61979 12.0786 3.27604 12.7088 3.21875C13.339 3.27604 13.6827 3.61979 13.74 4.25V12.7148C14.2556 12.9154 14.671 13.2448 14.9861 13.7031C15.3012 14.1615 15.4588 14.6771 15.4588 15.25C15.4588 15.7656 15.3299 16.224 15.072 16.625ZM17.5213 7C17.5213 6.59896 17.6502 6.26953 17.908 6.01172C18.1658 5.75391 18.4952 5.625 18.8963 5.625C19.2973 5.625 19.6267 5.75391 19.8845 6.01172C20.1424 6.26953 20.2713 6.59896 20.2713 7C20.2713 7.40104 20.1424 7.73047 19.8845 7.98828C19.6267 8.24609 19.2973 8.375 18.8963 8.375C18.4952 8.375 18.1658 8.24609 17.908 7.98828C17.6502 7.73047 17.5213 7.40104 17.5213 7ZM20.9588 15.25C20.5577 15.25 20.2283 15.1211 19.9705 14.8633C19.7127 14.6055 19.5838 14.276 19.5838 13.875C19.5838 13.474 19.7127 13.1445 19.9705 12.8867C20.2569 12.6289 20.5864 12.5 20.9588 12.5C21.3598 12.5 21.6892 12.6289 21.947 12.8867C22.2049 13.1445 22.3338 13.474 22.3338 13.875C22.3338 14.276 22.2049 14.6055 21.947 14.8633C21.6892 15.1211 21.3598 15.25 20.9588 15.25Z" fill="#ffffff"/>
</svg>
