<svg width="18" height="21" viewBox="0 0 18 21" fill="none" xmlns="http://www.w3.org/2000/svg">
<path d="M16.875 1.75L12.5 1.75L12.0312 0.851563C11.9271 0.617188 11.7448 0.5 11.4844 0.5L6.01562 0.5C5.75521 0.5 5.57292 0.617188 5.46875 0.851563L5 1.75L0.625 1.75C0.234375 1.77604 0.0260417 1.98438 0 2.375L0 3.625C0.0260417 4.01562 0.234375 4.22396 0.625 4.25L16.875 4.25C17.2656 4.22396 17.474 4.01563 17.5 3.625V2.375C17.474 1.98438 17.2656 1.77604 16.875 1.75ZM1.25 18.625C1.27604 19.1458 1.45833 19.5885 1.79687 19.9531C2.16146 20.2917 2.60417 20.474 3.125 20.5L14.375 20.5C14.8958 20.474 15.3385 20.2917 15.7031 19.9531C16.0417 19.5885 16.224 19.1458 16.25 18.625L16.25 5.5L1.25 5.5L1.25 18.625ZM5.58594 10.5C5.22135 10.0573 5.22135 9.61458 5.58594 9.17188C6.02865 8.80729 6.47135 8.80729 6.91406 9.17188L8.75 11.0078L10.5859 9.17188C11.0286 8.80729 11.4714 8.80729 11.9141 9.17188C12.2786 9.61458 12.2786 10.0573 11.9141 10.5L10.0781 12.375L11.9141 14.2109C12.2786 14.6536 12.2786 15.0964 11.9141 15.5391C11.4714 15.9036 11.0286 15.9036 10.5859 15.5391L8.75 13.7031L6.91406 15.5391C6.47135 15.9036 6.02865 15.9036 5.58594 15.5391C5.22135 15.0964 5.22135 14.6536 5.58594 14.2109L7.42187 12.375L5.58594 10.5Z" fill="#FF3F3F"/>
</svg>
