<svg width="13" height="8" viewBox="0 0 13 8" fill="none" xmlns="http://www.w3.org/2000/svg">
<path d="M6.40728 7.68555C6.13644 7.68555 5.89686 7.5918 5.68853 7.4043L0.688528 2.4043C0.501028 2.19596 0.407278 1.95638 0.407278 1.68555C0.407278 1.41471 0.501028 1.17513 0.688528 0.966797C0.896861 0.779297 1.13644 0.685547 1.40728 0.685547C1.67811 0.685547 1.91769 0.779297 2.12603 0.966797L6.40728 5.2793L10.6885 0.966797C10.8969 0.779297 11.1364 0.685547 11.4073 0.685547C11.6781 0.685547 11.9177 0.779297 12.126 0.966797C12.3135 1.17513 12.4073 1.41471 12.4073 1.68555C12.4073 1.95638 12.3135 2.19596 12.126 2.4043L7.12603 7.4043C6.91769 7.5918 6.67811 7.68555 6.40728 7.68555Z" fill="#ffffff"/>
</svg>
