<svg width="19" height="19" viewBox="0 0 19 19" fill="none" xmlns="http://www.w3.org/2000/svg">
<path d="M16.7148 0.25H3.21484C2.58203 0.273438 2.05469 0.496094 1.63281 0.917969C1.21094 1.33984 0.988281 1.85547 0.964844 2.46484V12.5547C0.988281 13.1875 1.21094 13.7148 1.63281 14.1367C2.05469 14.5586 2.58203 14.7695 3.21484 14.7695H6.58984V17.6875C6.61328 17.875 6.69531 18.0039 6.83594 18.0742C6.97656 18.1445 7.11719 18.1328 7.25781 18.0391L11.6523 14.7344H16.7148C17.3477 14.7344 17.875 14.5234 18.2969 14.1016C18.7188 13.6797 18.9414 13.1523 18.9648 12.5195V2.46484C18.9414 1.85547 18.7305 1.33984 18.332 0.917969C17.9102 0.496094 17.3711 0.273438 16.7148 0.25ZM5.46484 8.65234C5.13672 8.65234 4.86719 8.54688 4.65625 8.33594C4.44531 8.125 4.33984 7.86719 4.33984 7.5625C4.33984 7.25781 4.44531 7 4.65625 6.78906C4.86719 6.57812 5.13672 6.47266 5.46484 6.47266C5.79297 6.47266 6.0625 6.57812 6.27344 6.78906C6.48438 7 6.58984 7.25781 6.58984 7.5625C6.58984 7.86719 6.48438 8.125 6.27344 8.33594C6.0625 8.54688 5.79297 8.65234 5.46484 8.65234ZM9.96484 8.65234C9.63672 8.65234 9.36719 8.54688 9.15625 8.33594C8.94531 8.125 8.83984 7.86719 8.83984 7.5625C8.83984 7.25781 8.94531 7 9.15625 6.78906C9.36719 6.57812 9.63672 6.47266 9.96484 6.47266C10.293 6.47266 10.5625 6.57812 10.7734 6.78906C10.9844 7 11.0898 7.25781 11.0898 7.5625C11.0898 7.86719 10.9844 8.125 10.7734 8.33594C10.5625 8.54688 10.293 8.65234 9.96484 8.65234ZM14.4648 8.65234C14.1367 8.65234 13.8672 8.54688 13.6562 8.33594C13.4453 8.125 13.3398 7.86719 13.3398 7.5625C13.3398 7.25781 13.4453 7 13.6562 6.78906C13.8672 6.57812 14.1367 6.47266 14.4648 6.47266C14.793 6.47266 15.0625 6.57812 15.2734 6.78906C15.4844 7 15.5898 7.25781 15.5898 7.5625C15.5898 7.86719 15.4844 8.125 15.2734 8.33594C15.0625 8.54688 14.793 8.65234 14.4648 8.65234Z" fill="#004DB8"/>
</svg>
