<svg width="25" height="23" viewBox="0 0 25 23" fill="none" xmlns="http://www.w3.org/2000/svg">
<path d="M24.875 11.75C24.8464 12.1224 24.7031 12.4375 24.4453 12.6953C24.1875 12.9531 23.8724 13.0964 23.5 13.125H22.125L22.168 20C22.1393 20.1146 22.125 20.2292 22.125 20.3438V21.0312C22.125 21.5182 21.9531 21.9193 21.6094 22.2344C21.2943 22.5781 20.8932 22.75 20.4062 22.75H19.7188C19.6901 22.75 19.6758 22.75 19.6758 22.75C19.6471 22.7214 19.6185 22.7214 19.5898 22.75C19.5326 22.7214 19.4896 22.7214 19.4609 22.75C19.4323 22.75 19.418 22.75 19.418 22.75H16.9688C16.4818 22.75 16.0807 22.5781 15.7656 22.2344C15.4219 21.9193 15.25 21.5182 15.25 21.0312V17.25C15.25 16.849 15.1211 16.5195 14.8633 16.2617C14.6055 16.0039 14.276 15.875 13.875 15.875H11.125C10.724 15.875 10.3945 16.0039 10.1367 16.2617C9.87891 16.5195 9.75 16.849 9.75 17.25V21.0312C9.75 21.5182 9.57812 21.9193 9.23438 22.2344C8.91927 22.5781 8.51823 22.75 8.03125 22.75H5.625C5.56771 22.75 5.51042 22.75 5.45312 22.75C5.39583 22.75 5.33854 22.75 5.28125 22.75H4.59375C4.10677 22.75 3.70573 22.5781 3.39062 22.2344C3.04688 21.9193 2.875 21.5182 2.875 21.0312V16.2188C2.875 16.1901 2.875 16.1471 2.875 16.0898V13.125H1.5C1.09896 13.0964 0.769531 12.9531 0.511719 12.6953C0.253906 12.4375 0.125 12.1224 0.125 11.75C0.125 11.349 0.268229 11.0052 0.554688 10.7188L11.5547 1.09375C11.8698 0.835938 12.1849 0.721354 12.5 0.75C12.8438 0.75 13.1589 0.85026 13.4453 1.05078L24.4023 10.7188C24.7461 11.0052 24.9036 11.349 24.875 11.75Z" fill="#191919"/>
</svg>
