<svg width="18" height="21" viewBox="0 0 18 21" fill="none" xmlns="http://www.w3.org/2000/svg">
<path d="M8.75 10.5C10.1562 10.474 11.3411 9.99219 12.3047 9.05469C13.2422 8.09115 13.724 6.90625 13.75 5.5C13.724 4.09375 13.2422 2.90885 12.3047 1.94531C11.3411 1.00781 10.1562 0.526042 8.75 0.5C7.34375 0.526042 6.15885 1.00781 5.19531 1.94531C4.25781 2.90885 3.77604 4.09375 3.75 5.5C3.77604 6.90625 4.25781 8.09115 5.19531 9.05469C6.15885 9.99219 7.34375 10.474 8.75 10.5ZM10.7422 12.375H6.75781C4.85677 12.4271 3.26823 13.0911 1.99219 14.3672C0.716146 15.6432 0.0520833 17.2318 0 19.1328C0 19.5234 0.130208 19.849 0.390625 20.1094C0.651042 20.3698 0.976562 20.5 1.36719 20.5H16.1328C16.5234 20.5 16.849 20.3698 17.1094 20.1094C17.3698 19.849 17.5 19.5234 17.5 19.1328C17.4479 17.2318 16.7839 15.6432 15.5078 14.3672C14.2318 13.0911 12.6432 12.4271 10.7422 12.375Z" fill="#505050"/>
</svg>
