<svg width="12" height="14" viewBox="0 0 12 14" fill="none" xmlns="http://www.w3.org/2000/svg">
<path d="M11 12H0.96875C0.697917 12 0.46875 12.0938 0.28125 12.2812C0.09375 12.4688 0 12.6979 0 12.9688C0 13.2396 0.09375 13.4792 0.28125 13.6875C0.46875 13.8958 0.697917 14 0.96875 14H11C11.2917 14 11.5312 13.9062 11.7188 13.7188C11.9062 13.5312 12 13.2917 12 13C12 12.7083 11.9062 12.4688 11.7188 12.2812C11.5312 12.0938 11.2917 12 11 12ZM1.75 6H4V10C4 10.2917 4.09375 10.5312 4.28125 10.7188C4.46875 10.9062 4.70833 11 5 11H7C7.29167 11 7.53125 10.9062 7.71875 10.7188C7.90625 10.5312 8 10.2917 8 10V6H10.25C10.5625 5.97917 10.7917 5.82292 10.9375 5.53125C11.0625 5.23958 11.0104 4.96875 10.7812 4.71875L6.53125 0.21875C6.38542 0.0729167 6.20833 0 6 0C5.79167 0 5.61458 0.0729167 5.46875 0.21875L1.21875 4.71875C0.989583 4.96875 0.9375 5.23958 1.0625 5.53125C1.20833 5.82292 1.4375 5.97917 1.75 6Z" fill="white"/>
</svg>
