<svg width="23" height="23" viewBox="0 0 23 23" fill="none" xmlns="http://www.w3.org/2000/svg">
<path d="M22.4844 19.8281L17.3711 14.6719C18.5742 12.8958 19.0469 10.819 18.7891 8.44141C18.474 6.4362 17.6146 4.74609 16.2109 3.37109C14.8073 1.96745 13.1029 1.1224 11.0977 0.835938C9.12109 0.606771 7.33073 0.921875 5.72656 1.78125C4.15104 2.66927 2.91927 3.90104 2.03125 5.47656C1.17188 7.08073 0.856771 8.87109 1.08594 10.8477C1.3724 12.8529 2.21745 14.5573 3.62109 15.9609C4.99609 17.3932 6.6862 18.2526 8.69141 18.5391C11.069 18.7969 13.1458 18.3242 14.9219 17.1211L20.0781 22.2344C20.4219 22.5781 20.8229 22.75 21.2812 22.75C21.7396 22.75 22.1406 22.5781 22.4844 22.2344C22.8281 21.8906 23 21.4896 23 21.0312C23 20.5729 22.8281 20.1719 22.4844 19.8281ZM4.39453 9.6875C4.42318 8.14062 4.96745 6.85156 6.02734 5.82031C7.05859 4.76042 8.34766 4.21615 9.89453 4.1875C11.4414 4.21615 12.7448 4.76042 13.8047 5.82031C14.8359 6.85156 15.3659 8.14062 15.3945 9.6875C15.3659 11.2344 14.8359 12.5234 13.8047 13.5547C12.7448 14.6146 11.4414 15.1589 9.89453 15.1875C8.34766 15.1589 7.05859 14.6146 6.02734 13.5547C4.96745 12.5234 4.42318 11.2344 4.39453 9.6875Z" fill="#ffffff"/>
</svg>
