<svg width="25" height="21" viewBox="0 0 25 21" fill="none" xmlns="http://www.w3.org/2000/svg">
<path d="M23.125 0.5L14.375 0.5C13.8542 0.526042 13.4115 0.708333 13.0469 1.04688C12.7083 1.41146 12.526 1.85417 12.5 2.375V6.63281L15 8.89844V8.625C15.026 8.23438 15.2344 8.02604 15.625 8L16.875 8C17.2656 8.02604 17.474 8.23438 17.5 8.625V9.875C17.474 10.2656 17.2656 10.474 16.875 10.5L16.0937 10.5C16.1979 10.8125 16.25 11.138 16.25 11.4766V11.75H16.875C17.2656 11.776 17.474 11.9844 17.5 12.375V13.625C17.474 14.0156 17.2656 14.224 16.875 14.25H16.25V19.1328C16.25 19.6536 16.1198 20.1094 15.8594 20.5H23.75C24.1146 20.5 24.4141 20.3828 24.6484 20.1484C24.8828 19.9141 25 19.6146 25 19.25L25 2.375C24.974 1.85417 24.7917 1.41146 24.4531 1.04688C24.0885 0.708333 23.6458 0.526042 23.125 0.5ZM17.5 6.125C17.474 6.51563 17.2656 6.72396 16.875 6.75L15.625 6.75C15.2344 6.72396 15.026 6.51563 15 6.125V4.875C15.026 4.48438 15.2344 4.27604 15.625 4.25L16.875 4.25C17.2656 4.27604 17.474 4.48438 17.5 4.875L17.5 6.125ZM22.5 13.625C22.474 14.0156 22.2656 14.224 21.875 14.25H20.625C20.2344 14.224 20.026 14.0156 20 13.625V12.375C20.026 11.9844 20.2344 11.776 20.625 11.75H21.875C22.2656 11.776 22.474 11.9844 22.5 12.375V13.625ZM22.5 9.875C22.474 10.2656 22.2656 10.474 21.875 10.5H20.625C20.2344 10.474 20.026 10.2656 20 9.875V8.625C20.026 8.23438 20.2344 8.02604 20.625 8H21.875C22.2656 8.02604 22.474 8.23438 22.5 8.625V9.875ZM22.5 6.125C22.474 6.51563 22.2656 6.72396 21.875 6.75H20.625C20.2344 6.72396 20.026 6.51563 20 6.125L20 4.875C20.026 4.48438 20.2344 4.27604 20.625 4.25H21.875C22.2656 4.27604 22.474 4.48438 22.5 4.875L22.5 6.125ZM8.4375 4.60156C8.15104 4.36719 7.83854 4.25 7.5 4.25C7.16146 4.25 6.86198 4.36719 6.60156 4.60156L0.664062 9.99219C0.221354 10.3828 0 10.8776 0 11.4766L0 19.1328C0 19.5234 0.130208 19.849 0.390625 20.1094C0.651042 20.3698 0.976562 20.5 1.36719 20.5L13.6328 20.5C14.0234 20.5 14.349 20.3698 14.6094 20.1094C14.8698 19.849 15 19.5234 15 19.1328L15 11.4766C15 10.8776 14.7786 10.3828 14.3359 9.99219L8.4375 4.60156ZM9.375 14.875C9.34896 15.2656 9.14062 15.474 8.75 15.5H6.25C5.85937 15.474 5.65104 15.2656 5.625 14.875L5.625 12.375C5.65104 11.9844 5.85937 11.776 6.25 11.75H8.75C9.14062 11.776 9.34896 11.9844 9.375 12.375V14.875Z" fill="#0047B3"/>
</svg>
