<svg width="16" height="16" viewBox="0 0 16 16" fill="none" xmlns="http://www.w3.org/2000/svg">
<path d="M8 9C8.29167 9 8.53125 8.90625 8.71875 8.71875C8.90625 8.53125 9 8.29167 9 8V1C9 0.708333 8.90625 0.46875 8.71875 0.28125C8.53125 0.09375 8.29167 0 8 0C7.70833 0 7.46875 0.09375 7.28125 0.28125C7.09375 0.46875 7 0.708333 7 1V8C7 8.29167 7.09375 8.53125 7.28125 8.71875C7.46875 8.90625 7.70833 9 8 9ZM12.625 2.09375C12.3958 1.92708 12.1458 1.85417 11.875 1.875C11.6042 1.91667 11.3854 2.04167 11.2188 2.25C11.0521 2.47917 10.9792 2.72917 11 3C11.0417 3.27083 11.1667 3.48958 11.375 3.65625C12.0625 4.19792 12.5833 4.84375 12.9375 5.59375C13.3125 6.34375 13.5 7.14583 13.5 8C13.4583 9.5625 12.9167 10.8542 11.875 11.875C10.8542 12.9167 9.5625 13.4583 8 13.5C6.4375 13.4583 5.14583 12.9167 4.125 11.875C3.08333 10.8542 2.54167 9.5625 2.5 8C2.5 7.14583 2.6875 6.34375 3.0625 5.59375C3.41667 4.84375 3.9375 4.19792 4.625 3.65625C4.83333 3.48958 4.95833 3.27083 5 3C5.02083 2.72917 4.94792 2.47917 4.78125 2.25C4.61458 2.04167 4.39583 1.91667 4.125 1.875C3.85417 1.85417 3.60417 1.92708 3.375 2.09375C2.45833 2.82292 1.75 3.69792 1.25 4.71875C0.75 5.73958 0.5 6.83333 0.5 8C0.520833 9.39583 0.864583 10.6562 1.53125 11.7812C2.19792 12.9062 3.09375 13.8021 4.21875 14.4688C5.34375 15.1354 6.60417 15.4792 8 15.5C9.39583 15.4792 10.6562 15.1354 11.7812 14.4688C12.9062 13.8021 13.8021 12.9062 14.4688 11.7812C15.1354 10.6562 15.4792 9.39583 15.5 8C15.5 6.83333 15.25 5.73958 14.75 4.71875C14.25 3.69792 13.5417 2.82292 12.625 2.09375Z" fill="#000000"/>
</svg>
