<svg width="21" height="17" viewBox="0 0 21 17" fill="none" xmlns="http://www.w3.org/2000/svg">
<path d="M15 7.625H11.625C11.0273 7.625 10.5 7.09766 10.5 6.5C10.5 5.86719 11.0273 5.375 11.625 5.375H15C15.5977 5.375 16.125 5.86719 16.125 6.5C16.125 7.09766 15.5977 7.625 15 7.625ZM19.5 16.625H11.625C11.0273 16.625 10.5 16.0977 10.5 15.5C10.5 14.8672 11.0273 14.375 11.625 14.375H19.5C20.0977 14.375 20.625 14.8672 20.625 15.5C20.625 16.0977 20.0977 16.625 19.5 16.625ZM12.75 3.125H11.625C10.9922 3.125 10.5 2.59766 10.5 2C10.5 1.36719 10.9922 0.875 11.625 0.875H12.75C13.3477 0.875 13.8398 1.36719 13.8398 2C13.8398 2.59766 13.3477 3.125 12.75 3.125ZM17.25 12.125H11.625C11.0273 12.125 10.5 11.5977 10.5 11C10.5 10.3672 11.0273 9.875 11.625 9.875H17.25C17.8477 9.875 18.375 10.3672 18.375 11C18.375 11.5977 17.8477 12.125 17.25 12.125ZM7.125 6.11328L6 4.84766V15.4648C6 16.0977 5.47266 16.625 4.875 16.625C4.24219 16.625 3.75 16.0977 3.75 15.4648V4.84766L2.58984 6.11328C2.37891 6.35938 2.0625 6.46484 1.74609 6.46484C1.5 6.46484 1.21875 6.35938 1.00781 6.18359C0.550781 5.76172 0.515625 5.05859 0.9375 4.56641L3.99609 1.19141C4.41797 0.734375 5.22656 0.734375 5.64844 1.19141L8.70703 4.56641C9.12891 5.05859 9.09375 5.76172 8.63672 6.18359C8.25 6.60547 7.54688 6.57031 7.125 6.11328Z" fill="#191919"/>
</svg>
