<svg width="47" height="40" viewBox="0 0 47 40" fill="none" xmlns="http://www.w3.org/2000/svg">
<path d="M7.05 40V21.1765H0L23.5 0L35.25 10.4118V3.52941H39.95V14.7647L47 21.1765H39.95V40H26.4375V25.8824H20.5625V40H7.05ZM10.575 36.4706H17.0375V22.3529H29.9625V36.4706H36.425V16.4118L23.5 4.64706L10.575 16.4118V36.4706ZM17.0375 22.3529H29.9625H17.0375ZM18.5062 15.8824H28.4937C28.4937 14.5882 27.9944 13.5196 26.9956 12.6765C25.9969 11.8333 24.8317 11.4118 23.5 11.4118C22.1683 11.4118 21.0031 11.8333 20.0044 12.6765C19.0056 13.5196 18.5062 14.5882 18.5062 15.8824Z" fill="#004DB8"/>
</svg>
