<svg width="51" height="52" viewBox="0 0 51 52" fill="none" xmlns="http://www.w3.org/2000/svg">
<path d="M4.91406 46.7943H14.7454V38.6016H4.91406V46.7943ZM6.55262 40.2401H13.1068V45.1558H6.55262V40.2401Z" fill="#004DB8"/>
<path d="M18.0234 38.6016V46.7943H27.8548V38.6016H18.0234ZM26.2162 45.1558H19.662V40.2401H26.2162V45.1558Z" fill="#004DB8"/>
<path d="M11.4683 18.1194V9.92658C11.4683 9.27472 11.2093 8.64956 10.7484 8.18863C10.2875 7.7277 9.66231 7.46875 9.01045 7.46875H7.37189C6.72004 7.46875 6.09488 7.7277 5.63394 8.18863C5.17301 8.64956 4.91406 9.27472 4.91406 9.92658V18.1194C4.91406 18.7712 5.17301 19.3964 5.63394 19.8573C6.09488 20.3182 6.72004 20.5772 7.37189 20.5772H9.01045C9.66231 20.5772 10.2875 20.3182 10.7484 19.8573C11.2093 19.3964 11.4683 18.7712 11.4683 18.1194V18.1194ZM6.55262 18.1194V9.92658C6.55262 9.7093 6.63893 9.50091 6.79258 9.34727C6.94622 9.19362 7.15461 9.1073 7.37189 9.1073H9.01045C9.22773 9.1073 9.43612 9.19362 9.58976 9.34727C9.74341 9.50091 9.82973 9.7093 9.82973 9.92658V18.1194C9.82973 18.3366 9.74341 18.545 9.58976 18.6987C9.43612 18.8523 9.22773 18.9386 9.01045 18.9386H7.37189C7.15461 18.9386 6.94622 18.8523 6.79258 18.6987C6.63893 18.545 6.55262 18.3366 6.55262 18.1194Z" fill="#004DB8"/>
<path d="M40.883 21.1338C40.4388 20.7855 39.8907 20.5962 39.3263 20.5962C38.7619 20.5962 38.2138 20.7855 37.7697 21.1338L36.4445 22.2153H22.8701C22.9128 21.9442 22.936 21.6704 22.9398 21.396V18.1189H33.2094L34.8193 15.7041L36.4292 18.1189H38.1251L39.7349 15.7041L41.3448 18.1189H43.0407L44.6506 15.7041L46.2605 18.1189H47.9277L51 14.0225L47.9277 9.92611H22.9398V6.649C22.9379 5.12858 22.333 3.67098 21.2579 2.59588C20.1828 1.52078 18.7252 0.915959 17.2048 0.914062L5.73494 0.914063C4.21452 0.915959 2.75692 1.52078 1.68182 2.59588C0.606721 3.67098 0.00189697 5.12858 0 6.649V21.396C0.00243508 22.4805 0.313034 23.5419 0.895599 24.4567C1.47816 25.3714 2.3087 26.1017 3.29042 26.5626L0 29.1955V35.3237H1.63855V51.7092H49.1566V32.7102C49.5692 32.5687 49.9362 32.3191 50.2194 31.9874C50.5027 31.6557 50.6917 31.2541 50.7668 30.8244C50.8419 30.3948 50.8003 29.9529 50.6465 29.5448C50.4926 29.1367 50.232 28.7773 49.8919 28.5042L40.883 21.1338ZM38.8133 22.3986C38.9611 22.2826 39.1436 22.2196 39.3314 22.2196C39.5193 22.2196 39.7018 22.2826 39.8496 22.3986L48.8617 29.7721C48.9451 29.8401 49.0143 29.9239 49.0653 30.0187C49.1163 30.1135 49.1482 30.2174 49.159 30.3244C49.1698 30.4315 49.1595 30.5397 49.1285 30.6428C49.0975 30.7459 49.0465 30.8418 48.9784 30.9252C48.8379 31.0888 48.6399 31.1923 48.4254 31.2142C48.2108 31.2361 47.996 31.1748 47.8253 31.043L39.3253 24.0935L30.8345 31.0409C30.6637 31.1734 30.4485 31.2353 30.2333 31.2138C30.0182 31.1922 29.8195 31.0889 29.6783 30.9252C29.5414 30.757 29.4769 30.5413 29.4988 30.3255C29.5207 30.1098 29.6272 29.9115 29.7951 29.7741L38.8133 22.3986ZM28.7566 28.5063C28.2528 28.919 27.9333 29.5148 27.8684 30.1628C27.8035 30.8109 27.9985 31.4582 28.4105 31.9626C28.6949 32.3045 29.0707 32.5584 29.494 32.6948V33.6851H1.63855V30.408H26.2169V28.7695H3.15524L9.29982 23.8538H34.4424L28.7566 28.5063ZM31.1325 16.4803H22.9398V14.8418H30.3133C30.5305 14.8418 30.7389 14.9281 30.8926 15.0817C31.0462 15.2354 31.1325 15.4438 31.1325 15.6611V16.4803ZM47.1084 11.5647L48.9518 14.0225L47.1238 16.4609L45.4986 14.0225H43.8027L42.1928 16.4373L40.5829 14.0225H38.887L37.2771 16.4373L35.6672 14.0225H33.9713L32.7711 15.8229V15.6611C32.7711 15.0092 32.5121 14.384 32.0512 13.9231C31.5903 13.4622 30.9651 13.2032 30.3133 13.2032H22.9398V11.5647H47.1084ZM1.63855 21.396V6.649C1.63855 5.56257 2.07014 4.52064 2.83836 3.75242C3.60658 2.9842 4.64851 2.55262 5.73494 2.55262H17.2048C18.2912 2.55262 19.3332 2.9842 20.1014 3.75242C20.8696 4.52064 21.3012 5.56257 21.3012 6.649V21.396C21.2991 21.6715 21.2685 21.946 21.2101 22.2153H8.72428L4.78355 25.3674C3.88876 25.1562 3.09145 24.6492 2.52068 23.9284C1.94991 23.2077 1.6391 22.3154 1.63855 21.396V21.396ZM3.27711 35.3237H29.494V50.0707H3.27711V35.3237ZM44.241 50.0707H42.6024V40.2394H36.0482V50.0707H34.4096V41.8779C34.4096 40.5742 34.9275 39.3239 35.8494 38.402C36.7713 37.4802 38.0216 36.9623 39.3253 36.9623C40.629 36.9623 41.8793 37.4802 42.8012 38.402C43.7231 39.3239 44.241 40.5742 44.241 41.8779V50.0707ZM40.9639 50.0707H37.6867V41.8779H40.9639V50.0707ZM45.8795 50.0707V41.8779C45.8795 40.1396 45.189 38.4725 43.9598 37.2434C42.7307 36.0142 41.0636 35.3237 39.3253 35.3237C37.587 35.3237 35.9199 36.0142 34.6908 37.2434C33.4616 38.4725 32.7711 40.1396 32.7711 41.8779V50.0707H31.1325V32.702C31.3994 32.6174 31.6486 32.4848 31.8678 32.3108L39.3253 26.2092L46.7828 32.3098C47.003 32.4868 47.2516 32.6253 47.5181 32.7194V50.0707H45.8795Z" fill="#004DB8"/>
</svg>
