<svg width="48" height="48" viewBox="0 0 48 48" fill="none" xmlns="http://www.w3.org/2000/svg">
<path d="M6.60156 42C5.80156 42 5.10156 41.7 4.50156 41.1C3.90156 40.5 3.60156 39.8 3.60156 39V9C3.60156 8.2 3.90156 7.5 4.50156 6.9C5.10156 6.3 5.80156 6 6.60156 6H41.4016C42.2016 6 42.9016 6.3 43.5016 6.9C44.1016 7.5 44.4016 8.2 44.4016 9V39C44.4016 39.8 44.1016 40.5 43.5016 41.1C42.9016 41.7 42.2016 42 41.4016 42H6.60156ZM6.60156 39H41.4016V9H6.60156V39ZM10.0016 34H20.0016V30H10.0016V34ZM29.1016 30L39.0016 20.1L36.1516 17.25L29.1016 24.35L26.2516 21.5L23.4516 24.35L29.1016 30ZM10.0016 26H20.0016V22H10.0016V26ZM10.0016 18H20.0016V14H10.0016V18ZM6.60156 39V9V39Z" fill="#004DB8"/>
</svg>
