<svg width="18" height="21" viewBox="0 0 18 21" fill="none" xmlns="http://www.w3.org/2000/svg">
<path d="M16.0312 10.6172C16.3177 10.6172 16.5651 10.7214 16.7734 10.9297C16.9818 11.112 17.099 11.3724 17.125 11.7109C17.125 11.9974 17.0208 12.2448 16.8125 12.4531L10.5625 18.7031C9.36458 19.875 7.90625 20.474 6.1875 20.5C4.46875 20.4479 3.03646 19.849 1.89062 18.7031C0.744792 17.5573 0.145833 16.099 0.09375 14.3281C0.119792 12.6354 0.71875 11.1901 1.89062 9.99219L10.1328 1.75C11.0443 0.916667 12.112 0.5 13.3359 0.5C14.8203 0.552083 15.9531 1.03385 16.7344 1.94531C17.5156 2.85677 17.9062 3.88542 17.9062 5.03125C17.8802 6.28125 17.4375 7.34896 16.5781 8.23438L9 15.8125C8.40104 16.3594 7.69792 16.6328 6.89062 16.6328C5.74479 16.5807 4.95052 16.2031 4.50781 15.5C4.09115 14.7969 3.89583 14.1979 3.92188 13.7031C3.92188 12.8958 4.20833 12.1927 4.78125 11.5938L10.3672 6.00781C10.5755 5.79948 10.8229 5.69531 11.1094 5.69531C11.3958 5.69531 11.6562 5.79948 11.8906 6.00781C12.099 6.21615 12.2031 6.47656 12.2031 6.78906C12.2031 7.07552 12.099 7.33594 11.8906 7.57031L6.34375 13.1172C6.1875 13.2995 6.10938 13.4948 6.10938 13.7031C6.16146 14.1979 6.42188 14.4583 6.89062 14.4844C7.09896 14.4844 7.29427 14.4062 7.47656 14.25L15.0156 6.67188C15.4844 6.22917 15.7188 5.68229 15.7188 5.03125C15.7188 4.43229 15.5104 3.89844 15.0938 3.42969C14.7031 2.96094 14.1172 2.71354 13.3359 2.6875C12.7109 2.6875 12.151 2.90885 11.6562 3.35156L3.45312 11.5938C2.69792 12.375 2.30729 13.2865 2.28125 14.3281C2.28125 15.2917 2.61979 16.1771 3.29688 16.9844C3.97396 17.7656 4.95052 18.1823 6.22656 18.2344C7.29427 18.2344 8.21875 17.8568 9 17.1016L15.25 10.8906C15.4583 10.7083 15.7188 10.6172 16.0312 10.6172Z" fill="black"/>
</svg>
