<svg width="16" height="16" viewBox="0 0 16 16" fill="none" xmlns="http://www.w3.org/2000/svg">
<path d="M9 1V1.59375C10.1667 1.84375 11.1146 2.41667 11.8438 3.3125C12.5938 4.20833 12.9792 5.27083 13 6.5V7.09375C13.0208 8.61458 13.5312 9.9375 14.5312 11.0625L14.75 11.3438C15.0208 11.6562 15.0729 12.0104 14.9062 12.4062C14.7188 12.7812 14.4167 12.9792 14 13H2C1.58333 12.9792 1.28125 12.7812 1.09375 12.4062C0.927083 12.0104 0.979167 11.6562 1.25 11.3438L1.5 11.0625C2.47917 9.9375 2.97917 8.61458 3 7.09375V6.5C3.02083 5.27083 3.39583 4.20833 4.125 3.3125C4.875 2.41667 5.83333 1.84375 7 1.59375V1C7 0.708333 7.09375 0.46875 7.28125 0.28125C7.46875 0.09375 7.70833 0 8 0C8.29167 0 8.53125 0.09375 8.71875 0.28125C8.90625 0.46875 9 0.708333 9 1ZM8 16C7.45833 16 6.98958 15.8021 6.59375 15.4062C6.19792 15.0104 6 14.5417 6 14H10C10 14.5417 9.80208 15.0104 9.40625 15.4062C9.01042 15.8021 8.54167 16 8 16Z" fill="black"/>
</svg>
