<svg width="15" height="15" viewBox="0 0 15 15" fill="none" xmlns="http://www.w3.org/2000/svg">
<path d="M7.08984 10.0469C6.78906 10.3477 6.32422 10.3477 6.02344 10.0469L4.27344 8.29688C3.97266 7.99609 3.97266 7.53125 4.27344 7.23047C4.57422 6.92969 5.03906 6.92969 5.33984 7.23047L6.57031 8.43359L9.52344 5.48047C9.82422 5.17969 10.2891 5.17969 10.5898 5.48047C10.8906 5.78125 10.8906 6.24609 10.5898 6.54688L7.08984 10.0469ZM14.4453 7.75C14.4453 11.6328 11.3008 14.75 7.44531 14.75C3.5625 14.75 0.445312 11.6328 0.445312 7.75C0.445312 3.89453 3.5625 0.75 7.44531 0.75C11.3008 0.75 14.4453 3.89453 14.4453 7.75ZM7.44531 2.0625C4.30078 2.0625 1.75781 4.63281 1.75781 7.75C1.75781 10.8945 4.30078 13.4375 7.44531 13.4375C10.5625 13.4375 13.1328 10.8945 13.1328 7.75C13.1328 4.63281 10.5625 2.0625 7.44531 2.0625Z" fill="#004CB7"/>
</svg>
