<svg width="15" height="16" viewBox="0 0 15 16" fill="none" xmlns="http://www.w3.org/2000/svg">
<path d="M5.36226 1V2H9.36226V1C9.36226 0.708333 9.45601 0.46875 9.64351 0.28125C9.83101 0.09375 10.0706 0 10.3623 0C10.6539 0 10.8935 0.09375 11.081 0.28125C11.2685 0.46875 11.3623 0.708333 11.3623 1V2H12.8623C13.2789 2.02083 13.6331 2.16667 13.9248 2.4375C14.1956 2.72917 14.3414 3.08333 14.3623 3.5V5H0.362259V3.5C0.383092 3.08333 0.528926 2.72917 0.799759 2.4375C1.09143 2.16667 1.44559 2.02083 1.86226 2H3.36226V1C3.36226 0.708333 3.45601 0.46875 3.64351 0.28125C3.83101 0.09375 4.07059 0 4.36226 0C4.65393 0 4.89351 0.09375 5.08101 0.28125C5.26851 0.46875 5.36226 0.708333 5.36226 1ZM0.362259 6H14.3623V14.5C14.3414 14.9167 14.1956 15.2708 13.9248 15.5625C13.6331 15.8333 13.2789 15.9792 12.8623 16H1.86226C1.44559 15.9792 1.09143 15.8333 0.799759 15.5625C0.528926 15.2708 0.383092 14.9167 0.362259 14.5V6ZM2.36226 9.5C2.38309 9.8125 2.54976 9.97917 2.86226 10H3.86226C4.17476 9.97917 4.34143 9.8125 4.36226 9.5V8.5C4.34143 8.1875 4.17476 8.02083 3.86226 8H2.86226C2.54976 8.02083 2.38309 8.1875 2.36226 8.5V9.5ZM6.36226 9.5C6.38309 9.8125 6.54976 9.97917 6.86226 10H7.86226C8.17476 9.97917 8.34143 9.8125 8.36226 9.5V8.5C8.34143 8.1875 8.17476 8.02083 7.86226 8H6.86226C6.54976 8.02083 6.38309 8.1875 6.36226 8.5V9.5ZM10.8623 8C10.5498 8.02083 10.3831 8.1875 10.3623 8.5V9.5C10.3831 9.8125 10.5498 9.97917 10.8623 10H11.8623C12.1748 9.97917 12.3414 9.8125 12.3623 9.5V8.5C12.3414 8.1875 12.1748 8.02083 11.8623 8H10.8623ZM2.36226 13.5C2.38309 13.8125 2.54976 13.9792 2.86226 14H3.86226C4.17476 13.9792 4.34143 13.8125 4.36226 13.5V12.5C4.34143 12.1875 4.17476 12.0208 3.86226 12H2.86226C2.54976 12.0208 2.38309 12.1875 2.36226 12.5V13.5ZM6.86226 12C6.54976 12.0208 6.38309 12.1875 6.36226 12.5V13.5C6.38309 13.8125 6.54976 13.9792 6.86226 14H7.86226C8.17476 13.9792 8.34143 13.8125 8.36226 13.5V12.5C8.34143 12.1875 8.17476 12.0208 7.86226 12H6.86226ZM10.3623 13.5C10.3831 13.8125 10.5498 13.9792 10.8623 14H11.8623C12.1748 13.9792 12.3414 13.8125 12.3623 13.5V12.5C12.3414 12.1875 12.1748 12.0208 11.8623 12H10.8623C10.5498 12.0208 10.3831 12.1875 10.3623 12.5V13.5Z" fill="black"/>
</svg>
