<svg xmlns="http://www.w3.org/2000/svg" width="21.423" height="17.801" viewBox="0 0 21.423 17.801">
  <g id="Icon_feather-camera" data-name="Icon feather-camera" transform="translate(-0.75 -3.75)">
    <path id="Path_4768" data-name="Path 4768" d="M21.423,18.99A1.811,1.811,0,0,1,19.612,20.8H3.311A1.811,1.811,0,0,1,1.5,18.99V9.028A1.811,1.811,0,0,1,3.311,7.217H6.934L8.745,4.5h5.434L15.99,7.217h3.622a1.811,1.811,0,0,1,1.811,1.811Z" fill="none" stroke="#1a253a" stroke-linecap="round" stroke-linejoin="round" stroke-width="1.5"/>
    <path id="Path_4769" data-name="Path 4769" d="M19.245,17.122A3.622,3.622,0,1,1,15.622,13.5,3.622,3.622,0,0,1,19.245,17.122Z" transform="translate(-4.161 -3.566)" fill="none" stroke="#1a253a" stroke-linecap="round" stroke-linejoin="round" stroke-width="1.5"/>
  </g>
</svg>
