<svg width="25" height="26" viewBox="0 0 25 26" fill="none" xmlns="http://www.w3.org/2000/svg">
<path d="M18.142 8.972C18.2354 8.87867 18.282 8.776 18.282 8.664C18.282 8.53333 18.2354 8.43067 18.142 8.356L17.218 7.404C17.1434 7.31067 17.0407 7.264 16.91 7.264C16.798 7.264 16.6954 7.31067 16.602 7.404L12.766 11.324C12.6914 11.3987 12.5887 11.436 12.458 11.436C12.346 11.436 12.2434 11.3987 12.15 11.324L8.31404 7.404C8.23937 7.31067 8.1367 7.264 8.00604 7.264C7.89403 7.264 7.79137 7.31067 7.69803 7.404L6.77404 8.384C6.69937 8.45867 6.66203 8.56133 6.66203 8.692C6.66203 8.804 6.69937 8.90667 6.77404 9L10.61 12.892C10.7034 12.9667 10.75 13.0693 10.75 13.2C10.75 13.312 10.7034 13.4147 10.61 13.508L9.32203 14.824C8.18337 15.9813 7.33404 16.8493 6.77404 17.428C6.69937 17.5027 6.66203 17.6053 6.66203 17.736C6.66203 17.848 6.69937 17.9507 6.77404 18.044L7.69803 18.996C7.79137 19.0707 7.89403 19.108 8.00604 19.108C8.1367 19.108 8.23937 19.0707 8.31404 18.996L12.15 15.104C12.2434 15.0107 12.346 14.964 12.458 14.964C12.5887 14.964 12.6914 15.0107 12.766 15.104C13.606 15.944 14.8567 17.2133 16.518 18.912L16.602 18.996C16.6954 19.0707 16.798 19.108 16.91 19.108C17.0407 19.108 17.1434 19.0707 17.218 18.996C17.4234 18.772 17.7314 18.4547 18.142 18.044C18.2354 17.9507 18.282 17.848 18.282 17.736C18.282 17.6053 18.2354 17.5027 18.142 17.428L14.334 13.508C14.2594 13.4147 14.222 13.312 14.222 13.2C14.222 13.0693 14.2594 12.9667 14.334 12.892L18.142 8.972ZM12.458 0.935999C10.2367 0.935999 8.17403 1.496 6.27003 2.616C4.42203 3.69867 2.96603 5.164 1.90203 7.012C0.782035 8.916 0.222035 10.9787 0.222035 13.2C0.222035 15.4213 0.782035 17.484 1.90203 19.388C2.96603 21.236 4.42203 22.7013 6.27003 23.784C8.17403 24.904 10.2367 25.464 12.458 25.464C14.6794 25.464 16.742 24.904 18.646 23.784C20.494 22.7013 21.9594 21.236 23.042 19.388C24.162 17.484 24.722 15.4213 24.722 13.2C24.722 10.9787 24.162 8.916 23.042 7.012C21.9594 5.164 20.494 3.69867 18.646 2.616C16.742 1.496 14.6794 0.935999 12.458 0.935999ZM12.458 23.532C10.5914 23.532 8.85537 23.056 7.25003 22.104C5.7007 21.1893 4.4687 19.9573 3.55403 18.408C2.60203 16.8027 2.12603 15.0667 2.12603 13.2C2.12603 11.3333 2.60203 9.59733 3.55403 7.992C4.4687 6.44267 5.7007 5.21067 7.25003 4.296C8.85537 3.344 10.5914 2.868 12.458 2.868C14.3247 2.868 16.0607 3.33467 17.666 4.268C19.2154 5.18267 20.4474 6.424 21.362 7.992C22.314 9.59733 22.79 11.3333 22.79 13.2C22.79 15.0667 22.3234 16.8027 21.39 18.408C20.4754 19.976 19.234 21.2173 17.666 22.132C16.0607 23.0653 14.3247 23.532 12.458 23.532Z" fill="white"/>
</svg>
