<svg width="25" height="20" viewBox="0 0 25 20" fill="none" xmlns="http://www.w3.org/2000/svg">
<path d="M22.125 0.125H2.875C2.10156 0.153646 1.45703 0.425781 0.941406 0.941406C0.425781 1.45703 0.153646 2.10156 0.125 2.875V16.625C0.153646 17.3984 0.425781 18.043 0.941406 18.5586C1.45703 19.0742 2.10156 19.3464 2.875 19.375H22.125C22.8984 19.3464 23.543 19.0742 24.0586 18.5586C24.5742 18.043 24.8464 17.3984 24.875 16.625V2.875C24.8464 2.10156 24.5742 1.45703 24.0586 0.941406C23.543 0.425781 22.8984 0.153646 22.125 0.125ZM7.6875 4.25C8.46094 4.27865 9.10547 4.55078 9.62109 5.06641C10.1367 5.58203 10.4089 6.22656 10.4375 7C10.4089 7.77344 10.1367 8.41797 9.62109 8.93359C9.10547 9.44922 8.46094 9.72135 7.6875 9.75C6.91406 9.72135 6.26953 9.44922 5.75391 8.93359C5.23828 8.41797 4.96615 7.77344 4.9375 7C4.96615 6.22656 5.23828 5.58203 5.75391 5.06641C6.26953 4.55078 6.91406 4.27865 7.6875 4.25ZM11.8125 15.25H3.5625C3.13281 15.2214 2.90365 14.9922 2.875 14.5625C2.90365 13.5885 3.23307 12.7721 3.86328 12.1133C4.52214 11.4831 5.33854 11.1536 6.3125 11.125H9.0625C10.0365 11.1536 10.8529 11.4831 11.5117 12.1133C12.1419 12.7721 12.4714 13.5885 12.5 14.5625C12.4714 14.9922 12.2422 15.2214 11.8125 15.25ZM21.4375 12.5H15.9375C15.5078 12.4714 15.2786 12.2422 15.25 11.8125C15.2786 11.3828 15.5078 11.1536 15.9375 11.125H21.4375C21.8672 11.1536 22.0964 11.3828 22.125 11.8125C22.0964 12.2422 21.8672 12.4714 21.4375 12.5ZM21.4375 9.75H15.9375C15.5078 9.72135 15.2786 9.49219 15.25 9.0625C15.2786 8.63281 15.5078 8.40365 15.9375 8.375H21.4375C21.8672 8.40365 22.0964 8.63281 22.125 9.0625C22.0964 9.49219 21.8672 9.72135 21.4375 9.75ZM21.4375 7H15.9375C15.5078 6.97135 15.2786 6.74219 15.25 6.3125C15.2786 5.88281 15.5078 5.65365 15.9375 5.625H21.4375C21.8672 5.65365 22.0964 5.88281 22.125 6.3125C22.0964 6.74219 21.8672 6.97135 21.4375 7Z" fill="#191919"/>
</svg>
