<svg width="20" height="15" viewBox="0 0 20 15" fill="none" xmlns="http://www.w3.org/2000/svg">
<path d="M10 11.25C9.34896 11.25 8.73698 11.0417 8.16406 10.625L0 4.25781V13.125C0.0260417 13.6458 0.208333 14.0885 0.546875 14.4531C0.911458 14.7917 1.35417 14.974 1.875 15H18.125C18.6458 14.974 19.0885 14.7917 19.4531 14.4531C19.7917 14.0885 19.974 13.6458 20 13.125V4.25781L11.8359 10.625C11.263 11.0417 10.651 11.25 10 11.25ZM0.625 3.16406L8.90625 9.60938C9.24479 9.86979 9.60938 10 10 10C10.3906 10 10.7552 9.86979 11.0938 9.60938L19.375 3.16406C19.7656 2.82552 19.974 2.39583 20 1.875C19.974 1.35417 19.7917 0.911458 19.4531 0.546875C19.0885 0.208333 18.6458 0.0260417 18.125 0H1.875C1.35417 0.0260417 0.911458 0.208333 0.546875 0.546875C0.208333 0.911458 0.0260417 1.35417 0 1.875C0 2.39583 0.208333 2.82552 0.625 3.16406Z" fill="#505050"/>
</svg>
