<svg width="18" height="15" viewBox="0 0 18 15" fill="none" xmlns="http://www.w3.org/2000/svg">
<path d="M15.75 8.46875L9.71875 14.6875C9.51042 14.8958 9.27083 15 9 15C8.72917 15 8.48958 14.8958 8.28125 14.6875L2.25 8.46875C1.375 7.51042 0.958333 6.40625 1 5.15625C1.04167 3.92708 1.55208 2.86458 2.53125 1.96875C3.42708 1.23958 4.41667 0.916667 5.5 1C6.60417 1.10417 7.5625 1.5625 8.375 2.375L9 3L9.625 2.375C10.4375 1.5625 11.3854 1.10417 12.4688 1C13.5729 0.916667 14.5729 1.23958 15.4688 1.96875C16.4479 2.86458 16.9583 3.92708 17 5.15625C17.0417 6.38542 16.625 7.48958 15.75 8.46875Z" fill="black"/>
</svg>
