<svg width="23" height="19" viewBox="0 0 23 19" fill="none" xmlns="http://www.w3.org/2000/svg">
<path d="M11 3.72C11.384 3.048 11.864 2.472 12.44 1.992C13.144 1.416 13.952 1.048 14.864 0.887999C15.792 0.711999 16.704 0.759999 17.6 1.032C18.496 1.288 19.264 1.744 19.904 2.4C21.408 3.952 21.848 5.808 21.224 7.968C20.84 9.36 20.04 10.8 18.824 12.288C17.288 14.128 15.248 15.848 12.704 17.448C12.224 17.752 11.712 18.056 11.168 18.36C11.136 18.392 11.088 18.408 11.024 18.408C10.96 18.408 10.912 18.4 10.88 18.384C7.936 16.704 5.568 14.888 3.776 12.936C2.432 11.512 1.48 10.008 0.92 8.424C0.376 6.84 0.384 5.4 0.944 4.104C1.36 3.192 1.92 2.464 2.624 1.92C3.344 1.36 4.2 1.008 5.192 0.863999C7.704 0.527999 9.624 1.456 10.952 3.648L11 3.72Z" fill="#FF3F3F"/>
</svg>
