<svg width="20" height="16" viewBox="0 0 20 16" fill="none" xmlns="http://www.w3.org/2000/svg">
<mask id="path-1-outside-1_2629_612" maskUnits="userSpaceOnUse" x="0" y="-1" width="20" height="18" fill="black">
<rect fill="white" y="-1" width="20" height="18"/>
<path d="M10 3.1C10.32 2.54 10.72 2.06 11.2 1.66C11.7867 1.18 12.46 0.873333 13.22 0.739999C13.9933 0.593332 14.7533 0.633333 15.5 0.86C16.2467 1.07333 16.8867 1.45333 17.42 2C18.6733 3.29333 19.04 4.84 18.52 6.64C18.2 7.8 17.5333 9 16.52 10.24C15.24 11.7733 13.54 13.2067 11.42 14.54C11.02 14.7933 10.5933 15.0467 10.14 15.3C10.1133 15.3267 10.0733 15.34 10.02 15.34C9.96667 15.34 9.92667 15.3333 9.9 15.32C7.44667 13.92 5.47333 12.4067 3.98 10.78C2.86 9.59333 2.06667 8.34 1.6 7.02C1.14667 5.7 1.15333 4.5 1.62 3.42C1.96667 2.66 2.43333 2.05333 3.02 1.6C3.62 1.13333 4.33333 0.839999 5.16 0.719999C7.25333 0.44 8.85333 1.21333 9.96 3.04L10 3.1Z"/>
</mask>
<path d="M10 3.1C10.32 2.54 10.72 2.06 11.2 1.66C11.7867 1.18 12.46 0.873333 13.22 0.739999C13.9933 0.593332 14.7533 0.633333 15.5 0.86C16.2467 1.07333 16.8867 1.45333 17.42 2C18.6733 3.29333 19.04 4.84 18.52 6.64C18.2 7.8 17.5333 9 16.52 10.24C15.24 11.7733 13.54 13.2067 11.42 14.54C11.02 14.7933 10.5933 15.0467 10.14 15.3C10.1133 15.3267 10.0733 15.34 10.02 15.34C9.96667 15.34 9.92667 15.3333 9.9 15.32C7.44667 13.92 5.47333 12.4067 3.98 10.78C2.86 9.59333 2.06667 8.34 1.6 7.02C1.14667 5.7 1.15333 4.5 1.62 3.42C1.96667 2.66 2.43333 2.05333 3.02 1.6C3.62 1.13333 4.33333 0.839999 5.16 0.719999C7.25333 0.44 8.85333 1.21333 9.96 3.04L10 3.1Z" fill="white"/>
<path d="M10 3.1L9.16794 3.65469L10.0655 5.001L10.8682 3.59614L10 3.1ZM11.2 1.66L10.5667 0.88601L10.5598 0.891778L11.2 1.66ZM13.22 0.739999L13.3928 1.72505L13.4063 1.72249L13.22 0.739999ZM15.5 0.86L15.2095 1.81688L15.2174 1.81927L15.2253 1.82152L15.5 0.86ZM17.42 2L18.1381 1.30408L18.1358 1.30168L17.42 2ZM18.52 6.64L17.5592 6.36244L17.556 6.37407L18.52 6.64ZM16.52 10.24L17.2877 10.8809L17.2943 10.8728L16.52 10.24ZM11.42 14.54L10.8876 13.6935L10.8849 13.6952L11.42 14.54ZM10.14 15.3L9.65218 14.4271L9.53103 14.4948L9.4329 14.5929L10.14 15.3ZM9.9 15.32L9.40437 16.1885L9.42822 16.2021L9.45278 16.2144L9.9 15.32ZM3.98 10.78L4.71672 10.1037L4.70724 10.0936L3.98 10.78ZM1.6 7.02L0.654183 7.34483L0.657186 7.35332L1.6 7.02ZM1.62 3.42L0.710181 3.00499L0.706014 3.01413L0.702031 3.02335L1.62 3.42ZM3.02 1.6L3.63145 2.39129L3.63394 2.38935L3.02 1.6ZM5.16 0.719999L5.02741 -0.271236L5.01634 -0.269629L5.16 0.719999ZM9.96 3.04L9.10472 3.55816L9.11594 3.57668L9.12795 3.59469L9.96 3.04ZM10.8682 3.59614C11.131 3.13631 11.4548 2.74939 11.8402 2.42822L10.5598 0.891778C9.98522 1.37061 9.509 1.94369 9.13176 2.60386L10.8682 3.59614ZM11.8332 2.43396C12.2846 2.06466 12.7987 1.82919 13.3928 1.72496L13.0472 -0.244958C12.1213 -0.0825241 11.2887 0.295341 10.5668 0.886041L11.8332 2.43396ZM13.4063 1.72249C14.0224 1.60564 14.6188 1.63755 15.2095 1.81688L15.7905 -0.0968808C14.8879 -0.370886 13.9642 -0.418974 13.0337 -0.242488L13.4063 1.72249ZM15.2253 1.82152C15.8075 1.98786 16.2946 2.27847 16.7042 2.69832L18.1358 1.30168C17.4787 0.628198 16.6859 0.158804 15.7747 -0.101524L15.2253 1.82152ZM16.7019 2.69591C17.6935 3.71917 17.9847 4.88984 17.5593 6.36246L19.4807 6.91754C20.0953 4.79016 19.6532 2.86749 18.1381 1.30408L16.7019 2.69591ZM17.556 6.37407C17.2831 7.36338 16.6986 8.44114 15.7457 9.60722L17.2943 10.8728C18.3681 9.55886 19.1169 8.23662 19.484 6.90593L17.556 6.37407ZM15.7523 9.59916C14.554 11.0346 12.9404 12.4024 10.8876 13.6935L11.9524 15.3865C14.1396 14.0109 15.926 12.5121 17.2877 10.8808L15.7523 9.59916ZM10.8849 13.6952C10.5018 13.9378 10.091 14.1818 9.65218 14.4271L10.6278 16.1729C11.0956 15.9115 11.5382 15.6488 11.9551 15.3848L10.8849 13.6952ZM9.4329 14.5929C9.65991 14.3659 9.91918 14.34 10.02 14.34V16.34C10.2275 16.34 10.5668 16.2875 10.8471 16.0071L9.4329 14.5929ZM10.02 14.34C10.0323 14.34 10.0662 14.3406 10.1144 14.3486C10.1599 14.3562 10.2458 14.3749 10.3472 14.4256L9.45278 16.2144C9.68841 16.3322 9.9156 16.34 10.02 16.34V14.34ZM10.3956 14.4515C8.00833 13.0891 6.1237 11.6364 4.71665 10.1037L3.24335 11.4563C4.82297 13.1769 6.88501 14.7509 9.40437 16.1885L10.3956 14.4515ZM4.70724 10.0936C3.66723 8.99171 2.95596 7.85529 2.54281 6.68668L0.657186 7.35332C1.17737 8.82471 2.05277 10.195 3.25276 11.4664L4.70724 10.0936ZM2.54578 6.69519C2.15738 5.56427 2.18799 4.6266 2.53797 3.81665L0.702031 3.02335C0.118673 4.3734 0.13595 5.83573 0.654222 7.34481L2.54578 6.69519ZM2.52982 3.835C2.81772 3.20385 3.18886 2.73328 3.63145 2.39128L2.40855 0.808714C1.67781 1.37338 1.11562 2.11615 0.710181 3.00499L2.52982 3.835ZM3.63394 2.38935C4.08393 2.03936 4.63105 1.80726 5.30366 1.70963L5.01634 -0.269629C4.03562 -0.127266 3.15607 0.227306 2.40606 0.810648L3.63394 2.38935ZM5.29258 1.71117C6.18237 1.59216 6.9021 1.70386 7.49483 1.99035C8.08838 2.27723 8.63109 2.7764 9.10472 3.55816L10.8153 2.52184C10.1822 1.47694 9.37162 0.676101 8.36517 0.18965C7.3579 -0.297195 6.23096 -0.432156 5.02742 -0.271174L5.29258 1.71117ZM9.12795 3.59469L9.16794 3.65469L10.8321 2.54531L10.7921 2.48531L9.12795 3.59469Z" fill="#FF3F3F" mask="url(#path-1-outside-1_2629_612)"/>
</svg>
