<svg width="15" height="12" viewBox="0 0 15 12" fill="none" xmlns="http://www.w3.org/2000/svg">
<path d="M0.544044 6.65478C0.413377 6.65478 0.29671 6.70611 0.194044 6.80878C0.10071 6.90211 0.0540438 7.01411 0.0540438 7.14478V8.16678C0.0540438 8.26945 0.0960438 8.37211 0.180044 8.47478C0.273377 8.59611 0.42271 8.65678 0.628044 8.65678H3.13404V6.65478H0.544044ZM13.494 6.65478H3.89004V8.65678H13.564C13.676 8.65678 13.7787 8.61945 13.872 8.54478C13.9467 8.48878 14.0074 8.39078 14.054 8.25078V7.06078C14.0447 7.06078 14.04 7.05611 14.04 7.04678C14.0027 6.90678 13.9374 6.80878 13.844 6.75278C13.76 6.68745 13.6434 6.65478 13.494 6.65478ZM13.83 0.732781C13.7647 0.695447 13.6854 0.667447 13.592 0.648781H3.89004V2.65078H13.564C13.6667 2.65078 13.7647 2.61345 13.858 2.53878C13.9327 2.49211 13.998 2.39411 14.054 2.24478V1.06878C14.0074 0.928781 13.9327 0.816781 13.83 0.732781ZM0.488044 0.662781C0.357377 0.681448 0.250044 0.737448 0.166044 0.830781C0.0913771 0.924114 0.0540438 1.04078 0.0540438 1.18078V2.13278C0.0540438 2.18878 0.0587104 2.22611 0.0680438 2.24478C0.0867104 2.35678 0.14271 2.45478 0.236044 2.53878C0.329377 2.61345 0.441377 2.65078 0.572044 2.65078H3.13404V0.648781H0.516044L0.488044 0.662781ZM0.516044 3.65878C0.385377 3.66811 0.273377 3.71945 0.180044 3.81278C0.0960438 3.90611 0.0540438 4.02278 0.0540438 4.16278V5.15678C0.0540438 5.20345 0.0587104 5.23611 0.0680438 5.25478C0.0960438 5.37611 0.15671 5.47411 0.250044 5.54878C0.343377 5.62345 0.45071 5.66078 0.572044 5.66078H3.13404V3.65878H0.516044ZM13.494 3.65878H3.89004V5.66078H13.55C13.6807 5.66078 13.788 5.62345 13.872 5.54878C13.9654 5.46478 14.026 5.36211 14.054 5.24078V4.06478C14.0447 4.06478 14.04 4.06011 14.04 4.05078C14.0027 3.91078 13.9374 3.81278 13.844 3.75678C13.76 3.69145 13.6434 3.65878 13.494 3.65878ZM0.558044 9.65078C0.418044 9.66011 0.29671 9.71145 0.194044 9.80478C0.10071 9.89811 0.0540438 10.0194 0.0540438 10.1688V11.1488C0.0540438 11.2701 0.10071 11.3821 0.194044 11.4848C0.287377 11.5968 0.432044 11.6528 0.628044 11.6528H3.13404V9.65078H0.558044ZM13.438 9.65078H3.89004V11.6528H13.578C13.718 11.6528 13.8347 11.5968 13.928 11.4848C13.9747 11.4381 14.0167 11.3588 14.054 11.2468V10.0708C13.9887 9.90278 13.914 9.79078 13.83 9.73478C13.7554 9.67878 13.6247 9.65078 13.438 9.65078Z" fill="black"/>
</svg>
