<svg width="28" height="23" viewBox="0 0 28 23" fill="none" xmlns="http://www.w3.org/2000/svg">
<path d="M27.0195 7.79688C27.6641 8.18359 27.9219 9.04297 27.5352 9.6875C27.1914 10.332 26.332 10.5898 25.6875 10.2031L13.957 3.71484L2.26953 10.2031C1.625 10.5898 0.765625 10.332 0.421875 9.6875C0.0351562 9.04297 0.292969 8.18359 0.9375 7.79688L13.3125 0.964844C13.7422 0.707031 14.2148 0.707031 14.6445 0.964844L27.0195 7.79688ZM12.2383 9.34375C12.2383 8.39844 13.0117 7.625 13.957 7.625C14.9453 7.625 15.6758 8.39844 15.6758 9.34375C15.6758 10.332 14.9453 11.0625 13.957 11.0625C13.0117 11.0625 12.2383 10.332 12.2383 9.34375ZM4.67578 13.4688C4.67578 12.5234 5.44922 11.75 6.39453 11.75C7.38281 11.75 8.11328 12.5234 8.11328 13.4688C8.11328 14.457 7.38281 15.1875 6.39453 15.1875C5.44922 15.1875 4.67578 14.457 4.67578 13.4688ZM23.2383 13.4688C23.2383 14.457 22.5078 15.1875 21.5195 15.1875C20.5742 15.1875 19.8008 14.457 19.8008 13.4688C19.8008 12.5234 20.5742 11.75 21.5195 11.75C22.5078 11.75 23.2383 12.5234 23.2383 13.4688ZM9.96094 21.8906L8.80078 19.7422V21.375C8.80078 22.1484 8.19922 22.75 7.42578 22.75H5.36328C4.63281 22.75 3.98828 22.1484 3.98828 21.375V19.7422L2.87109 21.8906C2.57031 22.3633 1.96875 22.5781 1.45312 22.3203C0.9375 22.0195 0.765625 21.418 1.02344 20.9023L2.65625 17.8945C3.34375 16.6484 4.58984 15.875 6.00781 15.875H6.82422C7.55469 15.875 8.19922 16.0898 8.80078 16.4336L10.2188 13.7695C10.9062 12.5234 12.1523 11.75 13.5703 11.75H14.3867C15.8047 11.75 17.0508 12.5234 17.7383 13.7695L19.1562 16.4336C19.7578 16.0898 20.4023 15.875 21.1328 15.875H21.9492C23.3672 15.875 24.6133 16.6484 25.3008 17.8945L26.9336 20.9023C27.1914 21.418 27.0195 22.0195 26.5039 22.3203C25.9883 22.5781 25.3867 22.3633 25.0859 21.8906L23.9258 19.7422V21.375C23.9258 22.1484 23.3242 22.75 22.5508 22.75H20.4883C19.7578 22.75 19.1133 22.1484 19.1133 21.375V19.7422L17.9961 21.8906C17.6953 22.3633 17.0938 22.5781 16.5781 22.3203C16.0625 22.0195 15.8906 21.418 16.1484 20.9023L17.7383 18.0234C17.6523 17.9375 17.6094 17.8516 17.5234 17.7656L16.3633 15.6172V17.9375C16.3633 18.7109 15.7617 19.3125 14.9883 19.3125H12.9258C12.1953 19.3125 11.5508 18.7109 11.5508 17.9375V15.6172L10.4336 17.7656C10.3477 17.8516 10.3047 17.9375 10.2188 18.0234L11.8086 20.9023C12.0664 21.418 11.8945 22.0195 11.3789 22.3203C10.8633 22.5781 10.2617 22.3633 9.96094 21.8906Z" fill="#ffffff"/>
</svg>
