<svg width="22" height="17" viewBox="0 0 22 17" fill="none" xmlns="http://www.w3.org/2000/svg">
<path d="M20.4688 5.50391C20.9375 5.78516 21.125 6.41016 20.8438 6.87891C20.5938 7.34766 19.9688 7.53516 19.5 7.25391L10.9688 2.53516L2.46875 7.25391C2 7.53516 1.375 7.34766 1.125 6.87891C0.84375 6.41016 1.03125 5.78516 1.5 5.50391L10.5 0.535156C10.8125 0.347656 11.1562 0.347656 11.4688 0.535156L20.4688 5.50391ZM9.71875 6.62891C9.71875 5.94141 10.2812 5.37891 10.9688 5.37891C11.6875 5.37891 12.2188 5.94141 12.2188 6.62891C12.2188 7.34766 11.6875 7.87891 10.9688 7.87891C10.2812 7.87891 9.71875 7.34766 9.71875 6.62891ZM4.21875 9.62891C4.21875 8.94141 4.78125 8.37891 5.46875 8.37891C6.1875 8.37891 6.71875 8.94141 6.71875 9.62891C6.71875 10.3477 6.1875 10.8789 5.46875 10.8789C4.78125 10.8789 4.21875 10.3477 4.21875 9.62891ZM17.7188 9.62891C17.7188 10.3477 17.1875 10.8789 16.4688 10.8789C15.7812 10.8789 15.2188 10.3477 15.2188 9.62891C15.2188 8.94141 15.7812 8.37891 16.4688 8.37891C17.1875 8.37891 17.7188 8.94141 17.7188 9.62891ZM8.0625 15.7539L7.21875 14.1914V15.3789C7.21875 15.9414 6.78125 16.3789 6.21875 16.3789H4.71875C4.1875 16.3789 3.71875 15.9414 3.71875 15.3789V14.1914L2.90625 15.7539C2.6875 16.0977 2.25 16.2539 1.875 16.0664C1.5 15.8477 1.375 15.4102 1.5625 15.0352L2.75 12.8477C3.25 11.9414 4.15625 11.3789 5.1875 11.3789H5.78125C6.3125 11.3789 6.78125 11.5352 7.21875 11.7852L8.25 9.84766C8.75 8.94141 9.65625 8.37891 10.6875 8.37891H11.2812C12.3125 8.37891 13.2188 8.94141 13.7188 9.84766L14.75 11.7852C15.1875 11.5352 15.6562 11.3789 16.1875 11.3789H16.7812C17.8125 11.3789 18.7188 11.9414 19.2188 12.8477L20.4062 15.0352C20.5938 15.4102 20.4688 15.8477 20.0938 16.0664C19.7188 16.2539 19.2812 16.0977 19.0625 15.7539L18.2188 14.1914V15.3789C18.2188 15.9414 17.7812 16.3789 17.2188 16.3789H15.7188C15.1875 16.3789 14.7188 15.9414 14.7188 15.3789V14.1914L13.9062 15.7539C13.6875 16.0977 13.25 16.2539 12.875 16.0664C12.5 15.8477 12.375 15.4102 12.5625 15.0352L13.7188 12.9414C13.6562 12.8789 13.625 12.8164 13.5625 12.7539L12.7188 11.1914V12.8789C12.7188 13.4414 12.2812 13.8789 11.7188 13.8789H10.2188C9.6875 13.8789 9.21875 13.4414 9.21875 12.8789V11.1914L8.40625 12.7539C8.34375 12.8164 8.3125 12.8789 8.25 12.9414L9.40625 15.0352C9.59375 15.4102 9.46875 15.8477 9.09375 16.0664C8.71875 16.2539 8.28125 16.0977 8.0625 15.7539Z" fill="#191919"/>
</svg>
