<svg width="16" height="23" viewBox="0 0 16 23" fill="none" xmlns="http://www.w3.org/2000/svg">
<path d="M13.0625 0.75H3.4375C2.66406 0.778646 2.01953 1.05078 1.50391 1.56641C0.988281 2.08203 0.716146 2.72656 0.6875 3.5V20C0.716146 20.7734 0.988281 21.418 1.50391 21.9336C2.01953 22.4492 2.66406 22.7214 3.4375 22.75H13.0625C13.8359 22.7214 14.4805 22.4492 14.9961 21.9336C15.5117 21.418 15.7839 20.7734 15.8125 20V3.5C15.7839 2.72656 15.5117 2.08203 14.9961 1.56641C14.4805 1.05078 13.8359 0.778646 13.0625 0.75ZM8.25 21.375C7.84896 21.375 7.51953 21.2461 7.26172 20.9883C7.00391 20.7305 6.875 20.401 6.875 20C6.875 19.599 7.00391 19.2695 7.26172 19.0117C7.51953 18.7539 7.84896 18.625 8.25 18.625C8.65104 18.625 8.98047 18.7539 9.23828 19.0117C9.49609 19.2695 9.625 19.599 9.625 20C9.625 20.401 9.49609 20.7305 9.23828 20.9883C8.98047 21.2461 8.65104 21.375 8.25 21.375ZM13.0625 3.5V17.25H3.4375V3.5H13.0625Z" fill="#505050"/>
</svg>
