<svg width="196" height="196" viewBox="0 0 196 196" fill="none" xmlns="http://www.w3.org/2000/svg">
<circle cx="98" cy="98" r="98" fill="#F0F0F0"/>
<path d="M110.375 63.5H66.625C63.1094 63.6302 60.1797 64.8672 57.8359 67.2109C55.4922 69.5547 54.2552 72.4844 54.125 76V151C54.2552 154.516 55.4922 157.445 57.8359 159.789C60.1797 162.133 63.1094 163.37 66.625 163.5H110.375C113.891 163.37 116.82 162.133 119.164 159.789C121.508 157.445 122.745 154.516 122.875 151V76C122.745 72.4844 121.508 69.5547 119.164 67.2109C116.82 64.8672 113.891 63.6302 110.375 63.5ZM88.5 157.25C86.6771 157.25 85.1797 156.664 84.0078 155.492C82.8359 154.32 82.25 152.823 82.25 151C82.25 149.177 82.8359 147.68 84.0078 146.508C85.1797 145.336 86.6771 144.75 88.5 144.75C90.3229 144.75 91.8203 145.336 92.9922 146.508C94.1641 147.68 94.75 149.177 94.75 151C94.75 152.823 94.1641 154.32 92.9922 155.492C91.8203 156.664 90.3229 157.25 88.5 157.25ZM110.375 76V138.5H66.625V76H110.375Z" fill="#0184EF"/>
<path d="M160.922 35H130.922C129.516 35.0521 128.344 35.5469 127.406 36.4844C126.469 37.4219 125.974 38.5677 125.922 39.9219V62.3438C125.974 63.75 126.469 64.9219 127.406 65.8594C128.344 66.7969 129.516 67.2656 130.922 67.2656H138.422V73.75C138.474 74.1667 138.656 74.4531 138.969 74.6094C139.281 74.7656 139.594 74.7396 139.906 74.5312L149.672 67.1875H160.922C162.328 67.1875 163.5 66.7188 164.438 65.7812C165.375 64.8438 165.87 63.6719 165.922 62.2656V39.9219C165.87 38.5677 165.401 37.4219 164.516 36.4844C163.578 35.5469 162.38 35.0521 160.922 35ZM135.922 53.6719C135.193 53.6719 134.594 53.4375 134.125 52.9688C133.656 52.5 133.422 51.9271 133.422 51.25C133.422 50.5729 133.656 50 134.125 49.5312C134.594 49.0625 135.193 48.8281 135.922 48.8281C136.651 48.8281 137.25 49.0625 137.719 49.5312C138.188 50 138.422 50.5729 138.422 51.25C138.422 51.9271 138.188 52.5 137.719 52.9688C137.25 53.4375 136.651 53.6719 135.922 53.6719ZM145.922 53.6719C145.193 53.6719 144.594 53.4375 144.125 52.9688C143.656 52.5 143.422 51.9271 143.422 51.25C143.422 50.5729 143.656 50 144.125 49.5312C144.594 49.0625 145.193 48.8281 145.922 48.8281C146.651 48.8281 147.25 49.0625 147.719 49.5312C148.188 50 148.422 50.5729 148.422 51.25C148.422 51.9271 148.188 52.5 147.719 52.9688C147.25 53.4375 146.651 53.6719 145.922 53.6719ZM155.922 53.6719C155.193 53.6719 154.594 53.4375 154.125 52.9688C153.656 52.5 153.422 51.9271 153.422 51.25C153.422 50.5729 153.656 50 154.125 49.5312C154.594 49.0625 155.193 48.8281 155.922 48.8281C156.651 48.8281 157.25 49.0625 157.719 49.5312C158.188 50 158.422 50.5729 158.422 51.25C158.422 51.9271 158.188 52.5 157.719 52.9688C157.25 53.4375 156.651 53.6719 155.922 53.6719Z" fill="#0184EF"/>
</svg>
