<svg width="546" height="313" viewBox="0 0 546 313" fill="none" xmlns="http://www.w3.org/2000/svg">
<path d="M408.456 243.469H385.086V243.645H408.456V243.469Z" fill="#EBEBEB"/>
<path d="M324.71 245.387H318.578V245.563H324.71V245.387Z" fill="#EBEBEB"/>
<path d="M384.377 236.932H370.836V237.108H384.377V236.932Z" fill="#EBEBEB"/>
<path d="M158.491 238.115H128.016V238.292H158.491V238.115Z" fill="#EBEBEB"/>
<path d="M169.248 238.115H164.781V238.292H169.248V238.115Z" fill="#EBEBEB"/>
<path d="M249.867 241.088H183.766V241.264H249.867V241.088Z" fill="#EBEBEB"/>
<path d="M443.805 232.137H91V232.313H443.805V232.137Z" fill="#EBEBEB"/>
<path d="M200.33 29.8242H117.336V152.237H200.33V29.8242Z" fill="#E0E0E0"/>
<path d="M203.384 29.8242H120.391V152.237H203.384V29.8242Z" fill="#F0F0F0"/>
<path d="M199.189 94.5391H124.43V145.068H199.189V94.5391Z" fill="#EBEBEB"/>
<path d="M199.189 34.7969H124.43V94.5384H199.189V34.7969Z" fill="white"/>
<path d="M199.187 34.7969H196.555V145.067H199.187V34.7969Z" fill="#E0E0E0"/>
<path d="M124.195 94.5447V97.207H196.838V94.5447H124.195Z" fill="#E0E0E0"/>
<path d="M199.186 90.0645H123.016V94.537H199.186V90.0645Z" fill="#F0F0F0"/>
<path d="M400.184 232.935H299.028C291.365 232.935 285.148 226.73 285.148 219.081V189.034C285.148 181.385 291.365 175.18 299.028 175.18H400.184C407.847 175.18 414.063 181.385 414.063 189.034V219.088C414.063 226.737 407.847 232.935 400.184 232.935Z" fill="#E0E0E0"/>
<path d="M393.387 233.366H292.231C284.568 233.366 278.352 227.161 278.352 219.512V189.458C278.352 181.809 284.568 175.604 292.231 175.604H393.387C401.05 175.604 407.266 181.809 407.266 189.458V219.512C407.266 227.161 401.057 233.366 393.387 233.366Z" fill="#F5F5F5"/>
<path d="M401.357 202.601H285.016V190.726C285.016 185.38 289.355 181.049 294.711 181.049H391.661C397.017 181.049 401.357 185.38 401.357 190.726V202.601Z" fill="#E0E0E0"/>
<path d="M391.661 227.068H294.711C289.355 227.068 285.016 222.737 285.016 217.391V205.516H401.357V217.391C401.357 222.737 397.017 227.068 391.661 227.068Z" fill="#E0E0E0"/>
<path d="M370.068 185.225H348.766V202.741H370.068V185.225Z" fill="#E6E6E6"/>
<path d="M348.767 185.225H343.312V202.741H348.767V185.225Z" fill="#F5F5F5"/>
<path d="M347.835 198.029C347.835 199.015 347.03 199.818 346.042 199.818C345.054 199.818 344.25 199.015 344.25 198.029C344.25 197.043 345.054 196.24 346.042 196.24C347.03 196.24 347.835 197.036 347.835 198.029Z" fill="#E0E0E0"/>
<path d="M375.659 182.52H359.656V202.741H375.659V182.52Z" fill="#E6E6E6"/>
<path d="M359.66 182.52H355.031V202.741H359.66V182.52Z" fill="#F5F5F5"/>
<path d="M357.345 187.043C358.222 187.043 358.933 186.333 358.933 185.458C358.933 184.583 358.222 183.873 357.345 183.873C356.469 183.873 355.758 184.583 355.758 185.458C355.758 186.333 356.469 187.043 357.345 187.043Z" fill="#E0E0E0"/>
<path d="M357.345 187.043C358.222 187.043 358.933 186.333 358.933 185.458C358.933 184.583 358.222 183.873 357.345 183.873C356.469 183.873 355.758 184.583 355.758 185.458C355.758 186.333 356.469 187.043 357.345 187.043Z" fill="#E0E0E0"/>
<path d="M377.858 185.225H364.367V202.741H377.858V185.225Z" fill="#EBEBEB"/>
<path d="M364.365 185.225H361.281V202.741H364.365V185.225Z" fill="#F5F5F5"/>
<path d="M393.103 188.191H375.406V202.75H393.103V188.191Z" fill="#E6E6E6"/>
<path d="M375.413 188.191H370.883V202.75H375.413V188.191Z" fill="#F5F5F5"/>
<path d="M397.747 185.943H384.453V202.742H397.747V185.943Z" fill="#E6E6E6"/>
<path d="M384.463 185.943H380.617V202.742H384.463V185.943Z" fill="#F5F5F5"/>
<path d="M401.288 188.191H388.375V202.75H401.288V188.191Z" fill="#E6E6E6"/>
<path d="M388.366 188.191H385.805V202.75H388.366V188.191Z" fill="#F0F0F0"/>
<path d="M319.146 208.881H302.656V226.398H319.146V208.881Z" fill="#E6E6E6"/>
<path d="M302.664 208.881H298.438V226.398H302.664V208.881Z" fill="#F5F5F5"/>
<path d="M323.462 206.178H311.078V226.399H323.462V206.178Z" fill="#E6E6E6"/>
<path d="M311.093 206.178H307.516V226.399H311.093V206.178Z" fill="#F5F5F5"/>
<path d="M375.396 208.881H358.906V226.398H375.396V208.881Z" fill="#E6E6E6"/>
<path d="M358.914 208.881H354.688V226.398H358.914V208.881Z" fill="#F5F5F5"/>
<path d="M379.719 206.178H367.336V226.399H379.719V206.178Z" fill="#E6E6E6"/>
<path d="M367.343 206.178H363.766V226.399H367.343V206.178Z" fill="#F5F5F5"/>
<path d="M325.177 208.881H314.734V226.398H325.177V208.881Z" fill="#EBEBEB"/>
<path d="M314.737 208.881H312.352V226.398H314.737V208.881Z" fill="#F5F5F5"/>
<path d="M336.977 211.85H323.281V226.408H336.977V211.85Z" fill="#E6E6E6"/>
<path d="M323.28 211.85H319.773V226.408H323.28V211.85Z" fill="#F5F5F5"/>
<path d="M340.569 209.602H330.281V226.4H340.569V209.602Z" fill="#E6E6E6"/>
<path d="M330.29 209.602H327.312V226.4H330.29V209.602Z" fill="#F5F5F5"/>
<path d="M343.311 211.85H333.312V226.408H343.311V211.85Z" fill="#E6E6E6"/>
<path d="M333.311 211.85H331.328V226.408H333.311V211.85Z" fill="#F0F0F0"/>
<path d="M331.234 158.382C330.881 157.692 330.084 157.29 329.35 157.445C328.623 157.6 328.023 158.291 327.946 159.065C327.431 158.678 326.697 158.664 326.161 159.016C325.624 159.375 325.328 160.087 325.441 160.742C324.862 160.27 323.91 160.467 323.536 161.129C323.162 161.791 323.451 162.77 324.121 163.087C323.67 163.122 323.282 163.573 323.289 164.052C323.303 164.531 323.712 164.961 324.164 164.968C323.705 164.975 323.282 165.383 323.225 165.862C323.169 166.341 323.486 166.841 323.931 166.968C323.465 167.172 323.345 167.94 323.726 168.292C324.107 168.644 324.813 168.419 324.947 167.905C325.018 168.053 325.236 168.088 325.349 167.968C325.455 167.848 325.42 167.616 325.272 167.546C325.483 167.841 326.019 167.708 326.076 167.341C325.921 168.186 326.93 168.982 327.649 168.581C327.438 168.933 327.734 169.426 328.115 169.539C328.496 169.652 328.898 169.497 329.251 169.32C329.611 169.144 329.971 168.94 330.366 168.947C330.712 168.954 331.036 169.116 331.361 169.222C332.412 169.56 333.626 169.236 334.402 168.419C334.945 169.151 336.244 168.954 336.568 168.088C336.653 168.503 337.02 168.834 337.422 168.856C337.824 168.877 338.227 168.595 338.354 168.194C338.361 168.377 338.368 168.56 338.382 168.75C339.137 168.926 339.885 167.954 339.56 167.207C340.103 167.215 340.611 166.75 340.682 166.186C340.753 165.623 340.372 165.031 339.849 164.897C340.738 164.651 341.416 163.728 341.43 162.756C341.437 161.784 340.781 160.847 339.892 160.58C339.546 160.474 339.137 160.474 338.854 160.721C338.579 160.967 338.537 161.502 338.847 161.7C339.116 160.826 338.72 159.784 337.951 159.347C337.189 158.91 336.145 159.136 335.602 159.847C335.863 159.474 335.87 158.925 335.616 158.551C335.355 158.178 334.861 158.009 334.444 158.157C334.339 157.558 333.746 157.107 333.174 157.192C332.603 157.276 332.158 157.896 332.222 158.502C332.158 157.995 331.368 157.847 331.142 158.298C330.818 158.22 331.234 158.382 331.234 158.382Z" fill="#EBEBEB"/>
<path d="M331.448 164.007C331.215 163.845 330.919 163.761 330.643 163.817C330.368 163.874 330.114 164.085 330.058 164.367C330.001 164.641 330.171 164.965 330.453 165.029C330.792 165.113 331.123 164.831 331.469 164.881C331.589 164.895 331.702 164.958 331.822 164.986C332.316 165.12 332.803 164.796 333.212 164.493C333.353 164.388 333.501 164.275 333.6 164.127C333.699 163.979 333.734 163.775 333.642 163.62C333.515 163.402 333.219 163.373 332.972 163.402C332.478 163.458 331.991 163.655 331.603 163.972C331.617 163.895 331.631 163.817 331.638 163.74L331.448 164.007Z" fill="#FAFAFA"/>
<path d="M338.597 163.584C338.463 163.492 338.329 163.394 338.167 163.359C338.011 163.323 337.821 163.359 337.722 163.485C337.588 163.661 337.673 163.936 337.849 164.077C338.026 164.218 338.258 164.253 338.477 164.288C338.703 164.324 338.992 164.331 339.105 164.133C339.19 163.985 339.119 163.795 338.999 163.683C338.879 163.57 338.71 163.514 338.555 163.464L338.597 163.584Z" fill="#FAFAFA"/>
<path d="M327.304 159.871C326.845 160.062 326.499 160.484 326.393 160.963C326.358 161.111 326.365 161.294 326.492 161.365C326.584 161.421 326.697 161.4 326.803 161.372C327.24 161.266 327.678 161.167 328.115 161.062C327.903 161.139 327.692 161.224 327.522 161.372C327.353 161.52 327.24 161.752 327.296 161.97C327.36 162.224 327.642 162.379 327.903 162.379C328.164 162.372 328.411 162.245 328.623 162.09C328.849 161.928 329.075 161.703 329.075 161.421C329.082 161.139 328.729 160.879 328.51 161.062C329.011 160.928 329.484 160.71 329.914 160.421C330.07 160.315 330.225 160.203 330.324 160.041C330.422 159.879 330.458 159.674 330.366 159.505C329.921 158.695 329.35 159.886 329.075 159.991C328.56 160.195 327.967 159.59 327.304 159.871Z" fill="#FAFAFA"/>
<path d="M325.268 163.331C325.219 163.493 325.254 163.683 325.381 163.781C325.508 163.887 325.741 163.852 325.797 163.697C325.508 163.789 325.191 163.894 325.014 164.141C324.831 164.387 324.88 164.817 325.169 164.908C325.353 164.965 325.543 164.88 325.713 164.789C326.186 164.528 326.637 164.232 327.068 163.901C326.941 164.197 327.251 164.542 327.576 164.57C327.9 164.599 328.204 164.422 328.486 164.253C328.832 164.049 329.22 163.725 329.128 163.338C329.05 163 328.613 162.852 328.281 162.95C327.95 163.049 327.696 163.317 327.463 163.577C327.646 163.31 327.385 162.915 327.068 162.873C326.757 162.831 326.447 163.021 326.249 163.253C326.616 163.056 326.694 162.535 326.207 162.471C325.882 162.422 325.346 163.07 325.268 163.331Z" fill="#FAFAFA"/>
<path d="M335.261 162.169C334.986 162.063 334.64 162.246 334.569 162.528C334.499 162.81 334.711 163.134 335 163.183C334.788 163.204 334.584 163.31 334.442 163.472C334.365 163.564 334.308 163.683 334.322 163.796C334.351 163.972 334.534 164.085 334.711 164.092C334.887 164.099 335.056 164.021 335.219 163.951C335.042 163.965 334.859 163.986 334.718 164.099C334.576 164.204 334.52 164.437 334.64 164.557C334.746 164.662 334.915 164.641 335.056 164.606C335.374 164.514 335.67 164.352 335.917 164.127C336.101 164.331 336.369 164.472 336.637 164.43C336.905 164.388 337.131 164.099 337.046 163.845C336.99 163.662 336.792 163.549 336.602 163.521C336.411 163.5 336.221 163.549 336.03 163.613C336.221 163.479 336.418 163.331 336.489 163.113C336.559 162.894 336.411 162.599 336.178 162.613C335.917 162.634 335.79 162.986 335.586 163.113C335.339 162.866 335.811 162.373 335.261 162.169Z" fill="#FAFAFA"/>
<path d="M330.595 161.093C330.299 161.29 330.2 161.684 330.222 162.037C330.243 162.431 330.419 162.847 330.779 163.001C331.252 163.206 331.844 162.818 331.929 162.304C332.014 161.797 331.682 161.276 331.223 161.043C331.223 161.05 330.885 160.896 330.595 161.093Z" fill="#FAFAFA"/>
<path d="M333.897 160.671C333.94 160.706 333.982 160.741 334.017 160.776C333.82 160.523 333.396 160.487 333.156 160.706C332.917 160.924 332.917 161.347 333.156 161.572C333.396 161.79 333.82 161.762 334.017 161.509C334.356 161.664 334.808 161.607 335.048 161.318C335.287 161.03 335.231 160.523 334.906 160.339C334.582 160.156 334.081 160.431 334.116 160.804C334.067 160.755 334.024 160.699 333.975 160.649L333.897 160.671Z" fill="#FAFAFA"/>
<path d="M337.542 161.259C337.309 161.492 337.062 161.731 336.977 162.048C336.893 162.365 337.034 162.767 337.351 162.851C337.669 162.929 337.965 162.668 338.149 162.4C338.311 162.154 338.438 161.851 338.339 161.569C338.247 161.287 337.845 161.125 337.641 161.337L337.542 161.259Z" fill="#FAFAFA"/>
<path d="M332.291 159.344C332.171 159.077 331.797 158.985 331.55 159.14C331.303 159.295 331.211 159.64 331.317 159.908C331.423 160.175 331.705 160.359 331.994 160.394C332.354 160.436 332.777 160.147 332.693 159.795C332.848 159.999 333.123 160.077 333.377 160.056C333.631 160.027 333.871 159.915 334.09 159.788C334.393 159.612 334.711 159.351 334.683 159.006C334.654 158.732 334.393 158.52 334.118 158.492C333.843 158.464 333.575 158.598 333.363 158.774C333.201 158.915 333.06 159.091 332.883 159.21C332.707 159.337 332.46 159.401 332.269 159.295L332.291 159.344Z" fill="#FAFAFA"/>
<path d="M336.772 175.372H327.734L326.852 166.279H337.654L336.772 175.372Z" fill="#F0F0F0"/>
<path d="M338.354 166.743H326.062L325.844 165.539H338.58L338.354 166.743Z" fill="#FAFAFA"/>
<path d="M327.38 202.721H317.008L320.261 192.269L320.733 190.74H323.083L327.38 202.721Z" fill="#EBEBEB"/>
<path d="M320.73 190.74L320.258 192.269L317.005 202.721L307.416 202.58L304.332 192.269L303.859 190.74H320.73Z" fill="#E0E0E0"/>
<path d="M320.732 190.74L320.259 192.269L317.006 202.721L297.312 202.432L301.511 190.74H320.732Z" fill="#FAFAFA"/>
<path d="M320.733 190.74L320.26 192.269H300.969L301.512 190.74H320.733Z" fill="#EBEBEB"/>
<path d="M303.935 197.235H299.609L301.119 192.98L305.254 193.03L303.935 197.235ZM300.11 196.882H303.674L304.774 193.375L301.366 193.34L300.11 196.882Z" fill="#EBEBEB"/>
<path d="M308.779 197.235H304.453L305.963 192.98L310.098 193.03L308.779 197.235ZM304.947 196.882H308.51L309.611 193.375L306.203 193.34L304.947 196.882Z" fill="#EBEBEB"/>
<path d="M313.607 197.235H309.281L310.791 192.98L314.926 193.03L313.607 197.235ZM309.782 196.882H313.346L314.446 193.375L311.038 193.34L309.782 196.882Z" fill="#EBEBEB"/>
<path d="M318.45 197.235H314.125L315.635 192.98L319.77 193.03L318.45 197.235ZM314.626 196.882H318.189L319.29 193.375L315.882 193.34L314.626 196.882Z" fill="#EBEBEB"/>
<path d="M302.419 201.748H298.094L299.604 197.494L303.739 197.543L302.419 201.748ZM298.595 201.396H302.158L303.259 197.889L299.851 197.853L298.595 201.396Z" fill="#EBEBEB"/>
<path d="M307.263 201.748H302.938L304.448 197.494L308.582 197.543L307.263 201.748ZM303.438 201.396H307.002L308.103 197.889L304.694 197.853L303.438 201.396Z" fill="#EBEBEB"/>
<path d="M312.091 201.748H307.766L309.276 197.494L313.411 197.543L312.091 201.748ZM308.267 201.396H311.83L312.931 197.889L309.523 197.853L308.267 201.396Z" fill="#EBEBEB"/>
<path d="M316.935 201.748H312.609L314.119 197.494L318.254 197.543L316.935 201.748ZM313.11 201.396H316.674L317.774 197.889L314.366 197.853L313.11 201.396Z" fill="#EBEBEB"/>
<path d="M382.57 169.725C382.57 171.944 382.916 173.381 383.509 174.303C383.953 174.994 384.744 175.388 385.569 175.388H388.787C389.612 175.388 390.403 175.001 390.847 174.303C391.433 173.381 391.786 171.944 391.786 169.725C391.786 166.506 390.381 163.929 389.923 161.872C389.76 161.132 390.311 158.857 390.311 158.857H384.059C384.059 158.857 384.61 161.125 384.447 161.872C383.974 163.929 382.57 166.506 382.57 169.725Z" fill="#F0F0F0"/>
<path d="M389.263 143.324C389.263 143.324 388.212 143.585 387.598 144.402C386.984 145.219 388.042 147.142 388.042 147.142C388.042 147.142 389.044 148.163 390.286 147.86C391.528 147.557 391.528 147.557 391.528 147.557C391.528 147.557 390.209 143.789 389.263 143.578V143.324Z" fill="#EBEBEB"/>
<path d="M394.169 144.215C394.007 145.849 392.617 147.694 391.156 147.546C389.696 147.398 388.701 145.32 388.87 143.679C389.033 142.045 390.225 142.109 391.693 142.249C393.153 142.404 394.339 142.58 394.169 144.215Z" fill="#EBEBEB"/>
<path d="M390.041 142.947C390.041 142.947 390.979 144.032 393.343 143.947C393.343 143.947 389.314 145.652 390.041 142.947Z" fill="#EBEBEB"/>
<path d="M391.07 142.813C391.07 142.813 392.383 142.834 392.298 143.362C392.298 143.362 393.385 143.503 393.321 143.031C393.265 142.552 391.07 142.813 391.07 142.813Z" fill="#EBEBEB"/>
<path d="M390.041 142.947C390.041 142.947 390.979 144.032 393.343 143.947C393.343 143.947 389.314 145.652 390.041 142.947Z" fill="#E0E0E0"/>
<path d="M391.07 142.813C391.07 142.813 392.383 142.834 392.298 143.362C392.298 143.362 393.385 143.503 393.321 143.031C393.265 142.552 391.07 142.813 391.07 142.813Z" fill="#E0E0E0"/>
<path d="M388.648 147.602C388.966 148.433 389.827 148.989 390.716 149.046C391.605 149.109 392.487 148.714 393.122 148.095C393.757 147.475 394.159 146.644 394.378 145.784C394.434 145.559 394.561 145.003 394.279 144.862C394.018 144.728 393.778 145.08 393.623 145.235C393.164 145.679 392.685 146.08 392.141 146.418C391.612 146.749 391.048 147.017 390.462 147.214C390.3 147.271 388.705 147.75 388.648 147.602Z" fill="#EBEBEB"/>
<path d="M395.432 145.555C395.58 146.26 395.333 147.035 394.797 147.521C394.444 147.838 393.999 148.028 393.555 148.197C393.244 148.309 392.856 148.401 392.623 148.176C392.369 147.929 392.475 147.506 392.609 147.175C392.814 146.668 393.033 146.168 393.258 145.668C393.449 145.26 393.646 144.562 393.971 144.245C394.274 143.95 394.571 144.217 394.874 144.527C395.149 144.809 395.354 145.168 395.432 145.555Z" fill="#EBEBEB"/>
<path d="M389.187 146.778C388.637 146.651 388.178 146.172 388.079 145.616C388.002 145.207 388.192 144.235 388.707 144.207C388.764 145.116 388.806 145.933 389.187 146.778Z" fill="#E0E0E0"/>
<path d="M393.156 147.067C393.714 147.017 394.229 146.672 394.49 146.179C394.631 145.904 394.8 144.411 394.243 144.954C394.059 145.13 393.968 145.778 393.841 146.024C393.657 146.397 393.424 146.75 393.156 147.067Z" fill="#E0E0E0"/>
<path d="M390.976 147.596C391.315 148.019 391.964 148.16 392.451 147.913C392.345 148.188 391.399 148.258 391.103 148.286C390.334 148.364 390.016 147.969 389.367 147.547C389.367 147.547 390.447 147.927 390.976 147.596Z" fill="#E0E0E0"/>
<path d="M386.312 173.621L388.119 155.428L390.511 148.977L390.92 149.124L388.542 155.548L386.658 174.114L386.312 173.621Z" fill="#E6E6E6"/>
<path d="M388.526 155.395L388.13 155.592C387.869 155.078 387.672 154.437 387.439 153.691C387.079 152.536 386.677 151.233 385.922 150L386.296 149.768C387.086 151.049 387.495 152.381 387.862 153.557C388.088 154.282 388.279 154.909 388.526 155.395Z" fill="#E6E6E6"/>
<path d="M389.503 153.005C390.116 152.963 390.709 152.688 391.14 152.251C391.633 151.758 391.895 151.082 392.149 150.434C391.344 150.519 390.603 149.998 389.799 149.941C389.157 149.892 388.501 150.167 388.084 150.653C387.541 151.279 387.223 152.047 387.52 152.442C387.767 152.759 388.677 153.061 389.503 153.005Z" fill="#F0F0F0"/>
<path d="M383.045 151.03C383.638 150.537 384.908 150.34 385.62 150.615C386.34 150.89 386.876 151.523 387.024 152.179C386.735 152.615 386.164 152.777 385.641 152.721C385.126 152.664 384.654 152.418 384.188 152.171C383.729 151.932 383.249 151.685 382.734 151.622L383.045 151.03Z" fill="#F0F0F0"/>
<path d="M387.021 151.38C385.977 151.5 385.038 151.704 384.086 150.514C383.451 149.718 383.655 148.513 383.698 147.562C384.608 147.76 386.661 148.76 387.12 149.006C387.579 149.253 387.967 149.647 388.037 150.119C388.115 150.591 387.79 151.112 387.275 151.204C387.268 151.183 387.021 151.38 387.021 151.38Z" fill="#F0F0F0"/>
<path d="M384.031 165.536C383.615 166.72 383.213 168.009 383.347 169.269C383.375 169.509 383.445 169.784 383.622 169.826C383.784 169.868 383.939 169.671 384.003 169.453C384.059 169.234 384.045 169.002 384.045 168.776C384.038 166.825 385.104 165.184 385.308 163.276C385.365 162.733 385.223 161.029 384.906 162.282C384.617 163.395 384.419 164.438 384.031 165.536Z" fill="#FAFAFA"/>
<path d="M236.187 204.29C236.187 204.29 238.24 181.603 229.208 170.538C220.177 159.473 236.257 169.545 239.108 180.582C239.108 180.582 239.644 160.177 230.627 146.95C221.609 133.723 236.977 143.626 239.651 158.043C239.651 158.043 240.16 139.836 235.658 130.18C231.156 120.523 237.873 126.271 240.837 132.307C243.808 138.343 242.333 154.353 242.333 154.353C242.333 154.353 245.487 124.7 251.477 126.306C257.468 127.912 245.021 148.591 244.026 158.691C244.026 158.691 249.474 144.605 254.9 146.746C260.326 148.887 247.343 151.845 243.335 172.348L242.163 181.878C242.163 181.878 247.089 168.031 251.59 171.672C256.092 175.306 240.618 184.392 238.861 204.684L236.187 204.29Z" fill="#EBEBEB"/>
<path d="M237.163 205.466C237.163 205.466 235.236 177.413 246.681 164.044C258.119 150.683 238.009 162.593 234.199 176.117C234.199 176.117 234.086 150.923 245.567 134.892C257.04 118.861 237.819 130.581 234.129 148.295C234.129 148.295 233.987 125.813 239.802 114.044C245.616 102.274 237.177 109.149 233.352 116.502C229.528 123.855 230.918 143.654 230.918 143.654C230.918 143.654 227.82 106.965 220.383 108.754C212.953 110.543 227.75 136.463 228.71 148.951C228.71 148.951 222.366 131.399 215.613 133.864C208.861 136.329 224.8 140.393 229.196 165.826L230.389 177.624C230.389 177.624 224.688 160.382 219.036 164.728C213.384 169.073 232.231 180.772 233.853 205.868L237.163 205.466Z" fill="#F0F0F0"/>
<path d="M254.94 219.455C254.94 227.153 246.579 233.401 236.263 233.401C225.94 233.401 217.578 227.153 217.578 219.455C217.578 215.983 219.272 212.82 222.08 210.383L219.871 201.051H252.647L250.438 210.383C253.247 212.82 254.94 215.983 254.94 219.455Z" fill="#EBEBEB"/>
<path d="M264.853 23.5719C254.594 34.9469 249.513 50.4423 250.381 65.7263C251.249 81.0103 256.894 95.6464 263.767 109.332C269.786 121.319 276.976 134.913 272.051 147.387C269.299 154.36 263.026 159.522 256.09 162.396C249.154 165.27 241.547 166.101 234.046 166.474C221.261 167.115 208.285 166.531 195.845 169.524C183.405 172.517 171.155 179.913 166.343 191.753C160.677 205.706 167.112 222.398 178.459 232.308C189.812 242.218 205.039 246.472 219.977 248.578C240.905 251.522 262.348 250.783 283.023 246.409C299.626 242.894 315.961 236.915 329.508 226.709C343.049 216.503 353.619 201.74 356.519 185.047C359.412 168.355 353.795 149.894 340.544 139.315C335.033 134.913 328.386 131.905 323.553 126.771C318.72 121.636 316.264 113.086 320.752 107.648C323.715 104.056 328.711 102.957 333.34 102.401C356.11 99.6893 381.335 104.373 400.38 91.6176C411.281 84.3137 418.337 71.8611 419.89 58.845C421.442 45.8289 418.627 31.7422 410.413 21.5153C388.025 -6.32701 292.273 -6.82709 264.853 23.5719Z" fill="#407BFF"/>
<g opacity="0.9">
<path d="M264.853 23.5719C254.594 34.9469 249.513 50.4423 250.381 65.7263C251.249 81.0103 256.894 95.6464 263.767 109.332C269.786 121.319 276.976 134.913 272.051 147.387C269.299 154.36 263.026 159.522 256.09 162.396C249.154 165.27 241.547 166.101 234.046 166.474C221.261 167.115 208.285 166.531 195.845 169.524C183.405 172.517 171.155 179.913 166.343 191.753C160.677 205.706 167.112 222.398 178.459 232.308C189.812 242.218 205.039 246.472 219.977 248.578C240.905 251.522 262.348 250.783 283.023 246.409C299.626 242.894 315.961 236.915 329.508 226.709C343.049 216.503 353.619 201.74 356.519 185.047C359.412 168.355 353.795 149.894 340.544 139.315C335.033 134.913 328.386 131.905 323.553 126.771C318.72 121.636 316.264 113.086 320.752 107.648C323.715 104.056 328.711 102.957 333.34 102.401C356.11 99.6893 381.335 104.373 400.38 91.6176C411.281 84.3137 418.337 71.8611 419.89 58.845C421.442 45.8289 418.627 31.7422 410.413 21.5153C388.025 -6.32701 292.273 -6.82709 264.853 23.5719Z" fill="white"/>
</g>
<path d="M267.404 263.557C342.963 263.557 404.215 259.988 404.215 255.584C404.215 251.181 342.963 247.611 267.404 247.611C191.846 247.611 130.594 251.181 130.594 255.584C130.594 259.988 191.846 263.557 267.404 263.557Z" fill="#F5F5F5"/>
<path d="M256.164 143.813L257.928 133.656L261.393 134.656L256.164 143.813Z" fill="#407BFF"/>
<path d="M257.328 147.069L267.249 144.203L265.873 140.871L257.328 147.069Z" fill="#407BFF"/>
<path d="M259.094 143.244L264.746 132.58L268.549 135.221L259.094 143.244Z" fill="#407BFF"/>
<path d="M165.718 159.247H161.251C161.054 159.247 160.898 159.092 160.898 158.895C160.898 158.698 161.054 158.543 161.251 158.543H165.718C165.915 158.543 166.071 158.698 166.071 158.895C166.071 159.092 165.915 159.247 165.718 159.247Z" fill="#407BFF"/>
<path d="M158.281 159.247H135.892C135.694 159.247 135.539 159.092 135.539 158.895C135.539 158.698 135.694 158.543 135.892 158.543H158.274C158.471 158.543 158.627 158.698 158.627 158.895C158.627 159.092 158.471 159.247 158.281 159.247Z" fill="#407BFF"/>
<path d="M237.667 200.006C237.582 200.006 237.497 199.978 237.427 199.914C237.286 199.781 237.271 199.562 237.406 199.414L239.494 197.146C239.628 197.005 239.847 196.998 239.995 197.125C240.136 197.259 240.15 197.477 240.016 197.625L237.928 199.893C237.857 199.964 237.765 200.006 237.667 200.006Z" fill="#407BFF"/>
<path d="M218.534 218.06C218.407 218.06 218.28 217.99 218.217 217.87C218.132 217.694 218.196 217.482 218.372 217.398C224.913 214.095 235.271 201.741 235.377 201.614C235.504 201.466 235.723 201.445 235.871 201.572C236.019 201.698 236.041 201.917 235.914 202.065C235.483 202.579 225.351 214.651 218.683 218.025C218.647 218.046 218.591 218.06 218.534 218.06Z" fill="#407BFF"/>
<path d="M269.295 214.2L274.333 210.037L261.646 198.021L256.234 202.635L269.295 214.2Z" fill="#F7AF93"/>
<path d="M278.408 208.429C278.07 208.218 277.378 208.316 276.666 208.513C276.327 208.612 275.974 208.725 275.664 208.837C275.417 208.929 275.191 209.021 275 209.098C274.718 209.218 274.513 209.309 274.443 209.345C274.379 209.359 274.337 209.429 274.33 209.492C274.323 209.514 274.337 209.542 274.351 209.563C274.372 209.598 274.408 209.626 274.45 209.633C275.163 209.823 275.896 209.943 276.637 210C276.997 210.049 277.371 210.021 277.717 209.922C277.738 209.915 277.752 209.915 277.766 209.908C277.964 209.845 278.161 209.76 278.338 209.654C278.571 209.464 278.698 209.175 278.669 208.873C278.662 208.697 278.571 208.528 278.408 208.429ZM278.338 208.894C278.373 209.098 278.281 209.302 278.112 209.422C277.978 209.535 277.788 209.605 277.541 209.654C277.301 209.704 277.011 209.718 276.68 209.697C276.292 209.683 275.84 209.619 275.339 209.528C275.233 209.507 275.12 209.485 275.007 209.464C275.607 209.175 276.235 208.957 276.884 208.809C277.23 208.732 277.576 208.675 277.929 208.64C278.034 208.64 278.133 208.661 278.225 208.711C278.303 208.753 278.345 208.816 278.338 208.894Z" fill="#407BFF"/>
<path d="M276.107 205.783C275.783 205.832 275.486 206.03 275.303 206.297C275.247 206.382 275.197 206.466 275.162 206.565C274.739 207.473 274.957 208.847 275.007 209.1C275.014 209.122 275.014 209.129 275.014 209.136C275.021 209.192 275.063 209.241 275.12 209.255C275.148 209.27 275.183 209.277 275.218 209.262C275.24 209.262 275.261 209.248 275.282 209.227C275.402 209.129 275.529 208.995 275.67 208.833C275.875 208.593 276.086 208.305 276.27 207.988C276.707 207.276 277.018 206.473 276.827 206.058C276.75 205.896 276.566 205.713 276.107 205.783ZM276.531 206.206C276.651 206.48 276.418 207.107 276.058 207.727C275.825 208.121 275.557 208.502 275.289 208.784C275.232 208.34 275.176 207.495 275.395 206.868C275.437 206.727 275.501 206.593 275.578 206.487C275.698 206.318 275.868 206.185 276.065 206.128L276.164 206.114C276.46 206.058 276.517 206.17 276.531 206.206Z" fill="#407BFF"/>
<path d="M273.673 209.741L267.351 212.925C267.097 213.044 266.977 213.326 267.055 213.587L268.917 219.489C269.122 220.067 269.757 220.369 270.343 220.165C270.378 220.151 270.42 220.137 270.456 220.116C281.287 216.319 284.603 213.629 285.739 213.016C288.964 211.262 287.15 208.98 285.951 209.262C280.553 210.551 278.74 210.22 276.404 209.614C275.155 209.431 274.054 209.551 273.673 209.741Z" fill="#263238"/>
<path opacity="0.2" d="M261.646 198.027L268.075 203.711L262.655 208.318L256.234 202.641L261.646 198.027Z" fill="black"/>
<path d="M259.651 208.276L267.73 200.845L265.952 197.725L256.609 205.733L259.651 208.276Z" fill="#407BFF"/>
<path opacity="0.5" d="M259.651 208.276L267.73 200.845L265.952 197.725L256.609 205.733L259.651 208.276Z" fill="white"/>
<path d="M264.687 198.817L263.607 199.747L261.991 201.134L261.025 201.951L258.209 204.367L257.666 204.825C257.666 204.825 246.157 198.352 239.751 192.823C235.362 189.034 234.966 187.625 234.508 187.977C228.32 192.675 210.002 208.917 199.622 217.369C199.284 217.404 198.952 217.44 198.606 217.461C193.06 217.869 188.7 217.256 185.313 215.967C185.277 211.474 189.13 200.979 189.448 199.965C189.448 199.965 204.766 184.766 229.583 171.918C229.83 171.792 230.084 171.693 230.331 171.587C230.655 171.447 230.973 171.313 231.304 171.193C232.603 170.7 233.873 170.397 235.108 170.334C236.215 170.277 237.295 170.475 238.332 170.841C238.918 171.045 239.496 171.299 240.054 171.594C240.548 171.841 241.028 172.13 241.493 172.426C242.262 172.912 243.003 173.454 243.702 173.989C245.282 175.208 257.271 190.626 263.72 197.739C263.72 197.746 263.72 197.746 263.72 197.746C264.059 198.148 264.383 198.5 264.687 198.817Z" fill="#407BFF"/>
<g opacity="0.1">
<path d="M264.687 198.817L263.607 199.747L261.991 201.134L261.025 201.951L258.209 204.367L257.666 204.825C257.666 204.825 246.157 198.352 239.751 192.823C235.362 189.034 234.966 187.625 234.508 187.977C228.32 192.675 210.002 208.917 199.622 217.369C199.284 217.404 198.952 217.44 198.606 217.461C193.06 217.869 188.7 217.256 185.313 215.967C185.277 211.474 189.13 200.979 189.448 199.965C189.448 199.965 204.766 184.766 229.583 171.918C229.83 171.792 230.084 171.693 230.331 171.587C230.655 171.447 230.973 171.313 231.304 171.193C232.603 170.7 233.873 170.397 235.108 170.334C236.215 170.277 237.295 170.475 238.332 170.841C238.918 171.045 239.496 171.299 240.054 171.594C240.548 171.841 241.028 172.13 241.493 172.426C242.262 172.912 243.003 173.454 243.702 173.989C245.282 175.208 257.271 190.626 263.72 197.739C263.72 197.746 263.72 197.746 263.72 197.746C264.059 198.148 264.383 198.5 264.687 198.817Z" fill="black"/>
</g>
<path d="M182.944 133.934C183.911 138.322 184.927 144.724 181.914 147.731C185.654 154.31 190.149 160.431 195.307 165.974C201.918 154.5 195.652 147.407 195.652 147.407C190.699 146.351 190.777 144.358 191.553 140.921L182.944 133.934Z" fill="#FEC4AD"/>
<path d="M178.852 148.286C179.218 147.095 179.973 146.067 180.997 145.356C181.984 144.595 192.258 144.482 194.932 145.356C196.492 145.849 197.818 146.891 198.665 148.293L178.852 148.286Z" fill="#407BFF"/>
<path d="M226.248 165.752L228.909 164.541L229.043 168.866C229.043 168.866 227.801 169.971 226.439 170.394C225.134 170.795 223.892 169.598 224.216 168.274C224.477 167.168 225.225 166.246 226.248 165.752Z" fill="#FEC4AD"/>
<path d="M232.305 165.759L232.164 167.343C232.129 167.837 231.769 168.245 231.289 168.351L229.017 168.858L228.883 164.533L231.19 164.568C231.804 164.561 232.298 165.047 232.305 165.66C232.305 165.695 232.305 165.731 232.305 165.759Z" fill="#FEC4AD"/>
<path d="M192.513 178.049C196.507 180.014 201.404 181.141 206.209 180.331C211.868 179.38 221.725 173.71 226.016 170.456L224.569 168.308C222.431 168.766 204.96 177.626 193.67 169.611C191.568 168.118 183.312 161.969 180.391 162.096C175.656 162.307 176.065 167.258 178.098 169.322C180.49 171.738 189.246 176.443 192.513 178.049Z" fill="#FEC4AD"/>
<g opacity="0.2">
<path d="M232.161 167.351C232.119 167.837 231.766 168.252 231.286 168.358L229.029 168.865V168.872C229.029 168.872 227.787 169.978 226.432 170.401C226.291 170.443 226.15 170.471 226.016 170.471L226.008 170.478C221.718 173.732 211.868 179.395 206.209 180.346C201.404 181.149 196.507 180.029 192.513 178.057C189.246 176.451 180.476 171.739 178.098 169.33C176.065 167.266 175.656 162.322 180.391 162.103C183.305 161.977 191.568 168.126 193.67 169.619C204.438 177.261 220.822 169.555 224.174 168.428C224.181 168.379 224.188 168.323 224.202 168.273C224.336 167.724 224.583 167.217 224.936 166.78C225.275 166.351 225.726 165.991 226.234 165.745L228.866 164.548L228.894 164.54L231.181 164.569C231.787 164.562 232.288 165.055 232.288 165.667C232.288 165.696 232.288 165.731 232.288 165.759L232.161 167.351Z" fill="black"/>
<path d="M228.905 164.541L228.883 164.548V164.541H228.905Z" fill="black"/>
</g>
<path d="M207.308 155.364C213.298 168.542 199.405 172.303 205.77 193.912L175.57 194.638C175.774 183.059 179.895 185.545 174.462 163.774C174.003 161.929 173.234 156.639 175.203 151.821C175.972 149.948 177.334 148.356 179.119 147.391C181.348 146.187 191.171 147.131 195.651 147.426C200.506 146.743 206.419 153.716 207.308 155.364Z" fill="#407BFF"/>
<path opacity="0.5" d="M207.308 155.364C213.298 168.542 199.405 172.303 205.77 193.912L175.57 194.638C175.774 183.059 179.895 185.545 174.462 163.774C174.003 161.929 173.234 156.639 175.203 151.821C175.972 149.948 177.334 148.356 179.119 147.391C181.348 146.187 191.171 147.131 195.651 147.426C200.506 146.743 206.419 153.716 207.308 155.364Z" fill="white"/>
<path d="M201.533 129.221C201.448 129.799 201.681 130.271 202.041 130.32C202.401 130.369 202.768 129.968 202.845 129.411C202.93 128.855 202.697 128.362 202.337 128.313C201.978 128.263 201.611 128.672 201.533 129.221Z" fill="#263238"/>
<path d="M202.18 128.319L203.563 128.129C203.563 128.129 202.73 129.074 202.18 128.319Z" fill="#263238"/>
<path d="M201.627 129.982C201.627 129.982 202.22 132.504 203.095 133.793C202.262 134.37 201.062 133.877 201.062 133.877L201.627 129.982Z" fill="#A02724"/>
<path d="M203.534 125.348C203.64 125.305 203.717 125.207 203.738 125.094C203.767 124.918 203.639 124.749 203.463 124.721C202.419 124.538 201.346 124.876 200.598 125.622C200.464 125.749 200.457 125.953 200.577 126.087C200.704 126.221 200.909 126.228 201.043 126.108C201.057 126.094 201.071 126.08 201.085 126.059C201.692 125.481 202.539 125.228 203.364 125.376C203.421 125.376 203.484 125.369 203.534 125.348Z" fill="#263238"/>
<path d="M183.259 124.656C182.688 131.524 182.3 134.411 185.235 138.405C189.652 144.413 198.232 143.624 200.836 137.06C203.193 131.157 203.736 120.923 197.456 117.247C192.983 114.598 187.211 116.07 184.551 120.529C183.803 121.79 183.358 123.205 183.259 124.656Z" fill="#FEC4AD"/>
<path d="M200.992 136.651C200.47 136.214 200.075 135.637 199.849 134.974C199.828 134.904 199.87 134.827 199.948 134.798C200.019 134.777 200.096 134.82 200.117 134.897C200.322 135.468 200.661 135.968 201.098 136.369L200.992 136.651Z" fill="#263238"/>
<path d="M178.356 115.733C175.731 119.283 174.539 120.206 177.785 129.651C179.09 133.447 182.879 138.476 184.721 138.934C188.023 139.765 191.233 137.448 193.717 135.117C195.89 133.074 197.972 130.869 199.292 128.2C200.611 125.531 201.098 122.333 200.011 119.565C198.826 116.557 194.642 113.874 191.509 113.212C187.825 112.43 180.536 112.782 178.356 115.733Z" fill="#263238"/>
<path d="M198.93 128.783C198.93 128.783 199.755 130.199 198.711 131.255L198.732 129.368L198.93 128.783Z" fill="#263238"/>
<path d="M198.915 128.783C198.915 128.783 199.219 130.953 197.398 131.763L198.379 129.417L198.915 128.783Z" fill="#263238"/>
<path d="M186.806 138.133C186.806 138.133 184.802 139.041 185.091 141.006L186.552 138.929L186.806 138.133Z" fill="#263238"/>
<path d="M186.879 138.176C186.879 138.176 185.355 139.753 186.357 141.479L186.942 139.007L186.879 138.176Z" fill="#263238"/>
<path d="M201.677 125.945C202.39 125.212 203.117 124.465 203.639 123.585C204.168 122.705 204.486 121.662 204.33 120.655C204.126 119.345 203.138 118.267 201.988 117.605C200.838 116.95 199.518 116.654 198.22 116.366C197.585 116.225 196.872 116.091 196.315 116.429C195.771 116.753 195.539 117.436 195.574 118.063C195.602 118.69 195.856 119.282 196.082 119.866C196.978 122.155 197.542 124.508 197.973 126.917C198.192 128.135 198.022 128.938 199.229 128.473C200.033 128.156 201.063 126.586 201.677 125.945Z" fill="#263238"/>
<path d="M192.178 129.341C192.107 130.933 192.665 132.483 193.737 133.659C195.17 135.209 196.99 134.194 197.512 132.264C197.992 130.532 197.809 127.637 195.932 126.806C194.055 125.975 192.277 127.405 192.178 129.341Z" fill="#FEC4AD"/>
<path d="M272.208 217.361L277.656 212.065L267.114 198.83L260.523 202.711L272.208 217.361Z" fill="#FEC4AD"/>
<path d="M283.219 210.43C282.612 210.219 281.371 210.895 280.432 211.494C280.192 211.642 279.981 211.79 279.797 211.916L279.783 211.923C279.748 211.952 279.719 211.973 279.691 211.994C279.48 212.142 279.324 212.254 279.268 212.297C279.197 212.332 279.169 212.402 279.183 212.473C279.204 212.543 279.268 212.592 279.338 212.6C279.988 212.628 280.637 212.607 281.286 212.536C281.434 212.522 281.575 212.508 281.716 212.487C282.189 212.452 282.641 212.297 283.029 212.036C283.17 211.944 283.304 211.846 283.417 211.733C283.621 211.487 283.692 211.149 283.593 210.839C283.551 210.663 283.41 210.501 283.219 210.43ZM283.262 210.937C283.332 211.142 283.297 211.374 283.149 211.543C282.965 211.768 282.598 211.952 282.076 212.078C281.674 212.177 281.187 212.247 280.616 212.276C280.39 212.283 280.15 212.297 279.903 212.29C279.981 212.226 280.058 212.17 280.143 212.114C280.199 212.071 280.256 212.036 280.312 211.994C281.067 211.466 281.9 211.05 282.782 210.761C282.888 210.733 283.001 210.733 283.113 210.768C283.184 210.789 283.24 210.853 283.262 210.937Z" fill="#407BFF"/>
<path d="M280.201 208.183C279.869 208.31 279.608 208.578 279.481 208.902C279.036 209.986 279.693 211.655 279.805 211.916C279.805 211.923 279.805 211.923 279.812 211.923C279.812 211.937 279.812 211.944 279.82 211.944C279.848 212.001 279.897 212.043 279.961 212.05C279.996 212.057 280.031 212.05 280.067 212.036C280.088 212.029 280.116 212.008 280.123 211.994C280.13 211.979 280.137 211.979 280.144 211.972C280.243 211.846 280.349 211.684 280.44 211.493C280.963 210.514 281.449 208.88 281.019 208.317C280.892 208.148 280.659 207.993 280.201 208.183ZM280.024 211.508C279.834 210.951 279.495 209.768 279.805 209.035C279.89 208.831 280.038 208.655 280.236 208.549L280.335 208.5C280.638 208.38 280.716 208.486 280.744 208.521C281.047 208.937 280.575 210.606 280.024 211.508Z" fill="#407BFF"/>
<path opacity="0.2" d="M266.561 198.02L271.528 204.359L264.811 208.099L259.766 201.922L266.561 198.02Z" fill="black"/>
<path d="M175.293 192.337L174.594 195.07C174.488 195.288 174.749 195.493 175.095 195.486L206.198 194.753C206.474 194.739 206.692 194.605 206.706 194.436L205.93 191.57C205.951 191.386 205.704 191.231 205.408 191.239L175.794 192.105C175.596 192.091 175.406 192.182 175.293 192.337Z" fill="#263238"/>
<path d="M202.973 195.076L202.154 195.16C201.992 195.153 201.858 195.111 201.858 195.012L201.844 191.484C201.844 191.385 201.978 191.287 202.14 191.265L202.959 191.174C203.121 191.181 203.255 191.223 203.255 191.329L203.269 194.857C203.262 194.963 203.135 195.062 202.973 195.076Z" fill="#407BFF"/>
<path d="M191.833 195.22L191.014 195.305C190.852 195.298 190.725 195.256 190.718 195.157L190.711 191.628C190.711 191.53 190.845 191.431 191.007 191.41L191.819 191.318C191.981 191.325 192.115 191.368 192.115 191.473L192.129 195.002C192.129 195.115 191.995 195.199 191.833 195.22Z" fill="#407BFF"/>
<path d="M191.833 195.22L191.014 195.305C190.852 195.298 190.725 195.256 190.718 195.157L190.711 191.628C190.711 191.53 190.845 191.431 191.007 191.41L191.819 191.318C191.981 191.325 192.115 191.368 192.115 191.473L192.129 195.002C192.129 195.115 191.995 195.199 191.833 195.22Z" fill="#407BFF"/>
<path d="M270.73 200.858L269.354 201.633L269.347 201.64L266.983 202.971L264.86 204.162L264.853 204.169L262.672 205.394V205.401L261.84 205.873C261.84 205.873 261.649 205.739 261.317 205.493C261.19 205.401 261.042 205.296 260.873 205.169C260.358 204.782 259.631 204.239 258.791 203.57C258.791 203.57 258.791 203.57 258.791 203.563C254.402 200.105 246.591 193.294 244.27 187.11C242.767 188.899 240.968 191.139 238.907 193.618C230.038 204.303 216.243 219.382 199.668 221.347C199.33 221.397 198.998 221.425 198.652 221.453C193.113 221.932 188.746 221.376 185.344 220.129C176.743 216.988 174.344 209.437 174.937 203.021V203C174.986 199.999 175.579 194.646 175.579 194.646L206.957 194.681C211.381 189.321 220.251 180.926 229.325 175.629C229.537 175.495 229.756 175.369 229.974 175.256C230.242 175.094 230.518 174.953 230.786 174.805C233.735 173.192 236.685 171.946 239.479 171.269C240.1 171.121 240.714 170.995 241.32 170.903C241.956 170.805 242.584 170.748 243.197 170.72V170.727C247.495 170.53 251.227 172.129 253.76 176.411L270.272 200.189L270.73 200.858Z" fill="#407BFF"/>
<path d="M253.799 168.304L219.125 169.734L220.141 147.709L254.815 146.279L253.799 168.304Z" fill="#407BFF"/>
<path d="M253.394 170.039L219.221 171.447C218.255 171.49 217.5 170.729 217.549 169.764L218.558 147.88C218.601 146.908 219.426 146.091 220.393 146.049L254.565 144.64C255.532 144.598 256.287 145.359 256.238 146.324L255.229 168.207C255.186 169.179 254.361 170.003 253.394 170.039Z" fill="#263238"/>
<path d="M253.799 168.308L219.125 169.737L220.141 147.713L254.815 146.283L253.799 168.308Z" fill="#407BFF"/>
<path opacity="0.9" d="M253.799 168.308L219.125 169.737L220.141 147.713L254.815 146.283L253.799 168.308Z" fill="white"/>
<path opacity="0.1" d="M232.448 145.564L226.719 171.132L228.998 171.04L234.65 145.473L232.448 145.564Z" fill="white"/>
<path opacity="0.1" d="M235.964 145.416L230.234 170.983L234.757 170.8L240.409 145.232L235.964 145.416Z" fill="white"/>
<path d="M242.542 170.314L254.086 169.99C254.284 171.328 253.712 171.829 252.978 171.85L249.288 171.941L246.825 171.998L242.994 172.103L219.222 172.793L219.031 171.124L242.542 170.314Z" fill="#407BFF"/>
<path d="M242.54 170.316L254.084 169.992C254.281 171.33 253.71 171.83 252.976 171.852L249.285 171.943L246.823 172L242.991 172.105L213.567 173.007C213.229 173.014 212.918 172.831 212.77 172.521C212.509 171.971 212.897 171.323 213.511 171.302L242.54 170.316Z" fill="#407BFF"/>
<path opacity="0.2" d="M242.54 170.316L254.084 169.992C254.281 171.33 253.71 171.83 252.976 171.852L249.285 171.943L246.823 172L242.991 172.105L213.567 173.007C213.229 173.014 212.918 172.831 212.77 172.521C212.509 171.971 212.897 171.323 213.511 171.302L242.54 170.316Z" fill="black"/>
<path opacity="0.2" d="M254.087 169.992L254.158 170.457C254.264 171.175 253.713 171.83 252.979 171.852L249.289 171.943L242.438 172.19L242.55 170.316L254.087 169.992Z" fill="black"/>
<path opacity="0.2" d="M194.289 156.014C194.289 156.014 192.659 159.331 197.365 168.093L199.334 171.664C199.983 172.84 204.301 170.438 205.585 168.234C205.585 168.234 197.337 163.289 194.289 156.014Z" fill="black"/>
<path d="M234.204 166.225L237.485 165.26L236.956 170.324C236.956 170.324 232.377 173.381 230.789 170.458L231.424 168.824C231.918 167.584 232.934 166.626 234.204 166.225Z" fill="#FEC4AD"/>
<path d="M241.256 167.246L240.847 169.071C240.727 169.634 240.247 170.05 239.668 170.099L236.938 170.31L237.467 165.246L240.148 165.669C240.861 165.76 241.369 166.415 241.27 167.127C241.27 167.176 241.263 167.211 241.256 167.246Z" fill="#FEC4AD"/>
<path d="M206.881 174.783C209.168 177.882 212.385 180.467 216.174 181.207C220.634 182.08 229.214 175.783 233.236 171.705C233.031 169.987 233.151 169.057 231.429 168.817C231.429 168.817 227.005 172.057 218.651 174.001C215.955 174.628 214.156 171.874 211.799 167.867C210.628 165.866 206.832 157.675 205.4 155.851C203.106 152.921 196.565 155.02 199.162 162.07C200.256 165.042 205.011 172.255 206.881 174.783Z" fill="#FEC4AD"/>
<path d="M204.447 151.059C209.089 155.313 211.347 162.835 211.347 162.835L200.509 169.428C200.509 169.428 192.585 158.327 193.996 154.461C195.111 151.46 197.179 149.488 199.895 149.319C201.582 149.213 203.205 149.918 204.447 151.059Z" fill="#407BFF"/>
<path d="M179.593 195.647L178.775 195.668C178.612 195.647 178.485 195.591 178.492 195.485L178.789 191.97C178.803 191.865 178.937 191.78 179.099 191.773L179.918 191.752C180.08 191.773 180.207 191.836 180.2 191.935L179.904 195.457C179.897 195.562 179.756 195.668 179.593 195.647Z" fill="#407BFF"/>
<path d="M260.502 207.367L271.058 202.099L270.155 198.352L258.117 203.838L260.502 207.367Z" fill="#407BFF"/>
<path opacity="0.5" d="M260.502 207.367L271.058 202.099L270.155 198.352L258.117 203.838L260.502 207.367Z" fill="white"/>
<path d="M277.232 211.487L269.95 213.692C269.66 213.769 269.477 214.044 269.512 214.34L270.387 220.932C270.5 221.58 271.114 222.024 271.763 221.911C271.805 221.904 271.848 221.897 271.89 221.883C284.055 219.862 288.07 217.636 289.375 217.192C293.108 215.931 291.619 213.177 290.292 213.262C284.337 213.628 282.481 212.945 280.117 211.874C278.854 211.431 277.669 211.353 277.232 211.487Z" fill="#263238"/>
<path d="M179.32 124.579C177.132 124.924 174.966 123.247 174.282 121.148C173.597 119.05 174.162 116.704 175.284 114.795C176.109 113.387 181.521 110.048 183.532 113.809C187.526 121.289 179.32 124.579 179.32 124.579Z" fill="#263238"/>
<path d="M253.485 153.84L232.141 154.741L232.239 152.628L253.584 151.727L253.485 153.84Z" fill="#407BFF"/>
<g opacity="0.7">
<path d="M253.485 153.84L232.141 154.741L232.239 152.628L253.584 151.727L253.485 153.84Z" fill="white"/>
</g>
<path d="M253.36 156.767L232.016 157.676L232.107 155.563L253.452 154.654L253.36 156.767Z" fill="#407BFF"/>
<g opacity="0.7">
<path d="M253.36 156.767L232.016 157.676L232.107 155.563L253.452 154.654L253.36 156.767Z" fill="white"/>
</g>
<path d="M253.22 159.703L231.875 160.611L231.974 158.491L253.318 157.59L253.22 159.703Z" fill="#407BFF"/>
<g opacity="0.7">
<path d="M253.22 159.703L231.875 160.611L231.974 158.491L253.318 157.59L253.22 159.703Z" fill="white"/>
</g>
<path d="M253.095 162.633L231.75 163.541L231.849 161.428L253.193 160.52L253.095 162.633Z" fill="#407BFF"/>
<g opacity="0.7">
<path d="M253.095 162.633L231.75 163.541L231.849 161.428L253.193 160.52L253.095 162.633Z" fill="white"/>
</g>
<path d="M252.97 165.572L231.625 166.481L231.717 164.368L253.061 163.459L252.97 165.572Z" fill="#407BFF"/>
<g opacity="0.7">
<path d="M252.97 165.572L231.625 166.481L231.717 164.368L253.061 163.459L252.97 165.572Z" fill="white"/>
</g>
<path d="M223.526 155.926L221.812 156L221.843 156.704L223.556 156.63L223.526 155.926Z" fill="#407BFF"/>
<g opacity="0.5">
<path d="M223.526 155.926L221.812 156L221.843 156.704L223.556 156.63L223.526 155.926Z" fill="white"/>
</g>
<path d="M223.447 157.956L221.734 158.029L221.765 158.733L223.478 158.659L223.447 157.956Z" fill="#407BFF"/>
<g opacity="0.5">
<path d="M223.447 157.956L221.734 158.029L221.765 158.733L223.478 158.659L223.447 157.956Z" fill="white"/>
</g>
<path d="M223.362 159.991L221.648 160.064L221.679 160.768L223.392 160.695L223.362 159.991Z" fill="#407BFF"/>
<g opacity="0.5">
<path d="M223.362 159.991L221.648 160.064L221.679 160.768L223.392 160.695L223.362 159.991Z" fill="white"/>
</g>
<path d="M223.291 162.022L221.578 162.096L221.608 162.799L223.321 162.726L223.291 162.022Z" fill="#407BFF"/>
<g opacity="0.5">
<path d="M223.291 162.022L221.578 162.096L221.608 162.799L223.321 162.726L223.291 162.022Z" fill="white"/>
</g>
<path d="M223.205 164.054L221.492 164.127L221.522 164.831L223.236 164.757L223.205 164.054Z" fill="#407BFF"/>
<g opacity="0.5">
<path d="M221.516 164.831L221.579 164.126L223.287 164.049L223.223 164.76L221.516 164.831Z" fill="white"/>
</g>
<path d="M223.119 166.084L221.406 166.156L221.436 166.86L223.149 166.788L223.119 166.084Z" fill="#407BFF"/>
<g opacity="0.5">
<path d="M223.119 166.084L221.406 166.156L221.436 166.86L223.149 166.788L223.119 166.084Z" fill="white"/>
</g>
<path d="M225.308 153.983L221.766 155.293L221.801 154.371L223.762 154.054L221.822 153.92L221.857 152.99L225.308 153.983Z" fill="#407BFF"/>
<path d="M246.93 150.623L232.141 151.25L232.211 149.785L247.001 149.158L246.93 150.623Z" fill="#407BFF"/>
<g opacity="0.7">
<path d="M246.93 150.623L232.141 151.25L232.211 149.785L247.001 149.158L246.93 150.623Z" fill="white"/>
</g>
<path d="M226.979 151.377L224.812 151.476L225.687 150.919L225.927 151.138L226.188 150.912L226.979 151.377Z" fill="#407BFF"/>
<path d="M225.602 150.852L224.727 151.415L224.79 150.119L225.602 150.852Z" fill="#407BFF"/>
<path d="M227.118 150.082L227.047 151.308L226.25 150.836L227.118 150.082Z" fill="#407BFF"/>
<path d="M225.955 150.619L225.906 150.67L225.911 150.675L225.96 150.624L225.955 150.619Z" fill="white"/>
<path d="M225.911 150.64L225.906 150.645L225.955 150.696L225.96 150.691L225.911 150.64Z" fill="white"/>
<path d="M227.12 149.955L226.188 150.8L225.927 151.033L225.687 150.807L224.876 150.075L224.812 150.018L227.12 149.955Z" fill="#407BFF"/>
<path d="M223.541 150.185L221.828 150.258L221.837 150.469L223.55 150.397L223.541 150.185Z" fill="#407BFF"/>
<path d="M223.541 150.724L221.828 150.797L221.837 151.008L223.55 150.936L223.541 150.724Z" fill="#407BFF"/>
<path d="M223.541 151.263L221.828 151.336L221.837 151.547L223.55 151.475L223.541 151.263Z" fill="#407BFF"/>
<path d="M322.944 44.273H312.663C311.732 44.273 310.977 43.5193 310.977 42.5896C310.977 41.6599 311.732 40.9062 312.663 40.9062H322.944C323.875 40.9062 324.63 41.6599 324.63 42.5896C324.63 43.5193 323.875 44.273 322.944 44.273Z" fill="#407BFF"/>
<g opacity="0.7">
<path d="M322.944 44.273H312.663C311.732 44.273 310.977 43.5193 310.977 42.5896C310.977 41.6599 311.732 40.9062 312.663 40.9062H322.944C323.875 40.9062 324.63 41.6599 324.63 42.5896C324.63 43.5193 323.875 44.273 322.944 44.273Z" fill="white"/>
</g>
<path d="M360.66 78.8608L321.245 151.266C320.737 152.196 319.566 152.541 318.634 152.034L251.566 115.655C250.635 115.148 250.289 113.979 250.797 113.049L302.059 18.8727C302.567 17.943 303.739 17.5979 304.67 18.105L349.864 42.6158L360.66 78.8608Z" fill="#407BFF"/>
<g opacity="0.2">
<path d="M360.66 78.8608L321.245 151.266C320.737 152.196 319.566 152.541 318.634 152.034L251.566 115.655C250.635 115.148 250.289 113.979 250.797 113.049L302.059 18.8727C302.567 17.943 303.739 17.5979 304.67 18.105L349.864 42.6158L360.66 78.8608Z" fill="white"/>
</g>
<path d="M338.544 95.1128L288.453 68.1387L286.778 71.2381L336.868 98.2122L338.544 95.1128Z" fill="#407BFF"/>
<path d="M331.7 107.777L281.609 80.8027L279.934 83.9022L330.025 110.876L331.7 107.777Z" fill="#407BFF"/>
<path d="M324.856 120.441L274.766 93.4668L273.091 96.5662L323.181 123.54L324.856 120.441Z" fill="#407BFF"/>
<path d="M349.921 42.584L338.031 64.4254C337.523 65.3551 337.869 66.5243 338.8 67.0314L360.611 78.8642L349.921 42.584Z" fill="#407BFF"/>
<path opacity="0.7" d="M349.921 42.584L338.031 64.4254C337.523 65.3551 337.869 66.5243 338.8 67.0314L360.611 78.8642L349.921 42.584Z" fill="white"/>
<path d="M370.934 76.4272L331.518 148.833C331.01 149.762 329.839 150.108 328.908 149.6L261.839 113.222C260.908 112.714 260.562 111.545 261.07 110.616L312.333 16.4391C312.841 15.5094 314.012 15.1643 314.944 15.6714L360.138 40.1822L370.934 76.4272Z" fill="#407BFF"/>
<g opacity="0.5">
<path d="M370.934 76.4272L331.518 148.833C331.01 149.762 329.839 150.108 328.908 149.6L261.839 113.222C260.908 112.714 260.562 111.545 261.07 110.616L312.333 16.4391C312.841 15.5094 314.012 15.1643 314.944 15.6714L360.138 40.1822L370.934 76.4272Z" fill="white"/>
</g>
<path d="M347.484 91.9584L300.068 66.4263C299.327 66.0319 298.409 66.3066 298.007 67.0391L297.774 67.4687C297.379 68.2083 297.654 69.1239 298.388 69.5254L345.805 95.0575C346.546 95.4519 347.463 95.1772 347.865 94.4447L348.098 94.015C348.501 93.2755 348.225 92.3528 347.484 91.9584Z" fill="#407BFF"/>
<path d="M340.641 104.622L293.224 79.0904C292.483 78.6959 291.566 78.9706 291.163 79.7031L290.931 80.1328C290.535 80.8723 290.811 81.788 291.544 82.1894L338.961 107.722C339.702 108.116 340.62 107.841 341.022 107.109L341.255 106.679C341.657 105.94 341.382 105.017 340.641 104.622Z" fill="#407BFF"/>
<path d="M333.797 117.287L286.38 91.7544C285.639 91.36 284.722 91.6347 284.32 92.3672L284.087 92.7968C283.692 93.5364 283.967 94.452 284.701 94.8535L332.118 120.386C332.858 120.78 333.776 120.505 334.178 119.773L334.411 119.343C334.813 118.604 334.538 117.688 333.797 117.287Z" fill="#407BFF"/>
<path d="M360.202 40.1523L348.312 61.9937C347.804 62.9234 348.15 64.0926 349.082 64.5998L370.892 76.4326L360.202 40.1523Z" fill="#407BFF"/>
<path opacity="0.7" d="M360.202 40.1523L348.312 61.9937C347.804 62.9234 348.15 64.0926 349.082 64.5998L370.892 76.4326L360.202 40.1523Z" fill="white"/>
<path d="M379.485 27L382.797 41.726C370.26 45.1765 359.014 57.6022 350.922 69.3506C347.732 73.9864 345.028 79.3702 343.008 85.0645C343.008 85.0645 368.283 62.1534 382.222 60.8127L381.563 85.1562C381.563 85.1562 396.012 56.953 424.086 46.63C424.079 46.6229 400.566 29.6601 379.485 27Z" fill="#407BFF"/>
<path d="M186.615 167.544L193.015 240.562H182.699L175.812 161.986H180.54C183.708 161.986 186.34 164.402 186.615 167.544Z" fill="#F3BA7A"/>
<path opacity="0.2" d="M186.68 168.206L193.023 240.57H182.707L175.82 161.994H179.885C183.42 161.987 186.369 164.692 186.68 168.206Z" fill="black"/>
<path d="M179.914 166.748L186.384 240.57H124.968L118.575 167.657C118.307 164.614 120.713 161.994 123.775 161.994H174.706C177.423 161.987 179.681 164.058 179.914 166.748Z" fill="#F3BA7A"/>
<path opacity="0.2" d="M179.989 167.551L186.388 240.57H124.972L118.664 168.615C118.354 165.058 121.162 161.994 124.739 161.994H173.906C177.074 161.987 179.713 164.403 179.989 167.551Z" fill="white"/>
<path d="M287.996 240.572H125.248L123.477 220.322H279.706C283.311 220.322 286.486 223.238 286.797 226.837L287.996 240.572Z" fill="#F3BA7A"/>
<path opacity="0.2" d="M287.996 240.572H125.248L123.477 220.322H279.706C283.311 220.322 286.486 223.238 286.797 226.837L287.996 240.572Z" fill="white"/>
<path d="M295.466 248.326H123.34C121.11 248.326 119.297 246.522 119.297 244.29C119.297 242.064 121.103 240.254 123.34 240.254H295.466C297.696 240.254 299.51 242.057 299.51 244.29C299.51 246.515 297.696 248.326 295.466 248.326Z" fill="#F3BA7A"/>
<path opacity="0.2" d="M295.464 248.326H195.543C193.313 248.326 191.5 246.522 191.5 244.29C191.5 242.064 193.306 240.254 195.543 240.254H295.464C297.694 240.254 299.508 242.057 299.508 244.29C299.508 246.515 297.694 248.326 295.464 248.326Z" fill="black"/>
<path d="M125.594 248.328L127.633 255.252H131.711L133.955 248.328H125.594Z" fill="#263238"/>
<path opacity="0.5" d="M125.594 248.328L127.633 255.252H131.711L133.955 248.328H125.594Z" fill="white"/>
<path d="M184.039 248.328L186.078 255.252H190.157L192.401 248.328H184.039Z" fill="#263238"/>
<path opacity="0.5" d="M184.039 248.328L186.078 255.252H190.157L192.401 248.328H184.039Z" fill="white"/>
<path d="M228.773 248.328L230.813 255.252H234.891L237.135 248.328H228.773Z" fill="#263238"/>
<path opacity="0.5" d="M228.773 248.328L230.813 255.252H234.891L237.135 248.328H228.773Z" fill="white"/>
<path d="M287.219 248.328L289.258 255.252H293.336L295.58 248.328H287.219Z" fill="#263238"/>
<path opacity="0.5" d="M287.219 248.328L289.258 255.252H293.336L295.58 248.328H287.219Z" fill="white"/>
<path d="M59.3611 293.974L63.6611 301.374L68.0011 293.974H69.9611L64.5611 302.994V308.174H62.7611V302.954L57.3811 293.974H59.3611ZM74.3902 308.374C73.6035 308.374 72.8902 308.234 72.2502 307.954C71.6102 307.66 71.0568 307.267 70.5902 306.774C70.1235 306.267 69.7635 305.687 69.5102 305.034C69.2568 304.38 69.1302 303.694 69.1302 302.974C69.1302 302.24 69.2568 301.547 69.5102 300.894C69.7635 300.24 70.1235 299.667 70.5902 299.174C71.0568 298.667 71.6102 298.274 72.2502 297.994C72.9035 297.7 73.6235 297.554 74.4102 297.554C75.1835 297.554 75.8902 297.7 76.5302 297.994C77.1702 298.274 77.7235 298.667 78.1902 299.174C78.6702 299.667 79.0368 300.24 79.2902 300.894C79.5435 301.547 79.6702 302.24 79.6702 302.974C79.6702 303.694 79.5435 304.38 79.2902 305.034C79.0368 305.687 78.6768 306.267 78.2102 306.774C77.7435 307.267 77.1835 307.66 76.5302 307.954C75.8902 308.234 75.1768 308.374 74.3902 308.374ZM70.9302 302.994C70.9302 303.714 71.0835 304.367 71.3902 304.954C71.7102 305.54 72.1302 306.007 72.6502 306.354C73.1702 306.687 73.7502 306.854 74.3902 306.854C75.0302 306.854 75.6102 306.68 76.1302 306.334C76.6635 305.987 77.0835 305.52 77.3902 304.934C77.7102 304.334 77.8702 303.674 77.8702 302.954C77.8702 302.234 77.7102 301.58 77.3902 300.994C77.0835 300.407 76.6635 299.94 76.1302 299.594C75.6102 299.247 75.0302 299.074 74.3902 299.074C73.7502 299.074 73.1702 299.254 72.6502 299.614C72.1302 299.96 71.7102 300.427 71.3902 301.014C71.0835 301.6 70.9302 302.26 70.9302 302.994ZM81.7028 303.994V297.734H83.4628V303.654C83.4628 304.72 83.6495 305.52 84.0228 306.054C84.3961 306.587 84.9495 306.854 85.6828 306.854C86.1628 306.854 86.6228 306.754 87.0628 306.554C87.5161 306.34 87.9228 306.04 88.2828 305.654C88.6428 305.267 88.9228 304.807 89.1228 304.274V297.734H90.8828V306.174C90.8828 306.387 90.9228 306.547 91.0028 306.654C91.0961 306.747 91.2428 306.8 91.4428 306.814V308.174C91.2428 308.2 91.0828 308.214 90.9628 308.214C90.8561 308.227 90.7495 308.234 90.6428 308.234C90.3095 308.234 90.0228 308.134 89.7828 307.934C89.5428 307.72 89.4161 307.46 89.4028 307.154L89.3628 305.934C88.9095 306.707 88.2961 307.307 87.5228 307.734C86.7628 308.16 85.9295 308.374 85.0228 308.374C83.9295 308.374 83.1028 308.007 82.5428 307.274C81.9828 306.527 81.7028 305.434 81.7028 303.994ZM99.1531 308.174V293.974H104.073C105.593 293.974 106.86 294.294 107.873 294.934C108.9 295.56 109.666 296.414 110.173 297.494C110.68 298.56 110.933 299.747 110.933 301.054C110.933 302.494 110.653 303.747 110.093 304.814C109.533 305.88 108.74 306.707 107.713 307.294C106.686 307.88 105.473 308.174 104.073 308.174H99.1531ZM109.113 301.054C109.113 299.987 108.913 299.04 108.513 298.214C108.126 297.387 107.56 296.74 106.813 296.274C106.066 295.807 105.153 295.574 104.073 295.574H100.953V306.574H104.073C105.166 306.574 106.086 306.334 106.833 305.854C107.58 305.36 108.146 304.7 108.533 303.874C108.92 303.034 109.113 302.094 109.113 301.054ZM117.75 308.374C116.963 308.374 116.25 308.234 115.61 307.954C114.97 307.66 114.416 307.267 113.95 306.774C113.483 306.267 113.123 305.687 112.87 305.034C112.616 304.38 112.49 303.694 112.49 302.974C112.49 302.24 112.616 301.547 112.87 300.894C113.123 300.24 113.483 299.667 113.95 299.174C114.416 298.667 114.97 298.274 115.61 297.994C116.263 297.7 116.983 297.554 117.77 297.554C118.543 297.554 119.25 297.7 119.89 297.994C120.53 298.274 121.083 298.667 121.55 299.174C122.03 299.667 122.396 300.24 122.65 300.894C122.903 301.547 123.03 302.24 123.03 302.974C123.03 303.694 122.903 304.38 122.65 305.034C122.396 305.687 122.036 306.267 121.57 306.774C121.103 307.267 120.543 307.66 119.89 307.954C119.25 308.234 118.536 308.374 117.75 308.374ZM114.29 302.994C114.29 303.714 114.443 304.367 114.75 304.954C115.07 305.54 115.49 306.007 116.01 306.354C116.53 306.687 117.11 306.854 117.75 306.854C118.39 306.854 118.97 306.68 119.49 306.334C120.023 305.987 120.443 305.52 120.75 304.934C121.07 304.334 121.23 303.674 121.23 302.954C121.23 302.234 121.07 301.58 120.75 300.994C120.443 300.407 120.023 299.94 119.49 299.594C118.97 299.247 118.39 299.074 117.75 299.074C117.11 299.074 116.53 299.254 116.01 299.614C115.49 299.96 115.07 300.427 114.75 301.014C114.443 301.6 114.29 302.26 114.29 302.994ZM134.222 308.174H132.462V302.334C132.462 301.227 132.289 300.42 131.942 299.914C131.609 299.394 131.096 299.134 130.402 299.134C129.922 299.134 129.442 299.254 128.962 299.494C128.496 299.734 128.076 300.06 127.702 300.474C127.342 300.874 127.082 301.34 126.922 301.874V308.174H125.162V297.734H126.762V299.974C127.042 299.48 127.402 299.054 127.842 298.694C128.282 298.334 128.782 298.054 129.342 297.854C129.902 297.654 130.489 297.554 131.102 297.554C131.702 297.554 132.202 297.667 132.602 297.894C133.016 298.107 133.336 298.414 133.562 298.814C133.802 299.2 133.969 299.66 134.062 300.194C134.169 300.727 134.222 301.307 134.222 301.934V308.174ZM135.69 298.154L136.09 295.854H135.49V293.574H137.15V295.854L136.55 298.154H135.69ZM144.215 307.654C144.068 307.72 143.868 307.807 143.615 307.914C143.361 308.02 143.068 308.114 142.735 308.194C142.401 308.274 142.048 308.314 141.675 308.314C141.248 308.314 140.855 308.24 140.495 308.094C140.135 307.934 139.848 307.694 139.635 307.374C139.421 307.04 139.315 306.627 139.315 306.134V299.114H137.895V297.734H139.315V294.254H141.075V297.734H143.415V299.114H141.075V305.594C141.101 305.967 141.228 306.247 141.455 306.434C141.681 306.607 141.948 306.694 142.255 306.694C142.601 306.694 142.921 306.634 143.215 306.514C143.508 306.394 143.701 306.307 143.795 306.254L144.215 307.654ZM159.964 308.174H158.204V302.334C158.204 301.267 158.011 300.467 157.624 299.934C157.251 299.4 156.711 299.134 156.004 299.134C155.551 299.134 155.091 299.254 154.624 299.494C154.171 299.734 153.771 300.06 153.424 300.474C153.078 300.874 152.824 301.34 152.664 301.874V308.174H150.904V293.574H152.664V299.974C153.078 299.227 153.638 298.64 154.344 298.214C155.064 297.774 155.838 297.554 156.664 297.554C157.291 297.554 157.811 297.667 158.224 297.894C158.651 298.107 158.991 298.414 159.244 298.814C159.498 299.214 159.678 299.68 159.784 300.214C159.904 300.734 159.964 301.307 159.964 301.934V308.174ZM161.881 305.154C161.881 304.487 162.068 303.914 162.441 303.434C162.828 302.94 163.355 302.56 164.021 302.294C164.688 302.027 165.461 301.894 166.341 301.894C166.808 301.894 167.301 301.934 167.821 302.014C168.341 302.08 168.801 302.187 169.201 302.334V301.574C169.201 300.774 168.961 300.147 168.481 299.694C168.001 299.227 167.321 298.994 166.441 298.994C165.868 298.994 165.315 299.1 164.781 299.314C164.261 299.514 163.708 299.807 163.121 300.194L162.481 298.954C163.161 298.487 163.841 298.14 164.521 297.914C165.201 297.674 165.908 297.554 166.641 297.554C167.975 297.554 169.028 297.927 169.801 298.674C170.575 299.407 170.961 300.434 170.961 301.754V306.174C170.961 306.387 171.001 306.547 171.081 306.654C171.175 306.747 171.321 306.8 171.521 306.814V308.174C171.348 308.2 171.195 308.22 171.061 308.234C170.941 308.247 170.841 308.254 170.761 308.254C170.348 308.254 170.035 308.14 169.821 307.914C169.621 307.687 169.508 307.447 169.481 307.194L169.441 306.534C168.988 307.12 168.395 307.574 167.661 307.894C166.928 308.214 166.201 308.374 165.481 308.374C164.788 308.374 164.168 308.234 163.621 307.954C163.075 307.66 162.648 307.274 162.341 306.794C162.035 306.3 161.881 305.754 161.881 305.154ZM168.681 305.894C168.841 305.707 168.968 305.52 169.061 305.334C169.155 305.134 169.201 304.967 169.201 304.834V303.534C168.788 303.374 168.355 303.254 167.901 303.174C167.448 303.08 167.001 303.034 166.561 303.034C165.668 303.034 164.941 303.214 164.381 303.574C163.835 303.92 163.561 304.4 163.561 305.014C163.561 305.347 163.648 305.674 163.821 305.994C164.008 306.3 164.275 306.554 164.621 306.754C164.981 306.954 165.421 307.054 165.941 307.054C166.488 307.054 167.008 306.947 167.501 306.734C167.995 306.507 168.388 306.227 168.681 305.894ZM176.443 308.174L172.343 297.734H174.183L177.463 306.494L180.743 297.734H182.463L178.363 308.174H176.443ZM188.493 308.374C187.706 308.374 186.986 308.234 186.333 307.954C185.693 307.66 185.133 307.267 184.653 306.774C184.186 306.267 183.82 305.687 183.553 305.034C183.3 304.38 183.173 303.687 183.173 302.954C183.173 301.967 183.4 301.067 183.853 300.254C184.306 299.44 184.933 298.787 185.733 298.294C186.546 297.8 187.473 297.554 188.513 297.554C189.566 297.554 190.48 297.807 191.253 298.314C192.04 298.807 192.646 299.46 193.073 300.274C193.513 301.074 193.733 301.94 193.733 302.874C193.733 303.007 193.726 303.14 193.713 303.274C193.713 303.394 193.706 303.487 193.693 303.554H185.033C185.086 304.234 185.273 304.84 185.593 305.374C185.926 305.894 186.353 306.307 186.873 306.614C187.393 306.907 187.953 307.054 188.553 307.054C189.193 307.054 189.793 306.894 190.353 306.574C190.926 306.254 191.32 305.834 191.533 305.314L193.053 305.734C192.826 306.24 192.486 306.694 192.033 307.094C191.593 307.494 191.066 307.807 190.453 308.034C189.853 308.26 189.2 308.374 188.493 308.374ZM184.973 302.334H192.093C192.04 301.654 191.846 301.054 191.513 300.534C191.18 300.014 190.753 299.607 190.233 299.314C189.713 299.02 189.14 298.874 188.513 298.874C187.9 298.874 187.333 299.02 186.813 299.314C186.293 299.607 185.866 300.014 185.533 300.534C185.213 301.054 185.026 301.654 184.973 302.334ZM199.928 305.154C199.928 304.487 200.115 303.914 200.488 303.434C200.875 302.94 201.401 302.56 202.068 302.294C202.735 302.027 203.508 301.894 204.388 301.894C204.855 301.894 205.348 301.934 205.868 302.014C206.388 302.08 206.848 302.187 207.248 302.334V301.574C207.248 300.774 207.008 300.147 206.528 299.694C206.048 299.227 205.368 298.994 204.488 298.994C203.915 298.994 203.361 299.1 202.828 299.314C202.308 299.514 201.755 299.807 201.168 300.194L200.528 298.954C201.208 298.487 201.888 298.14 202.568 297.914C203.248 297.674 203.955 297.554 204.688 297.554C206.021 297.554 207.075 297.927 207.848 298.674C208.621 299.407 209.008 300.434 209.008 301.754V306.174C209.008 306.387 209.048 306.547 209.128 306.654C209.221 306.747 209.368 306.8 209.568 306.814V308.174C209.395 308.2 209.241 308.22 209.108 308.234C208.988 308.247 208.888 308.254 208.808 308.254C208.395 308.254 208.081 308.14 207.868 307.914C207.668 307.687 207.555 307.447 207.528 307.194L207.488 306.534C207.035 307.12 206.441 307.574 205.708 307.894C204.975 308.214 204.248 308.374 203.528 308.374C202.835 308.374 202.215 308.234 201.668 307.954C201.121 307.66 200.695 307.274 200.388 306.794C200.081 306.3 199.928 305.754 199.928 305.154ZM206.728 305.894C206.888 305.707 207.015 305.52 207.108 305.334C207.201 305.134 207.248 304.967 207.248 304.834V303.534C206.835 303.374 206.401 303.254 205.948 303.174C205.495 303.08 205.048 303.034 204.608 303.034C203.715 303.034 202.988 303.214 202.428 303.574C201.881 303.92 201.608 304.4 201.608 305.014C201.608 305.347 201.695 305.674 201.868 305.994C202.055 306.3 202.321 306.554 202.668 306.754C203.028 306.954 203.468 307.054 203.988 307.054C204.535 307.054 205.055 306.947 205.548 306.734C206.041 306.507 206.435 306.227 206.728 305.894ZM220.882 308.174H219.122V302.334C219.122 301.227 218.949 300.42 218.602 299.914C218.269 299.394 217.756 299.134 217.062 299.134C216.582 299.134 216.102 299.254 215.622 299.494C215.156 299.734 214.736 300.06 214.362 300.474C214.002 300.874 213.742 301.34 213.582 301.874V308.174H211.822V297.734H213.422V299.974C213.702 299.48 214.062 299.054 214.502 298.694C214.942 298.334 215.442 298.054 216.002 297.854C216.562 297.654 217.149 297.554 217.762 297.554C218.362 297.554 218.862 297.667 219.262 297.894C219.676 298.107 219.996 298.414 220.222 298.814C220.462 299.2 220.629 299.66 220.722 300.194C220.829 300.727 220.882 301.307 220.882 301.934V308.174ZM223.904 311.014C224.077 311.027 224.251 311.04 224.424 311.054C224.597 311.08 224.731 311.094 224.824 311.094C225.037 311.094 225.224 311.02 225.384 310.874C225.544 310.727 225.717 310.44 225.904 310.014C226.104 309.6 226.357 308.987 226.664 308.174L222.244 297.734H224.104L227.624 306.394L230.804 297.734H232.544L227.464 310.914C227.344 311.22 227.164 311.507 226.924 311.774C226.697 312.054 226.404 312.274 226.044 312.434C225.684 312.594 225.251 312.674 224.744 312.674C224.624 312.674 224.497 312.667 224.364 312.654C224.244 312.64 224.091 312.614 223.904 312.574V311.014ZM239.114 308.174V293.974H245.034C245.661 293.974 246.234 294.107 246.754 294.374C247.274 294.627 247.727 294.974 248.114 295.414C248.501 295.84 248.801 296.327 249.014 296.874C249.227 297.407 249.334 297.954 249.334 298.514C249.334 299.287 249.161 300.027 248.814 300.734C248.467 301.427 247.981 301.994 247.354 302.434C246.727 302.86 245.994 303.074 245.154 303.074H240.914V308.174H239.114ZM240.914 301.474H245.054C245.547 301.474 245.974 301.34 246.334 301.074C246.707 300.807 246.994 300.447 247.194 299.994C247.407 299.54 247.514 299.047 247.514 298.514C247.514 297.954 247.394 297.454 247.154 297.014C246.914 296.56 246.601 296.207 246.214 295.954C245.827 295.7 245.401 295.574 244.934 295.574H240.914V301.474ZM255.72 308.374C254.933 308.374 254.213 308.234 253.56 307.954C252.92 307.66 252.36 307.267 251.88 306.774C251.413 306.267 251.046 305.687 250.78 305.034C250.526 304.38 250.4 303.687 250.4 302.954C250.4 301.967 250.626 301.067 251.08 300.254C251.533 299.44 252.16 298.787 252.96 298.294C253.773 297.8 254.7 297.554 255.74 297.554C256.793 297.554 257.706 297.807 258.48 298.314C259.266 298.807 259.873 299.46 260.3 300.274C260.74 301.074 260.96 301.94 260.96 302.874C260.96 303.007 260.953 303.14 260.94 303.274C260.94 303.394 260.933 303.487 260.92 303.554H252.26C252.313 304.234 252.5 304.84 252.82 305.374C253.153 305.894 253.58 306.307 254.1 306.614C254.62 306.907 255.18 307.054 255.78 307.054C256.42 307.054 257.02 306.894 257.58 306.574C258.153 306.254 258.546 305.834 258.76 305.314L260.28 305.734C260.053 306.24 259.713 306.694 259.26 307.094C258.82 307.494 258.293 307.807 257.68 308.034C257.08 308.26 256.426 308.374 255.72 308.374ZM252.2 302.334H259.32C259.266 301.654 259.073 301.054 258.74 300.534C258.406 300.014 257.98 299.607 257.46 299.314C256.94 299.02 256.366 298.874 255.74 298.874C255.126 298.874 254.56 299.02 254.04 299.314C253.52 299.607 253.093 300.014 252.76 300.534C252.44 301.054 252.253 301.654 252.2 302.334ZM271.976 308.174H270.216V302.334C270.216 301.227 270.043 300.42 269.696 299.914C269.363 299.394 268.849 299.134 268.156 299.134C267.676 299.134 267.196 299.254 266.716 299.494C266.249 299.734 265.829 300.06 265.456 300.474C265.096 300.874 264.836 301.34 264.676 301.874V308.174H262.916V297.734H264.516V299.974C264.796 299.48 265.156 299.054 265.596 298.694C266.036 298.334 266.536 298.054 267.096 297.854C267.656 297.654 268.243 297.554 268.856 297.554C269.456 297.554 269.956 297.667 270.356 297.894C270.769 298.107 271.089 298.414 271.316 298.814C271.556 299.2 271.723 299.66 271.816 300.194C271.923 300.727 271.976 301.307 271.976 301.934V308.174ZM274.033 302.974C274.033 301.987 274.233 301.087 274.633 300.274C275.046 299.447 275.606 298.787 276.313 298.294C277.033 297.8 277.853 297.554 278.773 297.554C279.613 297.554 280.366 297.774 281.033 298.214C281.7 298.654 282.22 299.187 282.593 299.814V293.574H284.353V306.174C284.353 306.387 284.393 306.547 284.473 306.654C284.566 306.747 284.713 306.8 284.913 306.814V308.174C284.58 308.227 284.32 308.254 284.133 308.254C283.786 308.254 283.48 308.134 283.213 307.894C282.96 307.654 282.833 307.387 282.833 307.094V306.214C282.42 306.88 281.866 307.407 281.173 307.794C280.48 308.18 279.76 308.374 279.013 308.374C278.293 308.374 277.626 308.234 277.013 307.954C276.413 307.66 275.886 307.26 275.433 306.754C274.993 306.247 274.646 305.674 274.393 305.034C274.153 304.38 274.033 303.694 274.033 302.974ZM282.593 304.514V301.514C282.433 301.06 282.173 300.654 281.813 300.294C281.453 299.92 281.046 299.627 280.593 299.414C280.153 299.187 279.713 299.074 279.273 299.074C278.753 299.074 278.28 299.187 277.853 299.414C277.44 299.627 277.08 299.92 276.773 300.294C276.48 300.654 276.253 301.067 276.093 301.534C275.933 302 275.853 302.487 275.853 302.994C275.853 303.514 275.94 304.007 276.113 304.474C276.3 304.94 276.553 305.354 276.873 305.714C277.206 306.074 277.586 306.354 278.013 306.554C278.453 306.754 278.926 306.854 279.433 306.854C279.753 306.854 280.08 306.794 280.413 306.674C280.76 306.554 281.086 306.387 281.393 306.174C281.7 305.96 281.96 305.714 282.173 305.434C282.386 305.14 282.526 304.834 282.593 304.514ZM287.291 308.174V297.734H289.051V308.174H287.291ZM287.291 295.774V293.574H289.051V295.774H287.291ZM300.96 308.174H299.2V302.334C299.2 301.227 299.027 300.42 298.68 299.914C298.347 299.394 297.834 299.134 297.14 299.134C296.66 299.134 296.18 299.254 295.7 299.494C295.234 299.734 294.814 300.06 294.44 300.474C294.08 300.874 293.82 301.34 293.66 301.874V308.174H291.9V297.734H293.5V299.974C293.78 299.48 294.14 299.054 294.58 298.694C295.02 298.334 295.52 298.054 296.08 297.854C296.64 297.654 297.227 297.554 297.84 297.554C298.44 297.554 298.94 297.667 299.34 297.894C299.754 298.107 300.074 298.414 300.3 298.814C300.54 299.2 300.707 299.66 300.8 300.194C300.907 300.727 300.96 301.307 300.96 301.934V308.174ZM307.857 308.294C307.151 308.294 306.497 308.154 305.897 307.874C305.311 307.58 304.804 307.187 304.377 306.694C303.951 306.187 303.617 305.614 303.377 304.974C303.151 304.334 303.037 303.667 303.037 302.974C303.037 302.24 303.151 301.547 303.377 300.894C303.617 300.24 303.951 299.667 304.377 299.174C304.817 298.667 305.331 298.274 305.917 297.994C306.504 297.7 307.157 297.554 307.877 297.554C308.744 297.554 309.497 297.767 310.137 298.194C310.791 298.62 311.337 299.16 311.777 299.814V297.734H313.337V308.054C313.337 309.04 313.097 309.874 312.617 310.554C312.151 311.234 311.511 311.747 310.697 312.094C309.897 312.454 309.004 312.634 308.017 312.634C306.844 312.634 305.884 312.427 305.137 312.014C304.391 311.6 303.771 311.04 303.277 310.334L304.297 309.434C304.711 310.047 305.244 310.507 305.897 310.814C306.564 311.12 307.271 311.274 308.017 311.274C308.657 311.274 309.244 311.154 309.777 310.914C310.324 310.687 310.757 310.334 311.077 309.854C311.411 309.374 311.577 308.774 311.577 308.054V306.214C311.191 306.854 310.657 307.36 309.977 307.734C309.311 308.107 308.604 308.294 307.857 308.294ZM308.397 306.854C308.771 306.854 309.131 306.787 309.477 306.654C309.824 306.52 310.144 306.347 310.437 306.134C310.731 305.907 310.977 305.654 311.177 305.374C311.377 305.094 311.511 304.807 311.577 304.514V301.514C311.391 301.034 311.124 300.614 310.777 300.254C310.431 299.88 310.037 299.594 309.597 299.394C309.157 299.18 308.704 299.074 308.237 299.074C307.704 299.074 307.224 299.187 306.797 299.414C306.384 299.64 306.031 299.947 305.737 300.334C305.444 300.707 305.217 301.127 305.057 301.594C304.897 302.06 304.817 302.534 304.817 303.014C304.817 303.534 304.911 304.027 305.097 304.494C305.284 304.947 305.537 305.354 305.857 305.714C306.177 306.074 306.557 306.354 306.997 306.554C307.437 306.754 307.904 306.854 308.397 306.854ZM321.516 308.174V293.974H327.596C328.223 293.974 328.796 294.107 329.316 294.374C329.836 294.627 330.29 294.974 330.676 295.414C331.063 295.84 331.363 296.327 331.576 296.874C331.79 297.407 331.896 297.954 331.896 298.514C331.896 299.167 331.77 299.787 331.516 300.374C331.276 300.96 330.93 301.46 330.476 301.874C330.036 302.287 329.516 302.574 328.916 302.734L332.356 308.174H330.316L327.076 303.074H323.316V308.174H321.516ZM323.316 301.474H327.616C328.11 301.474 328.536 301.34 328.896 301.074C329.27 300.794 329.556 300.427 329.756 299.974C329.97 299.52 330.076 299.034 330.076 298.514C330.076 297.98 329.956 297.494 329.716 297.054C329.476 296.6 329.163 296.24 328.776 295.974C328.39 295.707 327.963 295.574 327.496 295.574H323.316V301.474ZM338.669 308.374C337.882 308.374 337.162 308.234 336.509 307.954C335.869 307.66 335.309 307.267 334.829 306.774C334.362 306.267 333.996 305.687 333.729 305.034C333.476 304.38 333.349 303.687 333.349 302.954C333.349 301.967 333.576 301.067 334.029 300.254C334.482 299.44 335.109 298.787 335.909 298.294C336.722 297.8 337.649 297.554 338.689 297.554C339.742 297.554 340.656 297.807 341.429 298.314C342.216 298.807 342.822 299.46 343.249 300.274C343.689 301.074 343.909 301.94 343.909 302.874C343.909 303.007 343.902 303.14 343.889 303.274C343.889 303.394 343.882 303.487 343.869 303.554H335.209C335.262 304.234 335.449 304.84 335.769 305.374C336.102 305.894 336.529 306.307 337.049 306.614C337.569 306.907 338.129 307.054 338.729 307.054C339.369 307.054 339.969 306.894 340.529 306.574C341.102 306.254 341.496 305.834 341.709 305.314L343.229 305.734C343.002 306.24 342.662 306.694 342.209 307.094C341.769 307.494 341.242 307.807 340.629 308.034C340.029 308.26 339.376 308.374 338.669 308.374ZM335.149 302.334H342.269C342.216 301.654 342.022 301.054 341.689 300.534C341.356 300.014 340.929 299.607 340.409 299.314C339.889 299.02 339.316 298.874 338.689 298.874C338.076 298.874 337.509 299.02 336.989 299.314C336.469 299.607 336.042 300.014 335.709 300.534C335.389 301.054 335.202 301.654 335.149 302.334ZM349.865 308.374C349.172 308.374 348.539 308.227 347.965 307.934C347.392 307.64 346.899 307.247 346.485 306.754C346.072 306.247 345.752 305.667 345.525 305.014C345.299 304.36 345.185 303.674 345.185 302.954C345.185 302.22 345.312 301.527 345.565 300.874C345.819 300.22 346.165 299.647 346.605 299.154C347.059 298.66 347.585 298.274 348.185 297.994C348.785 297.7 349.432 297.554 350.125 297.554C350.939 297.554 351.679 297.76 352.345 298.174C353.012 298.574 353.539 299.087 353.925 299.714V297.734H355.485V312.434H353.725V306.114C352.765 307.62 351.479 308.374 349.865 308.374ZM350.465 306.854C350.959 306.854 351.405 306.754 351.805 306.554C352.219 306.354 352.585 306.087 352.905 305.754C353.225 305.407 353.499 305.027 353.725 304.614V301.614C353.672 301.267 353.539 300.947 353.325 300.654C353.112 300.347 352.852 300.074 352.545 299.834C352.239 299.594 351.905 299.407 351.545 299.274C351.199 299.14 350.852 299.074 350.505 299.074C349.985 299.074 349.512 299.187 349.085 299.414C348.659 299.627 348.285 299.92 347.965 300.294C347.659 300.667 347.419 301.087 347.245 301.554C347.072 302.02 346.985 302.5 346.985 302.994C346.985 303.687 347.132 304.327 347.425 304.914C347.732 305.5 348.145 305.974 348.665 306.334C349.185 306.68 349.785 306.854 350.465 306.854ZM358.226 303.994V297.734H359.986V303.654C359.986 304.72 360.173 305.52 360.546 306.054C360.92 306.587 361.473 306.854 362.206 306.854C362.686 306.854 363.146 306.754 363.586 306.554C364.04 306.34 364.446 306.04 364.806 305.654C365.166 305.267 365.446 304.807 365.646 304.274V297.734H367.406V306.174C367.406 306.387 367.446 306.547 367.526 306.654C367.62 306.747 367.766 306.8 367.966 306.814V308.174C367.766 308.2 367.606 308.214 367.486 308.214C367.38 308.227 367.273 308.234 367.166 308.234C366.833 308.234 366.546 308.134 366.306 307.934C366.066 307.72 365.94 307.46 365.926 307.154L365.886 305.934C365.433 306.707 364.82 307.307 364.046 307.734C363.286 308.16 362.453 308.374 361.546 308.374C360.453 308.374 359.626 308.007 359.066 307.274C358.506 306.527 358.226 305.434 358.226 303.994ZM374.958 308.374C374.171 308.374 373.451 308.234 372.798 307.954C372.158 307.66 371.598 307.267 371.118 306.774C370.651 306.267 370.285 305.687 370.018 305.034C369.765 304.38 369.638 303.687 369.638 302.954C369.638 301.967 369.865 301.067 370.318 300.254C370.771 299.44 371.398 298.787 372.198 298.294C373.011 297.8 373.938 297.554 374.978 297.554C376.031 297.554 376.945 297.807 377.718 298.314C378.505 298.807 379.111 299.46 379.538 300.274C379.978 301.074 380.198 301.94 380.198 302.874C380.198 303.007 380.191 303.14 380.178 303.274C380.178 303.394 380.171 303.487 380.158 303.554H371.498C371.551 304.234 371.738 304.84 372.058 305.374C372.391 305.894 372.818 306.307 373.338 306.614C373.858 306.907 374.418 307.054 375.018 307.054C375.658 307.054 376.258 306.894 376.818 306.574C377.391 306.254 377.785 305.834 377.998 305.314L379.518 305.734C379.291 306.24 378.951 306.694 378.498 307.094C378.058 307.494 377.531 307.807 376.918 308.034C376.318 308.26 375.665 308.374 374.958 308.374ZM371.438 302.334H378.558C378.505 301.654 378.311 301.054 377.978 300.534C377.645 300.014 377.218 299.607 376.698 299.314C376.178 299.02 375.605 298.874 374.978 298.874C374.365 298.874 373.798 299.02 373.278 299.314C372.758 299.607 372.331 300.014 371.998 300.534C371.678 301.054 371.491 301.654 371.438 302.334ZM385.734 308.374C384.868 308.374 384.054 308.234 383.294 307.954C382.534 307.66 381.881 307.227 381.334 306.654L382.014 305.414C382.614 305.974 383.214 306.374 383.814 306.614C384.414 306.854 385.028 306.974 385.654 306.974C386.374 306.974 386.961 306.84 387.414 306.574C387.868 306.294 388.094 305.887 388.094 305.354C388.094 304.967 387.974 304.68 387.734 304.494C387.508 304.307 387.181 304.154 386.754 304.034C386.328 303.9 385.821 303.754 385.234 303.594C384.514 303.38 383.908 303.154 383.414 302.914C382.921 302.674 382.548 302.374 382.294 302.014C382.041 301.654 381.914 301.2 381.914 300.654C381.914 299.987 382.088 299.427 382.434 298.974C382.781 298.507 383.254 298.154 383.854 297.914C384.468 297.674 385.161 297.554 385.934 297.554C386.708 297.554 387.408 297.674 388.034 297.914C388.661 298.154 389.201 298.507 389.654 298.974L388.854 300.194C388.441 299.767 387.988 299.454 387.494 299.254C387.001 299.04 386.448 298.934 385.834 298.934C385.474 298.934 385.121 298.98 384.774 299.074C384.428 299.154 384.141 299.307 383.914 299.534C383.688 299.747 383.574 300.054 383.574 300.454C383.574 300.787 383.661 301.054 383.834 301.254C384.021 301.44 384.288 301.6 384.634 301.734C384.994 301.867 385.428 302.014 385.934 302.174C386.721 302.4 387.401 302.627 387.974 302.854C388.561 303.08 389.014 303.374 389.334 303.734C389.654 304.094 389.814 304.594 389.814 305.234C389.814 306.22 389.441 306.994 388.694 307.554C387.948 308.1 386.961 308.374 385.734 308.374ZM397.32 307.654C397.173 307.72 396.973 307.807 396.72 307.914C396.467 308.02 396.173 308.114 395.84 308.194C395.507 308.274 395.153 308.314 394.78 308.314C394.353 308.314 393.96 308.24 393.6 308.094C393.24 307.934 392.953 307.694 392.74 307.374C392.527 307.04 392.42 306.627 392.42 306.134V299.114H391V297.734H392.42V294.254H394.18V297.734H396.52V299.114H394.18V305.594C394.207 305.967 394.333 306.247 394.56 306.434C394.787 306.607 395.053 306.694 395.36 306.694C395.707 306.694 396.027 306.634 396.32 306.514C396.613 306.394 396.807 306.307 396.9 306.254L397.32 307.654ZM402.531 308.374C401.665 308.374 400.851 308.234 400.091 307.954C399.331 307.66 398.678 307.227 398.131 306.654L398.811 305.414C399.411 305.974 400.011 306.374 400.611 306.614C401.211 306.854 401.825 306.974 402.451 306.974C403.171 306.974 403.758 306.84 404.211 306.574C404.665 306.294 404.891 305.887 404.891 305.354C404.891 304.967 404.771 304.68 404.531 304.494C404.305 304.307 403.978 304.154 403.551 304.034C403.125 303.9 402.618 303.754 402.031 303.594C401.311 303.38 400.705 303.154 400.211 302.914C399.718 302.674 399.345 302.374 399.091 302.014C398.838 301.654 398.711 301.2 398.711 300.654C398.711 299.987 398.885 299.427 399.231 298.974C399.578 298.507 400.051 298.154 400.651 297.914C401.265 297.674 401.958 297.554 402.731 297.554C403.505 297.554 404.205 297.674 404.831 297.914C405.458 298.154 405.998 298.507 406.451 298.974L405.651 300.194C405.238 299.767 404.785 299.454 404.291 299.254C403.798 299.04 403.245 298.934 402.631 298.934C402.271 298.934 401.918 298.98 401.571 299.074C401.225 299.154 400.938 299.307 400.711 299.534C400.485 299.747 400.371 300.054 400.371 300.454C400.371 300.787 400.458 301.054 400.631 301.254C400.818 301.44 401.085 301.6 401.431 301.734C401.791 301.867 402.225 302.014 402.731 302.174C403.518 302.4 404.198 302.627 404.771 302.854C405.358 303.08 405.811 303.374 406.131 303.734C406.451 304.094 406.611 304.594 406.611 305.234C406.611 306.22 406.238 306.994 405.491 307.554C404.745 308.1 403.758 308.374 402.531 308.374ZM422.395 296.954C422.235 296.767 422.022 296.587 421.755 296.414C421.489 296.24 421.189 296.087 420.855 295.954C420.522 295.807 420.155 295.694 419.755 295.614C419.369 295.52 418.962 295.474 418.535 295.474C417.442 295.474 416.635 295.68 416.115 296.094C415.595 296.507 415.335 297.074 415.335 297.794C415.335 298.3 415.469 298.7 415.735 298.994C416.002 299.287 416.409 299.527 416.955 299.714C417.515 299.9 418.222 300.094 419.075 300.294C420.062 300.507 420.915 300.767 421.635 301.074C422.355 301.38 422.909 301.794 423.295 302.314C423.682 302.82 423.875 303.5 423.875 304.354C423.875 305.034 423.742 305.627 423.475 306.134C423.222 306.627 422.862 307.04 422.395 307.374C421.929 307.694 421.382 307.934 420.755 308.094C420.129 308.24 419.449 308.314 418.715 308.314C417.995 308.314 417.289 308.24 416.595 308.094C415.915 307.934 415.269 307.707 414.655 307.414C414.042 307.12 413.469 306.754 412.935 306.314L413.795 304.794C414.009 305.02 414.282 305.247 414.615 305.474C414.962 305.687 415.349 305.887 415.775 306.074C416.215 306.26 416.689 306.414 417.195 306.534C417.702 306.64 418.222 306.694 418.755 306.694C419.769 306.694 420.555 306.514 421.115 306.154C421.675 305.78 421.955 305.24 421.955 304.534C421.955 304 421.795 303.574 421.475 303.254C421.169 302.934 420.709 302.667 420.095 302.454C419.482 302.24 418.735 302.027 417.855 301.814C416.895 301.574 416.089 301.314 415.435 301.034C414.782 300.74 414.289 300.36 413.955 299.894C413.635 299.427 413.475 298.82 413.475 298.074C413.475 297.167 413.695 296.4 414.135 295.774C414.575 295.147 415.182 294.674 415.955 294.354C416.729 294.034 417.602 293.874 418.575 293.874C419.215 293.874 419.809 293.94 420.355 294.074C420.915 294.207 421.435 294.394 421.915 294.634C422.395 294.874 422.835 295.16 423.235 295.494L422.395 296.954ZM430.583 308.374C429.796 308.374 429.076 308.234 428.423 307.954C427.783 307.66 427.223 307.267 426.743 306.774C426.276 306.267 425.91 305.687 425.643 305.034C425.39 304.38 425.263 303.687 425.263 302.954C425.263 301.967 425.49 301.067 425.943 300.254C426.396 299.44 427.023 298.787 427.823 298.294C428.636 297.8 429.563 297.554 430.603 297.554C431.656 297.554 432.57 297.807 433.343 298.314C434.13 298.807 434.736 299.46 435.163 300.274C435.603 301.074 435.823 301.94 435.823 302.874C435.823 303.007 435.816 303.14 435.803 303.274C435.803 303.394 435.796 303.487 435.783 303.554H427.123C427.176 304.234 427.363 304.84 427.683 305.374C428.016 305.894 428.443 306.307 428.963 306.614C429.483 306.907 430.043 307.054 430.643 307.054C431.283 307.054 431.883 306.894 432.443 306.574C433.016 306.254 433.41 305.834 433.623 305.314L435.143 305.734C434.916 306.24 434.576 306.694 434.123 307.094C433.683 307.494 433.156 307.807 432.543 308.034C431.943 308.26 431.29 308.374 430.583 308.374ZM427.063 302.334H434.183C434.13 301.654 433.936 301.054 433.603 300.534C433.27 300.014 432.843 299.607 432.323 299.314C431.803 299.02 431.23 298.874 430.603 298.874C429.99 298.874 429.423 299.02 428.903 299.314C428.383 299.607 427.956 300.014 427.623 300.534C427.303 301.054 427.116 301.654 427.063 302.334ZM446.839 308.174H445.079V302.334C445.079 301.227 444.906 300.42 444.559 299.914C444.226 299.394 443.713 299.134 443.019 299.134C442.539 299.134 442.059 299.254 441.579 299.494C441.113 299.734 440.693 300.06 440.319 300.474C439.959 300.874 439.699 301.34 439.539 301.874V308.174H437.779V297.734H439.379V299.974C439.659 299.48 440.019 299.054 440.459 298.694C440.899 298.334 441.399 298.054 441.959 297.854C442.519 297.654 443.106 297.554 443.719 297.554C444.319 297.554 444.819 297.667 445.219 297.894C445.633 298.107 445.953 298.414 446.179 298.814C446.419 299.2 446.586 299.66 446.679 300.194C446.786 300.727 446.839 301.307 446.839 301.934V308.174ZM454.879 307.654C454.732 307.72 454.532 307.807 454.279 307.914C454.025 308.02 453.732 308.114 453.399 308.194C453.065 308.274 452.712 308.314 452.339 308.314C451.912 308.314 451.519 308.24 451.159 308.094C450.799 307.934 450.512 307.694 450.299 307.374C450.085 307.04 449.979 306.627 449.979 306.134V299.114H448.559V297.734H449.979V294.254H451.739V297.734H454.079V299.114H451.739V305.594C451.765 305.967 451.892 306.247 452.119 306.434C452.345 306.607 452.612 306.694 452.919 306.694C453.265 306.694 453.585 306.634 453.879 306.514C454.172 306.394 454.365 306.307 454.459 306.254L454.879 307.654ZM461.502 311.014C461.675 311.027 461.848 311.04 462.022 311.054C462.195 311.08 462.328 311.094 462.422 311.094C462.635 311.094 462.822 311.02 462.982 310.874C463.142 310.727 463.315 310.44 463.502 310.014C463.702 309.6 463.955 308.987 464.262 308.174L459.842 297.734H461.702L465.222 306.394L468.402 297.734H470.142L465.062 310.914C464.942 311.22 464.762 311.507 464.522 311.774C464.295 312.054 464.002 312.274 463.642 312.434C463.282 312.594 462.848 312.674 462.342 312.674C462.222 312.674 462.095 312.667 461.962 312.654C461.842 312.64 461.688 312.614 461.502 312.574V311.014ZM476.169 308.374C475.382 308.374 474.662 308.234 474.009 307.954C473.369 307.66 472.809 307.267 472.329 306.774C471.862 306.267 471.496 305.687 471.229 305.034C470.976 304.38 470.849 303.687 470.849 302.954C470.849 301.967 471.076 301.067 471.529 300.254C471.982 299.44 472.609 298.787 473.409 298.294C474.222 297.8 475.149 297.554 476.189 297.554C477.242 297.554 478.156 297.807 478.929 298.314C479.716 298.807 480.322 299.46 480.749 300.274C481.189 301.074 481.409 301.94 481.409 302.874C481.409 303.007 481.402 303.14 481.389 303.274C481.389 303.394 481.382 303.487 481.369 303.554H472.709C472.762 304.234 472.949 304.84 473.269 305.374C473.602 305.894 474.029 306.307 474.549 306.614C475.069 306.907 475.629 307.054 476.229 307.054C476.869 307.054 477.469 306.894 478.029 306.574C478.602 306.254 478.996 305.834 479.209 305.314L480.729 305.734C480.502 306.24 480.162 306.694 479.709 307.094C479.269 307.494 478.742 307.807 478.129 308.034C477.529 308.26 476.876 308.374 476.169 308.374ZM472.649 302.334H479.769C479.716 301.654 479.522 301.054 479.189 300.534C478.856 300.014 478.429 299.607 477.909 299.314C477.389 299.02 476.816 298.874 476.189 298.874C475.576 298.874 475.009 299.02 474.489 299.314C473.969 299.607 473.542 300.014 473.209 300.534C472.889 301.054 472.702 301.654 472.649 302.334ZM488.668 307.654C488.521 307.72 488.321 307.807 488.068 307.914C487.814 308.02 487.521 308.114 487.188 308.194C486.854 308.274 486.501 308.314 486.128 308.314C485.701 308.314 485.308 308.24 484.948 308.094C484.588 307.934 484.301 307.694 484.088 307.374C483.874 307.04 483.768 306.627 483.768 306.134V299.114H482.348V297.734H483.768V294.254H485.528V297.734H487.868V299.114H485.528V305.594C485.554 305.967 485.681 306.247 485.908 306.434C486.134 306.607 486.401 306.694 486.708 306.694C487.054 306.694 487.374 306.634 487.668 306.514C487.961 306.394 488.154 306.307 488.248 306.254L488.668 307.654Z" fill="#277FD9"/>
</svg>
