<svg width="18" height="21" viewBox="0 0 18 21" fill="none" xmlns="http://www.w3.org/2000/svg">
<path d="M15 9.21094L14.375 9.25V6.125C14.3229 4.53646 13.776 3.20833 12.7344 2.14062C11.6667 1.09896 10.3385 0.552083 8.75 0.5C7.16146 0.552083 5.83333 1.09896 4.76562 2.14062C3.72396 3.20833 3.17708 4.53646 3.125 6.125V9.25L2.5 9.21094C1.79688 9.23698 1.21094 9.48438 0.742188 9.95312C0.273438 10.4219 0.0260417 11.0078 0 11.7109V17.9609C0.0260417 18.6641 0.273438 19.25 0.742188 19.7188C1.21094 20.1875 1.79688 20.4349 2.5 20.4609H15C15.7031 20.4349 16.2891 20.1875 16.7578 19.7188C17.2266 19.25 17.474 18.6641 17.5 17.9609V11.7109C17.474 11.0339 17.2266 10.4479 16.7578 9.95312C16.2891 9.48438 15.7031 9.23698 15 9.21094ZM5.625 6.125C5.65104 5.23958 5.95052 4.4974 6.52344 3.89844C7.1224 3.32552 7.86458 3.02604 8.75 3C9.63542 3.02604 10.3776 3.32552 10.9766 3.89844C11.5495 4.4974 11.849 5.23958 11.875 6.125V9.25H5.625V6.125Z" fill="#505050"/>
</svg>
