<svg width="25" height="20" viewBox="0 0 25 20" fill="none" xmlns="http://www.w3.org/2000/svg">
<path d="M22 0.675781H2.75C1.97656 0.704427 1.33203 0.976562 0.816406 1.49219C0.300781 2.00781 0.0286458 2.65234 0 3.42578V4.80078H24.75V3.42578C24.7214 2.65234 24.4492 2.00781 23.9336 1.49219C23.418 0.976562 22.7734 0.704427 22 0.675781ZM0 17.1758C0.0286458 17.9492 0.300781 18.5938 0.816406 19.1094C1.33203 19.625 1.97656 19.8971 2.75 19.9258H22C22.7734 19.8971 23.418 19.625 23.9336 19.1094C24.4492 18.5938 24.7214 17.9492 24.75 17.1758V8.92578H0V17.1758ZM8.20703 14.7695C8.23568 14.569 8.35026 14.4544 8.55078 14.4258H14.6953C14.9245 14.4544 15.0391 14.569 15.0391 14.7695L15.125 15.457C15.0964 15.6576 14.9818 15.7721 14.7812 15.8008H8.59375C8.39323 15.7721 8.27865 15.6576 8.25 15.457L8.20703 14.7695ZM2.70703 14.7695C2.73568 14.569 2.85026 14.4544 3.05078 14.4258H6.48828C6.6888 14.4544 6.80339 14.569 6.83203 14.7695L6.875 15.457C6.84635 15.6576 6.73177 15.7721 6.53125 15.8008H3.09375C2.89323 15.7721 2.77865 15.6576 2.75 15.457L2.70703 14.7695Z" fill="#191919"/>
</svg>
