<svg width="20" height="21" viewBox="0 0 20 21" fill="none" xmlns="http://www.w3.org/2000/svg">
<path d="M5.625 1.47656C5.35156 1.08594 5.66406 0.5 6.13281 0.5L13.8281 0.5C14.2969 0.5 14.6094 1.08594 14.3359 1.47656L12.5 4.25H7.5L5.625 1.47656ZM12.9687 5.85156C15.1953 7.25781 20 10.3047 20 16.75C20 18.8203 18.3203 20.5 16.25 20.5L3.75 20.5C1.64062 20.5 0 18.8203 0 16.75C0 10.3047 4.76562 7.25781 6.99219 5.85156C7.14844 5.73438 7.34375 5.61719 7.5 5.5H12.5C12.6172 5.61719 12.8125 5.73438 12.9687 5.85156ZM13.125 11.7891C13.5156 11.4375 13.5156 10.8516 13.125 10.4609C12.7734 10.1094 12.1875 10.1094 11.8359 10.4609L10 12.3359L8.125 10.4609C7.77344 10.1094 7.1875 10.1094 6.83594 10.4609C6.44531 10.8516 6.44531 11.4375 6.83594 11.7891L8.67187 13.625L6.83594 15.4609C6.44531 15.8516 6.44531 16.4375 6.83594 16.7891C7.1875 17.1797 7.77344 17.1797 8.125 16.7891L10 14.9531L11.8359 16.7891C12.1875 17.1797 12.7734 17.1797 13.125 16.7891C13.5156 16.4375 13.5156 15.8516 13.125 15.4609L11.2891 13.625L13.125 11.7891Z" fill="#191919"/>
</svg>
