<svg width="17" height="17" viewBox="0 0 17 17" fill="none" xmlns="http://www.w3.org/2000/svg">
<path d="M16.875 8.88281C16.875 9.2474 16.7578 9.54688 16.5234 9.78125C16.2891 10.0156 15.9896 10.1328 15.625 10.1328L10 10.1328L10 15.7578C10 16.1224 9.88281 16.4219 9.64844 16.6562C9.41406 16.8906 9.11458 17.0078 8.75 17.0078C8.38542 17.0078 8.08594 16.8906 7.85156 16.6562C7.61719 16.4219 7.5 16.1224 7.5 15.7578L7.5 10.1328H1.875C1.51042 10.1328 1.21094 10.0156 0.976562 9.78125C0.742187 9.54688 0.625 9.2474 0.625 8.88281C0.625 8.51823 0.742187 8.21875 0.976562 7.98438C1.21094 7.75 1.51042 7.63281 1.875 7.63281L7.5 7.63281L7.5 2.00781C7.5 1.64323 7.61719 1.34375 7.85156 1.10938C8.08594 0.875 8.38542 0.757813 8.75 0.757813C9.11458 0.757813 9.41406 0.875 9.64844 1.10938C9.88281 1.34375 10 1.64323 10 2.00781L10 7.63281H15.625C15.9896 7.63281 16.2891 7.75 16.5234 7.98438C16.7578 8.21875 16.875 8.51823 16.875 8.88281Z" fill="white"/>
</svg>
