<svg width="38" height="45" viewBox="0 0 38 45" fill="none" xmlns="http://www.w3.org/2000/svg">
<path d="M34.625 37.875H3.27734C2.43099 37.875 1.71484 38.168 1.12891 38.7539C0.542969 39.3398 0.25 40.056 0.25 40.9023C0.25 41.7487 0.542969 42.4974 1.12891 43.1484C1.71484 43.7995 2.43099 44.125 3.27734 44.125H34.625C35.5365 44.125 36.2852 43.832 36.8711 43.2461C37.457 42.6602 37.75 41.9115 37.75 41C37.75 40.0885 37.457 39.3398 36.8711 38.7539C36.2852 38.168 35.5365 37.875 34.625 37.875ZM5.71875 19.125H12.75V31.625C12.75 32.5365 13.043 33.2852 13.6289 33.8711C14.2148 34.457 14.9635 34.75 15.875 34.75H22.125C23.0365 34.75 23.7852 34.457 24.3711 33.8711C24.957 33.2852 25.25 32.5365 25.25 31.625V19.125H32.2812C33.2578 19.0599 33.974 18.5716 34.4297 17.6602C34.8203 16.7487 34.6576 15.9023 33.9414 15.1211L20.6602 1.05859C20.2044 0.602865 19.651 0.375 19 0.375C18.349 0.375 17.7956 0.602865 17.3398 1.05859L4.05859 15.1211C3.34245 15.9023 3.17969 16.7487 3.57031 17.6602C4.02604 18.5716 4.74219 19.0599 5.71875 19.125Z" fill="#017CE8"/>
</svg>
