<svg width="14" height="15" viewBox="0 0 14 15" fill="none" xmlns="http://www.w3.org/2000/svg">
<path d="M0.583333 0V13.8462H0V15H8.75V13.8462H8.16667V8.65385H9.33333V8.36654H9.9155C10.0823 8.36654 10.2072 8.49058 10.2072 8.655V10.3858L10.2083 11.5396V13.2704C10.2083 13.7262 10.5735 14.1006 11.0262 14.13C11.0446 14.1337 11.0634 14.1356 11.0822 14.1358H11.6667C11.6863 14.1358 11.7058 14.1339 11.725 14.13C11.9454 14.1145 12.1517 14.0174 12.3028 13.858C12.454 13.6987 12.5389 13.4889 12.5405 13.2704V8.12192C12.5405 8.10686 12.5394 8.09181 12.537 8.07692H12.8333V6.92308H14L13.4167 5.19231H14L13.4167 2.88462H12.2354L11.6667 2.30769L11.5494 2.42423L10.9737 1.43481C10.9407 1.37897 10.8898 1.3357 10.829 1.31192L10.129 1.03327C10.0932 1.01839 10.0547 1.01074 10.0158 1.01077C9.9476 1.01058 9.88146 1.03407 9.82893 1.07712C9.77639 1.12018 9.74078 1.1801 9.72829 1.24644C9.71581 1.31278 9.72723 1.38136 9.76059 1.44023C9.79394 1.4991 9.8471 1.54454 9.91083 1.56865L10.5181 1.80981L11.081 2.77442C11.0938 2.79826 11.1099 2.8202 11.1288 2.83962L11.0833 2.88462V4.61538H11.6667L11.0833 6.92308H11.6667V8.07692H11.9595C11.9575 8.09184 11.9568 8.10688 11.9572 8.12192V13.2704C11.958 13.3085 11.951 13.3463 11.9366 13.3817C11.9222 13.417 11.9008 13.4492 11.8735 13.4761C11.8463 13.5031 11.8138 13.5243 11.778 13.5385C11.7423 13.5527 11.704 13.5596 11.6655 13.5588H11.0822C11.0437 13.5596 11.0055 13.5527 10.9698 13.5385C10.9341 13.5242 10.9017 13.503 10.8746 13.476C10.8474 13.4491 10.8261 13.417 10.8118 13.3816C10.7976 13.3463 10.7907 13.3084 10.7917 13.2704V11.5396L10.7905 10.3858V8.655C10.7905 8.18077 10.395 7.78962 9.9155 7.78962H9.33333V5.76923H8.16667V0H0.583333ZM1.75 1.73077H7V5.76923H1.75V1.73077ZM4.21458 8.13808C4.7005 8.55058 5.53467 9.36115 5.53467 10.646C5.53467 11.1144 5.26808 11.5096 4.88308 11.7012C4.93733 11.4196 4.94258 11.1185 4.93908 10.8363C4.93325 10.3881 4.88892 10.0085 4.88892 10.0085C4.88451 9.97081 4.87265 9.93438 4.85401 9.90126C4.83537 9.86814 4.81032 9.83897 4.78028 9.81543C4.75025 9.79188 4.71582 9.77442 4.67896 9.76404C4.6421 9.75365 4.60353 9.75055 4.56546 9.7549C4.52739 9.75926 4.49055 9.77099 4.45707 9.78942C4.42358 9.80786 4.39409 9.83264 4.37028 9.86234C4.34647 9.89205 4.32882 9.9261 4.31832 9.96255C4.30782 9.99901 4.30468 10.0372 4.30908 10.0748C4.30908 10.0748 4.34992 10.4285 4.35575 10.8433C4.36042 11.2125 4.30908 11.6279 4.24317 11.8137C3.65983 11.7496 3.20483 11.2598 3.20483 10.646C3.20483 10.0015 3.49475 9.6075 3.801 9.15635C4.00737 8.84824 4.1481 8.50176 4.21458 8.13808Z" fill="#191919"/>
</svg>
