<svg width="17" height="23" viewBox="0 0 17 23" fill="none" xmlns="http://www.w3.org/2000/svg">
<path d="M11.25 0.75V6.25H16.75L11.25 0.75ZM9.875 6.25V0.75H2.3125C1.73958 0.778646 1.2526 0.979167 0.851562 1.35156C0.479167 1.7526 0.278646 2.23958 0.25 2.8125V20.6875C0.278646 21.2604 0.479167 21.7474 0.851562 22.1484C1.2526 22.5208 1.73958 22.7214 2.3125 22.75H14.6875C15.2604 22.7214 15.7474 22.5208 16.1484 22.1484C16.5208 21.7474 16.7214 21.2604 16.75 20.6875V7.625H11.293C10.8919 7.625 10.5482 7.49609 10.2617 7.23828C10.0039 6.98047 9.875 6.65104 9.875 6.25ZM5.75 19.4414C5.69271 19.7565 5.50651 19.9427 5.19141 20H3.55859C3.24349 19.9427 3.05729 19.7565 3 19.4414V16.4336C3.05729 16.1185 3.24349 15.9323 3.55859 15.875H5.19141C5.50651 15.9323 5.69271 16.1185 5.75 16.4336V19.4414ZM9.875 19.4414C9.81771 19.7565 9.63151 19.9427 9.31641 20H7.68359C7.36849 19.9427 7.18229 19.7565 7.125 19.4414V10.9336C7.18229 10.6185 7.36849 10.4323 7.68359 10.375H9.31641C9.63151 10.4323 9.81771 10.6185 9.875 10.9336V19.4414ZM11.8086 13.125H13.4414C13.7565 13.1823 13.9427 13.3685 14 13.6836V19.4414C13.9427 19.7565 13.7565 19.9427 13.4414 20H11.8086C11.4935 19.9427 11.3073 19.7565 11.25 19.4414V13.6836C11.3073 13.3685 11.4935 13.1823 11.8086 13.125Z" fill="#191919"/>
</svg>
