<svg width="10" height="14" viewBox="0 0 10 14" fill="none" xmlns="http://www.w3.org/2000/svg">
<path d="M8.53125 0.625C9.19141 0.625 9.75 1.18359 9.75 1.84375V12.4062C9.75 13.0918 9.19141 13.625 8.53125 13.625H6.09375V11.5938C6.09375 10.9336 5.53516 10.375 4.875 10.375C4.18945 10.375 3.65625 10.9336 3.65625 11.5938V13.625H1.21875C0.533203 13.625 0 13.0918 0 12.4062V1.84375C0 1.18359 0.533203 0.625 1.21875 0.625H8.53125ZM1.625 7.53125C1.625 7.75977 1.80273 7.9375 2.03125 7.9375H2.84375C3.04688 7.9375 3.25 7.75977 3.25 7.53125V6.71875C3.25 6.51562 3.04688 6.3125 2.84375 6.3125H2.03125C1.80273 6.3125 1.625 6.51562 1.625 6.71875V7.53125ZM4.46875 6.3125C4.24023 6.3125 4.0625 6.51562 4.0625 6.71875V7.53125C4.0625 7.75977 4.24023 7.9375 4.46875 7.9375H5.28125C5.48438 7.9375 5.6875 7.75977 5.6875 7.53125V6.71875C5.6875 6.51562 5.48438 6.3125 5.28125 6.3125H4.46875ZM6.5 7.53125C6.5 7.75977 6.67773 7.9375 6.90625 7.9375H7.71875C7.92188 7.9375 8.125 7.75977 8.125 7.53125V6.71875C8.125 6.51562 7.92188 6.3125 7.71875 6.3125H6.90625C6.67773 6.3125 6.5 6.51562 6.5 6.71875V7.53125ZM2.03125 3.0625C1.80273 3.0625 1.625 3.26562 1.625 3.46875V4.28125C1.625 4.50977 1.80273 4.6875 2.03125 4.6875H2.84375C3.04688 4.6875 3.25 4.50977 3.25 4.28125V3.46875C3.25 3.26562 3.04688 3.0625 2.84375 3.0625H2.03125ZM4.0625 4.28125C4.0625 4.50977 4.24023 4.6875 4.46875 4.6875H5.28125C5.48438 4.6875 5.6875 4.50977 5.6875 4.28125V3.46875C5.6875 3.26562 5.48438 3.0625 5.28125 3.0625H4.46875C4.24023 3.0625 4.0625 3.26562 4.0625 3.46875V4.28125ZM6.90625 3.0625C6.67773 3.0625 6.5 3.26562 6.5 3.46875V4.28125C6.5 4.50977 6.67773 4.6875 6.90625 4.6875H7.71875C7.92188 4.6875 8.125 4.50977 8.125 4.28125V3.46875C8.125 3.26562 7.92188 3.0625 7.71875 3.0625H6.90625Z" fill="#191919"/>
</svg>
