<svg width="15" height="14" viewBox="0 0 15 14" fill="none" xmlns="http://www.w3.org/2000/svg">
<path d="M11.4109 9.956L14.1409 12.672C14.1876 12.7187 14.2109 12.7793 14.2109 12.854C14.2109 12.9287 14.1876 12.9893 14.1409 13.036L13.2449 13.932C13.1983 13.9787 13.1376 14.002 13.0629 14.002C12.9883 14.002 12.9276 13.9787 12.8809 13.932L12.6289 13.666L12.5029 13.554C12.4376 13.498 12.4003 13.4653 12.3909 13.456L10.1789 11.244C10.1323 11.188 10.0669 11.16 9.98294 11.16C9.90827 11.1507 9.84294 11.1693 9.78694 11.216C9.28294 11.5707 8.73694 11.846 8.14894 12.042C7.54227 12.238 6.9216 12.336 6.28694 12.336C5.1856 12.336 4.1636 12.0607 3.22094 11.51C2.30627 10.9687 1.57827 10.2407 1.03694 9.326C0.486271 8.38333 0.210938 7.36133 0.210938 6.26C0.210938 5.15867 0.486271 4.13667 1.03694 3.194C1.57827 2.27933 2.30627 1.55133 3.22094 1.01C4.1636 0.459333 5.1856 0.183999 6.28694 0.183999C7.38827 0.183999 8.4056 0.459333 9.33894 1.01C10.2536 1.55133 10.9816 2.27933 11.5229 3.194C12.0736 4.13667 12.3489 5.15867 12.3489 6.26C12.3489 7.45467 12.0269 8.55133 11.3829 9.55C11.3456 9.61533 11.3269 9.68533 11.3269 9.76C11.3363 9.83467 11.3643 9.9 11.4109 9.956ZM9.95494 9.088C10.2629 8.68667 10.5009 8.248 10.6689 7.772C10.8369 7.28667 10.9209 6.78267 10.9209 6.26C10.9209 5.42 10.7109 4.64067 10.2909 3.922C9.88027 3.21267 9.32494 2.65267 8.62494 2.242C7.90627 1.822 7.12694 1.612 6.28694 1.612C5.44694 1.612 4.6676 1.822 3.94894 2.242C3.2396 2.65267 2.6796 3.21267 2.26894 3.922C1.84894 4.64067 1.63894 5.42 1.63894 6.26C1.63894 7.1 1.84894 7.87933 2.26894 8.598C2.6796 9.30733 3.2396 9.86733 3.94894 10.278C4.6676 10.698 5.44694 10.908 6.28694 10.908C6.84694 10.908 7.3836 10.8147 7.89694 10.628C8.41027 10.432 8.87227 10.1567 9.28294 9.802C9.53494 9.58733 9.75894 9.34933 9.95494 9.088Z" fill="black"/>
</svg>
