<svg width="14" height="15" viewBox="0 0 14 15" fill="none" xmlns="http://www.w3.org/2000/svg">
<path d="M11.2 9.956C11.1533 9.9 11.1253 9.83467 11.116 9.76C11.116 9.68533 11.1347 9.61533 11.172 9.55C11.816 8.55133 12.138 7.45467 12.138 6.26C12.138 5.15867 11.8627 4.13667 11.312 3.194C10.7707 2.27933 10.0427 1.55133 9.128 1.01C8.19467 0.459333 7.17733 0.183999 6.076 0.183999C4.97467 0.183999 3.95267 0.459333 3.01 1.01C2.09533 1.55133 1.36733 2.27933 0.826 3.194C0.275333 4.13667 0 5.15867 0 6.26C0 7.36133 0.275333 8.38333 0.826 9.326C1.36733 10.2407 2.09533 10.9687 3.01 11.51C3.95267 12.0607 4.97467 12.336 6.076 12.336C6.71067 12.336 7.33133 12.238 7.938 12.042C8.526 11.846 9.072 11.5707 9.576 11.216C9.632 11.1693 9.69733 11.1507 9.772 11.16C9.856 11.16 9.92133 11.188 9.968 11.244L12.18 13.456C12.1893 13.4653 12.2267 13.498 12.292 13.554L12.418 13.666L12.67 13.932C12.7167 13.9787 12.7773 14.002 12.852 14.002C12.9267 14.002 12.9873 13.9787 13.034 13.932L13.93 13.036C13.9767 12.9893 14 12.9287 14 12.854C14 12.7793 13.9767 12.7187 13.93 12.672L11.2 9.956ZM9.744 9.088C9.548 9.34933 9.324 9.58733 9.072 9.802C8.66133 10.1567 8.19933 10.432 7.686 10.628C7.17267 10.8147 6.636 10.908 6.076 10.908C5.236 10.908 4.45667 10.698 3.738 10.278C3.02867 9.86733 2.46867 9.30733 2.058 8.598C1.638 7.87933 1.428 7.1 1.428 6.26C1.428 5.42 1.638 4.64067 2.058 3.922C2.46867 3.21267 3.02867 2.65267 3.738 2.242C4.45667 1.822 5.236 1.612 6.076 1.612C6.916 1.612 7.69533 1.822 8.414 2.242C9.114 2.65267 9.66933 3.21267 10.08 3.922C10.5 4.64067 10.71 5.42 10.71 6.26C10.71 6.78267 10.626 7.28667 10.458 7.772C10.29 8.248 10.052 8.68667 9.744 9.088Z" fill="#191919"/>
</svg>
