<svg width="34" height="39" viewBox="0 0 34 39" fill="none" xmlns="http://www.w3.org/2000/svg">
<path d="M16.625 19.75C21.8203 19.75 26.125 15.5195 26.125 10.25C26.125 5.05469 21.8203 0.75 16.625 0.75C11.3555 0.75 7.125 5.05469 7.125 10.25C7.125 15.5195 11.3555 19.75 16.625 19.75ZM23.2305 22.125H21.9688C20.3359 22.9414 18.5547 23.3125 16.625 23.3125C14.6953 23.3125 12.8398 22.9414 11.207 22.125H9.94531C4.45312 22.125 0 26.6523 0 32.1445V35.1875C0 37.1914 1.55859 38.75 3.5625 38.75H29.6875C31.6172 38.75 33.25 37.1914 33.25 35.1875V32.1445C33.25 26.6523 28.7227 22.125 23.2305 22.125Z" fill="#191919"/>
</svg>
