<svg width="17" height="19" viewBox="0 0 17 19" fill="none" xmlns="http://www.w3.org/2000/svg">
<path d="M5.48242 1.11914C5.6582 0.732422 6.04492 0.486328 6.4668 0.486328H10.7207C11.1426 0.486328 11.5293 0.732422 11.7051 1.11914L11.9863 1.61133H15.3613C15.959 1.61133 16.4863 2.13867 16.4863 2.73633C16.4863 3.36914 15.959 3.86133 15.3613 3.86133H1.86133C1.22852 3.86133 0.736328 3.36914 0.736328 2.73633C0.736328 2.13867 1.22852 1.61133 1.86133 1.61133H5.23633L5.48242 1.11914ZM1.82617 4.98633H15.3613V16.2363C15.3613 17.502 14.3418 18.4863 13.1113 18.4863H4.07617C2.8457 18.4863 1.82617 17.502 1.82617 16.2363V4.98633ZM4.63867 7.79883V15.6738C4.63867 15.9902 4.91992 16.2363 5.20117 16.2363C5.51758 16.2363 5.76367 15.9902 5.76367 15.6738V7.79883C5.76367 7.51758 5.51758 7.23633 5.20117 7.23633C4.91992 7.23633 4.63867 7.51758 4.63867 7.79883ZM8.01367 7.79883V15.6738C8.01367 15.9902 8.29492 16.2363 8.57617 16.2363C8.89258 16.2363 9.17383 15.9902 9.17383 15.6738V7.79883C9.17383 7.51758 8.89258 7.23633 8.57617 7.23633C8.29492 7.23633 8.01367 7.51758 8.01367 7.79883ZM11.4238 7.79883V15.6738C11.4238 15.9902 11.6699 16.2363 11.9863 16.2363C12.2676 16.2363 12.5488 15.9902 12.5488 15.6738V7.79883C12.5488 7.51758 12.2676 7.23633 11.9863 7.23633C11.6699 7.23633 11.4238 7.51758 11.4238 7.79883Z" fill="black"/>
</svg>
