<svg width="14" height="16" viewBox="0 0 14 16" fill="none" xmlns="http://www.w3.org/2000/svg">
<path d="M1 14.5C1.02083 14.9167 1.16667 15.2708 1.4375 15.5625C1.72917 15.8333 2.08333 15.9792 2.5 16H11.5C11.9167 15.9792 12.2708 15.8333 12.5625 15.5625C12.8333 15.2708 12.9792 14.9167 13 14.5V4H1V14.5ZM9.5 6.5C9.52083 6.1875 9.6875 6.02083 10 6C10.3125 6.02083 10.4792 6.1875 10.5 6.5V13.5C10.4792 13.8125 10.3125 13.9792 10 14C9.6875 13.9792 9.52083 13.8125 9.5 13.5V6.5ZM6.5 6.5C6.52083 6.1875 6.6875 6.02083 7 6C7.3125 6.02083 7.47917 6.1875 7.5 6.5V13.5C7.47917 13.8125 7.3125 13.9792 7 14C6.6875 13.9792 6.52083 13.8125 6.5 13.5V6.5ZM3.5 6.5C3.52083 6.1875 3.6875 6.02083 4 6C4.3125 6.02083 4.47917 6.1875 4.5 6.5V13.5C4.47917 13.8125 4.3125 13.9792 4 14C3.6875 13.9792 3.52083 13.8125 3.5 13.5V6.5ZM13.5 1H10L9.625 0.28125C9.54167 0.09375 9.39583 0 9.1875 0H4.8125C4.60417 0 4.45833 0.09375 4.375 0.28125L4 1H0.5C0.1875 1.02083 0.0208333 1.1875 0 1.5V2.5C0.0208333 2.8125 0.1875 2.97917 0.5 3H13.5C13.8125 2.97917 13.9792 2.8125 14 2.5V1.5C13.9792 1.1875 13.8125 1.02083 13.5 1Z" fill="#505050"/>
</svg>
