<svg width="13" height="14" viewBox="0 0 13 14" fill="none" xmlns="http://www.w3.org/2000/svg">
<path d="M11.4863 12H7.5V12.8125C7.5 13.2695 7.11914 13.625 6.6875 13.625C6.23047 13.625 5.875 13.2695 5.875 12.8379V12.0254H1.83789C1.10156 12.0254 0.720703 11.1367 1.20312 10.5781L2.95508 8.57227H2.57422C1.91406 8.57227 1.58398 7.81055 1.99023 7.30273L3.51367 5.52539H3.25977C2.70117 5.52539 2.42188 4.94141 2.75195 4.56055L6.17969 0.853516C6.45898 0.548828 6.89062 0.548828 7.16992 0.853516L10.5977 4.56055C10.9277 4.94141 10.6484 5.52539 10.0898 5.52539H9.83594L11.3594 7.30273C11.791 7.81055 11.4355 8.57227 10.7754 8.57227H10.3945L12.1465 10.5781C12.6289 11.1367 12.248 12 11.4863 12Z" fill="#191919"/>
</svg>
