<svg width="24" height="24" viewBox="0 0 24 24" fill="none" xmlns="http://www.w3.org/2000/svg">
<path d="M15.7031 8.20312L10.5 13.4062L8.25 11.2031C7.71875 10.7656 7.1875 10.7656 6.65625 11.2031C6.21875 11.7344 6.21875 12.2656 6.65625 12.7969L9.65625 15.7969C9.9375 16.0156 10.2188 16.125 10.5 16.125C10.8125 16.125 11.0781 16.0156 11.2969 15.7969L17.2969 9.79688C17.7344 9.26562 17.7344 8.73438 17.2969 8.20312C16.7656 7.76563 16.2344 7.76563 15.7031 8.20312ZM12 0C9.75 0.03125 7.73438 0.578125 5.95312 1.64062C4.14062 2.70313 2.70312 4.14062 1.64062 5.95312C0.578125 7.73438 0.03125 9.75 0 12C0.03125 14.25 0.578125 16.2656 1.64062 18.0469C2.70312 19.8594 4.14062 21.2969 5.95312 22.3594C7.73438 23.4219 9.75 23.9688 12 24C14.25 23.9688 16.2656 23.4219 18.0469 22.3594C19.8594 21.2969 21.2969 19.8594 22.3594 18.0469C23.4219 16.2656 23.9688 14.25 24 12C23.9688 9.75 23.4219 7.73438 22.3594 5.95312C21.2969 4.14062 19.8594 2.70313 18.0469 1.64062C16.2656 0.578125 14.25 0.03125 12 0ZM12 21.75C9.25 21.6875 6.95312 20.7344 5.10938 18.8906C3.26562 17.0469 2.3125 14.75 2.25 12C2.3125 9.25 3.26562 6.95312 5.10938 5.10938C6.95312 3.26563 9.25 2.3125 12 2.25C14.75 2.3125 17.0469 3.26563 18.8906 5.10938C20.7344 6.95312 21.6875 9.25 21.75 12C21.6875 14.75 20.7344 17.0469 18.8906 18.8906C17.0469 20.7344 14.75 21.6875 12 21.75Z" fill="#191919"/>
</svg>
