<svg width="22" height="17" viewBox="0 0 22 17" fill="none" xmlns="http://www.w3.org/2000/svg">
<path d="M20.4688 5.22266C20.9375 5.50391 21.125 6.12891 20.8438 6.59766C20.5938 7.06641 19.9688 7.25391 19.5 6.97266L10.9688 2.25391L2.46875 6.97266C2 7.25391 1.375 7.06641 1.125 6.59766C0.84375 6.12891 1.03125 5.50391 1.5 5.22266L10.5 0.253906C10.8125 0.0664062 11.1562 0.0664062 11.4688 0.253906L20.4688 5.22266ZM9.71875 6.34766C9.71875 5.66016 10.2812 5.09766 10.9688 5.09766C11.6875 5.09766 12.2188 5.66016 12.2188 6.34766C12.2188 7.06641 11.6875 7.59766 10.9688 7.59766C10.2812 7.59766 9.71875 7.06641 9.71875 6.34766ZM4.21875 9.34766C4.21875 8.66016 4.78125 8.09766 5.46875 8.09766C6.1875 8.09766 6.71875 8.66016 6.71875 9.34766C6.71875 10.0664 6.1875 10.5977 5.46875 10.5977C4.78125 10.5977 4.21875 10.0664 4.21875 9.34766ZM17.7188 9.34766C17.7188 10.0664 17.1875 10.5977 16.4688 10.5977C15.7812 10.5977 15.2188 10.0664 15.2188 9.34766C15.2188 8.66016 15.7812 8.09766 16.4688 8.09766C17.1875 8.09766 17.7188 8.66016 17.7188 9.34766ZM8.0625 15.4727L7.21875 13.9102V15.0977C7.21875 15.6602 6.78125 16.0977 6.21875 16.0977H4.71875C4.1875 16.0977 3.71875 15.6602 3.71875 15.0977V13.9102L2.90625 15.4727C2.6875 15.8164 2.25 15.9727 1.875 15.7852C1.5 15.5664 1.375 15.1289 1.5625 14.7539L2.75 12.5664C3.25 11.6602 4.15625 11.0977 5.1875 11.0977H5.78125C6.3125 11.0977 6.78125 11.2539 7.21875 11.5039L8.25 9.56641C8.75 8.66016 9.65625 8.09766 10.6875 8.09766H11.2812C12.3125 8.09766 13.2188 8.66016 13.7188 9.56641L14.75 11.5039C15.1875 11.2539 15.6562 11.0977 16.1875 11.0977H16.7812C17.8125 11.0977 18.7188 11.6602 19.2188 12.5664L20.4062 14.7539C20.5938 15.1289 20.4688 15.5664 20.0938 15.7852C19.7188 15.9727 19.2812 15.8164 19.0625 15.4727L18.2188 13.9102V15.0977C18.2188 15.6602 17.7812 16.0977 17.2188 16.0977H15.7188C15.1875 16.0977 14.7188 15.6602 14.7188 15.0977V13.9102L13.9062 15.4727C13.6875 15.8164 13.25 15.9727 12.875 15.7852C12.5 15.5664 12.375 15.1289 12.5625 14.7539L13.7188 12.6602C13.6562 12.5977 13.625 12.5352 13.5625 12.4727L12.7188 10.9102V12.5977C12.7188 13.1602 12.2812 13.5977 11.7188 13.5977H10.2188C9.6875 13.5977 9.21875 13.1602 9.21875 12.5977V10.9102L8.40625 12.4727C8.34375 12.5352 8.3125 12.5977 8.25 12.6602L9.40625 14.7539C9.59375 15.1289 9.46875 15.5664 9.09375 15.7852C8.71875 15.9727 8.28125 15.8164 8.0625 15.4727Z" fill="white"/>
</svg>
