<svg width="546" height="313" viewBox="0 0 546 313" fill="none" xmlns="http://www.w3.org/2000/svg">
<path d="M408.456 243.469H385.086V243.645H408.456V243.469Z" fill="#EBEBEB"/>
<path d="M324.71 245.387H318.578V245.563H324.71V245.387Z" fill="#EBEBEB"/>
<path d="M384.377 236.932H370.836V237.108H384.377V236.932Z" fill="#EBEBEB"/>
<path d="M158.491 238.115H128.016V238.292H158.491V238.115Z" fill="#EBEBEB"/>
<path d="M169.248 238.115H164.781V238.292H169.248V238.115Z" fill="#EBEBEB"/>
<path d="M249.867 241.088H183.766V241.264H249.867V241.088Z" fill="#EBEBEB"/>
<path d="M443.805 232.137H91V232.313H443.805V232.137Z" fill="#EBEBEB"/>
<path d="M200.33 29.8242H117.336V152.237H200.33V29.8242Z" fill="#E0E0E0"/>
<path d="M203.384 29.8242H120.391V152.237H203.384V29.8242Z" fill="#F0F0F0"/>
<path d="M199.189 94.5391H124.43V145.068H199.189V94.5391Z" fill="#EBEBEB"/>
<path d="M199.189 34.7969H124.43V94.5384H199.189V34.7969Z" fill="white"/>
<path d="M199.187 34.7969H196.555V145.067H199.187V34.7969Z" fill="#E0E0E0"/>
<path d="M124.195 94.5447V97.207H196.838V94.5447H124.195Z" fill="#E0E0E0"/>
<path d="M199.186 90.0645H123.016V94.537H199.186V90.0645Z" fill="#F0F0F0"/>
<path d="M400.184 232.935H299.028C291.365 232.935 285.148 226.73 285.148 219.081V189.034C285.148 181.385 291.365 175.18 299.028 175.18H400.184C407.847 175.18 414.063 181.385 414.063 189.034V219.088C414.063 226.737 407.847 232.935 400.184 232.935Z" fill="#E0E0E0"/>
<path d="M393.387 233.366H292.231C284.568 233.366 278.352 227.161 278.352 219.512V189.458C278.352 181.809 284.568 175.604 292.231 175.604H393.387C401.05 175.604 407.266 181.809 407.266 189.458V219.512C407.266 227.161 401.057 233.366 393.387 233.366Z" fill="#F5F5F5"/>
<path d="M401.357 202.601H285.016V190.726C285.016 185.38 289.355 181.049 294.711 181.049H391.661C397.017 181.049 401.357 185.38 401.357 190.726V202.601Z" fill="#E0E0E0"/>
<path d="M391.661 227.068H294.711C289.355 227.068 285.016 222.737 285.016 217.391V205.516H401.357V217.391C401.357 222.737 397.017 227.068 391.661 227.068Z" fill="#E0E0E0"/>
<path d="M370.068 185.225H348.766V202.741H370.068V185.225Z" fill="#E6E6E6"/>
<path d="M348.767 185.225H343.312V202.741H348.767V185.225Z" fill="#F5F5F5"/>
<path d="M347.835 198.029C347.835 199.015 347.03 199.818 346.042 199.818C345.054 199.818 344.25 199.015 344.25 198.029C344.25 197.043 345.054 196.24 346.042 196.24C347.03 196.24 347.835 197.036 347.835 198.029Z" fill="#E0E0E0"/>
<path d="M375.659 182.52H359.656V202.741H375.659V182.52Z" fill="#E6E6E6"/>
<path d="M359.66 182.52H355.031V202.741H359.66V182.52Z" fill="#F5F5F5"/>
<path d="M357.345 187.043C358.222 187.043 358.933 186.333 358.933 185.458C358.933 184.583 358.222 183.873 357.345 183.873C356.469 183.873 355.758 184.583 355.758 185.458C355.758 186.333 356.469 187.043 357.345 187.043Z" fill="#E0E0E0"/>
<path d="M357.345 187.043C358.222 187.043 358.933 186.333 358.933 185.458C358.933 184.583 358.222 183.873 357.345 183.873C356.469 183.873 355.758 184.583 355.758 185.458C355.758 186.333 356.469 187.043 357.345 187.043Z" fill="#E0E0E0"/>
<path d="M377.858 185.225H364.367V202.741H377.858V185.225Z" fill="#EBEBEB"/>
<path d="M364.365 185.225H361.281V202.741H364.365V185.225Z" fill="#F5F5F5"/>
<path d="M393.103 188.191H375.406V202.75H393.103V188.191Z" fill="#E6E6E6"/>
<path d="M375.413 188.191H370.883V202.75H375.413V188.191Z" fill="#F5F5F5"/>
<path d="M397.747 185.943H384.453V202.742H397.747V185.943Z" fill="#E6E6E6"/>
<path d="M384.463 185.943H380.617V202.742H384.463V185.943Z" fill="#F5F5F5"/>
<path d="M401.288 188.191H388.375V202.75H401.288V188.191Z" fill="#E6E6E6"/>
<path d="M388.366 188.191H385.805V202.75H388.366V188.191Z" fill="#F0F0F0"/>
<path d="M319.146 208.881H302.656V226.398H319.146V208.881Z" fill="#E6E6E6"/>
<path d="M302.664 208.881H298.438V226.398H302.664V208.881Z" fill="#F5F5F5"/>
<path d="M323.462 206.178H311.078V226.399H323.462V206.178Z" fill="#E6E6E6"/>
<path d="M311.093 206.178H307.516V226.399H311.093V206.178Z" fill="#F5F5F5"/>
<path d="M375.396 208.881H358.906V226.398H375.396V208.881Z" fill="#E6E6E6"/>
<path d="M358.914 208.881H354.688V226.398H358.914V208.881Z" fill="#F5F5F5"/>
<path d="M379.719 206.178H367.336V226.399H379.719V206.178Z" fill="#E6E6E6"/>
<path d="M367.343 206.178H363.766V226.399H367.343V206.178Z" fill="#F5F5F5"/>
<path d="M325.177 208.881H314.734V226.398H325.177V208.881Z" fill="#EBEBEB"/>
<path d="M314.737 208.881H312.352V226.398H314.737V208.881Z" fill="#F5F5F5"/>
<path d="M336.977 211.85H323.281V226.408H336.977V211.85Z" fill="#E6E6E6"/>
<path d="M323.28 211.85H319.773V226.408H323.28V211.85Z" fill="#F5F5F5"/>
<path d="M340.569 209.602H330.281V226.4H340.569V209.602Z" fill="#E6E6E6"/>
<path d="M330.29 209.602H327.312V226.4H330.29V209.602Z" fill="#F5F5F5"/>
<path d="M343.311 211.85H333.312V226.408H343.311V211.85Z" fill="#E6E6E6"/>
<path d="M333.311 211.85H331.328V226.408H333.311V211.85Z" fill="#F0F0F0"/>
<path d="M331.234 158.382C330.881 157.692 330.084 157.29 329.35 157.445C328.623 157.6 328.023 158.291 327.946 159.065C327.431 158.678 326.697 158.664 326.161 159.016C325.624 159.375 325.328 160.087 325.441 160.742C324.862 160.27 323.91 160.467 323.536 161.129C323.162 161.791 323.451 162.77 324.121 163.087C323.67 163.122 323.282 163.573 323.289 164.052C323.303 164.531 323.712 164.961 324.164 164.968C323.705 164.975 323.282 165.383 323.225 165.862C323.169 166.341 323.486 166.841 323.931 166.968C323.465 167.172 323.345 167.94 323.726 168.292C324.107 168.644 324.813 168.419 324.947 167.905C325.018 168.053 325.236 168.088 325.349 167.968C325.455 167.848 325.42 167.616 325.272 167.546C325.483 167.841 326.019 167.708 326.076 167.341C325.921 168.186 326.93 168.982 327.649 168.581C327.438 168.933 327.734 169.426 328.115 169.539C328.496 169.652 328.898 169.497 329.251 169.32C329.611 169.144 329.971 168.94 330.366 168.947C330.712 168.954 331.036 169.116 331.361 169.222C332.412 169.56 333.626 169.236 334.402 168.419C334.945 169.151 336.244 168.954 336.568 168.088C336.653 168.503 337.02 168.834 337.422 168.856C337.824 168.877 338.227 168.595 338.354 168.194C338.361 168.377 338.368 168.56 338.382 168.75C339.137 168.926 339.885 167.954 339.56 167.207C340.103 167.215 340.611 166.75 340.682 166.186C340.753 165.623 340.372 165.031 339.849 164.897C340.738 164.651 341.416 163.728 341.43 162.756C341.437 161.784 340.781 160.847 339.892 160.58C339.546 160.474 339.137 160.474 338.854 160.721C338.579 160.967 338.537 161.502 338.847 161.7C339.116 160.826 338.72 159.784 337.951 159.347C337.189 158.91 336.145 159.136 335.602 159.847C335.863 159.474 335.87 158.925 335.616 158.551C335.355 158.178 334.861 158.009 334.444 158.157C334.339 157.558 333.746 157.107 333.174 157.192C332.603 157.276 332.158 157.896 332.222 158.502C332.158 157.995 331.368 157.847 331.142 158.298C330.818 158.22 331.234 158.382 331.234 158.382Z" fill="#EBEBEB"/>
<path d="M331.448 164.007C331.215 163.845 330.919 163.761 330.643 163.817C330.368 163.874 330.114 164.085 330.058 164.367C330.001 164.641 330.171 164.965 330.453 165.029C330.792 165.113 331.123 164.831 331.469 164.881C331.589 164.895 331.702 164.958 331.822 164.986C332.316 165.12 332.803 164.796 333.212 164.493C333.353 164.388 333.501 164.275 333.6 164.127C333.699 163.979 333.734 163.775 333.642 163.62C333.515 163.402 333.219 163.373 332.972 163.402C332.478 163.458 331.991 163.655 331.603 163.972C331.617 163.895 331.631 163.817 331.638 163.74L331.448 164.007Z" fill="#FAFAFA"/>
<path d="M338.597 163.584C338.463 163.492 338.329 163.394 338.167 163.359C338.011 163.323 337.821 163.359 337.722 163.485C337.588 163.661 337.673 163.936 337.849 164.077C338.026 164.218 338.258 164.253 338.477 164.288C338.703 164.324 338.992 164.331 339.105 164.133C339.19 163.985 339.119 163.795 338.999 163.683C338.879 163.57 338.71 163.514 338.555 163.464L338.597 163.584Z" fill="#FAFAFA"/>
<path d="M327.304 159.871C326.845 160.062 326.499 160.484 326.393 160.963C326.358 161.111 326.365 161.294 326.492 161.365C326.584 161.421 326.697 161.4 326.803 161.372C327.24 161.266 327.678 161.167 328.115 161.062C327.903 161.139 327.692 161.224 327.522 161.372C327.353 161.52 327.24 161.752 327.296 161.97C327.36 162.224 327.642 162.379 327.903 162.379C328.164 162.372 328.411 162.245 328.623 162.09C328.849 161.928 329.075 161.703 329.075 161.421C329.082 161.139 328.729 160.879 328.51 161.062C329.011 160.928 329.484 160.71 329.914 160.421C330.07 160.315 330.225 160.203 330.324 160.041C330.422 159.879 330.458 159.674 330.366 159.505C329.921 158.695 329.35 159.886 329.075 159.991C328.56 160.195 327.967 159.59 327.304 159.871Z" fill="#FAFAFA"/>
<path d="M325.268 163.331C325.219 163.493 325.254 163.683 325.381 163.781C325.508 163.887 325.741 163.852 325.797 163.697C325.508 163.789 325.191 163.894 325.014 164.141C324.831 164.387 324.88 164.817 325.169 164.908C325.353 164.965 325.543 164.88 325.713 164.789C326.186 164.528 326.637 164.232 327.068 163.901C326.941 164.197 327.251 164.542 327.576 164.57C327.9 164.599 328.204 164.422 328.486 164.253C328.832 164.049 329.22 163.725 329.128 163.338C329.05 163 328.613 162.852 328.281 162.95C327.95 163.049 327.696 163.317 327.463 163.577C327.646 163.31 327.385 162.915 327.068 162.873C326.757 162.831 326.447 163.021 326.249 163.253C326.616 163.056 326.694 162.535 326.207 162.471C325.882 162.422 325.346 163.07 325.268 163.331Z" fill="#FAFAFA"/>
<path d="M335.261 162.169C334.986 162.063 334.64 162.246 334.569 162.528C334.499 162.81 334.711 163.134 335 163.183C334.788 163.204 334.584 163.31 334.442 163.472C334.365 163.564 334.308 163.683 334.322 163.796C334.351 163.972 334.534 164.085 334.711 164.092C334.887 164.099 335.056 164.021 335.219 163.951C335.042 163.965 334.859 163.986 334.718 164.099C334.576 164.204 334.52 164.437 334.64 164.557C334.746 164.662 334.915 164.641 335.056 164.606C335.374 164.514 335.67 164.352 335.917 164.127C336.101 164.331 336.369 164.472 336.637 164.43C336.905 164.388 337.131 164.099 337.046 163.845C336.99 163.662 336.792 163.549 336.602 163.521C336.411 163.5 336.221 163.549 336.03 163.613C336.221 163.479 336.418 163.331 336.489 163.113C336.559 162.894 336.411 162.599 336.178 162.613C335.917 162.634 335.79 162.986 335.586 163.113C335.339 162.866 335.811 162.373 335.261 162.169Z" fill="#FAFAFA"/>
<path d="M330.595 161.093C330.299 161.29 330.2 161.684 330.222 162.037C330.243 162.431 330.419 162.847 330.779 163.001C331.252 163.206 331.844 162.818 331.929 162.304C332.014 161.797 331.682 161.276 331.223 161.043C331.223 161.05 330.885 160.896 330.595 161.093Z" fill="#FAFAFA"/>
<path d="M333.897 160.671C333.94 160.706 333.982 160.741 334.017 160.776C333.82 160.523 333.396 160.487 333.156 160.706C332.917 160.924 332.917 161.347 333.156 161.572C333.396 161.79 333.82 161.762 334.017 161.509C334.356 161.664 334.808 161.607 335.048 161.318C335.287 161.03 335.231 160.523 334.906 160.339C334.582 160.156 334.081 160.431 334.116 160.804C334.067 160.755 334.024 160.699 333.975 160.649L333.897 160.671Z" fill="#FAFAFA"/>
<path d="M337.542 161.259C337.309 161.492 337.062 161.731 336.977 162.048C336.893 162.365 337.034 162.767 337.351 162.851C337.669 162.929 337.965 162.668 338.149 162.4C338.311 162.154 338.438 161.851 338.339 161.569C338.247 161.287 337.845 161.125 337.641 161.337L337.542 161.259Z" fill="#FAFAFA"/>
<path d="M332.291 159.344C332.171 159.077 331.797 158.985 331.55 159.14C331.303 159.295 331.211 159.64 331.317 159.908C331.423 160.175 331.705 160.359 331.994 160.394C332.354 160.436 332.777 160.147 332.693 159.795C332.848 159.999 333.123 160.077 333.377 160.056C333.631 160.027 333.871 159.915 334.09 159.788C334.393 159.612 334.711 159.351 334.683 159.006C334.654 158.732 334.393 158.52 334.118 158.492C333.843 158.464 333.575 158.598 333.363 158.774C333.201 158.915 333.06 159.091 332.883 159.21C332.707 159.337 332.46 159.401 332.269 159.295L332.291 159.344Z" fill="#FAFAFA"/>
<path d="M336.772 175.372H327.734L326.852 166.279H337.654L336.772 175.372Z" fill="#F0F0F0"/>
<path d="M338.354 166.743H326.062L325.844 165.539H338.58L338.354 166.743Z" fill="#FAFAFA"/>
<path d="M327.38 202.721H317.008L320.261 192.269L320.733 190.74H323.083L327.38 202.721Z" fill="#EBEBEB"/>
<path d="M320.73 190.74L320.258 192.269L317.005 202.721L307.416 202.58L304.332 192.269L303.859 190.74H320.73Z" fill="#E0E0E0"/>
<path d="M320.732 190.74L320.259 192.269L317.006 202.721L297.312 202.432L301.511 190.74H320.732Z" fill="#FAFAFA"/>
<path d="M320.733 190.74L320.26 192.269H300.969L301.512 190.74H320.733Z" fill="#EBEBEB"/>
<path d="M303.935 197.235H299.609L301.119 192.98L305.254 193.03L303.935 197.235ZM300.11 196.882H303.674L304.774 193.375L301.366 193.34L300.11 196.882Z" fill="#EBEBEB"/>
<path d="M308.779 197.235H304.453L305.963 192.98L310.098 193.03L308.779 197.235ZM304.947 196.882H308.51L309.611 193.375L306.203 193.34L304.947 196.882Z" fill="#EBEBEB"/>
<path d="M313.607 197.235H309.281L310.791 192.98L314.926 193.03L313.607 197.235ZM309.782 196.882H313.346L314.446 193.375L311.038 193.34L309.782 196.882Z" fill="#EBEBEB"/>
<path d="M318.45 197.235H314.125L315.635 192.98L319.77 193.03L318.45 197.235ZM314.626 196.882H318.189L319.29 193.375L315.882 193.34L314.626 196.882Z" fill="#EBEBEB"/>
<path d="M302.419 201.748H298.094L299.604 197.494L303.739 197.543L302.419 201.748ZM298.595 201.396H302.158L303.259 197.889L299.851 197.853L298.595 201.396Z" fill="#EBEBEB"/>
<path d="M307.263 201.748H302.938L304.448 197.494L308.582 197.543L307.263 201.748ZM303.438 201.396H307.002L308.103 197.889L304.694 197.853L303.438 201.396Z" fill="#EBEBEB"/>
<path d="M312.091 201.748H307.766L309.276 197.494L313.411 197.543L312.091 201.748ZM308.267 201.396H311.83L312.931 197.889L309.523 197.853L308.267 201.396Z" fill="#EBEBEB"/>
<path d="M316.935 201.748H312.609L314.119 197.494L318.254 197.543L316.935 201.748ZM313.11 201.396H316.674L317.774 197.889L314.366 197.853L313.11 201.396Z" fill="#EBEBEB"/>
<path d="M382.57 169.725C382.57 171.944 382.916 173.381 383.509 174.303C383.953 174.994 384.744 175.388 385.569 175.388H388.787C389.612 175.388 390.403 175.001 390.847 174.303C391.433 173.381 391.786 171.944 391.786 169.725C391.786 166.506 390.381 163.929 389.923 161.872C389.76 161.132 390.311 158.857 390.311 158.857H384.059C384.059 158.857 384.61 161.125 384.447 161.872C383.974 163.929 382.57 166.506 382.57 169.725Z" fill="#F0F0F0"/>
<path d="M389.263 143.324C389.263 143.324 388.212 143.585 387.598 144.402C386.984 145.219 388.042 147.142 388.042 147.142C388.042 147.142 389.044 148.163 390.286 147.86C391.528 147.557 391.528 147.557 391.528 147.557C391.528 147.557 390.209 143.789 389.263 143.578V143.324Z" fill="#EBEBEB"/>
<path d="M394.169 144.215C394.007 145.849 392.617 147.694 391.156 147.546C389.696 147.398 388.701 145.32 388.87 143.679C389.033 142.045 390.225 142.109 391.693 142.249C393.153 142.404 394.339 142.58 394.169 144.215Z" fill="#EBEBEB"/>
<path d="M390.041 142.947C390.041 142.947 390.979 144.032 393.343 143.947C393.343 143.947 389.314 145.652 390.041 142.947Z" fill="#EBEBEB"/>
<path d="M391.07 142.813C391.07 142.813 392.383 142.834 392.298 143.362C392.298 143.362 393.385 143.503 393.321 143.031C393.265 142.552 391.07 142.813 391.07 142.813Z" fill="#EBEBEB"/>
<path d="M390.041 142.947C390.041 142.947 390.979 144.032 393.343 143.947C393.343 143.947 389.314 145.652 390.041 142.947Z" fill="#E0E0E0"/>
<path d="M391.07 142.813C391.07 142.813 392.383 142.834 392.298 143.362C392.298 143.362 393.385 143.503 393.321 143.031C393.265 142.552 391.07 142.813 391.07 142.813Z" fill="#E0E0E0"/>
<path d="M388.648 147.602C388.966 148.433 389.827 148.989 390.716 149.046C391.605 149.109 392.487 148.714 393.122 148.095C393.757 147.475 394.159 146.644 394.378 145.784C394.434 145.559 394.561 145.003 394.279 144.862C394.018 144.728 393.778 145.08 393.623 145.235C393.164 145.679 392.685 146.08 392.141 146.418C391.612 146.749 391.048 147.017 390.462 147.214C390.3 147.271 388.705 147.75 388.648 147.602Z" fill="#EBEBEB"/>
<path d="M395.432 145.555C395.58 146.26 395.333 147.035 394.797 147.521C394.444 147.838 393.999 148.028 393.555 148.197C393.244 148.309 392.856 148.401 392.623 148.176C392.369 147.929 392.475 147.506 392.609 147.175C392.814 146.668 393.033 146.168 393.258 145.668C393.449 145.26 393.646 144.562 393.971 144.245C394.274 143.95 394.571 144.217 394.874 144.527C395.149 144.809 395.354 145.168 395.432 145.555Z" fill="#EBEBEB"/>
<path d="M389.187 146.778C388.637 146.651 388.178 146.172 388.079 145.616C388.002 145.207 388.192 144.235 388.707 144.207C388.764 145.116 388.806 145.933 389.187 146.778Z" fill="#E0E0E0"/>
<path d="M393.156 147.067C393.714 147.017 394.229 146.672 394.49 146.179C394.631 145.904 394.8 144.411 394.243 144.954C394.059 145.13 393.968 145.778 393.841 146.024C393.657 146.397 393.424 146.75 393.156 147.067Z" fill="#E0E0E0"/>
<path d="M390.976 147.596C391.315 148.019 391.964 148.16 392.451 147.913C392.345 148.188 391.399 148.258 391.103 148.286C390.334 148.364 390.016 147.969 389.367 147.547C389.367 147.547 390.447 147.927 390.976 147.596Z" fill="#E0E0E0"/>
<path d="M386.312 173.621L388.119 155.428L390.511 148.977L390.92 149.124L388.542 155.548L386.658 174.114L386.312 173.621Z" fill="#E6E6E6"/>
<path d="M388.526 155.395L388.13 155.592C387.869 155.078 387.672 154.437 387.439 153.691C387.079 152.536 386.677 151.233 385.922 150L386.296 149.768C387.086 151.049 387.495 152.381 387.862 153.557C388.088 154.282 388.279 154.909 388.526 155.395Z" fill="#E6E6E6"/>
<path d="M389.503 153.005C390.116 152.963 390.709 152.688 391.14 152.251C391.633 151.758 391.895 151.082 392.149 150.434C391.344 150.519 390.603 149.998 389.799 149.941C389.157 149.892 388.501 150.167 388.084 150.653C387.541 151.279 387.223 152.047 387.52 152.442C387.767 152.759 388.677 153.061 389.503 153.005Z" fill="#F0F0F0"/>
<path d="M383.045 151.03C383.638 150.537 384.908 150.34 385.62 150.615C386.34 150.89 386.876 151.523 387.024 152.179C386.735 152.615 386.164 152.777 385.641 152.721C385.126 152.664 384.654 152.418 384.188 152.171C383.729 151.932 383.249 151.685 382.734 151.622L383.045 151.03Z" fill="#F0F0F0"/>
<path d="M387.021 151.38C385.977 151.5 385.038 151.704 384.086 150.514C383.451 149.718 383.655 148.513 383.698 147.562C384.608 147.76 386.661 148.76 387.12 149.006C387.579 149.253 387.967 149.647 388.037 150.119C388.115 150.591 387.79 151.112 387.275 151.204C387.268 151.183 387.021 151.38 387.021 151.38Z" fill="#F0F0F0"/>
<path d="M384.031 165.536C383.615 166.72 383.213 168.009 383.347 169.269C383.375 169.509 383.445 169.784 383.622 169.826C383.784 169.868 383.939 169.671 384.003 169.453C384.059 169.234 384.045 169.002 384.045 168.776C384.038 166.825 385.104 165.184 385.308 163.276C385.365 162.733 385.223 161.029 384.906 162.282C384.617 163.395 384.419 164.438 384.031 165.536Z" fill="#FAFAFA"/>
<path d="M236.187 204.29C236.187 204.29 238.24 181.603 229.208 170.538C220.177 159.473 236.257 169.545 239.108 180.582C239.108 180.582 239.644 160.177 230.627 146.95C221.609 133.723 236.977 143.626 239.651 158.043C239.651 158.043 240.16 139.836 235.658 130.18C231.156 120.523 237.873 126.271 240.837 132.307C243.808 138.343 242.333 154.353 242.333 154.353C242.333 154.353 245.487 124.7 251.477 126.306C257.468 127.912 245.021 148.591 244.026 158.691C244.026 158.691 249.474 144.605 254.9 146.746C260.326 148.887 247.343 151.845 243.335 172.348L242.163 181.878C242.163 181.878 247.089 168.031 251.59 171.672C256.092 175.306 240.618 184.392 238.861 204.684L236.187 204.29Z" fill="#EBEBEB"/>
<path d="M237.163 205.466C237.163 205.466 235.236 177.413 246.681 164.044C258.119 150.683 238.009 162.593 234.199 176.117C234.199 176.117 234.086 150.923 245.567 134.892C257.04 118.861 237.819 130.581 234.129 148.295C234.129 148.295 233.987 125.813 239.802 114.044C245.616 102.274 237.177 109.149 233.352 116.502C229.528 123.855 230.918 143.654 230.918 143.654C230.918 143.654 227.82 106.965 220.383 108.754C212.953 110.543 227.75 136.463 228.71 148.951C228.71 148.951 222.366 131.399 215.613 133.864C208.861 136.329 224.8 140.393 229.196 165.826L230.389 177.624C230.389 177.624 224.688 160.382 219.036 164.728C213.384 169.073 232.231 180.772 233.853 205.868L237.163 205.466Z" fill="#F0F0F0"/>
<path d="M254.94 219.455C254.94 227.153 246.579 233.401 236.263 233.401C225.94 233.401 217.578 227.153 217.578 219.455C217.578 215.983 219.272 212.82 222.08 210.383L219.871 201.051H252.647L250.438 210.383C253.247 212.82 254.94 215.983 254.94 219.455Z" fill="#EBEBEB"/>
<path d="M264.853 23.5719C254.594 34.9469 249.513 50.4423 250.381 65.7263C251.249 81.0103 256.894 95.6464 263.767 109.332C269.786 121.319 276.976 134.913 272.051 147.387C269.299 154.36 263.026 159.522 256.09 162.396C249.154 165.27 241.547 166.101 234.046 166.474C221.261 167.115 208.285 166.531 195.845 169.524C183.405 172.517 171.155 179.913 166.343 191.753C160.677 205.706 167.112 222.398 178.459 232.308C189.812 242.218 205.039 246.472 219.977 248.578C240.905 251.522 262.348 250.783 283.023 246.409C299.626 242.894 315.961 236.915 329.508 226.709C343.049 216.503 353.619 201.74 356.519 185.047C359.412 168.355 353.795 149.894 340.544 139.315C335.033 134.913 328.386 131.905 323.553 126.771C318.72 121.636 316.264 113.086 320.752 107.648C323.715 104.056 328.711 102.957 333.34 102.401C356.11 99.6893 381.335 104.373 400.38 91.6176C411.281 84.3137 418.337 71.8611 419.89 58.845C421.442 45.8289 418.627 31.7422 410.413 21.5153C388.025 -6.32701 292.273 -6.82709 264.853 23.5719Z" fill="#407BFF"/>
<g opacity="0.9">
<path d="M264.853 23.5719C254.594 34.9469 249.513 50.4423 250.381 65.7263C251.249 81.0103 256.894 95.6464 263.767 109.332C269.786 121.319 276.976 134.913 272.051 147.387C269.299 154.36 263.026 159.522 256.09 162.396C249.154 165.27 241.547 166.101 234.046 166.474C221.261 167.115 208.285 166.531 195.845 169.524C183.405 172.517 171.155 179.913 166.343 191.753C160.677 205.706 167.112 222.398 178.459 232.308C189.812 242.218 205.039 246.472 219.977 248.578C240.905 251.522 262.348 250.783 283.023 246.409C299.626 242.894 315.961 236.915 329.508 226.709C343.049 216.503 353.619 201.74 356.519 185.047C359.412 168.355 353.795 149.894 340.544 139.315C335.033 134.913 328.386 131.905 323.553 126.771C318.72 121.636 316.264 113.086 320.752 107.648C323.715 104.056 328.711 102.957 333.34 102.401C356.11 99.6893 381.335 104.373 400.38 91.6176C411.281 84.3137 418.337 71.8611 419.89 58.845C421.442 45.8289 418.627 31.7422 410.413 21.5153C388.025 -6.32701 292.273 -6.82709 264.853 23.5719Z" fill="white"/>
</g>
<path d="M267.404 263.557C342.963 263.557 404.215 259.988 404.215 255.584C404.215 251.181 342.963 247.611 267.404 247.611C191.846 247.611 130.594 251.181 130.594 255.584C130.594 259.988 191.846 263.557 267.404 263.557Z" fill="#F5F5F5"/>
<path d="M256.164 143.813L257.928 133.656L261.393 134.656L256.164 143.813Z" fill="#407BFF"/>
<path d="M257.328 147.069L267.249 144.203L265.873 140.871L257.328 147.069Z" fill="#407BFF"/>
<path d="M259.094 143.244L264.746 132.58L268.549 135.221L259.094 143.244Z" fill="#407BFF"/>
<path d="M165.718 159.247H161.251C161.054 159.247 160.898 159.092 160.898 158.895C160.898 158.698 161.054 158.543 161.251 158.543H165.718C165.915 158.543 166.071 158.698 166.071 158.895C166.071 159.092 165.915 159.247 165.718 159.247Z" fill="#407BFF"/>
<path d="M158.281 159.247H135.892C135.694 159.247 135.539 159.092 135.539 158.895C135.539 158.698 135.694 158.543 135.892 158.543H158.274C158.471 158.543 158.627 158.698 158.627 158.895C158.627 159.092 158.471 159.247 158.281 159.247Z" fill="#407BFF"/>
<path d="M237.667 200.006C237.582 200.006 237.497 199.978 237.427 199.914C237.286 199.781 237.271 199.562 237.406 199.414L239.494 197.146C239.628 197.005 239.847 196.998 239.995 197.125C240.136 197.259 240.15 197.477 240.016 197.625L237.928 199.893C237.857 199.964 237.765 200.006 237.667 200.006Z" fill="#407BFF"/>
<path d="M218.534 218.06C218.407 218.06 218.28 217.99 218.217 217.87C218.132 217.694 218.196 217.482 218.372 217.398C224.913 214.095 235.271 201.741 235.377 201.614C235.504 201.466 235.723 201.445 235.871 201.572C236.019 201.698 236.041 201.917 235.914 202.065C235.483 202.579 225.351 214.651 218.683 218.025C218.647 218.046 218.591 218.06 218.534 218.06Z" fill="#407BFF"/>
<path d="M269.295 214.2L274.333 210.037L261.646 198.021L256.234 202.635L269.295 214.2Z" fill="#F7AF93"/>
<path d="M278.408 208.429C278.07 208.218 277.378 208.316 276.666 208.513C276.327 208.612 275.974 208.725 275.664 208.837C275.417 208.929 275.191 209.021 275 209.098C274.718 209.218 274.513 209.309 274.443 209.345C274.379 209.359 274.337 209.429 274.33 209.492C274.323 209.514 274.337 209.542 274.351 209.563C274.372 209.598 274.408 209.626 274.45 209.633C275.163 209.823 275.896 209.943 276.637 210C276.997 210.049 277.371 210.021 277.717 209.922C277.738 209.915 277.752 209.915 277.766 209.908C277.964 209.845 278.161 209.76 278.338 209.654C278.571 209.464 278.698 209.175 278.669 208.873C278.662 208.697 278.571 208.528 278.408 208.429ZM278.338 208.894C278.373 209.098 278.281 209.302 278.112 209.422C277.978 209.535 277.788 209.605 277.541 209.654C277.301 209.704 277.011 209.718 276.68 209.697C276.292 209.683 275.84 209.619 275.339 209.528C275.233 209.507 275.12 209.485 275.007 209.464C275.607 209.175 276.235 208.957 276.884 208.809C277.23 208.732 277.576 208.675 277.929 208.64C278.034 208.64 278.133 208.661 278.225 208.711C278.303 208.753 278.345 208.816 278.338 208.894Z" fill="#407BFF"/>
<path d="M276.107 205.783C275.783 205.832 275.486 206.03 275.303 206.297C275.247 206.382 275.197 206.466 275.162 206.565C274.739 207.473 274.957 208.847 275.007 209.1C275.014 209.122 275.014 209.129 275.014 209.136C275.021 209.192 275.063 209.241 275.12 209.255C275.148 209.27 275.183 209.277 275.218 209.262C275.24 209.262 275.261 209.248 275.282 209.227C275.402 209.129 275.529 208.995 275.67 208.833C275.875 208.593 276.086 208.305 276.27 207.988C276.707 207.276 277.018 206.473 276.827 206.058C276.75 205.896 276.566 205.713 276.107 205.783ZM276.531 206.206C276.651 206.48 276.418 207.107 276.058 207.727C275.825 208.121 275.557 208.502 275.289 208.784C275.232 208.34 275.176 207.495 275.395 206.868C275.437 206.727 275.501 206.593 275.578 206.487C275.698 206.318 275.868 206.185 276.065 206.128L276.164 206.114C276.46 206.058 276.517 206.17 276.531 206.206Z" fill="#407BFF"/>
<path d="M273.673 209.741L267.351 212.925C267.097 213.044 266.977 213.326 267.055 213.587L268.917 219.489C269.122 220.067 269.757 220.369 270.343 220.165C270.378 220.151 270.42 220.137 270.456 220.116C281.287 216.319 284.603 213.629 285.739 213.016C288.964 211.262 287.15 208.98 285.951 209.262C280.553 210.551 278.74 210.22 276.404 209.614C275.155 209.431 274.054 209.551 273.673 209.741Z" fill="#263238"/>
<path opacity="0.2" d="M261.646 198.027L268.075 203.711L262.655 208.318L256.234 202.641L261.646 198.027Z" fill="black"/>
<path d="M259.651 208.276L267.73 200.845L265.952 197.725L256.609 205.733L259.651 208.276Z" fill="#407BFF"/>
<path opacity="0.5" d="M259.651 208.276L267.73 200.845L265.952 197.725L256.609 205.733L259.651 208.276Z" fill="white"/>
<path d="M264.687 198.817L263.607 199.747L261.991 201.134L261.025 201.951L258.209 204.367L257.666 204.825C257.666 204.825 246.157 198.352 239.751 192.823C235.362 189.034 234.966 187.625 234.508 187.977C228.32 192.675 210.002 208.917 199.622 217.369C199.284 217.404 198.952 217.44 198.606 217.461C193.06 217.869 188.7 217.256 185.313 215.967C185.277 211.474 189.13 200.979 189.448 199.965C189.448 199.965 204.766 184.766 229.583 171.918C229.83 171.792 230.084 171.693 230.331 171.587C230.655 171.447 230.973 171.313 231.304 171.193C232.603 170.7 233.873 170.397 235.108 170.334C236.215 170.277 237.295 170.475 238.332 170.841C238.918 171.045 239.496 171.299 240.054 171.594C240.548 171.841 241.028 172.13 241.493 172.426C242.262 172.912 243.003 173.454 243.702 173.989C245.282 175.208 257.271 190.626 263.72 197.739C263.72 197.746 263.72 197.746 263.72 197.746C264.059 198.148 264.383 198.5 264.687 198.817Z" fill="#407BFF"/>
<g opacity="0.1">
<path d="M264.687 198.817L263.607 199.747L261.991 201.134L261.025 201.951L258.209 204.367L257.666 204.825C257.666 204.825 246.157 198.352 239.751 192.823C235.362 189.034 234.966 187.625 234.508 187.977C228.32 192.675 210.002 208.917 199.622 217.369C199.284 217.404 198.952 217.44 198.606 217.461C193.06 217.869 188.7 217.256 185.313 215.967C185.277 211.474 189.13 200.979 189.448 199.965C189.448 199.965 204.766 184.766 229.583 171.918C229.83 171.792 230.084 171.693 230.331 171.587C230.655 171.447 230.973 171.313 231.304 171.193C232.603 170.7 233.873 170.397 235.108 170.334C236.215 170.277 237.295 170.475 238.332 170.841C238.918 171.045 239.496 171.299 240.054 171.594C240.548 171.841 241.028 172.13 241.493 172.426C242.262 172.912 243.003 173.454 243.702 173.989C245.282 175.208 257.271 190.626 263.72 197.739C263.72 197.746 263.72 197.746 263.72 197.746C264.059 198.148 264.383 198.5 264.687 198.817Z" fill="black"/>
</g>
<path d="M182.944 133.934C183.911 138.322 184.927 144.724 181.914 147.731C185.654 154.31 190.149 160.431 195.307 165.974C201.918 154.5 195.652 147.407 195.652 147.407C190.699 146.351 190.777 144.358 191.553 140.921L182.944 133.934Z" fill="#FEC4AD"/>
<path d="M178.852 148.286C179.218 147.095 179.973 146.067 180.997 145.356C181.984 144.595 192.258 144.482 194.932 145.356C196.492 145.849 197.818 146.891 198.665 148.293L178.852 148.286Z" fill="#407BFF"/>
<path d="M226.248 165.752L228.909 164.541L229.043 168.866C229.043 168.866 227.801 169.971 226.439 170.394C225.134 170.795 223.892 169.598 224.216 168.274C224.477 167.168 225.225 166.246 226.248 165.752Z" fill="#FEC4AD"/>
<path d="M232.305 165.759L232.164 167.343C232.129 167.837 231.769 168.245 231.289 168.351L229.017 168.858L228.883 164.533L231.19 164.568C231.804 164.561 232.298 165.047 232.305 165.66C232.305 165.695 232.305 165.731 232.305 165.759Z" fill="#FEC4AD"/>
<path d="M192.513 178.049C196.507 180.014 201.404 181.141 206.209 180.331C211.868 179.38 221.725 173.71 226.016 170.456L224.569 168.308C222.431 168.766 204.96 177.626 193.67 169.611C191.568 168.118 183.312 161.969 180.391 162.096C175.656 162.307 176.065 167.258 178.098 169.322C180.49 171.738 189.246 176.443 192.513 178.049Z" fill="#FEC4AD"/>
<g opacity="0.2">
<path d="M232.161 167.351C232.119 167.837 231.766 168.252 231.286 168.358L229.029 168.865V168.872C229.029 168.872 227.787 169.978 226.432 170.401C226.291 170.443 226.15 170.471 226.016 170.471L226.008 170.478C221.718 173.732 211.868 179.395 206.209 180.346C201.404 181.149 196.507 180.029 192.513 178.057C189.246 176.451 180.476 171.739 178.098 169.33C176.065 167.266 175.656 162.322 180.391 162.103C183.305 161.977 191.568 168.126 193.67 169.619C204.438 177.261 220.822 169.555 224.174 168.428C224.181 168.379 224.188 168.323 224.202 168.273C224.336 167.724 224.583 167.217 224.936 166.78C225.275 166.351 225.726 165.991 226.234 165.745L228.866 164.548L228.894 164.54L231.181 164.569C231.787 164.562 232.288 165.055 232.288 165.667C232.288 165.696 232.288 165.731 232.288 165.759L232.161 167.351Z" fill="black"/>
<path d="M228.905 164.541L228.883 164.548V164.541H228.905Z" fill="black"/>
</g>
<path d="M207.308 155.364C213.298 168.542 199.405 172.303 205.77 193.912L175.57 194.638C175.774 183.059 179.895 185.545 174.462 163.774C174.003 161.929 173.234 156.639 175.203 151.821C175.972 149.948 177.334 148.356 179.119 147.391C181.348 146.187 191.171 147.131 195.651 147.426C200.506 146.743 206.419 153.716 207.308 155.364Z" fill="#407BFF"/>
<path opacity="0.5" d="M207.308 155.364C213.298 168.542 199.405 172.303 205.77 193.912L175.57 194.638C175.774 183.059 179.895 185.545 174.462 163.774C174.003 161.929 173.234 156.639 175.203 151.821C175.972 149.948 177.334 148.356 179.119 147.391C181.348 146.187 191.171 147.131 195.651 147.426C200.506 146.743 206.419 153.716 207.308 155.364Z" fill="white"/>
<path d="M201.533 129.221C201.448 129.799 201.681 130.271 202.041 130.32C202.401 130.369 202.768 129.968 202.845 129.411C202.93 128.855 202.697 128.362 202.337 128.313C201.978 128.263 201.611 128.672 201.533 129.221Z" fill="#263238"/>
<path d="M202.18 128.319L203.563 128.129C203.563 128.129 202.73 129.074 202.18 128.319Z" fill="#263238"/>
<path d="M201.627 129.982C201.627 129.982 202.22 132.504 203.095 133.793C202.262 134.37 201.062 133.877 201.062 133.877L201.627 129.982Z" fill="#A02724"/>
<path d="M203.534 125.348C203.64 125.305 203.717 125.207 203.738 125.094C203.767 124.918 203.639 124.749 203.463 124.721C202.419 124.538 201.346 124.876 200.598 125.622C200.464 125.749 200.457 125.953 200.577 126.087C200.704 126.221 200.909 126.228 201.043 126.108C201.057 126.094 201.071 126.08 201.085 126.059C201.692 125.481 202.539 125.228 203.364 125.376C203.421 125.376 203.484 125.369 203.534 125.348Z" fill="#263238"/>
<path d="M183.259 124.656C182.688 131.524 182.3 134.411 185.235 138.405C189.652 144.413 198.232 143.624 200.836 137.06C203.193 131.157 203.736 120.923 197.456 117.247C192.983 114.598 187.211 116.07 184.551 120.529C183.803 121.79 183.358 123.205 183.259 124.656Z" fill="#FEC4AD"/>
<path d="M200.992 136.651C200.47 136.214 200.075 135.637 199.849 134.974C199.828 134.904 199.87 134.827 199.948 134.798C200.019 134.777 200.096 134.82 200.117 134.897C200.322 135.468 200.661 135.968 201.098 136.369L200.992 136.651Z" fill="#263238"/>
<path d="M178.356 115.733C175.731 119.283 174.539 120.206 177.785 129.651C179.09 133.447 182.879 138.476 184.721 138.934C188.023 139.765 191.233 137.448 193.717 135.117C195.89 133.074 197.972 130.869 199.292 128.2C200.611 125.531 201.098 122.333 200.011 119.565C198.826 116.557 194.642 113.874 191.509 113.212C187.825 112.43 180.536 112.782 178.356 115.733Z" fill="#263238"/>
<path d="M198.93 128.783C198.93 128.783 199.755 130.199 198.711 131.255L198.732 129.368L198.93 128.783Z" fill="#263238"/>
<path d="M198.915 128.783C198.915 128.783 199.219 130.953 197.398 131.763L198.379 129.417L198.915 128.783Z" fill="#263238"/>
<path d="M186.806 138.133C186.806 138.133 184.802 139.041 185.091 141.006L186.552 138.929L186.806 138.133Z" fill="#263238"/>
<path d="M186.879 138.176C186.879 138.176 185.355 139.753 186.357 141.479L186.942 139.007L186.879 138.176Z" fill="#263238"/>
<path d="M201.677 125.945C202.39 125.212 203.117 124.465 203.639 123.585C204.168 122.705 204.486 121.662 204.33 120.655C204.126 119.345 203.138 118.267 201.988 117.605C200.838 116.95 199.518 116.654 198.22 116.366C197.585 116.225 196.872 116.091 196.315 116.429C195.771 116.753 195.539 117.436 195.574 118.063C195.602 118.69 195.856 119.282 196.082 119.866C196.978 122.155 197.542 124.508 197.973 126.917C198.192 128.135 198.022 128.938 199.229 128.473C200.033 128.156 201.063 126.586 201.677 125.945Z" fill="#263238"/>
<path d="M192.178 129.341C192.107 130.933 192.665 132.483 193.737 133.659C195.17 135.209 196.99 134.194 197.512 132.264C197.992 130.532 197.809 127.637 195.932 126.806C194.055 125.975 192.277 127.405 192.178 129.341Z" fill="#FEC4AD"/>
<path d="M272.208 217.361L277.656 212.065L267.114 198.83L260.523 202.711L272.208 217.361Z" fill="#FEC4AD"/>
<path d="M283.219 210.43C282.612 210.219 281.371 210.895 280.432 211.494C280.192 211.642 279.981 211.79 279.797 211.916L279.783 211.923C279.748 211.952 279.719 211.973 279.691 211.994C279.48 212.142 279.324 212.254 279.268 212.297C279.197 212.332 279.169 212.402 279.183 212.473C279.204 212.543 279.268 212.592 279.338 212.6C279.988 212.628 280.637 212.607 281.286 212.536C281.434 212.522 281.575 212.508 281.716 212.487C282.189 212.452 282.641 212.297 283.029 212.036C283.17 211.944 283.304 211.846 283.417 211.733C283.621 211.487 283.692 211.149 283.593 210.839C283.551 210.663 283.41 210.501 283.219 210.43ZM283.262 210.937C283.332 211.142 283.297 211.374 283.149 211.543C282.965 211.768 282.598 211.952 282.076 212.078C281.674 212.177 281.187 212.247 280.616 212.276C280.39 212.283 280.15 212.297 279.903 212.29C279.981 212.226 280.058 212.17 280.143 212.114C280.199 212.071 280.256 212.036 280.312 211.994C281.067 211.466 281.9 211.05 282.782 210.761C282.888 210.733 283.001 210.733 283.113 210.768C283.184 210.789 283.24 210.853 283.262 210.937Z" fill="#407BFF"/>
<path d="M280.201 208.183C279.869 208.31 279.608 208.578 279.481 208.902C279.036 209.986 279.693 211.655 279.805 211.916C279.805 211.923 279.805 211.923 279.812 211.923C279.812 211.937 279.812 211.944 279.82 211.944C279.848 212.001 279.897 212.043 279.961 212.05C279.996 212.057 280.031 212.05 280.067 212.036C280.088 212.029 280.116 212.008 280.123 211.994C280.13 211.979 280.137 211.979 280.144 211.972C280.243 211.846 280.349 211.684 280.44 211.493C280.963 210.514 281.449 208.88 281.019 208.317C280.892 208.148 280.659 207.993 280.201 208.183ZM280.024 211.508C279.834 210.951 279.495 209.768 279.805 209.035C279.89 208.831 280.038 208.655 280.236 208.549L280.335 208.5C280.638 208.38 280.716 208.486 280.744 208.521C281.047 208.937 280.575 210.606 280.024 211.508Z" fill="#407BFF"/>
<path opacity="0.2" d="M266.561 198.02L271.528 204.359L264.811 208.099L259.766 201.922L266.561 198.02Z" fill="black"/>
<path d="M175.293 192.337L174.594 195.07C174.488 195.288 174.749 195.493 175.095 195.486L206.198 194.753C206.474 194.739 206.692 194.605 206.706 194.436L205.93 191.57C205.951 191.386 205.704 191.231 205.408 191.239L175.794 192.105C175.596 192.091 175.406 192.182 175.293 192.337Z" fill="#263238"/>
<path d="M202.973 195.076L202.154 195.16C201.992 195.153 201.858 195.111 201.858 195.012L201.844 191.484C201.844 191.385 201.978 191.287 202.14 191.265L202.959 191.174C203.121 191.181 203.255 191.223 203.255 191.329L203.269 194.857C203.262 194.963 203.135 195.062 202.973 195.076Z" fill="#407BFF"/>
<path d="M191.833 195.22L191.014 195.305C190.852 195.298 190.725 195.256 190.718 195.157L190.711 191.628C190.711 191.53 190.845 191.431 191.007 191.41L191.819 191.318C191.981 191.325 192.115 191.368 192.115 191.473L192.129 195.002C192.129 195.115 191.995 195.199 191.833 195.22Z" fill="#407BFF"/>
<path d="M191.833 195.22L191.014 195.305C190.852 195.298 190.725 195.256 190.718 195.157L190.711 191.628C190.711 191.53 190.845 191.431 191.007 191.41L191.819 191.318C191.981 191.325 192.115 191.368 192.115 191.473L192.129 195.002C192.129 195.115 191.995 195.199 191.833 195.22Z" fill="#407BFF"/>
<path d="M270.73 200.858L269.354 201.633L269.347 201.64L266.983 202.971L264.86 204.162L264.853 204.169L262.672 205.394V205.401L261.84 205.873C261.84 205.873 261.649 205.739 261.317 205.493C261.19 205.401 261.042 205.296 260.873 205.169C260.358 204.782 259.631 204.239 258.791 203.57C258.791 203.57 258.791 203.57 258.791 203.563C254.402 200.105 246.591 193.294 244.27 187.11C242.767 188.899 240.968 191.139 238.907 193.618C230.038 204.303 216.243 219.382 199.668 221.347C199.33 221.397 198.998 221.425 198.652 221.453C193.113 221.932 188.746 221.376 185.344 220.129C176.743 216.988 174.344 209.437 174.937 203.021V203C174.986 199.999 175.579 194.646 175.579 194.646L206.957 194.681C211.381 189.321 220.251 180.926 229.325 175.629C229.537 175.495 229.756 175.369 229.974 175.256C230.242 175.094 230.518 174.953 230.786 174.805C233.735 173.192 236.685 171.946 239.479 171.269C240.1 171.121 240.714 170.995 241.32 170.903C241.956 170.805 242.584 170.748 243.197 170.72V170.727C247.495 170.53 251.227 172.129 253.76 176.411L270.272 200.189L270.73 200.858Z" fill="#407BFF"/>
<path d="M253.799 168.304L219.125 169.734L220.141 147.709L254.815 146.279L253.799 168.304Z" fill="#407BFF"/>
<path d="M253.394 170.039L219.221 171.447C218.255 171.49 217.5 170.729 217.549 169.764L218.558 147.88C218.601 146.908 219.426 146.091 220.393 146.049L254.565 144.64C255.532 144.598 256.287 145.359 256.238 146.324L255.229 168.207C255.186 169.179 254.361 170.003 253.394 170.039Z" fill="#263238"/>
<path d="M253.799 168.308L219.125 169.737L220.141 147.713L254.815 146.283L253.799 168.308Z" fill="#407BFF"/>
<path opacity="0.9" d="M253.799 168.308L219.125 169.737L220.141 147.713L254.815 146.283L253.799 168.308Z" fill="white"/>
<path opacity="0.1" d="M232.448 145.564L226.719 171.132L228.998 171.04L234.65 145.473L232.448 145.564Z" fill="white"/>
<path opacity="0.1" d="M235.964 145.416L230.234 170.983L234.757 170.8L240.409 145.232L235.964 145.416Z" fill="white"/>
<path d="M242.542 170.314L254.086 169.99C254.284 171.328 253.712 171.829 252.978 171.85L249.288 171.941L246.825 171.998L242.994 172.103L219.222 172.793L219.031 171.124L242.542 170.314Z" fill="#407BFF"/>
<path d="M242.54 170.316L254.084 169.992C254.281 171.33 253.71 171.83 252.976 171.852L249.285 171.943L246.823 172L242.991 172.105L213.567 173.007C213.229 173.014 212.918 172.831 212.77 172.521C212.509 171.971 212.897 171.323 213.511 171.302L242.54 170.316Z" fill="#407BFF"/>
<path opacity="0.2" d="M242.54 170.316L254.084 169.992C254.281 171.33 253.71 171.83 252.976 171.852L249.285 171.943L246.823 172L242.991 172.105L213.567 173.007C213.229 173.014 212.918 172.831 212.77 172.521C212.509 171.971 212.897 171.323 213.511 171.302L242.54 170.316Z" fill="black"/>
<path opacity="0.2" d="M254.087 169.992L254.158 170.457C254.264 171.175 253.713 171.83 252.979 171.852L249.289 171.943L242.438 172.19L242.55 170.316L254.087 169.992Z" fill="black"/>
<path opacity="0.2" d="M194.289 156.014C194.289 156.014 192.659 159.331 197.365 168.093L199.334 171.664C199.983 172.84 204.301 170.438 205.585 168.234C205.585 168.234 197.337 163.289 194.289 156.014Z" fill="black"/>
<path d="M234.204 166.225L237.485 165.26L236.956 170.324C236.956 170.324 232.377 173.381 230.789 170.458L231.424 168.824C231.918 167.584 232.934 166.626 234.204 166.225Z" fill="#FEC4AD"/>
<path d="M241.256 167.246L240.847 169.071C240.727 169.634 240.247 170.05 239.668 170.099L236.938 170.31L237.467 165.246L240.148 165.669C240.861 165.76 241.369 166.415 241.27 167.127C241.27 167.176 241.263 167.211 241.256 167.246Z" fill="#FEC4AD"/>
<path d="M206.881 174.783C209.168 177.882 212.385 180.467 216.174 181.207C220.634 182.08 229.214 175.783 233.236 171.705C233.031 169.987 233.151 169.057 231.429 168.817C231.429 168.817 227.005 172.057 218.651 174.001C215.955 174.628 214.156 171.874 211.799 167.867C210.628 165.866 206.832 157.675 205.4 155.851C203.106 152.921 196.565 155.02 199.162 162.07C200.256 165.042 205.011 172.255 206.881 174.783Z" fill="#FEC4AD"/>
<path d="M204.447 151.059C209.089 155.313 211.347 162.835 211.347 162.835L200.509 169.428C200.509 169.428 192.585 158.327 193.996 154.461C195.111 151.46 197.179 149.488 199.895 149.319C201.582 149.213 203.205 149.918 204.447 151.059Z" fill="#407BFF"/>
<path d="M179.593 195.647L178.775 195.668C178.612 195.647 178.485 195.591 178.492 195.485L178.789 191.97C178.803 191.865 178.937 191.78 179.099 191.773L179.918 191.752C180.08 191.773 180.207 191.836 180.2 191.935L179.904 195.457C179.897 195.562 179.756 195.668 179.593 195.647Z" fill="#407BFF"/>
<path d="M260.502 207.367L271.058 202.099L270.155 198.352L258.117 203.838L260.502 207.367Z" fill="#407BFF"/>
<path opacity="0.5" d="M260.502 207.367L271.058 202.099L270.155 198.352L258.117 203.838L260.502 207.367Z" fill="white"/>
<path d="M277.232 211.487L269.95 213.692C269.66 213.769 269.477 214.044 269.512 214.34L270.387 220.932C270.5 221.58 271.114 222.024 271.763 221.911C271.805 221.904 271.848 221.897 271.89 221.883C284.055 219.862 288.07 217.636 289.375 217.192C293.108 215.931 291.619 213.177 290.292 213.262C284.337 213.628 282.481 212.945 280.117 211.874C278.854 211.431 277.669 211.353 277.232 211.487Z" fill="#263238"/>
<path d="M179.32 124.579C177.132 124.924 174.966 123.247 174.282 121.148C173.597 119.05 174.162 116.704 175.284 114.795C176.109 113.387 181.521 110.048 183.532 113.809C187.526 121.289 179.32 124.579 179.32 124.579Z" fill="#263238"/>
<path d="M253.485 153.84L232.141 154.741L232.239 152.628L253.584 151.727L253.485 153.84Z" fill="#407BFF"/>
<g opacity="0.7">
<path d="M253.485 153.84L232.141 154.741L232.239 152.628L253.584 151.727L253.485 153.84Z" fill="white"/>
</g>
<path d="M253.36 156.767L232.016 157.676L232.107 155.563L253.452 154.654L253.36 156.767Z" fill="#407BFF"/>
<g opacity="0.7">
<path d="M253.36 156.767L232.016 157.676L232.107 155.563L253.452 154.654L253.36 156.767Z" fill="white"/>
</g>
<path d="M253.22 159.703L231.875 160.611L231.974 158.491L253.318 157.59L253.22 159.703Z" fill="#407BFF"/>
<g opacity="0.7">
<path d="M253.22 159.703L231.875 160.611L231.974 158.491L253.318 157.59L253.22 159.703Z" fill="white"/>
</g>
<path d="M253.095 162.633L231.75 163.541L231.849 161.428L253.193 160.52L253.095 162.633Z" fill="#407BFF"/>
<g opacity="0.7">
<path d="M253.095 162.633L231.75 163.541L231.849 161.428L253.193 160.52L253.095 162.633Z" fill="white"/>
</g>
<path d="M252.97 165.572L231.625 166.481L231.717 164.368L253.061 163.459L252.97 165.572Z" fill="#407BFF"/>
<g opacity="0.7">
<path d="M252.97 165.572L231.625 166.481L231.717 164.368L253.061 163.459L252.97 165.572Z" fill="white"/>
</g>
<path d="M223.526 155.926L221.812 156L221.843 156.704L223.556 156.63L223.526 155.926Z" fill="#407BFF"/>
<g opacity="0.5">
<path d="M223.526 155.926L221.812 156L221.843 156.704L223.556 156.63L223.526 155.926Z" fill="white"/>
</g>
<path d="M223.447 157.956L221.734 158.029L221.765 158.733L223.478 158.659L223.447 157.956Z" fill="#407BFF"/>
<g opacity="0.5">
<path d="M223.447 157.956L221.734 158.029L221.765 158.733L223.478 158.659L223.447 157.956Z" fill="white"/>
</g>
<path d="M223.362 159.991L221.648 160.064L221.679 160.768L223.392 160.695L223.362 159.991Z" fill="#407BFF"/>
<g opacity="0.5">
<path d="M223.362 159.991L221.648 160.064L221.679 160.768L223.392 160.695L223.362 159.991Z" fill="white"/>
</g>
<path d="M223.291 162.022L221.578 162.096L221.608 162.799L223.321 162.726L223.291 162.022Z" fill="#407BFF"/>
<g opacity="0.5">
<path d="M223.291 162.022L221.578 162.096L221.608 162.799L223.321 162.726L223.291 162.022Z" fill="white"/>
</g>
<path d="M223.205 164.054L221.492 164.127L221.522 164.831L223.236 164.757L223.205 164.054Z" fill="#407BFF"/>
<g opacity="0.5">
<path d="M221.516 164.831L221.579 164.126L223.287 164.049L223.223 164.76L221.516 164.831Z" fill="white"/>
</g>
<path d="M223.119 166.084L221.406 166.156L221.436 166.86L223.149 166.788L223.119 166.084Z" fill="#407BFF"/>
<g opacity="0.5">
<path d="M223.119 166.084L221.406 166.156L221.436 166.86L223.149 166.788L223.119 166.084Z" fill="white"/>
</g>
<path d="M225.308 153.983L221.766 155.293L221.801 154.371L223.762 154.054L221.822 153.92L221.857 152.99L225.308 153.983Z" fill="#407BFF"/>
<path d="M246.93 150.623L232.141 151.25L232.211 149.785L247.001 149.158L246.93 150.623Z" fill="#407BFF"/>
<g opacity="0.7">
<path d="M246.93 150.623L232.141 151.25L232.211 149.785L247.001 149.158L246.93 150.623Z" fill="white"/>
</g>
<path d="M226.979 151.377L224.812 151.476L225.687 150.919L225.927 151.138L226.188 150.912L226.979 151.377Z" fill="#407BFF"/>
<path d="M225.602 150.852L224.727 151.415L224.79 150.119L225.602 150.852Z" fill="#407BFF"/>
<path d="M227.118 150.082L227.047 151.308L226.25 150.836L227.118 150.082Z" fill="#407BFF"/>
<path d="M225.955 150.619L225.906 150.67L225.911 150.675L225.96 150.624L225.955 150.619Z" fill="white"/>
<path d="M225.911 150.64L225.906 150.645L225.955 150.696L225.96 150.691L225.911 150.64Z" fill="white"/>
<path d="M227.12 149.955L226.188 150.8L225.927 151.033L225.687 150.807L224.876 150.075L224.812 150.018L227.12 149.955Z" fill="#407BFF"/>
<path d="M223.541 150.185L221.828 150.258L221.837 150.469L223.55 150.397L223.541 150.185Z" fill="#407BFF"/>
<path d="M223.541 150.724L221.828 150.797L221.837 151.008L223.55 150.936L223.541 150.724Z" fill="#407BFF"/>
<path d="M223.541 151.263L221.828 151.336L221.837 151.547L223.55 151.475L223.541 151.263Z" fill="#407BFF"/>
<path d="M322.944 44.273H312.663C311.732 44.273 310.977 43.5193 310.977 42.5896C310.977 41.6599 311.732 40.9062 312.663 40.9062H322.944C323.875 40.9062 324.63 41.6599 324.63 42.5896C324.63 43.5193 323.875 44.273 322.944 44.273Z" fill="#407BFF"/>
<g opacity="0.7">
<path d="M322.944 44.273H312.663C311.732 44.273 310.977 43.5193 310.977 42.5896C310.977 41.6599 311.732 40.9062 312.663 40.9062H322.944C323.875 40.9062 324.63 41.6599 324.63 42.5896C324.63 43.5193 323.875 44.273 322.944 44.273Z" fill="white"/>
</g>
<path d="M360.66 78.8608L321.245 151.266C320.737 152.196 319.566 152.541 318.634 152.034L251.566 115.655C250.635 115.148 250.289 113.979 250.797 113.049L302.059 18.8727C302.567 17.943 303.739 17.5979 304.67 18.105L349.864 42.6158L360.66 78.8608Z" fill="#407BFF"/>
<g opacity="0.2">
<path d="M360.66 78.8608L321.245 151.266C320.737 152.196 319.566 152.541 318.634 152.034L251.566 115.655C250.635 115.148 250.289 113.979 250.797 113.049L302.059 18.8727C302.567 17.943 303.739 17.5979 304.67 18.105L349.864 42.6158L360.66 78.8608Z" fill="white"/>
</g>
<path d="M338.544 95.1128L288.453 68.1387L286.778 71.2381L336.868 98.2122L338.544 95.1128Z" fill="#407BFF"/>
<path d="M331.7 107.777L281.609 80.8027L279.934 83.9022L330.025 110.876L331.7 107.777Z" fill="#407BFF"/>
<path d="M324.856 120.441L274.766 93.4668L273.091 96.5662L323.181 123.54L324.856 120.441Z" fill="#407BFF"/>
<path d="M349.921 42.584L338.031 64.4254C337.523 65.3551 337.869 66.5243 338.8 67.0314L360.611 78.8642L349.921 42.584Z" fill="#407BFF"/>
<path opacity="0.7" d="M349.921 42.584L338.031 64.4254C337.523 65.3551 337.869 66.5243 338.8 67.0314L360.611 78.8642L349.921 42.584Z" fill="white"/>
<path d="M370.934 76.4272L331.518 148.833C331.01 149.762 329.839 150.108 328.908 149.6L261.839 113.222C260.908 112.714 260.562 111.545 261.07 110.616L312.333 16.4391C312.841 15.5094 314.012 15.1643 314.944 15.6714L360.138 40.1822L370.934 76.4272Z" fill="#407BFF"/>
<g opacity="0.5">
<path d="M370.934 76.4272L331.518 148.833C331.01 149.762 329.839 150.108 328.908 149.6L261.839 113.222C260.908 112.714 260.562 111.545 261.07 110.616L312.333 16.4391C312.841 15.5094 314.012 15.1643 314.944 15.6714L360.138 40.1822L370.934 76.4272Z" fill="white"/>
</g>
<path d="M347.484 91.9584L300.068 66.4263C299.327 66.0319 298.409 66.3066 298.007 67.0391L297.774 67.4687C297.379 68.2083 297.654 69.1239 298.388 69.5254L345.805 95.0575C346.546 95.4519 347.463 95.1772 347.865 94.4447L348.098 94.015C348.501 93.2755 348.225 92.3528 347.484 91.9584Z" fill="#407BFF"/>
<path d="M340.641 104.622L293.224 79.0904C292.483 78.6959 291.566 78.9706 291.163 79.7031L290.931 80.1328C290.535 80.8723 290.811 81.788 291.544 82.1894L338.961 107.722C339.702 108.116 340.62 107.841 341.022 107.109L341.255 106.679C341.657 105.94 341.382 105.017 340.641 104.622Z" fill="#407BFF"/>
<path d="M333.797 117.287L286.38 91.7544C285.639 91.36 284.722 91.6347 284.32 92.3672L284.087 92.7968C283.692 93.5364 283.967 94.452 284.701 94.8535L332.118 120.386C332.858 120.78 333.776 120.505 334.178 119.773L334.411 119.343C334.813 118.604 334.538 117.688 333.797 117.287Z" fill="#407BFF"/>
<path d="M360.202 40.1523L348.312 61.9937C347.804 62.9234 348.15 64.0926 349.082 64.5998L370.892 76.4326L360.202 40.1523Z" fill="#407BFF"/>
<path opacity="0.7" d="M360.202 40.1523L348.312 61.9937C347.804 62.9234 348.15 64.0926 349.082 64.5998L370.892 76.4326L360.202 40.1523Z" fill="white"/>
<path d="M379.485 27L382.797 41.726C370.26 45.1765 359.014 57.6022 350.922 69.3506C347.732 73.9864 345.028 79.3702 343.008 85.0645C343.008 85.0645 368.283 62.1534 382.222 60.8127L381.563 85.1562C381.563 85.1562 396.012 56.953 424.086 46.63C424.079 46.6229 400.566 29.6601 379.485 27Z" fill="#407BFF"/>
<path d="M186.615 167.544L193.015 240.562H182.699L175.812 161.986H180.54C183.708 161.986 186.34 164.402 186.615 167.544Z" fill="#FF5E69"/>
<path opacity="0.2" d="M186.68 168.206L193.023 240.57H182.707L175.82 161.994H179.885C183.42 161.987 186.369 164.692 186.68 168.206Z" fill="black"/>
<path d="M179.914 166.748L186.384 240.57H124.968L118.575 167.657C118.307 164.614 120.713 161.994 123.775 161.994H174.706C177.423 161.987 179.681 164.058 179.914 166.748Z" fill="#FF5E69"/>
<path opacity="0.2" d="M179.989 167.551L186.388 240.57H124.972L118.664 168.615C118.354 165.058 121.162 161.994 124.739 161.994H173.906C177.074 161.987 179.713 164.403 179.989 167.551Z" fill="white"/>
<path d="M287.996 240.572H125.248L123.477 220.322H279.706C283.311 220.322 286.486 223.238 286.797 226.837L287.996 240.572Z" fill="#FF5E69"/>
<path opacity="0.2" d="M287.996 240.572H125.248L123.477 220.322H279.706C283.311 220.322 286.486 223.238 286.797 226.837L287.996 240.572Z" fill="white"/>
<path d="M295.466 248.326H123.34C121.11 248.326 119.297 246.522 119.297 244.29C119.297 242.064 121.103 240.254 123.34 240.254H295.466C297.696 240.254 299.51 242.057 299.51 244.29C299.51 246.515 297.696 248.326 295.466 248.326Z" fill="#FF5E69"/>
<path opacity="0.2" d="M295.464 248.326H195.543C193.313 248.326 191.5 246.522 191.5 244.29C191.5 242.064 193.306 240.254 195.543 240.254H295.464C297.694 240.254 299.508 242.057 299.508 244.29C299.508 246.515 297.694 248.326 295.464 248.326Z" fill="black"/>
<path d="M125.594 248.328L127.633 255.252H131.711L133.955 248.328H125.594Z" fill="#263238"/>
<path opacity="0.5" d="M125.594 248.328L127.633 255.252H131.711L133.955 248.328H125.594Z" fill="white"/>
<path d="M184.039 248.328L186.078 255.252H190.157L192.401 248.328H184.039Z" fill="#263238"/>
<path opacity="0.5" d="M184.039 248.328L186.078 255.252H190.157L192.401 248.328H184.039Z" fill="white"/>
<path d="M228.773 248.328L230.813 255.252H234.891L237.135 248.328H228.773Z" fill="#263238"/>
<path opacity="0.5" d="M228.773 248.328L230.813 255.252H234.891L237.135 248.328H228.773Z" fill="white"/>
<path d="M287.219 248.328L289.258 255.252H293.336L295.58 248.328H287.219Z" fill="#263238"/>
<path opacity="0.5" d="M287.219 248.328L289.258 255.252H293.336L295.58 248.328H287.219Z" fill="white"/>
<path d="M47.8865 293.974L52.1865 301.374L56.5265 293.974H58.4865L53.0865 302.994V308.174H51.2865V302.954L45.9065 293.974H47.8865ZM62.9155 308.374C62.1289 308.374 61.4155 308.234 60.7755 307.954C60.1355 307.66 59.5822 307.267 59.1155 306.774C58.6489 306.267 58.2889 305.687 58.0355 305.034C57.7822 304.38 57.6555 303.694 57.6555 302.974C57.6555 302.24 57.7822 301.547 58.0355 300.894C58.2889 300.24 58.6489 299.667 59.1155 299.174C59.5822 298.667 60.1355 298.274 60.7755 297.994C61.4289 297.7 62.1489 297.554 62.9355 297.554C63.7089 297.554 64.4155 297.7 65.0555 297.994C65.6955 298.274 66.2489 298.667 66.7155 299.174C67.1955 299.667 67.5622 300.24 67.8155 300.894C68.0689 301.547 68.1955 302.24 68.1955 302.974C68.1955 303.694 68.0689 304.38 67.8155 305.034C67.5622 305.687 67.2022 306.267 66.7355 306.774C66.2689 307.267 65.7089 307.66 65.0555 307.954C64.4155 308.234 63.7022 308.374 62.9155 308.374ZM59.4555 302.994C59.4555 303.714 59.6089 304.367 59.9155 304.954C60.2355 305.54 60.6555 306.007 61.1755 306.354C61.6955 306.687 62.2755 306.854 62.9155 306.854C63.5555 306.854 64.1355 306.68 64.6555 306.334C65.1889 305.987 65.6089 305.52 65.9155 304.934C66.2355 304.334 66.3955 303.674 66.3955 302.954C66.3955 302.234 66.2355 301.58 65.9155 300.994C65.6089 300.407 65.1889 299.94 64.6555 299.594C64.1355 299.247 63.5555 299.074 62.9155 299.074C62.2755 299.074 61.6955 299.254 61.1755 299.614C60.6555 299.96 60.2355 300.427 59.9155 301.014C59.6089 301.6 59.4555 302.26 59.4555 302.994ZM70.2282 303.994V297.734H71.9882V303.654C71.9882 304.72 72.1749 305.52 72.5482 306.054C72.9215 306.587 73.4749 306.854 74.2082 306.854C74.6882 306.854 75.1482 306.754 75.5882 306.554C76.0415 306.34 76.4482 306.04 76.8082 305.654C77.1682 305.267 77.4482 304.807 77.6482 304.274V297.734H79.4082V306.174C79.4082 306.387 79.4482 306.547 79.5282 306.654C79.6215 306.747 79.7682 306.8 79.9682 306.814V308.174C79.7682 308.2 79.6082 308.214 79.4882 308.214C79.3815 308.227 79.2749 308.234 79.1682 308.234C78.8349 308.234 78.5482 308.134 78.3082 307.934C78.0682 307.72 77.9415 307.46 77.9282 307.154L77.8882 305.934C77.4349 306.707 76.8215 307.307 76.0482 307.734C75.2882 308.16 74.4549 308.374 73.5482 308.374C72.4549 308.374 71.6282 308.007 71.0682 307.274C70.5082 306.527 70.2282 305.434 70.2282 303.994ZM87.6785 308.174V293.974H92.5985C94.1185 293.974 95.3852 294.294 96.3985 294.934C97.4252 295.56 98.1918 296.414 98.6985 297.494C99.2052 298.56 99.4585 299.747 99.4585 301.054C99.4585 302.494 99.1785 303.747 98.6185 304.814C98.0585 305.88 97.2652 306.707 96.2385 307.294C95.2118 307.88 93.9985 308.174 92.5985 308.174H87.6785ZM97.6385 301.054C97.6385 299.987 97.4385 299.04 97.0385 298.214C96.6518 297.387 96.0852 296.74 95.3385 296.274C94.5918 295.807 93.6785 295.574 92.5985 295.574H89.4785V306.574H92.5985C93.6918 306.574 94.6118 306.334 95.3585 305.854C96.1052 305.36 96.6718 304.7 97.0585 303.874C97.4452 303.034 97.6385 302.094 97.6385 301.054ZM106.275 308.374C105.488 308.374 104.775 308.234 104.135 307.954C103.495 307.66 102.942 307.267 102.475 306.774C102.008 306.267 101.648 305.687 101.395 305.034C101.142 304.38 101.015 303.694 101.015 302.974C101.015 302.24 101.142 301.547 101.395 300.894C101.648 300.24 102.008 299.667 102.475 299.174C102.942 298.667 103.495 298.274 104.135 297.994C104.788 297.7 105.508 297.554 106.295 297.554C107.068 297.554 107.775 297.7 108.415 297.994C109.055 298.274 109.608 298.667 110.075 299.174C110.555 299.667 110.922 300.24 111.175 300.894C111.428 301.547 111.555 302.24 111.555 302.974C111.555 303.694 111.428 304.38 111.175 305.034C110.922 305.687 110.562 306.267 110.095 306.774C109.628 307.267 109.068 307.66 108.415 307.954C107.775 308.234 107.062 308.374 106.275 308.374ZM102.815 302.994C102.815 303.714 102.968 304.367 103.275 304.954C103.595 305.54 104.015 306.007 104.535 306.354C105.055 306.687 105.635 306.854 106.275 306.854C106.915 306.854 107.495 306.68 108.015 306.334C108.548 305.987 108.968 305.52 109.275 304.934C109.595 304.334 109.755 303.674 109.755 302.954C109.755 302.234 109.595 301.58 109.275 300.994C108.968 300.407 108.548 299.94 108.015 299.594C107.495 299.247 106.915 299.074 106.275 299.074C105.635 299.074 105.055 299.254 104.535 299.614C104.015 299.96 103.595 300.427 103.275 301.014C102.968 301.6 102.815 302.26 102.815 302.994ZM122.748 308.174H120.988V302.334C120.988 301.227 120.814 300.42 120.468 299.914C120.134 299.394 119.621 299.134 118.928 299.134C118.448 299.134 117.968 299.254 117.488 299.494C117.021 299.734 116.601 300.06 116.228 300.474C115.868 300.874 115.608 301.34 115.448 301.874V308.174H113.688V297.734H115.288V299.974C115.568 299.48 115.928 299.054 116.368 298.694C116.808 298.334 117.308 298.054 117.868 297.854C118.428 297.654 119.014 297.554 119.628 297.554C120.228 297.554 120.728 297.667 121.128 297.894C121.541 298.107 121.861 298.414 122.088 298.814C122.328 299.2 122.494 299.66 122.588 300.194C122.694 300.727 122.748 301.307 122.748 301.934V308.174ZM124.215 298.154L124.615 295.854H124.015V293.574H125.675V295.854L125.075 298.154H124.215ZM132.74 307.654C132.593 307.72 132.393 307.807 132.14 307.914C131.887 308.02 131.593 308.114 131.26 308.194C130.927 308.274 130.573 308.314 130.2 308.314C129.773 308.314 129.38 308.24 129.02 308.094C128.66 307.934 128.373 307.694 128.16 307.374C127.947 307.04 127.84 306.627 127.84 306.134V299.114H126.42V297.734H127.84V294.254H129.6V297.734H131.94V299.114H129.6V305.594C129.627 305.967 129.753 306.247 129.98 306.434C130.207 306.607 130.473 306.694 130.78 306.694C131.127 306.694 131.447 306.634 131.74 306.514C132.033 306.394 132.227 306.307 132.32 306.254L132.74 307.654ZM148.49 308.174H146.73V302.334C146.73 301.267 146.536 300.467 146.15 299.934C145.776 299.4 145.236 299.134 144.53 299.134C144.076 299.134 143.616 299.254 143.15 299.494C142.696 299.734 142.296 300.06 141.95 300.474C141.603 300.874 141.35 301.34 141.19 301.874V308.174H139.43V293.574H141.19V299.974C141.603 299.227 142.163 298.64 142.87 298.214C143.59 297.774 144.363 297.554 145.19 297.554C145.816 297.554 146.336 297.667 146.75 297.894C147.176 298.107 147.516 298.414 147.77 298.814C148.023 299.214 148.203 299.68 148.31 300.214C148.43 300.734 148.49 301.307 148.49 301.934V308.174ZM150.407 305.154C150.407 304.487 150.593 303.914 150.967 303.434C151.353 302.94 151.88 302.56 152.547 302.294C153.213 302.027 153.987 301.894 154.867 301.894C155.333 301.894 155.827 301.934 156.347 302.014C156.867 302.08 157.327 302.187 157.727 302.334V301.574C157.727 300.774 157.487 300.147 157.007 299.694C156.527 299.227 155.847 298.994 154.967 298.994C154.393 298.994 153.84 299.1 153.307 299.314C152.787 299.514 152.233 299.807 151.647 300.194L151.007 298.954C151.687 298.487 152.367 298.14 153.047 297.914C153.727 297.674 154.433 297.554 155.167 297.554C156.5 297.554 157.553 297.927 158.327 298.674C159.1 299.407 159.487 300.434 159.487 301.754V306.174C159.487 306.387 159.527 306.547 159.607 306.654C159.7 306.747 159.847 306.8 160.047 306.814V308.174C159.873 308.2 159.72 308.22 159.587 308.234C159.467 308.247 159.367 308.254 159.287 308.254C158.873 308.254 158.56 308.14 158.347 307.914C158.147 307.687 158.033 307.447 158.007 307.194L157.967 306.534C157.513 307.12 156.92 307.574 156.187 307.894C155.453 308.214 154.727 308.374 154.007 308.374C153.313 308.374 152.693 308.234 152.147 307.954C151.6 307.66 151.173 307.274 150.867 306.794C150.56 306.3 150.407 305.754 150.407 305.154ZM157.207 305.894C157.367 305.707 157.493 305.52 157.587 305.334C157.68 305.134 157.727 304.967 157.727 304.834V303.534C157.313 303.374 156.88 303.254 156.427 303.174C155.973 303.08 155.527 303.034 155.087 303.034C154.193 303.034 153.467 303.214 152.907 303.574C152.36 303.92 152.087 304.4 152.087 305.014C152.087 305.347 152.173 305.674 152.347 305.994C152.533 306.3 152.8 306.554 153.147 306.754C153.507 306.954 153.947 307.054 154.467 307.054C155.013 307.054 155.533 306.947 156.027 306.734C156.52 306.507 156.913 306.227 157.207 305.894ZM164.969 308.174L160.869 297.734H162.709L165.989 306.494L169.269 297.734H170.989L166.889 308.174H164.969ZM177.019 308.374C176.232 308.374 175.512 308.234 174.859 307.954C174.219 307.66 173.659 307.267 173.179 306.774C172.712 306.267 172.345 305.687 172.079 305.034C171.825 304.38 171.699 303.687 171.699 302.954C171.699 301.967 171.925 301.067 172.379 300.254C172.832 299.44 173.459 298.787 174.259 298.294C175.072 297.8 175.999 297.554 177.039 297.554C178.092 297.554 179.005 297.807 179.779 298.314C180.565 298.807 181.172 299.46 181.599 300.274C182.039 301.074 182.259 301.94 182.259 302.874C182.259 303.007 182.252 303.14 182.239 303.274C182.239 303.394 182.232 303.487 182.219 303.554H173.559C173.612 304.234 173.799 304.84 174.119 305.374C174.452 305.894 174.879 306.307 175.399 306.614C175.919 306.907 176.479 307.054 177.079 307.054C177.719 307.054 178.319 306.894 178.879 306.574C179.452 306.254 179.845 305.834 180.059 305.314L181.579 305.734C181.352 306.24 181.012 306.694 180.559 307.094C180.119 307.494 179.592 307.807 178.979 308.034C178.379 308.26 177.725 308.374 177.019 308.374ZM173.499 302.334H180.619C180.565 301.654 180.372 301.054 180.039 300.534C179.705 300.014 179.279 299.607 178.759 299.314C178.239 299.02 177.665 298.874 177.039 298.874C176.425 298.874 175.859 299.02 175.339 299.314C174.819 299.607 174.392 300.014 174.059 300.534C173.739 301.054 173.552 301.654 173.499 302.334ZM188.454 305.154C188.454 304.487 188.64 303.914 189.014 303.434C189.4 302.94 189.927 302.56 190.594 302.294C191.26 302.027 192.034 301.894 192.914 301.894C193.38 301.894 193.874 301.934 194.394 302.014C194.914 302.08 195.374 302.187 195.774 302.334V301.574C195.774 300.774 195.534 300.147 195.054 299.694C194.574 299.227 193.894 298.994 193.014 298.994C192.44 298.994 191.887 299.1 191.354 299.314C190.834 299.514 190.28 299.807 189.694 300.194L189.054 298.954C189.734 298.487 190.414 298.14 191.094 297.914C191.774 297.674 192.48 297.554 193.214 297.554C194.547 297.554 195.6 297.927 196.374 298.674C197.147 299.407 197.534 300.434 197.534 301.754V306.174C197.534 306.387 197.574 306.547 197.654 306.654C197.747 306.747 197.894 306.8 198.094 306.814V308.174C197.92 308.2 197.767 308.22 197.634 308.234C197.514 308.247 197.414 308.254 197.334 308.254C196.92 308.254 196.607 308.14 196.394 307.914C196.194 307.687 196.08 307.447 196.054 307.194L196.014 306.534C195.56 307.12 194.967 307.574 194.234 307.894C193.5 308.214 192.774 308.374 192.054 308.374C191.36 308.374 190.74 308.234 190.194 307.954C189.647 307.66 189.22 307.274 188.914 306.794C188.607 306.3 188.454 305.754 188.454 305.154ZM195.254 305.894C195.414 305.707 195.54 305.52 195.634 305.334C195.727 305.134 195.774 304.967 195.774 304.834V303.534C195.36 303.374 194.927 303.254 194.474 303.174C194.02 303.08 193.574 303.034 193.134 303.034C192.24 303.034 191.514 303.214 190.954 303.574C190.407 303.92 190.134 304.4 190.134 305.014C190.134 305.347 190.22 305.674 190.394 305.994C190.58 306.3 190.847 306.554 191.194 306.754C191.554 306.954 191.994 307.054 192.514 307.054C193.06 307.054 193.58 306.947 194.074 306.734C194.567 306.507 194.96 306.227 195.254 305.894ZM209.408 308.174H207.648V302.334C207.648 301.227 207.474 300.42 207.128 299.914C206.794 299.394 206.281 299.134 205.588 299.134C205.108 299.134 204.628 299.254 204.148 299.494C203.681 299.734 203.261 300.06 202.888 300.474C202.528 300.874 202.268 301.34 202.108 301.874V308.174H200.348V297.734H201.948V299.974C202.228 299.48 202.588 299.054 203.028 298.694C203.468 298.334 203.968 298.054 204.528 297.854C205.088 297.654 205.674 297.554 206.288 297.554C206.888 297.554 207.388 297.667 207.788 297.894C208.201 298.107 208.521 298.414 208.748 298.814C208.988 299.2 209.154 299.66 209.248 300.194C209.354 300.727 209.408 301.307 209.408 301.934V308.174ZM212.429 311.014C212.603 311.027 212.776 311.04 212.949 311.054C213.123 311.08 213.256 311.094 213.349 311.094C213.563 311.094 213.749 311.02 213.909 310.874C214.069 310.727 214.243 310.44 214.429 310.014C214.629 309.6 214.883 308.987 215.189 308.174L210.769 297.734H212.629L216.149 306.394L219.329 297.734H221.069L215.989 310.914C215.869 311.22 215.689 311.507 215.449 311.774C215.223 312.054 214.929 312.274 214.569 312.434C214.209 312.594 213.776 312.674 213.269 312.674C213.149 312.674 213.023 312.667 212.889 312.654C212.769 312.64 212.616 312.614 212.429 312.574V311.014ZM227.639 308.174V293.974H233.559C234.186 293.974 234.759 294.107 235.279 294.374C235.799 294.627 236.253 294.974 236.639 295.414C237.026 295.84 237.326 296.327 237.539 296.874C237.753 297.407 237.859 297.954 237.859 298.514C237.859 299.287 237.686 300.027 237.339 300.734C236.993 301.427 236.506 301.994 235.879 302.434C235.253 302.86 234.519 303.074 233.679 303.074H229.439V308.174H227.639ZM229.439 301.474H233.579C234.073 301.474 234.499 301.34 234.859 301.074C235.233 300.807 235.519 300.447 235.719 299.994C235.933 299.54 236.039 299.047 236.039 298.514C236.039 297.954 235.919 297.454 235.679 297.014C235.439 296.56 235.126 296.207 234.739 295.954C234.353 295.7 233.926 295.574 233.459 295.574H229.439V301.474ZM244.245 308.374C243.458 308.374 242.738 308.234 242.085 307.954C241.445 307.66 240.885 307.267 240.405 306.774C239.938 306.267 239.572 305.687 239.305 305.034C239.052 304.38 238.925 303.687 238.925 302.954C238.925 301.967 239.152 301.067 239.605 300.254C240.058 299.44 240.685 298.787 241.485 298.294C242.298 297.8 243.225 297.554 244.265 297.554C245.318 297.554 246.232 297.807 247.005 298.314C247.792 298.807 248.398 299.46 248.825 300.274C249.265 301.074 249.485 301.94 249.485 302.874C249.485 303.007 249.478 303.14 249.465 303.274C249.465 303.394 249.458 303.487 249.445 303.554H240.785C240.838 304.234 241.025 304.84 241.345 305.374C241.678 305.894 242.105 306.307 242.625 306.614C243.145 306.907 243.705 307.054 244.305 307.054C244.945 307.054 245.545 306.894 246.105 306.574C246.678 306.254 247.072 305.834 247.285 305.314L248.805 305.734C248.578 306.24 248.238 306.694 247.785 307.094C247.345 307.494 246.818 307.807 246.205 308.034C245.605 308.26 244.952 308.374 244.245 308.374ZM240.725 302.334H247.845C247.792 301.654 247.598 301.054 247.265 300.534C246.932 300.014 246.505 299.607 245.985 299.314C245.465 299.02 244.892 298.874 244.265 298.874C243.652 298.874 243.085 299.02 242.565 299.314C242.045 299.607 241.618 300.014 241.285 300.534C240.965 301.054 240.778 301.654 240.725 302.334ZM260.501 308.174H258.741V302.334C258.741 301.227 258.568 300.42 258.221 299.914C257.888 299.394 257.375 299.134 256.681 299.134C256.201 299.134 255.721 299.254 255.241 299.494C254.775 299.734 254.355 300.06 253.981 300.474C253.621 300.874 253.361 301.34 253.201 301.874V308.174H251.441V297.734H253.041V299.974C253.321 299.48 253.681 299.054 254.121 298.694C254.561 298.334 255.061 298.054 255.621 297.854C256.181 297.654 256.768 297.554 257.381 297.554C257.981 297.554 258.481 297.667 258.881 297.894C259.295 298.107 259.615 298.414 259.841 298.814C260.081 299.2 260.248 299.66 260.341 300.194C260.448 300.727 260.501 301.307 260.501 301.934V308.174ZM262.558 302.974C262.558 301.987 262.758 301.087 263.158 300.274C263.572 299.447 264.132 298.787 264.838 298.294C265.558 297.8 266.378 297.554 267.298 297.554C268.138 297.554 268.892 297.774 269.558 298.214C270.225 298.654 270.745 299.187 271.118 299.814V293.574H272.878V306.174C272.878 306.387 272.918 306.547 272.998 306.654C273.092 306.747 273.238 306.8 273.438 306.814V308.174C273.105 308.227 272.845 308.254 272.658 308.254C272.312 308.254 272.005 308.134 271.738 307.894C271.485 307.654 271.358 307.387 271.358 307.094V306.214C270.945 306.88 270.392 307.407 269.698 307.794C269.005 308.18 268.285 308.374 267.538 308.374C266.818 308.374 266.152 308.234 265.538 307.954C264.938 307.66 264.412 307.26 263.958 306.754C263.518 306.247 263.172 305.674 262.918 305.034C262.678 304.38 262.558 303.694 262.558 302.974ZM271.118 304.514V301.514C270.958 301.06 270.698 300.654 270.338 300.294C269.978 299.92 269.572 299.627 269.118 299.414C268.678 299.187 268.238 299.074 267.798 299.074C267.278 299.074 266.805 299.187 266.378 299.414C265.965 299.627 265.605 299.92 265.298 300.294C265.005 300.654 264.778 301.067 264.618 301.534C264.458 302 264.378 302.487 264.378 302.994C264.378 303.514 264.465 304.007 264.638 304.474C264.825 304.94 265.078 305.354 265.398 305.714C265.732 306.074 266.112 306.354 266.538 306.554C266.978 306.754 267.452 306.854 267.958 306.854C268.278 306.854 268.605 306.794 268.938 306.674C269.285 306.554 269.612 306.387 269.918 306.174C270.225 305.96 270.485 305.714 270.698 305.434C270.912 305.14 271.052 304.834 271.118 304.514ZM275.816 308.174V297.734H277.576V308.174H275.816ZM275.816 295.774V293.574H277.576V295.774H275.816ZM289.486 308.174H287.726V302.334C287.726 301.227 287.553 300.42 287.206 299.914C286.873 299.394 286.359 299.134 285.666 299.134C285.186 299.134 284.706 299.254 284.226 299.494C283.759 299.734 283.339 300.06 282.966 300.474C282.606 300.874 282.346 301.34 282.186 301.874V308.174H280.426V297.734H282.026V299.974C282.306 299.48 282.666 299.054 283.106 298.694C283.546 298.334 284.046 298.054 284.606 297.854C285.166 297.654 285.753 297.554 286.366 297.554C286.966 297.554 287.466 297.667 287.866 297.894C288.279 298.107 288.599 298.414 288.826 298.814C289.066 299.2 289.233 299.66 289.326 300.194C289.433 300.727 289.486 301.307 289.486 301.934V308.174ZM296.383 308.294C295.676 308.294 295.023 308.154 294.423 307.874C293.836 307.58 293.329 307.187 292.903 306.694C292.476 306.187 292.143 305.614 291.903 304.974C291.676 304.334 291.563 303.667 291.563 302.974C291.563 302.24 291.676 301.547 291.903 300.894C292.143 300.24 292.476 299.667 292.903 299.174C293.343 298.667 293.856 298.274 294.443 297.994C295.029 297.7 295.683 297.554 296.403 297.554C297.269 297.554 298.023 297.767 298.663 298.194C299.316 298.62 299.863 299.16 300.303 299.814V297.734H301.863V308.054C301.863 309.04 301.623 309.874 301.143 310.554C300.676 311.234 300.036 311.747 299.223 312.094C298.423 312.454 297.529 312.634 296.543 312.634C295.369 312.634 294.409 312.427 293.663 312.014C292.916 311.6 292.296 311.04 291.803 310.334L292.823 309.434C293.236 310.047 293.769 310.507 294.423 310.814C295.089 311.12 295.796 311.274 296.543 311.274C297.183 311.274 297.769 311.154 298.303 310.914C298.849 310.687 299.283 310.334 299.603 309.854C299.936 309.374 300.103 308.774 300.103 308.054V306.214C299.716 306.854 299.183 307.36 298.503 307.734C297.836 308.107 297.129 308.294 296.383 308.294ZM296.923 306.854C297.296 306.854 297.656 306.787 298.003 306.654C298.349 306.52 298.669 306.347 298.963 306.134C299.256 305.907 299.503 305.654 299.703 305.374C299.903 305.094 300.036 304.807 300.103 304.514V301.514C299.916 301.034 299.649 300.614 299.303 300.254C298.956 299.88 298.563 299.594 298.123 299.394C297.683 299.18 297.229 299.074 296.763 299.074C296.229 299.074 295.749 299.187 295.323 299.414C294.909 299.64 294.556 299.947 294.263 300.334C293.969 300.707 293.743 301.127 293.583 301.594C293.423 302.06 293.343 302.534 293.343 303.014C293.343 303.534 293.436 304.027 293.623 304.494C293.809 304.947 294.063 305.354 294.383 305.714C294.703 306.074 295.083 306.354 295.523 306.554C295.963 306.754 296.429 306.854 296.923 306.854ZM310.042 308.174V293.974H316.122C316.748 293.974 317.322 294.107 317.842 294.374C318.362 294.627 318.815 294.974 319.202 295.414C319.588 295.84 319.888 296.327 320.102 296.874C320.315 297.407 320.422 297.954 320.422 298.514C320.422 299.167 320.295 299.787 320.042 300.374C319.802 300.96 319.455 301.46 319.002 301.874C318.562 302.287 318.042 302.574 317.442 302.734L320.882 308.174H318.842L315.602 303.074H311.842V308.174H310.042ZM311.842 301.474H316.142C316.635 301.474 317.062 301.34 317.422 301.074C317.795 300.794 318.082 300.427 318.282 299.974C318.495 299.52 318.602 299.034 318.602 298.514C318.602 297.98 318.482 297.494 318.242 297.054C318.002 296.6 317.688 296.24 317.302 295.974C316.915 295.707 316.488 295.574 316.022 295.574H311.842V301.474ZM327.194 308.374C326.408 308.374 325.688 308.234 325.034 307.954C324.394 307.66 323.834 307.267 323.354 306.774C322.888 306.267 322.521 305.687 322.254 305.034C322.001 304.38 321.874 303.687 321.874 302.954C321.874 301.967 322.101 301.067 322.554 300.254C323.008 299.44 323.634 298.787 324.434 298.294C325.248 297.8 326.174 297.554 327.214 297.554C328.268 297.554 329.181 297.807 329.954 298.314C330.741 298.807 331.348 299.46 331.774 300.274C332.214 301.074 332.434 301.94 332.434 302.874C332.434 303.007 332.428 303.14 332.414 303.274C332.414 303.394 332.408 303.487 332.394 303.554H323.734C323.788 304.234 323.974 304.84 324.294 305.374C324.628 305.894 325.054 306.307 325.574 306.614C326.094 306.907 326.654 307.054 327.254 307.054C327.894 307.054 328.494 306.894 329.054 306.574C329.628 306.254 330.021 305.834 330.234 305.314L331.754 305.734C331.528 306.24 331.188 306.694 330.734 307.094C330.294 307.494 329.768 307.807 329.154 308.034C328.554 308.26 327.901 308.374 327.194 308.374ZM323.674 302.334H330.794C330.741 301.654 330.548 301.054 330.214 300.534C329.881 300.014 329.454 299.607 328.934 299.314C328.414 299.02 327.841 298.874 327.214 298.874C326.601 298.874 326.034 299.02 325.514 299.314C324.994 299.607 324.568 300.014 324.234 300.534C323.914 301.054 323.728 301.654 323.674 302.334ZM338.391 308.374C337.697 308.374 337.064 308.227 336.491 307.934C335.917 307.64 335.424 307.247 335.011 306.754C334.597 306.247 334.277 305.667 334.051 305.014C333.824 304.36 333.711 303.674 333.711 302.954C333.711 302.22 333.837 301.527 334.091 300.874C334.344 300.22 334.691 299.647 335.131 299.154C335.584 298.66 336.111 298.274 336.711 297.994C337.311 297.7 337.957 297.554 338.651 297.554C339.464 297.554 340.204 297.76 340.871 298.174C341.537 298.574 342.064 299.087 342.451 299.714V297.734H344.011V312.434H342.251V306.114C341.291 307.62 340.004 308.374 338.391 308.374ZM338.991 306.854C339.484 306.854 339.931 306.754 340.331 306.554C340.744 306.354 341.111 306.087 341.431 305.754C341.751 305.407 342.024 305.027 342.251 304.614V301.614C342.197 301.267 342.064 300.947 341.851 300.654C341.637 300.347 341.377 300.074 341.071 299.834C340.764 299.594 340.431 299.407 340.071 299.274C339.724 299.14 339.377 299.074 339.031 299.074C338.511 299.074 338.037 299.187 337.611 299.414C337.184 299.627 336.811 299.92 336.491 300.294C336.184 300.667 335.944 301.087 335.771 301.554C335.597 302.02 335.511 302.5 335.511 302.994C335.511 303.687 335.657 304.327 335.951 304.914C336.257 305.5 336.671 305.974 337.191 306.334C337.711 306.68 338.311 306.854 338.991 306.854ZM346.752 303.994V297.734H348.512V303.654C348.512 304.72 348.698 305.52 349.072 306.054C349.445 306.587 349.998 306.854 350.732 306.854C351.212 306.854 351.672 306.754 352.112 306.554C352.565 306.34 352.972 306.04 353.332 305.654C353.692 305.267 353.972 304.807 354.172 304.274V297.734H355.932V306.174C355.932 306.387 355.972 306.547 356.052 306.654C356.145 306.747 356.292 306.8 356.492 306.814V308.174C356.292 308.2 356.132 308.214 356.012 308.214C355.905 308.227 355.798 308.234 355.692 308.234C355.358 308.234 355.072 308.134 354.832 307.934C354.592 307.72 354.465 307.46 354.452 307.154L354.412 305.934C353.958 306.707 353.345 307.307 352.572 307.734C351.812 308.16 350.978 308.374 350.072 308.374C348.978 308.374 348.152 308.007 347.592 307.274C347.032 306.527 346.752 305.434 346.752 303.994ZM363.483 308.374C362.697 308.374 361.977 308.234 361.323 307.954C360.683 307.66 360.123 307.267 359.643 306.774C359.177 306.267 358.81 305.687 358.543 305.034C358.29 304.38 358.163 303.687 358.163 302.954C358.163 301.967 358.39 301.067 358.843 300.254C359.297 299.44 359.923 298.787 360.723 298.294C361.537 297.8 362.463 297.554 363.503 297.554C364.557 297.554 365.47 297.807 366.243 298.314C367.03 298.807 367.637 299.46 368.063 300.274C368.503 301.074 368.723 301.94 368.723 302.874C368.723 303.007 368.717 303.14 368.703 303.274C368.703 303.394 368.697 303.487 368.683 303.554H360.023C360.077 304.234 360.263 304.84 360.583 305.374C360.917 305.894 361.343 306.307 361.863 306.614C362.383 306.907 362.943 307.054 363.543 307.054C364.183 307.054 364.783 306.894 365.343 306.574C365.917 306.254 366.31 305.834 366.523 305.314L368.043 305.734C367.817 306.24 367.477 306.694 367.023 307.094C366.583 307.494 366.057 307.807 365.443 308.034C364.843 308.26 364.19 308.374 363.483 308.374ZM359.963 302.334H367.083C367.03 301.654 366.837 301.054 366.503 300.534C366.17 300.014 365.743 299.607 365.223 299.314C364.703 299.02 364.13 298.874 363.503 298.874C362.89 298.874 362.323 299.02 361.803 299.314C361.283 299.607 360.857 300.014 360.523 300.534C360.203 301.054 360.017 301.654 359.963 302.334ZM374.26 308.374C373.393 308.374 372.58 308.234 371.82 307.954C371.06 307.66 370.406 307.227 369.86 306.654L370.54 305.414C371.14 305.974 371.74 306.374 372.34 306.614C372.94 306.854 373.553 306.974 374.18 306.974C374.9 306.974 375.486 306.84 375.94 306.574C376.393 306.294 376.62 305.887 376.62 305.354C376.62 304.967 376.5 304.68 376.26 304.494C376.033 304.307 375.706 304.154 375.28 304.034C374.853 303.9 374.346 303.754 373.76 303.594C373.04 303.38 372.433 303.154 371.94 302.914C371.446 302.674 371.073 302.374 370.82 302.014C370.566 301.654 370.44 301.2 370.44 300.654C370.44 299.987 370.613 299.427 370.96 298.974C371.306 298.507 371.78 298.154 372.38 297.914C372.993 297.674 373.686 297.554 374.46 297.554C375.233 297.554 375.933 297.674 376.56 297.914C377.186 298.154 377.726 298.507 378.18 298.974L377.38 300.194C376.966 299.767 376.513 299.454 376.02 299.254C375.526 299.04 374.973 298.934 374.36 298.934C374 298.934 373.646 298.98 373.3 299.074C372.953 299.154 372.666 299.307 372.44 299.534C372.213 299.747 372.1 300.054 372.1 300.454C372.1 300.787 372.186 301.054 372.36 301.254C372.546 301.44 372.813 301.6 373.16 301.734C373.52 301.867 373.953 302.014 374.46 302.174C375.246 302.4 375.926 302.627 376.5 302.854C377.086 303.08 377.54 303.374 377.86 303.734C378.18 304.094 378.34 304.594 378.34 305.234C378.34 306.22 377.966 306.994 377.22 307.554C376.473 308.1 375.486 308.374 374.26 308.374ZM385.845 307.654C385.699 307.72 385.499 307.807 385.245 307.914C384.992 308.02 384.699 308.114 384.365 308.194C384.032 308.274 383.679 308.314 383.305 308.314C382.879 308.314 382.485 308.24 382.125 308.094C381.765 307.934 381.479 307.694 381.265 307.374C381.052 307.04 380.945 306.627 380.945 306.134V299.114H379.525V297.734H380.945V294.254H382.705V297.734H385.045V299.114H382.705V305.594C382.732 305.967 382.859 306.247 383.085 306.434C383.312 306.607 383.579 306.694 383.885 306.694C384.232 306.694 384.552 306.634 384.845 306.514C385.139 306.394 385.332 306.307 385.425 306.254L385.845 307.654ZM391.057 308.374C390.19 308.374 389.377 308.234 388.617 307.954C387.857 307.66 387.203 307.227 386.657 306.654L387.337 305.414C387.937 305.974 388.537 306.374 389.137 306.614C389.737 306.854 390.35 306.974 390.977 306.974C391.697 306.974 392.283 306.84 392.737 306.574C393.19 306.294 393.417 305.887 393.417 305.354C393.417 304.967 393.297 304.68 393.057 304.494C392.83 304.307 392.503 304.154 392.077 304.034C391.65 303.9 391.143 303.754 390.557 303.594C389.837 303.38 389.23 303.154 388.737 302.914C388.243 302.674 387.87 302.374 387.617 302.014C387.363 301.654 387.237 301.2 387.237 300.654C387.237 299.987 387.41 299.427 387.757 298.974C388.103 298.507 388.577 298.154 389.177 297.914C389.79 297.674 390.483 297.554 391.257 297.554C392.03 297.554 392.73 297.674 393.357 297.914C393.983 298.154 394.523 298.507 394.977 298.974L394.177 300.194C393.763 299.767 393.31 299.454 392.817 299.254C392.323 299.04 391.77 298.934 391.157 298.934C390.797 298.934 390.443 298.98 390.097 299.074C389.75 299.154 389.463 299.307 389.237 299.534C389.01 299.747 388.897 300.054 388.897 300.454C388.897 300.787 388.983 301.054 389.157 301.254C389.343 301.44 389.61 301.6 389.957 301.734C390.317 301.867 390.75 302.014 391.257 302.174C392.043 302.4 392.723 302.627 393.297 302.854C393.883 303.08 394.337 303.374 394.657 303.734C394.977 304.094 395.137 304.594 395.137 305.234C395.137 306.22 394.763 306.994 394.017 307.554C393.27 308.1 392.283 308.374 391.057 308.374ZM414.001 293.974V308.174H412.201V301.714H404.381V308.174H402.581V293.974H404.381V300.114H412.201V293.974H414.001ZM417.125 308.174V297.734H418.885V308.174H417.125ZM417.125 295.774V293.574H418.885V295.774H417.125ZM425.314 308.374C424.448 308.374 423.634 308.234 422.874 307.954C422.114 307.66 421.461 307.227 420.914 306.654L421.594 305.414C422.194 305.974 422.794 306.374 423.394 306.614C423.994 306.854 424.608 306.974 425.234 306.974C425.954 306.974 426.541 306.84 426.994 306.574C427.448 306.294 427.674 305.887 427.674 305.354C427.674 304.967 427.554 304.68 427.314 304.494C427.088 304.307 426.761 304.154 426.334 304.034C425.908 303.9 425.401 303.754 424.814 303.594C424.094 303.38 423.488 303.154 422.994 302.914C422.501 302.674 422.128 302.374 421.874 302.014C421.621 301.654 421.494 301.2 421.494 300.654C421.494 299.987 421.668 299.427 422.014 298.974C422.361 298.507 422.834 298.154 423.434 297.914C424.048 297.674 424.741 297.554 425.514 297.554C426.288 297.554 426.988 297.674 427.614 297.914C428.241 298.154 428.781 298.507 429.234 298.974L428.434 300.194C428.021 299.767 427.568 299.454 427.074 299.254C426.581 299.04 426.028 298.934 425.414 298.934C425.054 298.934 424.701 298.98 424.354 299.074C424.008 299.154 423.721 299.307 423.494 299.534C423.268 299.747 423.154 300.054 423.154 300.454C423.154 300.787 423.241 301.054 423.414 301.254C423.601 301.44 423.868 301.6 424.214 301.734C424.574 301.867 425.008 302.014 425.514 302.174C426.301 302.4 426.981 302.627 427.554 302.854C428.141 303.08 428.594 303.374 428.914 303.734C429.234 304.094 429.394 304.594 429.394 305.234C429.394 306.22 429.021 306.994 428.274 307.554C427.528 308.1 426.541 308.374 425.314 308.374ZM436.9 307.654C436.753 307.72 436.553 307.807 436.3 307.914C436.047 308.02 435.753 308.114 435.42 308.194C435.087 308.274 434.733 308.314 434.36 308.314C433.933 308.314 433.54 308.24 433.18 308.094C432.82 307.934 432.533 307.694 432.32 307.374C432.107 307.04 432 306.627 432 306.134V299.114H430.58V297.734H432V294.254H433.76V297.734H436.1V299.114H433.76V305.594C433.787 305.967 433.913 306.247 434.14 306.434C434.367 306.607 434.633 306.694 434.94 306.694C435.287 306.694 435.607 306.634 435.9 306.514C436.193 306.394 436.387 306.307 436.48 306.254L436.9 307.654ZM442.955 308.374C442.168 308.374 441.455 308.234 440.815 307.954C440.175 307.66 439.621 307.267 439.155 306.774C438.688 306.267 438.328 305.687 438.075 305.034C437.821 304.38 437.695 303.694 437.695 302.974C437.695 302.24 437.821 301.547 438.075 300.894C438.328 300.24 438.688 299.667 439.155 299.174C439.621 298.667 440.175 298.274 440.815 297.994C441.468 297.7 442.188 297.554 442.975 297.554C443.748 297.554 444.455 297.7 445.095 297.994C445.735 298.274 446.288 298.667 446.755 299.174C447.235 299.667 447.601 300.24 447.855 300.894C448.108 301.547 448.235 302.24 448.235 302.974C448.235 303.694 448.108 304.38 447.855 305.034C447.601 305.687 447.241 306.267 446.775 306.774C446.308 307.267 445.748 307.66 445.095 307.954C444.455 308.234 443.741 308.374 442.955 308.374ZM439.495 302.994C439.495 303.714 439.648 304.367 439.955 304.954C440.275 305.54 440.695 306.007 441.215 306.354C441.735 306.687 442.315 306.854 442.955 306.854C443.595 306.854 444.175 306.68 444.695 306.334C445.228 305.987 445.648 305.52 445.955 304.934C446.275 304.334 446.435 303.674 446.435 302.954C446.435 302.234 446.275 301.58 445.955 300.994C445.648 300.407 445.228 299.94 444.695 299.594C444.175 299.247 443.595 299.074 442.955 299.074C442.315 299.074 441.735 299.254 441.215 299.614C440.695 299.96 440.275 300.427 439.955 301.014C439.648 301.6 439.495 302.26 439.495 302.994ZM455.887 299.274C455.007 299.287 454.227 299.514 453.547 299.954C452.881 300.38 452.407 300.974 452.127 301.734V308.174H450.367V297.734H452.007V300.154C452.367 299.434 452.841 298.854 453.427 298.414C454.027 297.96 454.654 297.707 455.307 297.654C455.441 297.654 455.554 297.654 455.647 297.654C455.741 297.654 455.821 297.66 455.887 297.674V299.274ZM458.113 311.014C458.286 311.027 458.46 311.04 458.633 311.054C458.806 311.08 458.94 311.094 459.033 311.094C459.246 311.094 459.433 311.02 459.593 310.874C459.753 310.727 459.926 310.44 460.113 310.014C460.313 309.6 460.566 308.987 460.873 308.174L456.453 297.734H458.313L461.833 306.394L465.013 297.734H466.753L461.673 310.914C461.553 311.22 461.373 311.507 461.133 311.774C460.906 312.054 460.613 312.274 460.253 312.434C459.893 312.594 459.46 312.674 458.953 312.674C458.833 312.674 458.706 312.667 458.573 312.654C458.453 312.64 458.3 312.614 458.113 312.574V311.014ZM472.976 311.014C473.15 311.027 473.323 311.04 473.496 311.054C473.67 311.08 473.803 311.094 473.896 311.094C474.11 311.094 474.296 311.02 474.456 310.874C474.616 310.727 474.79 310.44 474.976 310.014C475.176 309.6 475.43 308.987 475.736 308.174L471.316 297.734H473.176L476.696 306.394L479.876 297.734H481.616L476.536 310.914C476.416 311.22 476.236 311.507 475.996 311.774C475.77 312.054 475.476 312.274 475.116 312.434C474.756 312.594 474.323 312.674 473.816 312.674C473.696 312.674 473.57 312.667 473.436 312.654C473.316 312.64 473.163 312.614 472.976 312.574V311.014ZM487.644 308.374C486.857 308.374 486.137 308.234 485.484 307.954C484.844 307.66 484.284 307.267 483.804 306.774C483.337 306.267 482.97 305.687 482.704 305.034C482.45 304.38 482.324 303.687 482.324 302.954C482.324 301.967 482.55 301.067 483.004 300.254C483.457 299.44 484.084 298.787 484.884 298.294C485.697 297.8 486.624 297.554 487.664 297.554C488.717 297.554 489.63 297.807 490.404 298.314C491.19 298.807 491.797 299.46 492.224 300.274C492.664 301.074 492.884 301.94 492.884 302.874C492.884 303.007 492.877 303.14 492.864 303.274C492.864 303.394 492.857 303.487 492.844 303.554H484.184C484.237 304.234 484.424 304.84 484.744 305.374C485.077 305.894 485.504 306.307 486.024 306.614C486.544 306.907 487.104 307.054 487.704 307.054C488.344 307.054 488.944 306.894 489.504 306.574C490.077 306.254 490.47 305.834 490.684 305.314L492.204 305.734C491.977 306.24 491.637 306.694 491.184 307.094C490.744 307.494 490.217 307.807 489.604 308.034C489.004 308.26 488.35 308.374 487.644 308.374ZM484.124 302.334H491.244C491.19 301.654 490.997 301.054 490.664 300.534C490.33 300.014 489.904 299.607 489.384 299.314C488.864 299.02 488.29 298.874 487.664 298.874C487.05 298.874 486.484 299.02 485.964 299.314C485.444 299.607 485.017 300.014 484.684 300.534C484.364 301.054 484.177 301.654 484.124 302.334ZM500.142 307.654C499.996 307.72 499.796 307.807 499.542 307.914C499.289 308.02 498.996 308.114 498.662 308.194C498.329 308.274 497.976 308.314 497.602 308.314C497.176 308.314 496.782 308.24 496.422 308.094C496.062 307.934 495.776 307.694 495.562 307.374C495.349 307.04 495.242 306.627 495.242 306.134V299.114H493.822V297.734H495.242V294.254H497.002V297.734H499.342V299.114H497.002V305.594C497.029 305.967 497.156 306.247 497.382 306.434C497.609 306.607 497.876 306.694 498.182 306.694C498.529 306.694 498.849 306.634 499.142 306.514C499.436 306.394 499.629 306.307 499.722 306.254L500.142 307.654Z" fill="#277FD9"/>
</svg>
