<svg width="196" height="196" viewBox="0 0 196 196" fill="none" xmlns="http://www.w3.org/2000/svg">
<circle cx="98" cy="98" r="98" fill="#F0F0F0"/>
<path d="M104 117.375C104.13 109.432 106.474 102.466 111.031 96.4766C115.719 90.6172 121.708 86.5807 129 84.3672V58C128.87 54.4844 127.633 51.5547 125.289 49.2109C122.945 46.8672 120.016 45.6302 116.5 45.5H66.5C62.9844 45.6302 60.0547 46.8672 57.7109 49.2109C55.3672 51.5547 54.1302 54.4844 54 58V133C54.1302 136.516 55.3672 139.445 57.7109 141.789C60.0547 144.133 62.9844 145.37 66.5 145.5H116.5C117.151 145.5 117.802 145.435 118.453 145.305C114.026 142.18 110.51 138.208 107.906 133.391C105.302 128.573 104 123.234 104 117.375ZM69.625 70.5H113.375C115.328 70.6302 116.37 71.6719 116.5 73.625C116.37 75.5781 115.328 76.6198 113.375 76.75H69.625C67.6719 76.6198 66.6302 75.5781 66.5 73.625C66.6302 71.6719 67.6719 70.6302 69.625 70.5ZM88.375 114.25H69.625C67.6719 114.12 66.6302 113.078 66.5 111.125C66.6302 109.172 67.6719 108.13 69.625 108H88.375C90.3281 108.13 91.3698 109.172 91.5 111.125C91.3698 113.078 90.3281 114.12 88.375 114.25ZM100.875 95.5H69.625C67.6719 95.3698 66.6302 94.3281 66.5 92.375C66.6302 90.4219 67.6719 89.3802 69.625 89.25H100.875C102.828 89.3802 103.87 90.4219 104 92.375C103.87 94.3281 102.828 95.3698 100.875 95.5ZM138.375 89.25C130.432 89.5104 123.792 92.2448 118.453 97.4531C113.245 102.792 110.51 109.432 110.25 117.375C110.51 125.318 113.245 131.958 118.453 137.297C123.792 142.505 130.432 145.24 138.375 145.5C146.318 145.24 152.958 142.505 158.297 137.297C163.505 131.958 166.24 125.318 166.5 117.375C166.24 109.432 163.505 102.792 158.297 97.4531C152.958 92.2448 146.318 89.5104 138.375 89.25ZM151.461 112.102L137.008 126.75C136.357 127.271 135.576 127.531 134.664 127.531C133.883 127.531 133.167 127.271 132.516 126.75L125.289 119.328C123.987 117.896 123.987 116.464 125.289 115.031C126.721 113.729 128.154 113.729 129.586 115.031L134.664 120.109L147.164 107.609C148.596 106.438 150.029 106.438 151.461 107.609C152.763 109.172 152.763 110.669 151.461 112.102Z" fill="#0184EF"/>
</svg>
