<svg width="21" height="17" viewBox="0 0 21 17" fill="none" xmlns="http://www.w3.org/2000/svg">
<path d="M15 9.375H11.625C11.0273 9.375 10.5 9.90234 10.5 10.5C10.5 11.1328 11.0273 11.625 11.625 11.625H15C15.5977 11.625 16.125 11.1328 16.125 10.5C16.125 9.90234 15.5977 9.375 15 9.375ZM19.5 0.375H11.625C11.0273 0.375 10.5 0.902344 10.5 1.5C10.5 2.13281 11.0273 2.625 11.625 2.625H19.5C20.0977 2.625 20.625 2.13281 20.625 1.5C20.625 0.902344 20.0977 0.375 19.5 0.375ZM12.75 13.875H11.625C10.9922 13.875 10.5 14.4023 10.5 15C10.5 15.6328 10.9922 16.125 11.625 16.125H12.75C13.3477 16.125 13.8398 15.6328 13.8398 15C13.8398 14.4023 13.3477 13.875 12.75 13.875ZM17.25 4.875H11.625C11.0273 4.875 10.5 5.40234 10.5 6C10.5 6.63281 11.0273 7.125 11.625 7.125H17.25C17.8477 7.125 18.375 6.63281 18.375 6C18.375 5.40234 17.8477 4.875 17.25 4.875ZM7.125 10.8867L6 12.1523V1.53516C6 0.902344 5.47266 0.375 4.875 0.375C4.24219 0.375 3.75 0.902344 3.75 1.53516V12.1523L2.58984 10.8867C2.37891 10.6406 2.0625 10.5352 1.74609 10.5352C1.5 10.5352 1.21875 10.6406 1.00781 10.8164C0.550781 11.2383 0.515625 11.9414 0.9375 12.4336L3.99609 15.8086C4.41797 16.2656 5.22656 16.2656 5.64844 15.8086L8.70703 12.4336C9.12891 11.9414 9.09375 11.2383 8.63672 10.8164C8.25 10.3945 7.54688 10.4297 7.125 10.8867Z" fill="#191919"/>
</svg>
