<svg width="32" height="26" viewBox="0 0 32 26" fill="none" xmlns="http://www.w3.org/2000/svg">
<path d="M17.3809 11.2637H22.6309C23.1413 11.2637 23.5605 11.0996 23.8887 10.7715C24.2168 10.4434 24.3809 10.0241 24.3809 9.51367C24.3809 9.00326 24.2168 8.58398 23.8887 8.25586C23.5605 7.92773 23.1413 7.76367 22.6309 7.76367H17.4355C16.9251 7.76367 16.5059 7.92773 16.1777 8.25586C15.8496 8.58398 15.6855 9.00326 15.6855 9.51367C15.6855 10.0241 15.8496 10.4434 16.1777 10.7715C16.4694 11.0996 16.8704 11.2637 17.3809 11.2637ZM17.3809 18.2637H26.1309C26.6413 18.2637 27.0605 18.0996 27.3887 17.7715C27.7168 17.4434 27.8809 17.0241 27.8809 16.5137C27.8809 16.0033 27.7168 15.584 27.3887 15.2559C27.0605 14.9277 26.6413 14.7637 26.1309 14.7637H17.4355C16.9251 14.7637 16.5059 14.9277 16.1777 15.2559C15.8496 15.584 15.6855 16.0033 15.6855 16.5137C15.6855 17.0241 15.8496 17.4434 16.1777 17.7715C16.4694 18.0996 16.8704 18.2637 17.3809 18.2637ZM17.3809 4.26367H19.1309C19.6413 4.26367 20.0423 4.09961 20.334 3.77148C20.6621 3.44336 20.8262 3.02409 20.8262 2.51367C20.8262 2.00326 20.6621 1.58398 20.334 1.25586C20.0059 0.927734 19.6048 0.763672 19.1309 0.763672H17.3809C16.8704 0.763672 16.4512 0.927734 16.123 1.25586C15.7949 1.58398 15.6309 2.00326 15.6309 2.51367C15.6309 3.02409 15.7949 3.44336 16.123 3.77148C16.4512 4.09961 16.8704 4.26367 17.3809 4.26367ZM29.6309 21.7637H17.4355C16.9251 21.7637 16.5059 21.9277 16.1777 22.2559C15.8496 22.584 15.6855 23.0033 15.6855 23.5137C15.6855 24.0241 15.8496 24.4434 16.1777 24.7715C16.5059 25.0996 16.9251 25.2637 17.4355 25.2637H29.6309C30.1413 25.2637 30.5605 25.0996 30.8887 24.7715C31.2168 24.4434 31.3809 24.0241 31.3809 23.5137C31.3809 23.0033 31.2168 22.584 30.8887 22.2559C30.5605 21.9277 30.1413 21.7637 29.6309 21.7637ZM10.3809 17.1152L8.63086 19.0293V2.51367C8.63086 2.00326 8.4668 1.58398 8.13867 1.25586C7.81055 0.927734 7.39128 0.763672 6.88086 0.763672C6.37044 0.763672 5.95117 0.927734 5.62305 1.25586C5.29492 1.58398 5.13086 2.00326 5.13086 2.51367V19.0293L3.38086 17.1152C3.01628 16.7142 2.57878 16.5137 2.06836 16.5137C1.63086 16.5137 1.22982 16.6777 0.865234 17.0059C0.537109 17.334 0.354818 17.735 0.318359 18.209C0.281901 18.6829 0.427734 19.1022 0.755859 19.4668L5.56836 24.7168C5.89648 25.0814 6.31576 25.2637 6.82617 25.2637C7.33659 25.2637 7.77409 25.0814 8.13867 24.7168L12.8965 19.4668C13.2246 19.1022 13.3704 18.6829 13.334 18.209C13.334 17.735 13.1517 17.334 12.7871 17.0059C12.459 16.6777 12.0579 16.5137 11.584 16.5137C11.1465 16.5501 10.7454 16.7507 10.3809 17.1152Z" fill="black"/>
</svg>
